####
#
# OBJ File Generated by Meshlab
#
####
# Object closedslightlymoreflatnested.obj
#
# Vertices: 144
# Faces: 120
#
####
mtllib ./closedslightlymoreflatnested.obj.mtl

vn 0.448149 0.773514 -0.448149
v 0.353553 0.353553 0.353553
vn -0.363260 0.928919 0.071773
v -0.353553 0.353553 -0.353553
vn -0.327317 0.928141 0.177252
v -0.068186 0.432563 0.068186
vn -0.570284 0.645122 0.508520
v -0.432563 0.068186 0.068186
vn 0.031607 0.386424 0.921780
v -0.215238 0.215238 0.027472
vn -0.248482 0.719118 0.648942
v -0.215238 0.027472 0.215238
vn 0.070716 0.882671 0.464640
v -0.198090 0.101333 0.101333
vn -0.428753 0.829213 0.358577
v -0.101333 0.101333 0.198090
vn -0.386424 0.921780 -0.031607
v -0.140381 0.090521 0.140381
vn -0.719118 0.648942 0.248482
v -0.090521 0.140381 0.140381
vn -0.837529 0.546041 -0.019618
v -0.110134 0.110134 0.135827
vn -0.781996 0.440728 0.440728
v -0.110134 0.135827 0.110134
vn -0.773514 -0.448149 -0.448149
v -0.353553 0.353553 -0.353553
vn -0.928919 0.071773 0.363260
v -0.353553 -0.353553 0.353553
vn -0.928141 0.177252 0.327317
v -0.432563 0.068186 0.068186
vn -0.645122 0.508520 0.570284
v -0.068186 0.068186 0.432563
vn -0.386424 0.921780 -0.031607
v -0.215238 0.027472 0.215238
vn -0.719118 0.648942 0.248482
v -0.027472 0.215238 0.215238
vn -0.882671 0.464640 -0.070716
v -0.101333 0.101333 0.198090
vn -0.829213 0.358577 0.428753
v -0.101333 0.198090 0.101333
vn -0.921780 -0.031607 0.386424
v -0.090521 0.140381 0.140381
vn -0.648942 0.248482 0.719118
v -0.140381 0.140381 0.090521
vn -0.546041 -0.019618 0.837529
v -0.110134 0.135827 0.110134
vn -0.440728 0.440728 0.781996
v -0.135827 0.110134 0.110134
vn 0.448149 -0.448149 0.773514
v -0.353553 -0.353553 0.353553
vn -0.071773 0.363260 0.928919
v 0.353553 0.353553 0.353553
vn -0.177252 0.327317 0.928141
v -0.068186 0.068186 0.432563
vn -0.508520 0.570284 0.645122
v -0.068186 0.432563 0.068186
vn -0.921780 -0.031607 0.386424
v -0.027472 0.215238 0.215238
vn -0.648942 0.248482 0.719118
v -0.215238 0.215238 0.027472
vn -0.464640 -0.070716 0.882671
v -0.101333 0.198090 0.101333
vn -0.358577 0.428753 0.829213
v -0.198090 0.101333 0.101333
vn 0.031607 0.386424 0.921780
v -0.140381 0.140381 0.090521
vn -0.248482 0.719118 0.648942
v -0.140381 0.090521 0.140381
vn 0.019618 0.837529 0.546041
v -0.135827 0.110134 0.110134
vn -0.440728 0.781996 0.440728
v -0.110134 0.110134 0.135827
vn -0.448149 0.448149 0.773514
v 0.353553 0.353553 0.353553
vn 0.071773 -0.363260 0.928919
v -0.353553 -0.353553 0.353553
vn 0.177252 -0.327317 0.928141
v 0.068186 -0.068186 0.432563
vn 0.508520 -0.570284 0.645122
v 0.068186 -0.432563 0.068186
vn 0.921780 0.031607 0.386424
v 0.027472 -0.215238 0.215238
vn 0.648942 -0.248482 0.719118
v 0.215238 -0.215238 0.027472
vn 0.464640 0.070716 0.882671
v 0.101333 -0.198090 0.101333
vn 0.358577 -0.428753 0.829213
v 0.198090 -0.101333 0.101333
vn -0.031607 -0.386424 0.921780
v 0.140381 -0.140381 0.090521
vn 0.248482 -0.719118 0.648942
v 0.140381 -0.090521 0.140381
vn -0.019618 -0.837529 0.546041
v 0.135827 -0.110134 0.110134
vn 0.440728 -0.781996 0.440728
v 0.110134 -0.110134 0.135827
vn -0.448149 -0.773514 -0.448149
v -0.353553 -0.353553 0.353553
vn 0.363260 -0.928919 0.071773
v 0.353553 -0.353553 -0.353553
vn 0.327317 -0.928141 0.177252
v 0.068186 -0.432563 0.068186
vn 0.570284 -0.645122 0.508520
v 0.432563 -0.068186 0.068186
vn -0.031607 -0.386424 0.921780
v 0.215238 -0.215238 0.027472
vn 0.248482 -0.719118 0.648942
v 0.215238 -0.027472 0.215238
vn -0.070716 -0.882671 0.464640
v 0.198090 -0.101333 0.101333
vn 0.428753 -0.829213 0.358577
v 0.101333 -0.101333 0.198090
vn 0.386424 -0.921780 -0.031607
v 0.140381 -0.090521 0.140381
vn 0.719118 -0.648942 0.248482
v 0.090521 -0.140381 0.140381
vn 0.837529 -0.546041 -0.019618
v 0.110134 -0.110134 0.135827
vn 0.781996 -0.440728 0.440728
v 0.110134 -0.135827 0.110134
vn 0.773514 0.448149 -0.448149
v 0.353553 -0.353553 -0.353553
vn 0.928919 -0.071773 0.363260
v 0.353553 0.353553 0.353553
vn 0.928141 -0.177252 0.327317
v 0.432563 -0.068186 0.068186
vn 0.645122 -0.508520 0.570284
v 0.068186 -0.068186 0.432563
vn 0.386424 -0.921780 -0.031607
v 0.215238 -0.027472 0.215238
vn 0.719118 -0.648942 0.248482
v 0.027472 -0.215238 0.215238
vn 0.882671 -0.464640 -0.070716
v 0.101333 -0.101333 0.198090
vn 0.829213 -0.358577 0.428753
v 0.101333 -0.198090 0.101333
vn 0.921780 0.031607 0.386424
v 0.090521 -0.140381 0.140381
vn 0.648942 -0.248482 0.719118
v 0.140381 -0.140381 0.090521
vn 0.546041 0.019618 0.837529
v 0.110134 -0.135827 0.110134
vn 0.440728 -0.440728 0.781996
v 0.135827 -0.110134 0.110134
vn -0.448149 -0.448149 -0.773514
v 0.353553 -0.353553 -0.353553
vn 0.071773 0.363260 -0.928919
v -0.353553 0.353553 -0.353553
vn 0.177252 0.327317 -0.928141
v 0.068186 0.068186 -0.432563
vn 0.508520 0.570284 -0.645122
v 0.068186 0.432563 -0.068186
vn 0.921780 -0.031607 -0.386424
v 0.027472 0.215238 -0.215238
vn 0.648942 0.248482 -0.719118
v 0.215238 0.215238 -0.027472
vn 0.464640 -0.070716 -0.882671
v 0.101333 0.198090 -0.101333
vn 0.358577 0.428753 -0.829213
v 0.198090 0.101333 -0.101333
vn -0.031607 0.386424 -0.921780
v 0.140381 0.140381 -0.090521
vn 0.248482 0.719118 -0.648942
v 0.140381 0.090521 -0.140381
vn -0.019618 0.837529 -0.546041
v 0.135827 0.110134 -0.110134
vn 0.440728 0.781996 -0.440728
v 0.110134 0.110134 -0.135827
vn -0.448149 0.773514 0.448149
v -0.353553 0.353553 -0.353553
vn 0.363260 0.928919 -0.071773
v 0.353553 0.353553 0.353553
vn 0.327317 0.928141 -0.177252
v 0.068186 0.432563 -0.068186
vn 0.570284 0.645122 -0.508520
v 0.432563 0.068186 -0.068186
vn -0.031607 0.386424 -0.921780
v 0.215238 0.215238 -0.027472
vn 0.248482 0.719118 -0.648942
v 0.215238 0.027472 -0.215238
vn -0.070716 0.882671 -0.464640
v 0.198090 0.101333 -0.101333
vn 0.428753 0.829213 -0.358577
v 0.101333 0.101333 -0.198090
vn 0.386424 0.921780 0.031607
v 0.140381 0.090521 -0.140381
vn 0.719118 0.648942 -0.248482
v 0.090521 0.140381 -0.140381
vn 0.837529 0.546041 0.019618
v 0.110134 0.110134 -0.135827
vn 0.781996 0.440728 -0.440728
v 0.110134 0.135827 -0.110134
vn 0.773514 -0.448149 0.448149
v 0.353553 0.353553 0.353553
vn 0.928919 0.071773 -0.363260
v 0.353553 -0.353553 -0.353553
vn 0.928141 0.177252 -0.327317
v 0.432563 0.068186 -0.068186
vn 0.645122 0.508520 -0.570284
v 0.068186 0.068186 -0.432563
vn 0.386424 0.921780 0.031607
v 0.215238 0.027472 -0.215238
vn 0.719118 0.648942 -0.248482
v 0.027472 0.215238 -0.215238
vn 0.882671 0.464640 0.070716
v 0.101333 0.101333 -0.198090
vn 0.829213 0.358577 -0.428753
v 0.101333 0.198090 -0.101333
vn 0.921780 -0.031607 -0.386424
v 0.090521 0.140381 -0.140381
vn 0.648942 0.248482 -0.719118
v 0.140381 0.140381 -0.090521
vn 0.546041 -0.019618 -0.837529
v 0.110134 0.135827 -0.110134
vn 0.440728 0.440728 -0.781996
v 0.135827 0.110134 -0.110134
vn 0.448149 0.448149 -0.773514
v -0.353553 0.353553 -0.353553
vn -0.071773 -0.363260 -0.928919
v 0.353553 -0.353553 -0.353553
vn -0.177252 -0.327317 -0.928141
v -0.068186 -0.068186 -0.432563
vn -0.508520 -0.570284 -0.645122
v -0.068186 -0.432563 -0.068186
vn -0.921780 0.031607 -0.386424
v -0.027472 -0.215238 -0.215238
vn -0.648942 -0.248482 -0.719118
v -0.215238 -0.215238 -0.027472
vn -0.464640 0.070716 -0.882671
v -0.101333 -0.198090 -0.101333
vn -0.358577 -0.428753 -0.829213
v -0.198090 -0.101333 -0.101333
vn 0.031607 -0.386424 -0.921780
v -0.140381 -0.140381 -0.090521
vn -0.248482 -0.719118 -0.648942
v -0.140381 -0.090521 -0.140381
vn 0.019618 -0.837529 -0.546041
v -0.135827 -0.110134 -0.110134
vn -0.440728 -0.781996 -0.440728
v -0.110134 -0.110134 -0.135827
vn 0.448149 -0.773514 0.448149
v 0.353553 -0.353553 -0.353553
vn -0.363260 -0.928919 -0.071773
v -0.353553 -0.353553 0.353553
vn -0.327317 -0.928141 -0.177252
v -0.068186 -0.432563 -0.068186
vn -0.570284 -0.645122 -0.508520
v -0.432563 -0.068186 -0.068186
vn 0.031607 -0.386424 -0.921780
v -0.215238 -0.215238 -0.027472
vn -0.248482 -0.719118 -0.648942
v -0.215238 -0.027472 -0.215238
vn 0.070716 -0.882671 -0.464640
v -0.198090 -0.101333 -0.101333
vn -0.428753 -0.829213 -0.358577
v -0.101333 -0.101333 -0.198090
vn -0.386424 -0.921780 0.031607
v -0.140381 -0.090521 -0.140381
vn -0.719118 -0.648942 -0.248482
v -0.090521 -0.140381 -0.140381
vn -0.837529 -0.546041 0.019618
v -0.110134 -0.110134 -0.135827
vn -0.781996 -0.440728 -0.440728
v -0.110134 -0.135827 -0.110134
vn -0.773514 0.448149 0.448149
v -0.353553 -0.353553 0.353553
vn -0.928919 -0.071773 -0.363260
v -0.353553 0.353553 -0.353553
vn -0.928141 -0.177252 -0.327317
v -0.432563 -0.068186 -0.068186
vn -0.645122 -0.508520 -0.570284
v -0.068186 -0.068186 -0.432563
vn -0.386424 -0.921780 0.031607
v -0.215238 -0.027472 -0.215238
vn -0.719118 -0.648942 -0.248482
v -0.027472 -0.215238 -0.215238
vn -0.882671 -0.464640 0.070716
v -0.101333 -0.101333 -0.198090
vn -0.829213 -0.358577 -0.428753
v -0.101333 -0.198090 -0.101333
vn -0.921780 0.031607 -0.386424
v -0.090521 -0.140381 -0.140381
vn -0.648942 -0.248482 -0.719118
v -0.140381 -0.140381 -0.090521
vn -0.546041 0.019618 -0.837529
v -0.110134 -0.135827 -0.110134
vn -0.440728 -0.440728 -0.781996
v -0.135827 -0.110134 -0.110134
# 144 vertices, 0 vertices normals


usemtl material_0
f 1//1 2//2 3//3
f 2//2 4//4 3//3
f 3//3 4//4 5//5
f 4//4 6//6 5//5
f 5//5 6//6 7//7
f 6//6 8//8 7//7
f 7//7 8//8 9//9
f 8//8 10//10 9//9
f 9//9 10//10 11//11
f 10//10 12//12 11//11

usemtl material_1
f 13//13 14//14 15//15
f 14//14 16//16 15//15
f 15//15 16//16 17//17
f 16//16 18//18 17//17
f 17//17 18//18 19//19
f 18//18 20//20 19//19
f 19//19 20//20 21//21
f 20//20 22//22 21//21
f 21//21 22//22 23//23
f 22//22 24//24 23//23

usemtl material_2
f 25//25 26//26 27//27
f 26//26 28//28 27//27
f 27//27 28//28 29//29
f 28//28 30//30 29//29
f 29//29 30//30 31//31
f 30//30 32//32 31//31
f 31//31 32//32 33//33
f 32//32 34//34 33//33
f 33//33 34//34 35//35
f 34//34 36//36 35//35
f 37//37 38//38 39//39
f 38//38 40//40 39//39
f 39//39 40//40 41//41
f 40//40 42//42 41//41
f 41//41 42//42 43//43
f 42//42 44//44 43//43
f 43//43 44//44 45//45
f 44//44 46//46 45//45
f 45//45 46//46 47//47
f 46//46 48//48 47//47

usemtl material_0
f 49//49 50//50 51//51
f 50//50 52//52 51//51
f 51//51 52//52 53//53
f 52//52 54//54 53//53
f 53//53 54//54 55//55
f 54//54 56//56 55//55
f 55//55 56//56 57//57
f 56//56 58//58 57//57
f 57//57 58//58 59//59
f 58//58 60//60 59//59

usemtl material_1
f 61//61 62//62 63//63
f 62//62 64//64 63//63
f 63//63 64//64 65//65
f 64//64 66//66 65//65
f 65//65 66//66 67//67
f 66//66 68//68 67//67
f 67//67 68//68 69//69
f 68//68 70//70 69//69
f 69//69 70//70 71//71
f 70//70 72//72 71//71

usemtl material_2
f 73//73 74//74 75//75
f 74//74 76//76 75//75
f 75//75 76//76 77//77
f 76//76 78//78 77//77
f 77//77 78//78 79//79
f 78//78 80//80 79//79
f 79//79 80//80 81//81
f 80//80 82//82 81//81
f 81//81 82//82 83//83
f 82//82 84//84 83//83

usemtl material_0
f 85//85 86//86 87//87
f 86//86 88//88 87//87
f 87//87 88//88 89//89
f 88//88 90//90 89//89
f 89//89 90//90 91//91
f 90//90 92//92 91//91
f 91//91 92//92 93//93
f 92//92 94//94 93//93
f 93//93 94//94 95//95
f 94//94 96//96 95//95

usemtl material_1
f 97//97 98//98 99//99
f 98//98 100//100 99//99
f 99//99 100//100 101//101
f 100//100 102//102 101//101
f 101//101 102//102 103//103
f 102//102 104//104 103//103
f 103//103 104//104 105//105
f 104//104 106//106 105//105
f 105//105 106//106 107//107
f 106//106 108//108 107//107

usemtl material_2
f 109//109 110//110 111//111
f 110//110 112//112 111//111
f 111//111 112//112 113//113
f 112//112 114//114 113//113
f 113//113 114//114 115//115
f 114//114 116//116 115//115
f 115//115 116//116 117//117
f 116//116 118//118 117//117
f 117//117 118//118 119//119
f 118//118 120//120 119//119

usemtl material_0
f 121//121 122//122 123//123
f 122//122 124//124 123//123
f 123//123 124//124 125//125
f 124//124 126//126 125//125
f 125//125 126//126 127//127
f 126//126 128//128 127//127
f 127//127 128//128 129//129
f 128//128 130//130 129//129
f 129//129 130//130 131//131
f 130//130 132//132 131//131

usemtl material_1
f 133//133 134//134 135//135
f 134//134 136//136 135//135
f 135//135 136//136 137//137
f 136//136 138//138 137//137
f 137//137 138//138 139//139
f 138//138 140//140 139//139
f 139//139 140//140 141//141
f 140//140 142//142 141//141
f 141//141 142//142 143//143
f 142//142 144//144 143//143
# 120 faces, 0 coords texture

# End of File