<?xml version="1.0" encoding="utf-8"?>
<!-- Generator: Adobe Illustrator 26.3.1, SVG Export Plug-In . SVG Version: 6.00 Build 0)  -->
<svg version="1.1" id="Layer_1" xmlns="http://www.w3.org/2000/svg" xmlns:xlink="http://www.w3.org/1999/xlink" x="0px" y="0px"
	 viewBox="0 0 25.795 33.802" enable-background="new 0 0 25.795 33.802" xml:space="preserve">
<polygon fill="#3CB4E5" points="24.938,6.276 19.604,27.907 13.424,32.714 4.893,32.714 5.744,33.802 14.28,33.802 20.46,28.994 
	25.795,7.358 "/>
<polygon fill="#3CB4E5" points="11.109,13.4 12.235,13.4 13.662,7.615 16.461,7.615 16.73,6.527 12.804,6.527 "/>
<polygon fill="#3CB4E5" points="7.692,19.931 8.594,21.018 13.156,21.018 13.425,19.931 "/>
<polygon fill="#3CB4E5" points="8.417,24.309 7.956,26.187 9.081,26.187 9.278,25.388 8.42,24.3 8.42,24.301 8.42,24.301 "/>
<polygon points="6.432,26.187 7.956,26.187 8.417,24.309 8.42,24.301 8.42,24.301 8.412,24.301 7.255,22.85 7.254,22.851 
	7.254,22.851 "/>
<polygon points="12.804,6.527 16.73,6.527 17.087,5.078 11.638,5.078 9.585,13.4 11.109,13.4 "/>
<polygon points="19.604,27.907 24.938,6.276 24.939,6.273 21.823,2.342 23.775,4.807 18.436,26.456 12.256,31.265 3.76,31.265 
	1.145,27.922 1.145,27.923 4.893,32.714 4.893,32.714 13.424,32.714 "/>
<polygon points="13.782,18.481 6.49,18.481 7.485,19.681 7.692,19.931 7.692,19.931 13.425,19.931 "/>
<path fill="#DF3FAF" d="M12.256,31.265l6.18-4.809l5.339-21.649l-1.952-2.465L19.969,0h-8.644L5.342,4.797l-2.339,9.482l2.042,2.462
	l0.37,0.445l1.074,1.294h0H6.49h7.292l-0.357,1.45l-0.268,1.087l-1.274,5.169H9.081H7.956H6.432l0.822-3.336h0H0.89L0,26.458
	l1.145,1.464l2.615,3.343H12.256z M11.638,5.078h5.449L16.73,6.527l-0.268,1.088L15.035,13.4h-2.8h-1.125H9.585L11.638,5.078z"/>
</svg>
