<?xml version="1.0" encoding="utf-8"?>
<!-- Generator: Adobe Illustrator 26.3.1, SVG Export Plug-In . SVG Version: 6.00 Build 0)  -->
<svg version="1.1" id="Layer_1" xmlns="http://www.w3.org/2000/svg" xmlns:xlink="http://www.w3.org/1999/xlink" x="0px" y="0px"
	 viewBox="0 0 26.067 33.803" enable-background="new 0 0 26.067 33.803" xml:space="preserve">
<polygon fill="#3CB4E5" points="25.18,6.212 25.179,6.212 25.2,6.238 19.854,27.915 13.871,32.714 5.02,32.714 4.83,32.477 
	5.892,33.803 14.73,33.803 20.712,29.004 26.068,7.283 "/>
<polygon fill="#3CB4E5" points="8.212,26.185 9.337,26.185 13.917,7.617 16.716,7.617 16.985,6.527 13.059,6.527 "/>
<polygon points="1.165,27.909 2.904,30.077 1.165,27.909 "/>
<polygon points="13.059,6.527 16.985,6.527 17.342,5.079 11.892,5.079 6.688,26.185 8.212,26.185 "/>
<polygon points="13.871,32.714 19.854,27.915 25.2,6.238 25.179,6.212 24.026,4.822 24.008,4.896 18.688,26.467 12.705,31.266 
	3.859,31.266 3.858,31.266 4.83,32.477 5.02,32.714 "/>
<path fill="#DF3FAF" d="M12.705,31.266l5.983-4.799l5.32-21.571l0.018-0.073l0.001-0.003L20.026,0h-8.459l-6.23,4.811L0,26.456
	l1.165,1.453l1.739,2.168l0.954,1.189h0h0.001H12.705z M11.892,5.079h5.45l-0.357,1.448l-0.269,1.089l-4.579,18.568h-2.8H8.212
	H6.688L11.892,5.079z"/>
</svg>
