<?xml version="1.0" encoding="utf-8"?>
<!-- Generator: Adobe Illustrator 14.0.0, SVG Export Plug-In . SVG Version: 6.00 Build 43363)  -->
<!DOCTYPE svg PUBLIC "-//W3C//DTD SVG 1.0//EN" "http://www.w3.org/TR/2001/REC-SVG-20010904/DTD/svg10.dtd">
<svg version="1.0" id="Layer_1" xmlns="http://www.w3.org/2000/svg" xmlns:xlink="http://www.w3.org/1999/xlink" x="0px" y="0px"
	 width="100px" height="56.765px" viewBox="0 0 100 56.765" enable-background="new 0 0 100 56.765" xml:space="preserve">
<path d="M81.729,20.231c-3.268,0-6.331,0.861-8.984,2.365l-6.078-9.272l1.912-3.769h3.035c0.824,0,2.104-0.652,2.104-2.138
	c-0.269-2.368-2.349-2.47-5.647-1.186c-5.413,0-8.169,0.574-8.169,3.324h6.216l-1.055,2.076h-30.01
	c0.901-2.181,1.759-4.389,2.549-6.634c-1.556,0-3.31-0.096-3.31-1.357c0-1.232,1.088-1.403,1.898-1.446h10.794V0.001H36.191
	c-2.305-0.031-4.167,0.931-4.167,3.119c0,1.625,0.576,3.098,2.894,3.719c-2.913,7.291-5.388,12.082-7.176,16.045
	c-2.764-1.682-6.006-2.652-9.478-2.652C8.175,20.231,0,28.413,0,38.502C0,48.59,8.175,56.765,18.264,56.765
	c10.088,0,18.27-8.175,18.27-18.263c0-5.851-2.752-11.055-7.031-14.399c1.371-2.97,2.739-5.946,4.05-8.95l13.699,19.244
	c-1.333,1.204-2.172,2.949-2.172,4.887c0,3.38,2.551,6.166,5.832,6.537v2.652H49.15v1.775h5.017v-1.775h-1.762V45.82
	c3.281-0.371,5.832-3.157,5.832-6.537c0-0.037,0.001-0.073,0-0.11h5.243c0.353,9.777,8.386,17.592,18.249,17.592
	C91.818,56.765,100,48.59,100,38.502C100,28.413,91.818,20.231,81.729,20.231z M33.546,38.502c0,8.437-6.846,15.275-15.282,15.275
	c-8.437,0-15.276-6.839-15.276-15.275c0-8.438,6.839-15.276,15.276-15.276c3.027,0,5.849,0.886,8.224,2.405
	c-1.058,2.291-2.046,4.386-3.091,6.648c-0.004,0.009-0.01,0.018-0.014,0.027c-1.039,1.766-2.397,3.047-3.776,4.174
	c-0.385-0.257-0.846-0.412-1.343-0.412c-1.341,0-2.426,1.092-2.426,2.434c0,1.34,1.085,2.426,2.426,2.426
	c1.341,0,2.433-1.086,2.433-2.426c0-0.023-0.006-0.047-0.007-0.068c1.587-1.266,3.32-2.828,4.64-5.113l0.027-0.048l0.021-0.041
	c0.918-2.121,1.869-4.222,2.83-6.318C31.471,29.714,33.546,33.864,33.546,38.502z M72.89,26.049l7.072,10.793
	c-0.154,0.165-0.287,0.353-0.391,0.556H66.502C66.837,32.713,69.277,28.618,72.89,26.049z M34.485,13.405h29.68L54.133,33.184
	c-0.543-0.221-1.124-0.37-1.728-0.438v-2.652h1.762v-1.775H49.15v1.775h1.761v2.652c-0.78,0.088-1.519,0.32-2.193,0.658
	L34.485,13.405z M51.658,44.607c-2.941,0-5.325-2.383-5.325-5.324c0-2.942,2.384-5.325,5.325-5.325c2.941,0,5.325,2.383,5.325,5.325
	C56.983,42.225,54.6,44.607,51.658,44.607z M57.963,37.398c-0.356-1.195-1.047-2.253-1.96-3.057l9.738-19.196l5.503,8.395
	c-4.421,3.107-7.402,8.128-7.743,13.857H57.963z M81.729,53.777c-8.212,0-14.904-6.479-15.255-14.604h12.925
	c0.293,1.013,1.224,1.755,2.33,1.755c1.341,0,2.433-1.086,2.433-2.426c0-1.342-1.092-2.434-2.433-2.434
	c-0.051,0-0.101,0.004-0.15,0.008L74.39,25.104c2.178-1.195,4.681-1.877,7.34-1.877c8.438,0,15.282,6.838,15.282,15.276
	C97.012,46.938,90.167,53.777,81.729,53.777z"/>
<path d="M51.658,34.424c-2.682,0-4.858,2.177-4.858,4.859c0,2.682,2.177,4.858,4.858,4.858s4.853-2.177,4.853-4.858
	C56.511,36.601,54.34,34.424,51.658,34.424z M51.658,40.112c-0.459,0-0.836-0.37-0.836-0.829c0-0.46,0.377-0.829,0.836-0.829
	c0.46,0,0.829,0.369,0.829,0.829C52.487,39.742,52.118,40.112,51.658,40.112z"/>
</svg>
