<?xml version="1.0" encoding="utf-8"?>
<!-- Generator: Adobe Illustrator 15.0.0, SVG Export Plug-In . SVG Version: 6.00 Build 0)  -->
<!DOCTYPE svg PUBLIC "-//W3C//DTD SVG 1.1//EN" "http://www.w3.org/Graphics/SVG/1.1/DTD/svg11.dtd">
<svg version="1.1" id="Layer_1" xmlns="http://www.w3.org/2000/svg" xmlns:xlink="http://www.w3.org/1999/xlink" x="0px" y="0px"
	 width="595.28px" height="841.89px" viewBox="0 0 595.28 841.89" enable-background="new 0 0 595.28 841.89" xml:space="preserve">
<g>
	<g>
		<path fill="#010101" d="M315.318,511.128H281.76v-29.403c-27.324-5.348-48.113-32.67-48.113-62.668
			c0-29.402,20.492-56.131,48.113-61.775v-27.322h33.559v27.322c15.148,5.049,21.088,8.316,29.107,16.633
			c8.611,8.91,13.957,19.008,16.037,29.105h-37.719c-4.455-7.426-14.553-12.475-24.947-12.475
			c-16.037,0-28.809,12.771-28.809,29.404c0,16.631,12.771,29.402,29.402,29.402c8.613,0,13.959-2.377,22.869-10.693h39.203
			c-4.455,10.693-9.801,19.604-16.336,26.434c-7.721,8.316-15.443,12.771-28.809,16.633V511.128z"/>
	</g>
	<g>
		<path fill="#010101" d="M159.5,420.543c0,76.37,62.131,138.501,138.5,138.501s138.5-62.131,138.5-138.501
			c0-76.369-62.131-138.5-138.5-138.5S159.5,344.174,159.5,420.543z M193.5,420.543c0-57.621,46.879-104.5,104.5-104.5
			s104.5,46.879,104.5,104.5S355.621,525.044,298,525.044S193.5,478.164,193.5,420.543z"/>
	</g>
</g>
</svg>
