<svg version="1.1" id="Layer_1" xmlns="http://www.w3.org/2000/svg" xmlns:xlink="http://www.w3.org/1999/xlink" x="0px" y="0px"
	 width="112.043px" height="85.961px" viewBox="0 0 112.043 85.961" enable-background="new 0 0 112.043 85.961"
	 xml:space="preserve">
<g>
	<g>
		<g>
			<path fill="#231F20" d="M0,81.9c0-2.293,1.874-4.098,4.11-4.098c1.468,0,2.782,0.757,3.48,2.015c0.21,0.35,0.07,0.71-0.208,0.838
				c-0.268,0.14-0.63,0.07-0.77-0.21C6.066,79.538,5.146,78.99,4.11,78.99c-1.595,0-2.922,1.316-2.922,2.91
				c0,1.608,1.327,2.865,2.922,2.865c0.967,0,1.886-0.49,2.433-1.327c0.14-0.28,0.57-0.35,0.77-0.14
				c0.278,0.14,0.418,0.5,0.208,0.768c-0.76,1.188-2.01,1.886-3.41,1.886C1.88,85.952,0,84.136,0,81.9z M18.226,85.94
				c-0.268,0.06-0.628-0.07-0.768-0.42l-0.42-1.187h-2.84l-0.49,1.188c-0.058,0.27-0.28,0.42-0.56,0.42h-0.126
				c-0.35-0.15-0.49-0.48-0.42-0.76l2.492-6.94c0.07-0.22,0.28-0.42,0.57-0.42c0.28,0,0.478,0.2,0.548,0.42l2.364,6.94
				c0.127,0.28,0,0.62-0.35,0.77V85.94z M16.689,83.16l-1.03-2.982l-1.05,2.98h2.07L16.689,83.16z M23.209,81.9
				c0-2.293,1.87-4.098,4.11-4.098c1.47,0,2.78,0.757,3.48,2.015c0.21,0.35,0.07,0.71-0.21,0.838c-0.27,0.14-0.63,0.07-0.77-0.21
				c-0.55-0.907-1.47-1.455-2.5-1.455c-1.6,0-2.92,1.316-2.92,2.91c0,1.608,1.32,2.865,2.92,2.865c0.96,0,1.88-0.49,2.43-1.327
				c0.14-0.28,0.57-0.35,0.77-0.14c0.28,0.14,0.42,0.5,0.21,0.768c-0.77,1.188-2.02,1.886-3.41,1.886
				C25.079,85.952,23.209,84.136,23.209,81.9z M42.159,78.408v6.963c0,0.33-0.27,0.59-0.58,0.59c-0.33,0-0.59-0.25-0.59-0.58V82.5
				H37.4v2.875c0,0.326-0.268,0.583-0.582,0.583c-0.325,0-0.582-0.256-0.582-0.582V78.41c0-0.314,0.256-0.582,0.582-0.582
				c0.314,0,0.582,0.268,0.582,0.582v2.923h3.598V78.41c0-0.314,0.256-0.582,0.582-0.582c0.314,0,0.582,0.268,0.582,0.582
				L42.159,78.408z M63.439,78.396c0,0.326-0.27,0.582-0.59,0.582h-3.47v2.34h2.64c0.31,0,0.58,0.256,0.58,0.582
				c0,0.326-0.27,0.583-0.58,0.583h-2.64v2.875c0,0.326-0.27,0.583-0.59,0.583c-0.33,0-0.59-0.25-0.59-0.58V78.4
				c0-0.326,0.25-0.582,0.58-0.582h4.05c0.31,0,0.58,0.256,0.58,0.582L63.439,78.396z M74,85.37c0,0.325-0.268,0.582-0.582,0.582
				h-4.05c-0.326,0-0.583-0.256-0.583-0.582v-6.963c0-0.325,0.254-0.582,0.58-0.582c0.315,0,0.583,0.256,0.583,0.582v6.38h3.47
				c0.315,0,0.58,0.257,0.58,0.583H74z M78.07,81.843c0-2.19,1.782-4.028,4.028-4.028s4.03,1.84,4.03,4.028
				c0,2.247-1.78,4.098-4.027,4.098s-4.02-1.85-4.02-4.09L78.07,81.843z M79.2,81.843c0,1.653,1.303,2.968,2.898,2.968
				s2.91-1.31,2.91-2.96c0-1.59-1.314-2.9-2.91-2.9s-2.9,1.31-2.9,2.9L79.2,81.843z M101.162,78.547l-2.69,7.02
				c-0.092,0.234-0.314,0.385-0.547,0.385h-0.01c-0.247,0-0.47-0.163-0.55-0.384l-1.27-3.272l-1.29,3.272
				c-0.094,0.233-0.315,0.384-0.548,0.384h-0.01c-0.246,0-0.468-0.163-0.55-0.384l-2.607-6.974c-0.117-0.303,0.035-0.64,0.338-0.745
				c0.304-0.12,0.63,0.03,0.746,0.33l2.085,5.56l1.29-3.27c0.09-0.24,0.31-0.39,0.54-0.38c0.24-0.01,0.46,0.14,0.55,0.37l1.28,3.27
				l2.15-5.61c0.11-0.31,0.44-0.46,0.74-0.34c0.3,0.1,0.45,0.44,0.34,0.74L101.162,78.547z"/>
		</g>
		<path fill="#231F20" d="M48.05,77.826h4.4c0.314,0,0.57,0.256,0.57,0.582c0,0.314-0.256,0.57-0.57,0.57h-4.4
			c-0.327,0-0.584-0.255-0.584-0.57C47.466,78.082,47.723,77.826,48.05,77.826L48.05,77.826z M48.05,81.306h4.4
			c0.314,0,0.57,0.257,0.57,0.583c0,0.31-0.256,0.57-0.57,0.57h-4.4c-0.327,0-0.584-0.26-0.584-0.57c0-0.33,0.257-0.59,0.583-0.59
			L48.05,81.306z M48.05,84.786h4.4c0.314,0,0.57,0.257,0.57,0.583c0,0.31-0.256,0.57-0.57,0.57h-4.4
			c-0.327,0-0.584-0.26-0.584-0.57c0-0.33,0.257-0.59,0.583-0.59L48.05,84.786z M107.073,77.826h4.4c0.315,0,0.57,0.256,0.57,0.582
			c0,0.314-0.255,0.57-0.57,0.57h-4.4c-0.326,0-0.583-0.255-0.583-0.57C106.49,78.082,106.747,77.826,107.073,77.826z
			 M107.073,81.306h4.4c0.315,0,0.57,0.257,0.57,0.583c0,0.31-0.255,0.57-0.57,0.57h-4.4c-0.326,0-0.583-0.26-0.583-0.57
			c0-0.33,0.257-0.59,0.583-0.59V81.306z M107.073,84.786h4.4c0.315,0,0.57,0.257,0.57,0.583c0,0.31-0.255,0.57-0.57,0.57h-4.4
			c-0.326,0-0.583-0.26-0.583-0.57c0-0.33,0.257-0.59,0.583-0.59V84.786z"/>
	</g>
</g>
<g>
	<path fill="#231F20" d="M70.34,36.264c0.018-0.013,0.04-0.02,0.057-0.032c-0.016,0.012-0.036,0.017-0.053,0.03
		C70.342,36.262,70.341,36.262,70.34,36.264z M75.63,34.167c0.025-0.018,0.055-0.027,0.08-0.046c-0.023,0.02-0.052,0.03-0.076,0.05
		c-0.002,0-0.004,0.01-0.005,0.01L75.63,34.167z M76.393,55.484c-0.034,0.13-0.063,0.264-0.11,0.39
		C76.33,55.748,76.359,55.614,76.393,55.484z M76.537,53.95c0.034,0.52-0.017,1.034-0.14,1.524
		C76.52,54.984,76.571,54.471,76.537,53.95L76.537,53.95z M73.095,15.07v0.002c-0.322-0.48-0.652-0.95-0.992-1.412
		C72.443,14.122,72.773,14.592,73.095,15.07z M74.26,16.862c-0.28-0.465-0.585-0.904-0.88-1.354c0,0,0,0.002,0.002,0.002
		c0.293,0.45,0.6,0.888,0.88,1.352H74.26z M78.336,33.072h0.003h-0.01H78.336z M71.786,13.24c-0.317-0.418-0.62-0.85-0.95-1.252
		c0.33,0.4,0.632,0.833,0.95,1.25v0.003V13.24z M43.806,15.056c-0.14,0.194-0.27,0.396-0.403,0.6
		c-0.195,0.306-0.382,0.623-0.56,0.952c-0.117,0.22-0.235,0.44-0.345,0.67c-0.168,0.352-0.32,0.72-0.468,1.092
		c-0.092,0.234-0.19,0.464-0.273,0.707c-0.146,0.423-0.27,0.868-0.39,1.316c-0.058,0.22-0.126,0.428-0.178,0.654
		c-0.16,0.686-0.29,1.395-0.39,2.135C39.55,34.26,46,47.358,55.07,52.18c0.43,0.23,0.86,0.43,1.29,0.615
		c0.13,0.056,0.26,0.106,0.39,0.158c0.305,0.122,0.61,0.235,0.91,0.335c0.14,0.047,0.283,0.093,0.423,0.135
		c0.32,0.096,0.64,0.178,0.956,0.25c0.1,0.022,0.2,0.05,0.31,0.072c0.21,0.043,0.43,0.065,0.64,0.097
		c0.24-0.332,0.53-0.56,0.86-0.686c0.14-0.053,0.29-0.09,0.44-0.108c0.03-0.004,0.06,0,0.1-0.004c0.12-0.01,0.25-0.008,0.37,0.004
		c0.05,0.005,0.1,0.013,0.15,0.022c0.11,0.02,0.23,0.046,0.35,0.08c0.05,0.016,0.1,0.028,0.15,0.046
		c0.16,0.058,0.33,0.127,0.49,0.214c0.28,0.15,0.56,0.34,0.82,0.568s0.52,0.493,0.75,0.79c0.18,0.22,0.35,0.455,0.51,0.706
		c0.15,0.25,0.29,0.515,0.4,0.79c0.26,0.617,0.42,1.283,0.47,1.945c0.04,0.66-0.04,1.32-0.25,1.92c-0.15,0.4-0.36,0.78-0.64,1.11
		c-0.41,0.53-0.84,1.01-1.28,1.48c-0.12,0.12-0.24,0.24-0.37,0.36c-0.38,0.38-0.78,0.73-1.19,1.06c-0.08,0.06-0.15,0.13-0.23,0.19
		c-0.49,0.37-0.99,0.7-1.5,1l-0.39,0.21c-0.43,0.23-0.86,0.44-1.31,0.63c-0.09,0.03-0.17,0.08-0.25,0.12l2.63-1.03
		c0.1-0.05,0.2-0.11,0.31-0.15c1.13-0.48,2.2-1.1,3.2-1.87c0-0.01,0.01-0.01,0.01-0.01c0.08-0.06,0.16-0.13,0.23-0.2
		c0.41-0.33,0.81-0.68,1.2-1.06c0.12-0.12,0.24-0.24,0.36-0.37c0.44-0.46,0.87-0.95,1.27-1.48c0.28-0.34,0.49-0.71,0.63-1.12
		c0.22-0.61,0.3-1.26,0.25-1.93c-0.04-0.66-0.21-1.33-0.47-1.95c-0.11-0.28-0.25-0.54-0.4-0.79c-0.16-0.25-0.33-0.49-0.51-0.71
		c-0.24-0.3-0.49-0.56-0.76-0.79c-0.27-0.23-0.55-0.42-0.83-0.57c-0.17-0.09-0.33-0.16-0.5-0.22c-0.05-0.02-0.1-0.03-0.15-0.05
		c-0.12-0.03-0.23-0.06-0.35-0.08c-0.05-0.01-0.11-0.02-0.16-0.02c-0.13-0.01-0.26-0.01-0.38,0h-0.1c-0.15,0.02-0.3,0.06-0.44,0.11
		c-0.05,0.02-0.09,0.05-0.13,0.07l-1.44,0.57c-1.41-0.27-2.85-0.78-4.31-1.56c-9.07-4.82-15.52-17.92-14.27-28.99
		c0.36-2.87,1.23-5.32,2.45-7.31c-0.55-0.15-1.09-0.27-1.63-0.35c-0.16,0.18-0.31,0.36-0.45,0.56L43.806,15.056z"/>
	<path fill="#231F20" d="M72.042,48.786c0.123-0.01,0.25-0.008,0.377,0.004c0.05,0.005,0.1,0.013,0.15,0.022
		c0.11,0.02,0.23,0.046,0.35,0.08c0.05,0.016,0.1,0.028,0.15,0.046c0.16,0.058,0.33,0.127,0.49,0.214
		c0.28,0.15,0.56,0.34,0.82,0.568s0.52,0.493,0.75,0.79c0.18,0.22,0.35,0.455,0.51,0.706c0.15,0.25,0.29,0.515,0.4,0.79
		c0.26,0.617,0.42,1.283,0.46,1.945c0.03,0.52-0.02,1.04-0.14,1.53l-0.01,0.01c-0.04,0.13-0.06,0.27-0.11,0.39
		c-0.05,0.13-0.11,0.24-0.16,0.36l-0.04,0.08c-0.12,0.24-0.26,0.48-0.44,0.69c-0.4,0.53-0.84,1.02-1.28,1.48l-0.03,0.03
		c-1.52,1.59-3.25,2.77-5.14,3.54l2.55-1.01c2.48-0.98,4.7-2.68,6.51-5.07c1.49-1.8,0.99-4.74-0.5-6.48
		c-0.47-0.59-1.02-1.06-1.58-1.36c-0.73-0.38-1.47-0.49-2.1-0.24l-2.61,1.03c0.01,0,0.02,0,0.03-0.01c0.14-0.05,0.29-0.09,0.44-0.1
		h0.1L72.042,48.786z M81.714,27.226C78.777,16.34,71.896,7.058,63.516,2.602C58.01-0.325,52.608-0.71,48.09,1.082l-2.615,1.036
		c0.04-0.016,0.085-0.026,0.127-0.042c0.49-0.19,0.993-0.355,1.504-0.493c0.05-0.013,0.096-0.03,0.145-0.042
		c0.53-0.13,1.06-0.23,1.61-0.32c0.1-0.01,0.2-0.03,0.3-0.04c0.54-0.07,1.08-0.11,1.62-0.13h0.3c0.57,0,1.14,0.01,1.72,0.06
		l0.13,0.02c0.57,0.06,1.14,0.14,1.72,0.25c0.08,0.02,0.16,0.03,0.24,0.05c0.58,0.12,1.17,0.28,1.76,0.45l0.34,0.11
		c0.59,0.19,1.18,0.4,1.77,0.65c0.1,0.04,0.19,0.09,0.29,0.13c0.63,0.27,1.25,0.56,1.88,0.9c1.05,0.56,2.08,1.19,3.07,1.89
		s1.97,1.47,2.9,2.31c0.35,0.32,0.69,0.67,1.03,1c0.15,0.14,0.29,0.28,0.44,0.42c0.38,0.38,0.75,0.77,1.12,1.18
		c0.13,0.14,0.25,0.28,0.37,0.42c0.34,0.38,0.68,0.74,1.01,1.14c0.33,0.4,0.64,0.83,0.95,1.25c0.11,0.14,0.22,0.28,0.32,0.42
		c0.34,0.46,0.67,0.93,0.99,1.41c0.1,0.15,0.19,0.29,0.28,0.44c0.3,0.45,0.6,0.89,0.88,1.36c0.28,0.46,0.53,0.95,0.79,1.42
		c0.09,0.16,0.18,0.32,0.27,0.49c0.28,0.52,0.54,1.04,0.8,1.57c0.09,0.19,0.18,0.37,0.26,0.56c0.45,0.95,0.86,1.92,1.24,2.9
		l0.26,0.66c0.2,0.54,0.39,1.08,0.57,1.63l0.24,0.77c0.15,0.48,0.31,0.95,0.44,1.43c0.11,0.36,0.18,0.7,0.23,1.03
		c0.02,0.11,0.03,0.21,0.04,0.31c0.02,0.17,0.03,0.33,0.04,0.49v0.01c0,0.04,0.01,0.09,0.01,0.13c0,0.11,0,0.22-0.01,0.33
		c0,0.08-0.01,0.15-0.02,0.23l-0.01,0.16c0,0.04,0,0.09-0.01,0.13c-0.01,0.11-0.03,0.21-0.06,0.3l-0.03,0.12
		c-0.02,0.08-0.04,0.15-0.06,0.22l-0.03,0.11c-0.03,0.09-0.06,0.17-0.1,0.25l-0.03,0.06c-0.04,0.09-0.09,0.17-0.13,0.25
		c-0.01,0.03-0.02,0.06-0.04,0.08c-0.04,0.06-0.07,0.13-0.11,0.18c-0.01,0.01-0.02,0.01-0.02,0.02c-0.1,0.14-0.21,0.25-0.34,0.35
		l-0.01,0.02l-0.04,0.04c-0.13,0.1-0.27,0.19-0.43,0.25l2.59-1.02c1.3-0.51,2-2.43,1.23-5.07L81.714,27.226z M57.954,54.98
		c-0.407-0.04-0.82-0.104-1.233-0.187c-0.1-0.02-0.2-0.05-0.31-0.073c-0.31-0.07-0.63-0.153-0.95-0.25
		c-0.14-0.04-0.28-0.087-0.42-0.134c-0.3-0.1-0.6-0.213-0.91-0.335l-0.39-0.15c-0.43-0.18-0.86-0.38-1.29-0.61
		c-9.07-4.82-15.52-17.92-14.26-29c0.1-0.74,0.23-1.45,0.39-2.13c0.05-0.22,0.12-0.43,0.18-0.65c0.12-0.45,0.24-0.89,0.39-1.31
		c0.08-0.24,0.18-0.47,0.27-0.7c0.15-0.37,0.3-0.74,0.47-1.09c0.11-0.23,0.23-0.45,0.35-0.67c0.18-0.33,0.37-0.64,0.56-0.95
		c0.13-0.2,0.26-0.4,0.4-0.6c0.21-0.29,0.44-0.57,0.67-0.84c0.14-0.17,0.28-0.34,0.43-0.5c0.13-0.13,0.27-0.25,0.4-0.38
		c-0.51,0-1.02,0.02-1.52,0.08c-0.11,0.08-0.23,0.15-0.33,0.23c-0.14,0.12-0.28,0.25-0.42,0.38c-0.27,0.25-0.55,0.5-0.81,0.77
		c-0.15,0.16-0.29,0.34-0.43,0.51c-0.23,0.27-0.45,0.55-0.66,0.85c-0.14,0.19-0.27,0.39-0.4,0.6c-0.2,0.3-0.38,0.62-0.56,0.95
		c-0.12,0.22-0.24,0.44-0.35,0.67c-0.16,0.35-0.32,0.72-0.46,1.09c-0.09,0.23-0.19,0.46-0.27,0.71c-0.14,0.42-0.27,0.87-0.39,1.32
		c-0.05,0.22-0.12,0.43-0.17,0.66c-0.16,0.68-0.29,1.39-0.38,2.13c-1.09,9.69,3.7,20.93,10.99,26.82c1.05,0.84,2.14,1.57,3.27,2.17
		c0.11,0.06,0.21,0.1,0.32,0.15c0.33,0.16,0.66,0.33,0.98,0.47l0.02,0.01c0.2,0.09,0.4,0.16,0.61,0.24
		c0.22,0.09,0.45,0.17,0.67,0.25c0.23,0.08,0.47,0.15,0.7,0.21c0.19,0.06,0.38,0.11,0.56,0.15c0.26,0.06,0.51,0.11,0.76,0.15
		c0.16,0.03,0.31,0.05,0.47,0.07c0.28,0.04,0.55,0.07,0.82,0.09c0.11,0.01,0.22,0.01,0.33,0.01c0.59,0.03,1.17,0,1.73-0.06
		c0.41-0.3,0.81-0.64,1.2-1c-0.22,0-0.44-0.01-0.66-0.02l-0.27-0.02L57.954,54.98z"/>
	<path fill="#231F20" d="M53.033,55.623c0.188,0.052,0.376,0.103,0.563,0.146l-0.563-0.15V55.623z M54.353,55.923
		c0.154,0.026,0.31,0.05,0.463,0.07C54.662,55.973,54.506,55.949,54.353,55.923L54.353,55.923z M55.633,56.08
		c0.11,0.007,0.217,0.008,0.325,0.012C55.85,56.087,55.743,56.087,55.633,56.08L55.633,56.08z M51.038,54.924
		c-0.326-0.14-0.654-0.304-0.982-0.468c0.335,0.17,0.67,0.334,1.004,0.477L51.038,54.924L51.038,54.924z M51.663,55.17
		c0.224,0.085,0.448,0.172,0.67,0.246c-0.222-0.074-0.446-0.16-0.67-0.247V55.17z M68.243,51.276c0.283,0.15,0.56,0.342,0.83,0.57
		c0,0.002,0,0.002,0.002,0.003c0.266,0.22,0.52,0.49,0.757,0.79c0.186,0.21,0.357,0.45,0.51,0.7s0.29,0.51,0.405,0.79
		c0.11,0.26,0.196,0.53,0.27,0.8c0.01,0.03,0.015,0.06,0.024,0.1c0.07,0.25,0.11,0.5,0.14,0.76c0.01,0.03,0.01,0.05,0.02,0.08
		l0.03,0.19c0.04,0.5-0.01,1-0.13,1.48c0,0.02-0.01,0.05-0.02,0.07c-0.03,0.12-0.06,0.25-0.1,0.37s-0.1,0.23-0.15,0.34l-0.03,0.07
		c-0.12,0.25-0.26,0.49-0.44,0.7c-0.4,0.53-0.83,1.01-1.27,1.48c-0.02,0.03-0.05,0.06-0.08,0.08l-0.19,0.19l-0.09,0.09
		c-0.38,0.38-0.78,0.73-1.19,1.06c-0.08,0.06-0.15,0.13-0.23,0.19c-0.48,0.37-0.98,0.7-1.5,1l-0.07,0.04l-0.19,0.11l-0.12,0.07
		c-0.42,0.23-0.86,0.44-1.3,0.63c-0.08,0.03-0.16,0.08-0.25,0.12l2.62-1.04c0.05-0.02,0.1-0.05,0.15-0.07
		c0.62-0.25,1.22-0.55,1.81-0.9l0.08-0.04c0.51-0.31,1.02-0.64,1.5-1.01c0.08-0.06,0.15-0.13,0.23-0.19
		c0.41-0.33,0.81-0.69,1.19-1.07c0.13-0.12,0.25-0.24,0.37-0.37c0.44-0.46,0.87-0.95,1.28-1.48c0.28-0.33,0.49-0.71,0.64-1.11
		c0.22-0.61,0.3-1.27,0.26-1.93c-0.05-0.66-0.21-1.33-0.47-1.94c-0.12-0.28-0.25-0.54-0.41-0.79c-0.15-0.25-0.32-0.49-0.51-0.71
		c-0.23-0.3-0.49-0.56-0.75-0.79c-0.27-0.23-0.55-0.42-0.83-0.57c-0.16-0.09-0.33-0.15-0.49-0.21c-0.05-0.02-0.1-0.03-0.15-0.05
		c-0.12-0.04-0.23-0.06-0.35-0.08l-0.16-0.03c-0.13-0.01-0.25-0.01-0.37,0h-0.09c-0.15,0.01-0.3,0.05-0.44,0.1
		c-0.03,0.01-0.05,0.03-0.08,0.04h-0.03l-2.6,1.06c0.62-0.23,1.34-0.12,2.05,0.25L68.243,51.276z M75.633,34.162
		c0.025-0.017,0.054-0.024,0.078-0.04c0.02-0.013,0.03-0.03,0.05-0.043c0.14-0.11,0.26-0.24,0.38-0.39l0.12-0.18
		c0.08-0.12,0.15-0.25,0.21-0.38c0.04-0.08,0.07-0.17,0.1-0.25c0.05-0.14,0.09-0.29,0.13-0.44l0.06-0.3
		c0.03-0.17,0.04-0.34,0.05-0.52c0.01-0.11,0.01-0.22,0.01-0.33c0-0.21-0.02-0.42-0.05-0.64l-0.03-0.32
		c-0.05-0.33-0.13-0.68-0.23-1.04c-1.1-4.08-2.75-7.94-4.83-11.4c-1.04-1.73-2.19-3.36-3.42-4.88s-2.56-2.91-3.97-4.16
		c-0.93-0.84-1.9-1.61-2.9-2.31c-0.99-0.7-2.02-1.34-3.06-1.89c-0.62-0.34-1.25-0.63-1.87-0.9c-0.1-0.04-0.19-0.09-0.29-0.13
		c-0.59-0.25-1.18-0.46-1.77-0.65l-0.34-0.1c-0.59-0.18-1.18-0.33-1.76-0.45c-0.08-0.02-0.15-0.03-0.23-0.05
		c-0.58-0.11-1.15-0.2-1.72-0.25l-0.12-0.02c-0.58-0.06-1.15-0.07-1.72-0.06h-0.29c-0.55,0.01-1.09,0.06-1.62,0.13
		c-0.1,0.01-0.2,0.03-0.29,0.04c-0.54,0.08-1.08,0.18-1.6,0.32l-0.15,0.04c-0.51,0.14-1.01,0.3-1.5,0.49
		c-0.05,0.02-0.11,0.05-0.17,0.07c-0.01,0-0.02,0-0.03,0.01l-2.5,0.99c4.49-1.74,9.84-1.34,15.3,1.56c1.96,1.04,3.83,2.36,5.6,3.89
		c0.12,0.11,0.25,0.2,0.37,0.31l0.02,0.02c0.61,0.54,1.2,1.12,1.78,1.72c0.16,0.16,0.32,0.33,0.47,0.49c0.56,0.6,1.11,1.2,1.63,1.84
		l0.07,0.07c0.02,0.03,0.05,0.07,0.08,0.1c0.51,0.63,0.99,1.28,1.47,1.94l0.45,0.63c0.45,0.65,0.9,1.32,1.31,2.01
		c0.03,0.06,0.08,0.12,0.11,0.18l0.12,0.21c0.41,0.68,0.79,1.38,1.16,2.08l0.39,0.76c0.35,0.7,0.69,1.41,1,2.14l0.24,0.57
		c0.3,0.72,0.58,1.44,0.84,2.18c0.11,0.29,0.21,0.58,0.31,0.88c0.24,0.73,0.47,1.46,0.68,2.21c0.03,0.12,0.08,0.24,0.11,0.36
		c0.05,0.17,0.07,0.33,0.11,0.5c0.04,0.16,0.08,0.33,0.11,0.49c0,0.01,0.01,0.03,0.01,0.05c0.02,0.1,0.02,0.21,0.03,0.31
		c0.01,0.06,0.01,0.12,0.01,0.18c0.02,0.14,0.03,0.27,0.03,0.4l0.01,0.06c0,0.11,0,0.22-0.01,0.33c0,0.04,0,0.07-0.01,0.1
		l-0.03,0.34c0,0.03,0,0.05-0.01,0.08c-0.01,0.1-0.03,0.2-0.05,0.3l-0.02,0.07c-0.02,0.1-0.05,0.19-0.08,0.28l-0.03,0.09
		c-0.03,0.08-0.06,0.17-0.09,0.25l-0.03,0.04c-0.04,0.08-0.08,0.143-0.12,0.22c-0.03,0.04-0.05,0.08-0.07,0.12l-0.12,0.18
		l-0.03,0.03c-0.04,0.05-0.09,0.08-0.13,0.13c-0.07,0.08-0.14,0.16-0.22,0.22c-0.02,0.017-0.03,0.03-0.04,0.047
		c-0.14,0.11-0.3,0.2-0.46,0.26l2.61-1.034c0.1-0.04,0.19-0.106,0.28-0.16c0.06-0.037,0.12-0.06,0.18-0.1l0.01-0.01L75.633,34.162z"
		/>
	<path fill="#231F20" d="M55.094,57.067c-0.276,0.032-0.554,0.054-0.835,0.065c-0.14,0.005-0.27,0.01-0.4,0.01
		c-0.32,0.002-0.63-0.01-0.95-0.035c-0.09-0.007-0.18-0.008-0.28-0.017c-0.41-0.04-0.82-0.103-1.24-0.186
		c-0.11-0.02-0.21-0.05-0.31-0.073c-0.32-0.07-0.64-0.15-0.96-0.24c-0.14-0.04-0.28-0.09-0.43-0.13c-0.3-0.1-0.61-0.21-0.91-0.33
		c-0.13-0.05-0.26-0.1-0.39-0.16c-0.43-0.18-0.86-0.38-1.29-0.61c-9.07-4.82-15.52-17.92-14.27-29c0.09-0.74,0.23-1.44,0.38-2.13
		c0.05-0.22,0.12-0.43,0.18-0.65c0.12-0.45,0.24-0.89,0.39-1.32c0.08-0.24,0.18-0.47,0.27-0.7c0.14-0.37,0.3-0.74,0.46-1.09
		c0.11-0.23,0.23-0.45,0.35-0.67c0.18-0.33,0.36-0.64,0.56-0.95c0.13-0.2,0.26-0.4,0.4-0.6c0.21-0.29,0.43-0.57,0.66-0.84
		c0.14-0.17,0.28-0.34,0.43-0.5c0.25-0.27,0.53-0.52,0.81-0.77c0.14-0.12,0.27-0.26,0.41-0.37c0.38-0.31,0.79-0.59,1.2-0.84
		l0.04-0.03c0.1-0.06,0.21-0.09,0.31-0.15c-0.51,0.13-1,0.28-1.47,0.48c-0.5,0.2-0.99,0.43-1.45,0.71
		c-0.04,0.02-0.08,0.05-0.12,0.08c-0.42,0.25-0.83,0.54-1.22,0.85c-0.15,0.12-0.28,0.25-0.42,0.38c-0.28,0.25-0.55,0.5-0.81,0.77
		c-0.15,0.16-0.29,0.34-0.44,0.51c-0.23,0.27-0.46,0.55-0.67,0.85c-0.14,0.19-0.27,0.39-0.4,0.6c-0.19,0.3-0.38,0.62-0.56,0.95
		c-0.12,0.22-0.23,0.44-0.34,0.67c-0.17,0.35-0.32,0.72-0.47,1.09c-0.09,0.23-0.19,0.46-0.27,0.71c-0.14,0.42-0.27,0.86-0.39,1.31
		l-0.18,0.65c-0.16,0.69-0.29,1.4-0.39,2.14c-1.25,11.07,5.2,24.17,14.27,28.99c0.43,0.23,0.86,0.43,1.29,0.62
		c0.13,0.06,0.26,0.11,0.39,0.16c0.3,0.12,0.61,0.24,0.91,0.34c0.14,0.05,0.28,0.1,0.42,0.14c0.32,0.1,0.64,0.18,0.96,0.25
		c0.1,0.02,0.21,0.05,0.31,0.07c0.41,0.09,0.83,0.15,1.23,0.19c0.09,0.01,0.19,0.01,0.28,0.02c0.32,0.03,0.63,0.04,0.95,0.04
		c0.13,0,0.26,0,0.39-0.01c0.28-0.01,0.56-0.03,0.83-0.06c0.12-0.01,0.25-0.02,0.37-0.04c0.35-0.05,0.7-0.12,1.04-0.21
		c0.04-0.01,0.07-0.01,0.11-0.02c0.37-0.1,0.74-0.23,1.11-0.37c0.46-0.18,0.92-0.39,1.36-0.64l0.1-0.06
		c-0.34,0.08-0.68,0.15-1.02,0.2c-0.12,0.02-0.25,0.03-0.37,0.05L55.094,57.067z M70.344,36.26c0.016-0.012,0.036-0.016,0.052-0.03
		c0.016-0.01,0.027-0.028,0.043-0.04c0.13-0.11,0.26-0.238,0.37-0.385c0.04-0.055,0.07-0.12,0.11-0.18
		c0.07-0.12,0.15-0.243,0.21-0.382c0.03-0.08,0.06-0.165,0.09-0.25c0.05-0.14,0.09-0.287,0.12-0.442c0.02-0.09,0.04-0.19,0.05-0.3
		c0.02-0.16,0.04-0.33,0.04-0.51c0-0.11,0.01-0.21,0.01-0.33c0-0.2-0.02-0.41-0.05-0.63l-0.03-0.31c-0.06-0.33-0.13-0.67-0.24-1.03
		c-1.11-4.08-2.76-7.94-4.84-11.4c-1.04-1.73-2.19-3.36-3.43-4.87s-2.56-2.91-3.96-4.16c-0.94-0.83-1.9-1.6-2.9-2.3
		c-0.99-0.71-2.01-1.34-3.06-1.9c-0.63-0.33-1.26-0.62-1.88-0.89l-0.29-0.12c-0.6-0.24-1.19-0.46-1.77-0.65
		c-0.12-0.03-0.23-0.07-0.34-0.1c-0.59-0.17-1.18-0.33-1.76-0.45l-0.24-0.04c-0.58-0.11-1.16-0.2-1.72-0.25l-0.13-0.01
		c-0.58-0.05-1.16-0.06-1.72-0.06h-0.3c-0.55,0.02-1.09,0.06-1.63,0.13l-0.29,0.04c-0.54,0.09-1.08,0.19-1.6,0.32l-0.15,0.05
		c-0.51,0.14-1.01,0.3-1.51,0.49c-0.17,0.07-0.34,0.15-0.5,0.22l-2.33,0.93c0.04-0.02,0.08-0.03,0.12-0.04
		c0.49-0.19,0.99-0.35,1.5-0.49l0.14-0.04c0.52-0.13,1.06-0.23,1.6-0.32c0.1-0.01,0.19-0.03,0.29-0.04
		c0.53-0.07,1.07-0.11,1.62-0.13h0.29c0.57,0,1.14,0.01,1.72,0.06l0.13,0.02c0.57,0.06,1.14,0.14,1.72,0.25
		c0.08,0.02,0.16,0.03,0.24,0.05c0.58,0.12,1.17,0.28,1.76,0.45l0.34,0.11c0.59,0.19,1.18,0.4,1.77,0.65l0.29,0.13
		c0.62,0.27,1.25,0.56,1.87,0.9c1.05,0.56,2.07,1.19,3.07,1.89c0.99,0.7,1.96,1.47,2.89,2.31c1.4,1.25,2.73,2.65,3.97,4.16
		s2.39,3.15,3.43,4.88c2.09,3.46,3.74,7.32,4.84,11.4c0.11,0.36,0.18,0.71,0.24,1.04c0.02,0.11,0.02,0.21,0.03,0.32
		c0.03,0.22,0.05,0.43,0.05,0.63c0.01,0.12,0,0.22-0.01,0.33c0,0.18-0.02,0.36-0.04,0.52c-0.02,0.11-0.04,0.21-0.06,0.3
		c-0.03,0.16-0.07,0.3-0.12,0.44c-0.03,0.09-0.06,0.17-0.09,0.25c-0.06,0.14-0.13,0.26-0.21,0.38c-0.04,0.06-0.07,0.13-0.11,0.18
		c-0.11,0.15-0.24,0.28-0.38,0.39c-0.02,0.01-0.03,0.03-0.04,0.04c-0.15,0.11-0.3,0.2-0.46,0.26l2.61-1.03
		c0.06-0.02,0.11-0.06,0.16-0.09c0.11-0.06,0.23-0.12,0.33-0.2L70.344,36.26z"/>
</g>
</svg>
