<?xml version="1.0" encoding="utf-8"?>
<!-- Generator: Adobe Illustrator 15.0.0, SVG Export Plug-In . SVG Version: 6.00 Build 0)  -->
<!DOCTYPE svg PUBLIC "-//W3C//DTD SVG 1.1//EN" "http://www.w3.org/Graphics/SVG/1.1/DTD/svg11.dtd">
<svg version="1.1" id="Layer_1" xmlns="http://www.w3.org/2000/svg" xmlns:xlink="http://www.w3.org/1999/xlink" x="0px" y="0px"
	 width="680.25px" height="52.92px" viewBox="0 0 680.25 52.92" enable-background="new 0 0 680.25 52.92" xml:space="preserve">
<g>
	<path fill="#010101" d="M63.072,20.52h-15.84c0-5.688-1.296-7.2-15.768-7.2c-15.552,0-15.624,0.432-15.624,13.176
		c0,12.816,0.072,13.104,15.624,13.104c14.256,0,15.768-1.08,15.768-7.199h15.84c0,17.64-1.008,20.52-31.608,20.52
		C1.584,52.92,0,50.688,0,26.424C0,2.304,1.584,0,31.464,0C61.776,0,63.072,3.024,63.072,20.52z"/>
	<path fill="#010101" d="M114.192,0.72l25.632,51.48H121.32l-4.896-8.567H85.032L80.136,52.2H61.631l25.56-51.48H114.192z
		 M99.432,12.24l-8.496,18.073h19.512l-8.496-18.073H99.432z"/>
	<path fill="#010101" d="M201.095,20.52h-15.84c0-5.688-1.296-7.2-15.768-7.2c-15.552,0-15.624,0.432-15.624,13.176
		c0,12.816,0.072,13.104,15.624,13.104c14.256,0,15.768-1.08,15.768-7.199h15.84c0,17.64-1.008,20.52-31.608,20.52
		c-29.88,0-31.464-2.232-31.464-26.496C138.023,2.304,139.607,0,169.487,0C199.799,0,201.095,3.024,201.095,20.52z"/>
	<path fill="#010101" d="M220.462,18.864h34.2V0.72h15.84V52.2h-15.84V32.184h-34.2V52.2h-15.84V0.72h15.84V18.864z"/>
	<path fill="#010101" d="M275.182,0.72h55.44v12.456h-39.6v7.128h37.8v12.383h-37.8v7.057h39.6V52.2h-55.44V0.72z"/>
	<path fill="#010101" d="M333.933,0.72h55.009v13.32h-39.169v8.856h37.009v13.321h-37.009V52.2h-15.84V0.72z"/>
	<path fill="#010101" d="M408.309,0.72v38.16h35.928V52.2h-51.768V0.72H408.309z"/>
	<path fill="#010101" d="M481.532,52.92c-33.336,0-33.982-1.728-33.982-26.424C447.549,1.872,448.196,0,481.532,0
		c33.193,0,34.057,1.872,34.057,26.496C515.588,51.049,514.725,52.92,481.532,52.92z M481.532,39.6
		c18.145,0,18.217-0.071,18.217-13.104c0-13.104-0.072-13.176-18.145-13.176c-18.143,0-18.215,0.072-18.215,13.176
		C463.389,39.528,463.461,39.6,481.532,39.6z"/>
	<path fill="#010101" d="M622.364,0.72L602.42,52.2h-24.264l-8.785-31.536c-0.359-1.368-0.287-7.272-1.08-7.272
		c-0.791,0-0.719,5.904-1.08,7.272L558.5,52.2h-24.266L514.292,0.72h16.92l14.256,38.16h1.729l11.736-38.16h18.791l11.736,38.16
		h1.729l14.256-38.16H622.364z"/>
	<path fill="#010101" d="M624.811,0.72h55.439v12.456h-39.6v7.128h37.801v12.383h-37.801v7.057h39.6V52.2h-55.439V0.72z"/>
</g>
</svg>
