<?xml version="1.0" encoding="utf-8"?>
<!-- Generator: Adobe Illustrator 17.0.0, SVG Export Plug-In . SVG Version: 6.00 Build 0)  -->
<!DOCTYPE svg PUBLIC "-//W3C//DTD SVG 1.1//EN" "http://www.w3.org/Graphics/SVG/1.1/DTD/svg11.dtd">
<svg version="1.1" id="Layer_1" xmlns="http://www.w3.org/2000/svg" xmlns:xlink="http://www.w3.org/1999/xlink" x="0px" y="0px"
	 width="277px" height="277.001px" viewBox="0 0 277 277.001" enable-background="new 0 0 277 277.001" xml:space="preserve">
		<path fill="#020202" d="M155.818,229.085H122.26v-29.404c-27.324-5.348-48.113-32.67-48.113-62.667
			c0-29.402,20.492-56.131,48.113-61.774V47.917h33.56v27.322c15.146,5.049,21.088,8.316,29.105,16.633
			c8.611,8.91,13.957,19.008,16.037,29.104h-37.719c-4.455-7.426-14.553-12.475-24.947-12.475
			c-16.037,0-28.809,12.771-28.809,29.404c0,16.63,12.771,29.402,29.402,29.402c8.613,0,13.959-2.377,22.869-10.693h39.203
			c-4.455,10.693-9.801,19.604-16.336,26.434c-7.721,8.316-15.443,12.771-28.809,16.633v29.404H155.818z"/>
		<path fill="#020202" d="M0,138.5c0,76.371,62.131,138.501,138.5,138.501S277,214.87,277,138.5C277,62.131,214.869,0,138.5,0
			S0,62.131,0,138.5z M34,138.5C34,80.879,80.879,34,138.5,34S243,80.879,243,138.5s-46.879,104.501-104.5,104.501
			S34,196.121,34,138.5z"/>
</svg>
