<svg xmlns="http://www.w3.org/2000/svg" xmlns:xlink="http://www.w3.org/1999/xlink" version="1.1" id="Layer_1" x="0px" y="0px" width="100px" height="100px" viewBox="0 0 100 100" enable-background="new 0 0 100 100" xml:space="preserve">
<path fill="#000000" d="M90.686,45.232h-0.328L66.45,38.124l-0.216-0.002H49.622H48.78c-0.423,0-18.081,6.819-18.983,7.163  c-0.051,0.019-0.098,0.041-0.141,0.065c-1.912-0.071-3.825-0.062-5.744,0.145c-0.044,0.004-0.087,0.011-0.127,0.02  c-0.052,0.002-0.105,0.005-0.161,0.013c-2.924,0.337-5.805,1.031-8.56,2.067c-0.463,0.173-0.93,0.359-1.396,0.556l-9.302,3.378  c-1.544,0.562,0.599,3.457,0.694,3.65l0.755,1.527c0.771,1.564,6.379,2.834,7.869,3.143c2.595,0.537,2.86,1.037,3.24-1.86  c0.628-4.82,1.868-8.529,7.604-8.604c5.622,0.064,6.967,3.579,7.577,8.153l0.132,0.985c0.079,0.584,0.11,1.627,1.001,1.627h0.51  h34.876c0.841,0,0.907-0.93,0.983-1.502c0.66-4.881,1.438-9.181,7.701-9.264c5.394,0.062,6.924,3.383,7.555,7.989  c0.003,0.084,0.016,0.168,0.039,0.25c0.07,0.274,0.236,0.461,0.441,0.562c0.197,0.112,0.444,0.145,0.713,0.045  c0.079-0.025,0.158-0.062,0.23-0.107l1.531-0.779c2.611-1.342,1.738-0.748,3.375-3.961c1.606-3.152,1.305-1.889,1.637-4.844  C93.197,45.315,93.598,45.305,90.686,45.232z M83.036,44.924l-14.552-0.669l-0.536-3.798L83.036,44.924z M60.618,41.698l-1.39,2.92  c-1.896,1.093-8.317,1.322-9.773,1.364c-2.512,0.071-5.621,0.062-9.472-0.08l8.633-4.204H60.618z M60.001,46.233  c-1.517,3.527-3.405,7.291-5.46,9.99l-17.208-0.021c-0.404-1.527-0.71-3.091-0.815-4.666c-0.076-1.126-0.058-2.851,0.376-3.976  c5.331,0.263,9.442,0.301,12.612,0.21C51.546,47.711,57.617,47.498,60.001,46.233z M45.555,41.201l-9.313,4.534  c-0.749-0.039-1.496-0.088-2.242-0.136L45.555,41.201z M91.059,48.336l-0.201,1.774l-2.527,4.96l-1.322,0.678l-0.545,0.279  c-0.904-4.939-3.227-8.364-9.143-8.431c-2.012,0.022-3.86,0.508-5.373,1.542c-3.323,2.272-3.62,5.653-4.104,9.223H34.022  L33.879,57.3c-0.732-5.493-2.76-9.629-9.34-9.705c-1.416,0.016-2.759,0.262-3.953,0.768c-4.184,1.775-4.918,5.427-5.434,9.392  l-0.074,0.55c-2.293-0.441-5.893-1.109-7.741-2.558l-1.019-2.063h1.087c0.07,0,0.526-0.168,0.58-0.213  c1.738-1.47,4.057-2.699,6.284-3.637l0.074-0.027c0.052-0.019,0.1-0.041,0.145-0.064c0.406-0.168,0.809-0.327,1.203-0.476  c2.618-0.984,5.355-1.644,8.133-1.964c0.054-0.007,0.109-0.015,0.159-0.024c0.038-0.001,0.077-0.003,0.118-0.007  c3.65-0.392,7.289-0.043,10.936,0.185c-0.36,1.444-0.356,3.423-0.307,4.197c0.129,1.906,0.524,3.789,1.041,5.625  c0.039,0.214,0.148,0.41,0.327,0.541c0.176,0.138,0.396,0.189,0.609,0.171l18.27,0.021c0.389,0,0.651-0.191,0.789-0.447  c2.24-2.86,3.955-6.334,5.428-9.625c1.67-3.742,2.742-6.844,2.742-6.844c0.227-0.648-0.125-1.163-0.797-1.186h2.924l0.859,6.063  l24.273,1.114L91.059,48.336z M24.527,49.834c-3.713,0-6.721,3.007-6.721,6.721c0,3.711,3.008,6.721,6.721,6.721  c3.711,0,6.721-3.01,6.721-6.721C31.248,52.842,28.238,49.834,24.527,49.834z M24.527,61.486c-2.728,0-4.934-2.207-4.934-4.932  c0-2.726,2.206-4.935,4.934-4.935c2.722,0,4.931,2.209,4.931,4.935C29.458,59.279,27.249,61.486,24.527,61.486z M77.307,49.834  c-3.711,0-6.722,3.007-6.722,6.721c0,3.711,3.011,6.721,6.722,6.721c3.713,0,6.721-3.01,6.721-6.721  C84.025,52.842,81.02,49.834,77.307,49.834z M77.307,61.486c-2.726,0-4.933-2.207-4.933-4.932c0-2.726,2.207-4.935,4.933-4.935  c2.725,0,4.934,2.209,4.934,4.935C82.24,59.279,80.029,61.486,77.307,61.486z"></path>
</svg>