<svg xmlns="http://www.w3.org/2000/svg" xmlns:xlink="http://www.w3.org/1999/xlink" version="1.1" id="Capa_1" x="0px" y="0px" width="100px" height="100px" viewBox="0 0 200 200" enable-background="new 0 0 200 200" xml:space="preserve">
  <path d="M100,50c-27.614,0-50,22.386-50,50s22.386,50,50,50s50-22.386,50-50S127.614,50,100,50z M100,142c-23.159,0-42-18.841-42-42  c0-23.159,18.841-42,42-42c23.158,0,42,18.841,42,42C142,123.159,123.158,142,100,142z"></path>
  <path d="M100,66c-18.748,0-34,15.252-34,34s15.252,34,34,34s34-15.252,34-34S118.748,66,100,66z M113.143,113.102   c-0.833,1.699-1.966,3.099-3.367,4.158c-1.201,0.91-3.325,1.577-4.976,2.073V128h-7.2v-8.4c-1.757-0.306-3.358-0.855-4.768-1.637   c-2.037-1.131-3.928-2.671-5.953-4.845l-0.654-0.702l6.229-6.3l0.71,0.757c2.841,3.028,5.587,4.563,8.163,4.563   c1.203,0,2.205-0.403,3.062-1.232c0.853-0.826,1.268-1.757,1.268-2.845c0-0.937-0.258-1.728-0.788-2.418   c-0.394-0.499-1.342-1.322-3.576-2.353c-4.073-1.882-6.77-3.348-8.243-4.479c-1.511-1.16-2.661-2.493-3.418-3.962   c-0.762-1.476-1.148-3.073-1.148-4.747c0-3.061,0.876-5.343,2.758-7.181c1.869-1.827,3.859-2.803,6.358-3.096V74h7.2v5.686   c0.239,0.082,0.515,0.169,0.784,0.255c0.987,0.314,2.105,0.67,2.875,1.116c1.227,0.707,2.647,1.872,4.223,3.462l0.709,0.716   l-6.255,6.107l-0.698-0.72c-1.995-2.055-3.947-3.098-5.804-3.098c-1.03,0-1.828,0.253-2.438,0.773   c-0.57,0.487-0.836,0.988-0.836,1.578c0,0.481,0.261,0.998,0.774,1.536c0.414,0.454,1.395,1.181,3.807,2.166   c3.828,1.586,6.394,2.917,7.848,4.068c1.481,1.175,2.635,2.605,3.43,4.25c0.797,1.652,1.201,3.515,1.201,5.538   C114.42,109.462,113.99,111.369,113.143,113.102z"></path>
</svg>
