<?xml version="1.0" encoding="UTF-8"?>
<svg id="Layer_1" data-name="Layer 1" xmlns="http://www.w3.org/2000/svg" version="1.1" xmlns:xlink="http://www.w3.org/1999/xlink" viewBox="0 0 432 960">
  <defs>
    <mask id="mask" x="254.1" y="560.6" width="113.7" height="114.9" maskUnits="userSpaceOnUse">
      <g id="mask0_2908_13224" data-name="mask0 2908 13224">
        <path d="M367.8,560.6h-113.7v114.9h113.7v-114.9Z" fill="#fff" stroke-width="0"/>
      </g>
    </mask>
    <mask id="mask-1" x="232.9" y="619.7" width="55.9" height="83.9" maskUnits="userSpaceOnUse">
      <g id="mask1_2908_13224" data-name="mask1 2908 13224">
        <path d="M288.8,619.7h-55.9v83.9h55.9v-83.9Z" fill="#fff" stroke-width="0"/>
      </g>
    </mask>
    <linearGradient id="linear-gradient" x1="83.1" y1="318" x2="83.1" y2="261.4" gradientTransform="translate(0 962) scale(1 -1)" gradientUnits="userSpaceOnUse">
      <stop offset="0" stop-color="#fff" stop-opacity=".6"/>
      <stop offset="1" stop-color="#fff"/>
    </linearGradient>
    <mask id="mask-2" x="133.5" y="286.8" width="37.5" height="51.7" maskUnits="userSpaceOnUse">
      <g id="mask2_2908_13224" data-name="mask2 2908 13224">
        <path d="M153.7,286.8l-20.2,8,17.4,43.7,20.2-8-17.4-43.7Z" fill="#fff" stroke-width="0"/>
      </g>
    </mask>
    <mask id="mask-3" x="21" y="274.6" width="118" height="110.2" maskUnits="userSpaceOnUse">
      <g id="mask3_2908_13224" data-name="mask3 2908 13224">
        <path d="M139,274.6H21v110.2h118v-110.2Z" fill="#fff" stroke-width="0"/>
      </g>
    </mask>
  </defs>
  <g id="checkboxes">
    <path d="M154.5,746.4h-12.2c-.9,0-1.7-.8-1.7-1.7v-12.3c0-.9.8-1.7,1.7-1.7h12.2c.9,0,1.7.8,1.7,1.7v12.3c0,.9-.8,1.7-1.7,1.7ZM142.3,731.9c-.3,0-.5.2-.5.5v12.3c0,.3.2.5.5.5h12.2c.3,0,.5-.2.5-.5v-12.3c0-.3-.2-.5-.5-.5h-12.2Z" fill="#041e42" stroke-width="0"/>
    <path d="M148.1,742.6c-.4,0-.7-.2-.9-.4l-3.6-4.6c-.4-.5-.3-1.3.2-1.7.5-.4,1.3-.3,1.7.2l2.7,3.4,7.5-10.2c.4-.5,1.1-.6,1.7-.2.5.4.6,1.1.2,1.7l-8.5,11.4c-.2.3-.6.5-.9.5h0Z" fill="#0032a0" stroke-width="0"/>
    <path d="M154.5,768.6h-12.2c-.9,0-1.7-.8-1.7-1.7v-12.3c0-.9.8-1.7,1.7-1.7h12.2c.9,0,1.7.8,1.7,1.7v12.3c0,.9-.8,1.7-1.7,1.7ZM142.3,754.2c-.3,0-.5.2-.5.5v12.3c0,.3.2.5.5.5h12.2c.3,0,.5-.2.5-.5v-12.3c0-.3-.2-.5-.5-.5h-12.2Z" fill="#041e42" stroke-width="0"/>
    <path d="M179.8,739.5h-18.6c-.6,0-1.1-.5-1.1-1.1s.5-1.1,1.1-1.1h18.6c.6,0,1.1.5,1.1,1.1s-.5,1.1-1.1,1.1Z" fill="#041e42" stroke-width="0"/>
    <path d="M179.8,761.8h-18.6c-.6,0-1.1-.5-1.1-1.1s.5-1.1,1.1-1.1h18.6c.6,0,1.1.5,1.1,1.1s-.5,1.1-1.1,1.1Z" fill="#041e42" stroke-width="0"/>
    <path d="M154.5,790.9h-12.2c-.9,0-1.7-.8-1.7-1.7v-12.3c0-.9.8-1.7,1.7-1.7h12.2c.9,0,1.7.8,1.7,1.7v12.3c0,.9-.8,1.7-1.7,1.7ZM142.3,776.4c-.3,0-.5.2-.5.5v12.3c0,.3.2.5.5.5h12.2c.3,0,.5-.2.5-.5v-12.3c0-.3-.2-.5-.5-.5h-12.2Z" fill="#041e42" stroke-width="0"/>
    <path d="M179.8,784.1h-18.6c-.6,0-1.1-.5-1.1-1.1s.5-1.1,1.1-1.1h18.6c.6,0,1.1.5,1.1,1.1s-.5,1.1-1.1,1.1Z" fill="#041e42" stroke-width="0"/>
  </g>
  <g id="docs">
    <g>
      <path d="M213.6,639l-35.1-6.4c-3.7-.7-7.2,1.8-7.9,5.5l-9.1,50.1c-.7,3.7,1.8,7.2,5.5,7.9l35.1,6.4c3.7.7,7.2-1.8,7.9-5.5l9.1-50.1c.7-3.7-1.8-7.2-5.5-7.9Z" fill="#80b6e6" stroke-width="0"/>
      <path d="M203.3,704.6c-.5,0-1.1,0-1.6-.1l-35.1-6.4c-4.8-.9-7.9-5.5-7.1-10.2l9.1-50.1c.4-2.3,1.7-4.3,3.7-5.7,1.9-1.3,4.3-1.8,6.6-1.4l35.1,6.4c4.8.9,7.9,5.5,7.1,10.2l-9.1,50.1c-.4,2.3-1.7,4.3-3.7,5.7-1.5,1-3.2,1.6-5,1.6ZM177.3,634.5c-1,0-1.9.3-2.7.9-1.1.7-1.8,1.8-2,3.1l-9.1,50.1c-.5,2.6,1.3,5.1,3.9,5.6l35.1,6.4c1.3.2,2.5,0,3.6-.8,1.1-.7,1.8-1.8,2-3.1l9.1-50.1c.5-2.6-1.3-5.1-3.9-5.6l-35.1-6.4c-.3,0-.6,0-.9,0Z" fill="#ade5ea" stroke-width="0"/>
    </g>
    <path d="M202.8,676l-27.2-5c-.6-.1-1-.7-.9-1.3.1-.6.7-1,1.3-.9l27.2,5c.6.1,1,.7.9,1.3-.1.6-.7,1-1.3.9Z" fill="#ade5ea" stroke-width="0"/>
    <path d="M201.5,682.7l-27.2-5c-.6-.1-1-.7-.9-1.3.1-.6.7-1,1.3-.9l27.2,5c.6.1,1,.7.9,1.3-.1.6-.7,1-1.3.9Z" fill="#ade5ea" stroke-width="0"/>
    <path d="M199.6,693.5l-27.2-5c-.6-.1-1-.7-.9-1.3.1-.6.7-1,1.3-.9l27.2,5c.6.1,1,.7.9,1.3-.1.6-.7,1-1.3.9Z" fill="#ade5ea" stroke-width="0"/>
    <path d="M205.2,662.7l-27.2-5c-.6-.1-1-.7-.9-1.3.1-.6.7-1,1.4-.9l27.2,5c.6.1,1,.7.9,1.3-.1.6-.7,1-1.3.9Z" fill="#ade5ea" stroke-width="0"/>
    <path d="M204,669.4l-27.2-5c-.6-.1-1-.7-.9-1.3.1-.6.7-1,1.4-.9l27.2,5c.6.1,1,.7.9,1.3-.1.6-.7,1-1.3.9Z" fill="#ade5ea" stroke-width="0"/>
    <path d="M202.8,676l-27.2-5c-.6-.1-1-.7-.9-1.3.1-.6.7-1,1.3-.9l27.2,5c.6.1,1,.7.9,1.3-.1.6-.7,1-1.3.9Z" fill="#ade5ea" stroke-width="0"/>
    <path d="M207.6,649.4l-27.2-5c-.6-.1-1-.7-.9-1.3.1-.6.7-1,1.3-.9l27.2,5c.6.1,1,.7.9,1.3-.1.6-.7,1-1.3.9Z" fill="#ade5ea" stroke-width="0"/>
    <path d="M206.4,656.1l-27.2-5c-.6-.1-1-.7-.9-1.3.1-.6.7-1,1.4-.9l27.2,5c.6.1,1,.7.9,1.3-.1.6-.7,1-1.3.9Z" fill="#ade5ea" stroke-width="0"/>
    <path d="M205.2,662.7l-27.2-5c-.6-.1-1-.7-.9-1.3.1-.6.7-1,1.3-.9l27.2,5c.6.1,1,.7.9,1.3-.1.6-.7,1-1.3.9Z" fill="#ade5ea" stroke-width="0"/>
    <g>
      <path d="M202.3,581.4l-30.2,18.9c-3.2,2-4.1,6.2-2.2,9.4l27,43.2c2,3.2,6.2,4.2,9.4,2.2l30.2-18.9c3.2-2,4.1-6.2,2.2-9.4l-27-43.2c-2-3.2-6.2-4.2-9.4-2.2Z" fill="#80b6e6" stroke-width="0"/>
      <path d="M202.7,658.1c-.7,0-1.3,0-2-.2-2.3-.5-4.2-1.9-5.5-3.9l-27-43.2c-2.6-4.1-1.3-9.6,2.8-12.1l30.2-18.9c2-1.2,4.4-1.6,6.6-1.1,2.3.5,4.2,1.9,5.5,3.9l27,43.2c2.6,4.1,1.3,9.6-2.8,12.1l-30.2,18.9c-1.4.9-3,1.3-4.7,1.3ZM203.4,583.1l-30.2,18.9c-2.2,1.4-2.9,4.4-1.5,6.6l27,43.2c.7,1.1,1.7,1.8,3,2.1,1.2.3,2.5,0,3.6-.6l30.2-18.9c2.2-1.4,2.9-4.4,1.5-6.6l-27-43.2c-.7-1.1-1.7-1.8-3-2.1s-2.5,0-3.6.6h0Z" fill="#ade5ea" stroke-width="0"/>
    </g>
    <path d="M219.2,616.1l-23.4,14.7c-.5.3-1.3.2-1.6-.4-.3-.5-.2-1.3.4-1.6l23.4-14.7c.5-.3,1.3-.2,1.6.4.3.5.2,1.3-.4,1.6Z" fill="#ade5ea" stroke-width="0"/>
    <path d="M222.8,621.8l-23.4,14.7c-.5.3-1.3.2-1.6-.4-.3-.5-.2-1.3.4-1.6l23.4-14.7c.5-.3,1.3-.2,1.6.4.3.5.2,1.3-.4,1.6Z" fill="#ade5ea" stroke-width="0"/>
    <path d="M228.7,631.2l-23.4,14.7c-.5.3-1.3.2-1.6-.4-.3-.5-.2-1.3.4-1.6l23.4-14.7c.5-.3,1.3-.2,1.6.4.3.5.2,1.3-.4,1.6Z" fill="#ade5ea" stroke-width="0"/>
    <path d="M212.1,604.6l-23.4,14.7c-.5.3-1.3.2-1.6-.4-.3-.5-.2-1.3.4-1.6l23.4-14.7c.5-.3,1.3-.2,1.6.4.3.5.2,1.3-.4,1.6Z" fill="#ade5ea" stroke-width="0"/>
    <path d="M215.7,610.4l-23.4,14.7c-.5.3-1.3.2-1.6-.4-.3-.5-.2-1.3.4-1.6l23.4-14.7c.5-.3,1.3-.2,1.6.4.3.5.2,1.3-.4,1.6Z" fill="#ade5ea" stroke-width="0"/>
    <path d="M219.2,616.1l-23.4,14.7c-.5.3-1.3.2-1.6-.4-.3-.5-.2-1.3.4-1.6l23.4-14.7c.5-.3,1.3-.2,1.6.4.3.5.2,1.3-.4,1.6Z" fill="#ade5ea" stroke-width="0"/>
    <path d="M204.9,593.2l-23.4,14.7c-.5.3-1.3.2-1.6-.4-.3-.5-.2-1.3.4-1.6l23.4-14.7c.5-.3,1.3-.2,1.6.4.3.5.2,1.3-.4,1.6Z" fill="#ade5ea" stroke-width="0"/>
    <path d="M208.5,598.9l-23.4,14.7c-.5.3-1.3.2-1.6-.4-.3-.5-.2-1.3.4-1.6l23.4-14.7c.5-.3,1.3-.2,1.6.4.3.5.2,1.3-.4,1.6Z" fill="#ade5ea" stroke-width="0"/>
    <path d="M212.1,604.6l-23.4,14.7c-.5.3-1.3.2-1.6-.4-.3-.5-.2-1.3.4-1.6l23.4-14.7c.5-.3,1.3-.2,1.6.4.3.5.2,1.3-.4,1.6Z" fill="#ade5ea" stroke-width="0"/>
    <path d="M156.1,614.4c-.4-1.8-1.2-3.2-2.6-4.2-1.3-1-3.1-1.5-5.2-1.7,0,0,0,0,0,0l-.6-5.6s0,0,0,0c.8.2,1.7.5,2.6,1l1,.6,2.1-4.3-.8-.5c-1.2-.7-2.5-1.2-3.8-1.4-.5,0-1-.1-1.5-.1l-.2-1.7-3.2.4.2,1.7c-2,.5-3.6,1.6-4.8,3.1-1.3,1.7-1.8,3.7-1.4,5.8.4,2,1.3,3.4,2.8,4.3,1.1.7,2.8,1.1,5,1.4l.7,6.5c-.2,0-.4,0-.7-.1-.9-.2-1.8-.7-2.7-1.4l-.9-.7-2.7,3.9.7.6c1.3,1.1,2.7,1.8,4.2,2.2.8.2,1.6.3,2.5.3l.2,1.6,3.2-.4-.2-1.7c2-.6,3.6-1.7,4.8-3.3,1.3-1.9,1.8-4,1.3-6.3ZM142.4,606.4c-.2-.9,0-1.6.5-2.2.4-.5.9-.8,1.5-1.1l.6,5.1c-1.5-.3-2.4-.9-2.6-1.8ZM150.9,618.1c-.4.5-.8.8-1.4,1.1l-.7-5.8c.8.1,1.3.4,1.6.5.5.3.9.9,1,1.7.2.9,0,1.7-.5,2.4Z" fill="#ade5ea" stroke-width="0"/>
  </g>
  <g id="squiggle-static">
    <path d="M264.7,762.2s1,1.4,2.5,1.5c.9,0,1.8-.4,2.5-1.3.9-1.1,1.5-1.4,1.9-1.4.5,0,.9.6,1.3,1.2,0,0,1,1.4,2.5,1.5.9,0,1.8-.4,2.5-1.3.6-.7,1.1-1,1.7-1,.9,0,1.5.9,1.5.9.2.3.6.3.9.1.3-.2.4-.6.1-.9,0,0-1-1.4-2.5-1.4-1,0-1.9.5-2.7,1.5-.5.6-1,.9-1.4.9-.7,0-1.4-.7-1.5-.9-.4-.6-1.1-1.7-2.3-1.7-.9,0-1.9.6-2.9,1.8-.5.6-1,.9-1.4.9-.7,0-1.4-.7-1.5-.9-.4-.6-1.1-1.7-2.3-1.7-.9,0-1.9.6-2.9,1.8-.5.6-1,.9-1.4.9-.7,0-1.4-.7-1.5-.9-.4-.6-1.1-1.7-2.3-1.7-.9,0-1.9.6-2.9,1.8,0,.1-.1.3-.1.4s0,.4.2.5c.3.2.7.2.9,0,.9-1.1,1.5-1.4,1.9-1.4.5,0,.9.6,1.3,1.2,0,0,1,1.4,2.5,1.5.9,0,1.8-.4,2.5-1.3.9-1.1,1.5-1.4,1.9-1.4.5,0,.9.6,1.3,1.2h0Z" fill="#147bd1" stroke-width="0"/>
    <path d="M263.2,767.1c-1.7,0-3.2,1.4-3.2,3.1,0,1.7,1.4,3.2,3.1,3.2,1.7,0,3.2-1.4,3.2-3.1,0-1.7-1.4-3.2-3.1-3.2ZM263.1,772.1c-1,0-1.8-.8-1.8-1.9,0-1,.8-1.8,1.9-1.8,1,0,1.8.8,1.8,1.9,0,1-.8,1.8-1.9,1.8Z" fill="#147bd1" stroke-width="0"/>
  </g>
  <g id="quote-small">
    <path d="M332,505.5h71c2.6,0,4.8,2.1,4.8,4.8v20.9c0,2.6-2.1,4.8-4.8,4.8h-51.1l-12.6,14,1.7-14h-9c-2.6,0-4.8-2.1-4.8-4.8v-20.9c0-2.6,2.1-4.8,4.8-4.8Z" fill="#abcae9" stroke-width="0"/>
    <path d="M365.6,532.6c-.5,0-1-.2-1.4-.7-1-1.3-.4-4,1.5-10.8.5-1.8,1.1-4.1,1.4-5.8-1.7,1.6-4.4,4.8-6.4,7-6.2,7.1-9.1,10.2-11.1,10.2s-1.1-.3-1.4-.8c-.8-1.2-.3-3,4.2-12.1.6-1.2,1.3-2.7,1.9-3.9-5.3,3.7-16.8,12.5-17.8,13.4-.6.5-1.4.4-1.9-.2-.5-.6-.4-1.4.1-1.9.2-.2,5.1-4,10.1-7.8,10.3-7.8,11.1-7.8,11.7-7.8s1,.3,1.2.7c.6,1,.2,2.1-3,8.6-1.2,2.3-2.9,5.8-3.7,8,2.1-1.8,5.4-5.7,7.6-8.3,5.6-6.5,7.9-9,9.6-9s1,.2,1.3.6c.8,1.1.4,3.2-1.3,9.5-.6,2.2-1.5,5.6-1.8,7.5,1.5-1.2,4.1-3.8,5.9-5.6,5.3-5.2,7.6-7.4,9.2-7.4h0c.6,0,1.1.3,1.5.7.8.9.6,2.4.3,4.2-.3,2.2-.7,5,.8,6.1,1.4,1.1,5.1,1.6,15-2.3.7-.3,1.5,0,1.7.8.3.7,0,1.5-.8,1.7-9.1,3.6-14.7,4.2-17.6,1.9-2.7-2.1-2.1-5.9-1.7-8.6,0-.5.2-1.1.2-1.5-1.5,1.1-4.6,4.1-6.8,6.2-5.1,5.1-7.2,7-8.7,7h0Z" fill="#6cace4" stroke-width="0"/>
  </g>
  <g id="docs-fg">
    <path d="M379.3,736.6h-57.7c-4.9,0-8.9-4-8.9-8.9v-88.9c0-4.9,4-8.9,8.9-8.9h48.3c1.2,0,2.4.5,3.3,1.4l13.7,13.7c.9.9,1.3,2,1.3,3.3h0v79.5c0,4.9-4,8.9-8.9,8.9ZM321.5,633.9c-2.7,0-4.9,2.2-4.9,4.9v88.9c0,2.7,2.2,4.9,4.9,4.9h57.7c2.7,0,4.9-2.2,4.9-4.9v-79.5c0-.2,0-.3-.2-.4l-13.7-13.7c-.1-.1-.3-.2-.4-.2h-48.3Z" fill="#147bd1" stroke-width="0"/>
    <polygon points="387.1 650.6 367.9 650.6 367.9 631.3 371.9 631.3 371.9 646.6 387.1 646.6 387.1 650.6" fill="#147bd1" stroke-width="0"/>
    <g mask="url(#mask)">
      <g>
        <path d="M254.1,618.2c0,.1,0,.3,0,.4v53.3c0,2,1.6,3.6,3.6,3.6h89c2,0,3.6-1.6,3.6-3.6v-53.3c0-.1,0-.3,0-.4h-96Z" fill="#147bd1" stroke-width="0"/>
        <path d="M345.9,672.7c-.1,0-.2,0-.3,0l-42.8-22.7-43.9,22.7c-.4.2-.8,0-1-.3-.2-.4,0-.8.3-1l44.3-22.9c.2-.1.5-.1.7,0l43.1,22.9c.4.2.5.6.3,1-.1.2-.4.4-.6.4Z" fill="#041e42" stroke-width="0"/>
        <path d="M302,648.8l-47-30.6,47.2-35.5,47.2,35.5-47.4,30.6Z" fill="#041e42" stroke-width="0"/>
        <path d="M302,649.6c-.1,0-.3,0-.4-.1l-47-30.6c-.2-.1-.3-.3-.3-.6,0-.2,0-.5.3-.6l47.2-35.5c.3-.2.6-.2.9,0l47.2,35.5c.2.1.3.4.3.6,0,.2-.1.5-.3.6l-47.4,30.6c-.1,0-.3.1-.4.1h0ZM256.2,618.1l45.8,29.8,46.1-29.8-45.9-34.6-45.9,34.6Z" fill="#041e42" stroke-width="0"/>
        <path d="M356.1,595.1l-12.2-.7c-.1,0-.3,0-.4,0-.2.1-.4.3-.4.6,0,.4.3.7.7.8l12.2.7c.4,0,.7-.3.8-.7,0-.4-.3-.7-.7-.8h0Z" fill="#041e42" stroke-width="0"/>
        <path d="M340.4,582.1c.2.4.6.5,1,.3l10.9-5.5c.4-.2.5-.6.3-1-.2-.4-.6-.5-1-.3l-10.9,5.5c-.4.2-.5.6-.3,1Z" fill="#041e42" stroke-width="0"/>
        <path d="M332.5,572l6.7-10.2c.2-.3.1-.8-.2-1-.2-.1-.5-.2-.7,0-.1,0-.2.1-.3.2l-6.7,10.2c-.2.3-.1.8.2,1,.3.2.8.1,1-.2Z" fill="#041e42" stroke-width="0"/>
        <path d="M302,648.8l35.7-23.1v-41.7l-22.8-16.3h-47.9v58.2l35,22.8Z" fill="#82b7e6" stroke-width="0"/>
        <path d="M302,649.6c-.1,0-.3,0-.4-.1l-35-22.8c-.2-.1-.3-.4-.3-.6v-58.2c0-.4.3-.7.7-.7h47.9c.2,0,.3,0,.4.1l22.8,16.3c.2.1.3.4.3.6v41.7c0,.2-.1.5-.3.6l-35.7,23.1c-.1,0-.3.1-.4.1h0ZM267.7,625.6l34.3,22.3,35-22.6v-40.9l-22.3-15.9h-46.9v57.1Z" fill="#041e42" stroke-width="0"/>
        <path d="M314.8,567.8v16.3s22.9,0,22.9,0l-22.9-16.2Z" fill="#84b8e6" stroke-width="0"/>
        <path d="M314.8,584.8c-.4,0-.7-.3-.7-.7v-16.3c0-.3.1-.5.4-.6.2-.1.5-.1.8,0l22.9,16.2c.3.2.4.5.3.8,0,.3-.4.5-.7.5h-22.8ZM315.6,569.2v14.1s19.8,0,19.8,0l-19.8-14.1Z" fill="#041e42" stroke-width="0"/>
      </g>
    </g>
  </g>
  <g id="hand">
    <path d="M286.6,647.9c-1.3-1.3-3.5-1.3-4.9,0,1.8-1.9,2.3-4,.8-5.8-1.4-1.6-3.7-1.4-5.2-.1,1.2-1.4,1.3-3.6,0-4.9-1.6-1.4-4.1-.9-5.5.5,4.1-4.9,6.5-7.1,10.3-10.1,1.6-1.2,2.3-3.1,1.3-4.8-1.4-2.4-3.8-2.1-5.4-.9-14.3,11.5-24.1,24.4-33.4,42.7,8.4,4,16.8,8.1,25,12.5,4.8-9.4,9.8-16.6,17-24.2,1.3-1.4,1.3-3.6,0-4.9h0Z" fill="#80b6e6" stroke-width="0"/>
    <path d="M262.1,633s0,0,0,0c.5-1.3-.2-2.9-1.3-3.4,0,0-.1,0-.2,0-1.3-.4-2.6.7-3.1,1.9-1.4,4.5-2.3,8.9-2.7,13.5,2-2.8,4-5.5,6.2-8.1.3-1.3.7-2.6,1.1-3.8Z" fill="#80b6e6" stroke-width="0"/>
    <path d="M287.5,647c-.8-.8-1.9-1.3-3.1-1.3.5-1.6.2-3.1-.9-4.4-.9-1.1-2.2-1.6-3.6-1.6-.1,0-.2,0-.4,0,0-1.3-.4-2.6-1.4-3.6-.7-.6-1.5-1-2.5-1.1,2.5-2.7,4.5-4.4,7.2-6.6,2.2-1.7,2.9-4.2,1.7-6.4-.9-1.6-2.4-2.4-4.1-2.4-1,0-2.1.4-3.1,1.1,0,0,0,0,0,0-4.6,3.7-8.8,7.6-12.7,11.9.3-2.2-.9-4.5-2.9-5.4-.1,0-.3-.1-.4-.2-1.2-.4-2.6-.2-3.8.5-1.1.7-1.9,1.7-2.3,2.9,0,0,0,0,0,0-1.9,6-2.9,11.9-3,18.1-3,4.6-5.9,9.7-8.7,15.2-.1.3-.2.6,0,.9.1.3.3.6.6.7,8.4,3.9,16.8,8.1,25,12.5.2,0,.4.1.6.1.1,0,.2,0,.3,0,.3,0,.6-.3.7-.6,4.7-9.3,9.7-16.4,16.8-24,1.7-1.9,1.7-4.8,0-6.6ZM257.5,631.5c.4-1.3,1.8-2.3,3.1-1.9,0,0,.1,0,.2,0,1.2.5,1.8,2.1,1.3,3.4,0,0,0,0,0,0-.4,1.3-.8,2.6-1.1,3.8-2.1,2.6-4.2,5.2-6.2,8.1.4-4.5,1.2-9,2.7-13.5ZM285.8,651.9c-7,7.4-12,14.5-16.6,23.4-7.5-4-15.2-7.8-22.9-11.4,2-3.8,4-7.4,6-10.8.4-.6.8-1.2,1.1-1.8.4-.6.8-1.2,1.2-1.8,1.7-2.6,3.5-5.2,5.3-7.6.5-.7,1-1.3,1.6-2,.5-.7,1.1-1.3,1.6-2,4.7-5.5,9.8-10.5,15.6-15.2.6-.4,1.2-.6,1.8-.7.8,0,1.4.4,1.9,1.2.7,1.3,0,2.5-1,3.3,0,0,0,0,0,0-3.9,3-6.3,5.2-10.5,10.3-.4.5-.4,1.2.1,1.7.5.4,1.2.4,1.7,0,.6-.6,1.4-1,2.2-1,.4,0,1.1,0,1.6.5.9.8.7,2.3,0,3.2-.4.5-.4,1.2,0,1.6.5.4,1.2.5,1.6,0,.5-.4,1.1-.7,1.8-.7.5,0,1.2,0,1.7.7.7.8,1.1,2.2-.8,4.2-.4.5-.4,1.2,0,1.7.4.5,1.2.5,1.7,0h0c.4-.4,1-.6,1.6-.6.7,0,1.3.2,1.7.6.9.8.9,2.3,0,3.2Z" fill="#fff" stroke-width="0"/>
    <path d="M246.8,657.2s-12.4,19.8-12.4,44.7c7.9,0,31.8.1,31.8.1-.2-13.9,8.1-28.9,8.1-28.9l-27.5-15.9Z" fill="#74b0e4" stroke-width="0"/>
    <path d="M266.2,703.6h0c.8,0,1.5-.7,1.5-1.5h0c-.2-13.4,7.9-28.1,8-28.2.4-.7.2-1.6-.6-2l-27.5-15.9c-.7-.4-1.6-.2-2,.5-.1.2-3.2,5.2-6.3,13.3-2.9,7.5-6.3,19.1-6.3,32.2,0,.8.7,1.5,1.5,1.5h0c.8,0,1.5-.7,1.5-1.5,0-12.6,3.3-23.8,6.1-31.1,2.1-5.5,4.3-9.6,5.4-11.6l25,14.4c-2.1,4-7.8,16.5-7.6,28.4,0,0,0,0,0,0h0c0,.9.7,1.5,1.5,1.5h0Z" fill="#041e42" stroke-width="0"/>
    <path d="M261.6,683.8c-.2-.1-3.6-1.9-8.3-3.2,1.9-6,4-9.9,4-10,.2-.4,0-.8-.3-1-.4-.2-.8,0-1,.3,0,0-2.2,4.1-4.2,10.3-3.2-.8-6.9-1.2-10.4-.7-.4,0-.7.4-.6.8,0,.4.4.7.8.6,3.3-.5,6.8,0,9.8.7-.5,1.6-.9,3.4-1.3,5.3-4.3.5-7.8,1.6-10.6,3.1-.3.2-.5.6-.3,1,.1.3.4.4.7.4h0c0,0,.2,0,.3,0,2.8-1.6,6.3-2.4,9.6-2.9-.5,2.8-.9,5.8-1,9,0,.4.3.8.7.8h0c.4,0,.7-.3.8-.7,0-3.2.5-6.3,1-9.2,5.1-.5,9.3-.2,9.4-.2.4,0,.7-.3.8-.6,0-.4-.3-.7-.6-.8-.1,0-3.3-.3-7.6,0-.6,0-1.1,0-1.7.1.4-1.7.8-3.2,1.2-4.7,4.6,1.3,8,3.1,8,3.1.1,0,.3,0,.4,0,.2,0,.5-.2.6-.4.2-.3,0-.8-.3-1Z" fill="#fff" stroke-width="0"/>
  </g>
  <g id="return-button">
    <path d="M97.2,702.1c-16.4,0-29.8-13.4-29.8-29.8s13.3-29.8,29.8-29.8,29.8,13.4,29.8,29.8-13.3,29.8-29.8,29.8ZM97.2,645.5c-14.8,0-26.8,12-26.8,26.8s12,26.8,26.8,26.8,26.8-12,26.8-26.8-12-26.8-26.8-26.8Z" fill="#fff" opacity=".3" stroke-width="0"/>
    <path d="M97.2,702.1c-16.4,0-29.8-13.4-29.8-29.8s13.3-29.8,29.8-29.8,1.5.7,1.5,1.5-.7,1.5-1.5,1.5c-14.8,0-26.8,12-26.8,26.8s12,26.8,26.8,26.8,1.5.7,1.5,1.5-.7,1.5-1.5,1.5Z" fill="url(#linear-gradient)" stroke-width="0"/>
    <path d="M83.1,680.1h.5c.5,0,.8,0,1-.2.2-.2.3-.4.3-.7s-.1-.6-.3-.7c-.2-.1-.6-.2-1-.2h-.4v1.8ZM83.1,681.3v2.6h-1.4v-6.8h2c.9,0,1.6.2,2,.5.4.3.7.8.7,1.5s-.1.8-.3,1.1c-.2.3-.5.6-.9.7,1,1.5,1.7,2.5,2,3h-1.6l-1.6-2.6h-.8ZM89.9,679.6c-.3,0-.5,0-.7.3-.2.2-.3.5-.3.8h2c0-.4,0-.6-.3-.8-.2-.2-.4-.3-.7-.3ZM90.1,684c-.8,0-1.5-.2-2-.7-.5-.5-.7-1.1-.7-2s.2-1.5.6-2c.4-.5,1-.7,1.8-.7s1.3.2,1.7.6c.4.4.6,1,.6,1.7v.7h-3.3c0,.4.1.7.4.9.2.2.5.3.9.3s.6,0,.9,0c.3,0,.6-.2.9-.3v1.1c-.2.1-.5.2-.8.3-.3,0-.6,0-1,0ZM95.6,682.9c.2,0,.5,0,.9-.2v1.1c-.4.2-.8.2-1.3.2s-1-.1-1.2-.4c-.3-.3-.4-.7-.4-1.3v-2.5h-.7v-.6l.8-.5.4-1.1h.9v1.1h1.5v1.1h-1.5v2.5c0,.2,0,.4.2.4.1,0,.3.1.5.1ZM101.2,683.9l-.2-.7h0c-.2.2-.4.4-.6.6-.3.1-.6.2-1,.2-.6,0-1.1-.2-1.4-.5-.3-.3-.5-.8-.5-1.4v-3.4h1.4v3c0,.4,0,.7.2.8.1.2.3.3.6.3s.7-.1.9-.4c.2-.3.3-.7.3-1.3v-2.4h1.4v5.2h-1.1ZM106.7,678.6c.2,0,.4,0,.5,0v1.3c-.2,0-.4,0-.5,0-.5,0-.8.1-1.1.3-.2.2-.4.6-.4,1v2.6h-1.4v-5.2h1.1l.2.9h0c.2-.3.4-.5.7-.7.3-.2.6-.3.9-.3ZM112.9,683.9h-1.4v-3c0-.4,0-.7-.2-.8-.1-.2-.3-.3-.6-.3s-.7.1-.9.4c-.2.3-.3.7-.3,1.3v2.4h-1.4v-5.2h1.1l.2.7h0c.2-.3.4-.4.7-.6.3-.1.6-.2.9-.2.6,0,1.1.2,1.4.5.3.3.5.8.5,1.4v3.4Z" fill="#fff" stroke-width="0"/>
    <path d="M88.3,663.3c-.2.2-.2.5,0,.7l3.2,3.2c.2.2.5.2.7,0,.2-.2.2-.5,0-.7l-2.9-2.9,2.9-2.9c.2-.2.2-.5,0-.7-.2-.2-.5-.2-.7,0l-3.2,3.2ZM105.3,663.2h-16.7v1h16.7v-1Z" fill="#fff" stroke-width="0"/>
  </g>
  <g id="exclamation">
    <path d="M139.8,363.8h5.1v-5.1c0-.4.3-.7.7-.7s.7.3.7.7v5.1h5.1c.4,0,.7.3.7.7s-.3.7-.7.7h-5.1v5.1c0,.4-.3.7-.7.7s-.7-.3-.7-.7v-5.1h-5.1c-.4,0-.7-.3-.7-.7s.3-.7.7-.7Z" fill="#147bd1" stroke-width="0"/>
    <g>
      <path d="M117.8,275.9c.1-.2.4-.2.6,0l8.9,6.9c.2.1.2.3.1.5,0,0,0,0,0,0-.1.2-.4.2-.6,0l-8.9-6.9c-.2-.1-.2-.4,0-.6Z" fill="#0032a0" stroke-width="0"/>
      <path d="M127,283.9c-.2,0-.4,0-.5-.2l-8.9-6.9c-.4-.3-.5-.9-.2-1.3h0c.3-.4.9-.5,1.3-.2l8.9,6.9c.3.3.4.7.2,1.1h0c-.1.3-.4.4-.6.5,0,0,0,0-.1,0ZM127.1,282.9h0s0,0,0,0h0Z" fill="#0032a0" stroke-width="0"/>
    </g>
    <g>
      <path d="M150.9,262.3h0c.2,0,.4.2.3.5l-1.5,11.1h0c0,0,0,0,0,.1,0,.1-.2.2-.4.2-.2,0-.4-.2-.3-.5l1.5-11.1h0c0-.2.2-.4.4-.3Z" fill="#0032a0" stroke-width="0"/>
      <path d="M149.4,274.7s0,0-.1,0c-.2,0-.5-.2-.6-.3-.1-.2-.2-.4-.2-.7l1.5-11.1c0-.5.5-.8,1-.8h0c.5,0,.8.5.8,1l-1.5,11.1c0,.1,0,.2,0,.3-.2.3-.5.5-.8.5Z" fill="#0032a0" stroke-width="0"/>
    </g>
    <path d="M132.3,265.2c0-.2,0-.4.2-.5.2,0,.4,0,.5.2h0l4.3,10.4c0,.1,0,.2,0,.3h0c0,0-.1.1-.2.2-.2,0-.4,0-.5-.2l-4.3-10.4h0Z" fill="#0032a0" stroke-width="0"/>
    <path d="M137,276.3c-.4,0-.7-.2-.8-.6l-4.3-10.4c-.2-.5,0-1,.5-1.2.2,0,.5,0,.7,0,.2,0,.4.3.5.5l4.3,10.4c.1.2,0,.5,0,.8,0,.2-.3.3-.5.4-.1,0-.2,0-.3,0Z" fill="#0032a0" stroke-width="0"/>
    <path d="M180.3,336.9c7.7-8.7,10.9-20.6,8.5-32.1-2-9.6-7.7-17.9-15.9-23.3-8.2-5.4-18.1-7.2-27.7-5.2-19.9,4.2-32.7,23.8-28.5,43.7,2,9.6,7.7,17.9,15.9,23.3,8.2,5.4,18.1,7.2,27.7,5.2,2.2-.5,4.3-1.1,6.4-2l17.3,12.2c.4.3.9.5,1.4.5s1.1-.2,1.5-.5c.9-.7,1.2-1.9.8-2.9l-7.5-18.9Z" fill="#0032a0" stroke-width="0"/>
    <g>
      <path d="M197.5,300v.3h4.9c.2,0,.4.2.4.4s-.2.4-.4.4h-4.9v4.9c0,.2-.2.4-.4.4s-.4-.2-.4-.4v-4.9h-4.9c-.2,0-.4-.2-.4-.4s.2-.4.4-.4h4.9v-4.9c0-.2.2-.4.4-.4s.4.2.4.4v4.7Z" fill="#041e42" stroke-width="0"/>
      <path d="M197.1,306.8c-.5,0-.9-.4-.9-.9v-4.4h-4.4c-.5,0-.9-.4-.9-.9s.4-.9.9-.9h4.4v-4.4c0-.5.4-.9.9-.9s.9.4.9.9v4.4h4.4c.5,0,.9.4.9.9s-.4.9-.9.9h-4.4v4.4c0,.5-.4.9-.9.9Z" fill="#0032a0" stroke-width="0"/>
    </g>
    <path d="M108.2,299.6c.2.2.2.5,0,.7-1.6,1.9-2.5,4.8-2.5,7.9,0,2.9,1,5.6,2.6,7.8.8-1.7,2.1-2.9,3.7-3.2,1.3-.3,2.3.3,2.8,1.6.6,1.6.2,3.8-1.4,4.7-1.6.9-3.2.5-4.7-1,0,0,0,0,0,0-1.2,5.1,2.2,10,5.7,12.8.2.2.3.5,0,.8-.2.2-.5.3-.8,0-2.6-2.1-4.4-4.5-5.5-7.1-.9-2.3-1.1-4.6-.6-6.8,0-.2.1-.5.2-.7-4.4-5.5-3.9-13.4-.5-17.5.2-.2.5-.3.8,0,0,0,0,0,0,0h0ZM109.8,317.6c1.4,1.3,2.5,1,3.2.6,1.1-.6,1.4-2.3.9-3.4-.2-.5-.7-1.1-1.6-.9-1.4.3-2.5,1.5-3.2,3.1,0,0,.2.2.3.3.1.1.3.3.4.4Z" fill="#0032a0" stroke-width="0"/>
    <g mask="url(#mask-2)">
      <g>
        <path d="M156.7,323l-7.2.7-4.4-33.5,9.6-.9,2,33.7Z" fill="#fff" stroke-width="0"/>
        <path d="M158.8,335.3l-8.6,1.4v-8.7c0,0,7.1-.3,7.1-.3l1.5,7.6Z" fill="#fff" stroke-width="0"/>
      </g>
    </g>
    <g mask="url(#mask-3)">
      <g>
        <path d="M43.6,282.7s1.1,1.6,2.8,1.6c1,0,1.9-.4,2.8-1.4,1-1.3,1.7-1.5,2-1.5.5,0,1,.7,1.4,1.3,0,0,1.1,1.6,2.8,1.6,1,0,1.9-.4,2.8-1.4.6-.8,1.2-1.1,1.8-1.1.9,0,1.6.9,1.7,1,.2.3.7.4,1,.1.3-.2.4-.7.1-1,0,0-1.1-1.5-2.8-1.5-1.1,0-2.1.5-3,1.6-.5.6-1,.9-1.6.9-.8,0-1.5-.8-1.7-1-.5-.7-1.3-1.8-2.5-1.9-1,0-2.1.6-3.2,2-.5.6-1,.9-1.6.9-.8,0-1.5-.8-1.7-1-.5-.7-1.3-1.8-2.5-1.9-1,0-2.1.6-3.2,2-.5.6-1,.9-1.6.9-.8,0-1.5-.8-1.7-1-.5-.7-1.2-1.8-2.5-1.9-1,0-2.1.6-3.2,2-.1.1-.2.3-.2.5s0,.4.3.6c.3.2.8.2,1,0,1-1.3,1.7-1.5,2-1.5.5,0,1,.7,1.4,1.3,0,0,1.1,1.6,2.8,1.6,1,0,1.9-.4,2.8-1.4,1-1.3,1.7-1.5,2-1.5.5,0,1,.7,1.4,1.3h0Z" fill="#147bd1" stroke-width="0"/>
        <path d="M125.5,383.5l-4.7-3.3c-.2-.2-.6-.2-.8,0l-4.3,3-4.3-3c-.2-.2-.6-.2-.8,0l-4.3,3-4.3-3c-.2-.2-.6-.2-.8,0l-4.3,3-4.3-3c-.2-.2-.6-.2-.8,0l-4.3,3-4.3-3c-.2-.2-.6-.2-.8,0l-4.7,3.3c-.3.2-.4.7-.2,1,.1.2.4.3.6.3s.3,0,.4-.1l4.3-3,4.3,3c.2.2.6.2.8,0l4.3-3,4.3,3c.2.2.6.2.8,0l4.3-3,4.3,3c.2.2.6.2.8,0l4.3-3,4.3,3c.2.2.6.2.8,0l4.3-3,4.3,3c.3.2.8.1,1-.2.2-.3.1-.8-.2-1Z" fill="#147bd1" stroke-width="0"/>
        <path d="M33.3,292h-5.1v-5.1c0-.4-.3-.7-.7-.7s-.7.3-.7.7v5.1h-5.1c-.4,0-.7.3-.7.7s.3.7.7.7h5.1v5.1c0,.4.3.7.7.7s.7-.3.7-.7v-5.1h5.1c.4,0,.7-.3.7-.7s-.3-.7-.7-.7Z" fill="#147bd1" stroke-width="0"/>
        <path d="M116.6,282.8c-2-6.2-8.8-9.6-15-7.6l-53.7,17.6c-3,1-5.5,3.1-6.9,6-1.4,2.9-1.6,6.1-.7,9.2,1,3,3.1,5.4,5.9,6.8,2.8,1.4,6,1.6,9,.6l5.9-1.9v17.1l7.3-19.5,40.5-13.3c3-1,5.5-3.1,6.9-6,1.4-2.8,1.7-6.1.7-9.1Z" fill="#abcae9" stroke-width="0"/>
        <path d="M138.4,341.4c-1-3-3.1-5.5-5.9-7-2.9-1.5-6.1-1.8-9.1-.8l-53.7,17.6c-6.2,2-9.6,8.8-7.6,15,1,3,3.1,5.5,5.9,6.9,2.8,1.4,6.1,1.7,9.1.7l40-13.1,6,16.1v-18.1l7.7-2.5c3-1,5.5-3.1,6.9-5.8,1.5-2.8,1.7-6,.8-9Z" fill="#abcae9" stroke-width="0"/>
        <path d="M55.7,307.7c-.2,0-.3,0-.5,0-.7-.3-1-1.1-.8-1.8.2-.6,11.4-14.5,17.8-16.4,1.2-.4,1.9.1,2.3.4,1.3,1.2,1,4,.1,7.7h0c-.1.6-.2,1.1-.4,1.6-.3,1.3-.9,3.5-.8,4.4.7-.3,2.4-2.6,3.7-4.2,3.3-4.3,7-9.2,10.8-8.5,2.3.4,2.8,2.8,3.2,4.6.1.6.4,1.8.6,2.1.5-.5,1.3-2.7,1.6-3.6.5-1.6.8-2.5,1.4-3,1.6-1.5,3.5-1.5,5.3-1.6,2.6,0,5.6-.1,9.4-4.5.5-.6,1.3-.6,1.9-.1.6.5.6,1.3.1,1.9-4.6,5.2-8.5,5.3-11.4,5.4-1.7,0-2.7.1-3.5.8-.2.3-.5,1.2-.7,1.9-.8,2.6-1.9,5.8-4.4,5.5-2.2-.2-2.7-2.5-3-4.2-.2-1.1-.5-2.4-1-2.5-2.2-.4-5.8,4.4-8.2,7.5-2.3,3-3.6,4.7-5,5.2-1.4.4-2.2,0-2.7-.4-1.4-1.3-.7-4.1,0-7.3.1-.5.2-1,.4-1.4h0c.7-3.1.7-4.3.7-4.9-5.1,1.9-14.6,13.3-15.9,15-.3.4-.7.6-1.1.6h0Z" fill="#6cace4" stroke-width="0"/>
        <path d="M72.7,367.7c-.3,0-.6-.1-.9-.3-.6-.5-.6-1.3-.1-1.9,2.3-2.6,13.7-15.9,17.3-17.1.5-.2,1.1,0,1.5.3.9.9.6,2-1,7.2-.5,1.5-1.1,3.7-1.5,5.3,1.6-1.9,3.8-5.3,5.3-7.6,3.9-5.9,5.6-8.4,7.1-8.9.5-.2,1.1,0,1.5.3,1,.8,1,2.4.8,7.1,0,1.4-.2,3.5-.1,4.9,1.2-1.3,3.2-3.8,4.6-5.7,3.8-5,5.6-7.2,7-7.7,1.4-.5,4.3-.4,12.3,5.2.1,0,.2.1.3.2.6.4.8,1.3.4,1.9-.4.6-1.3.8-1.9.4,0,0-.2-.1-.3-.2-7.7-5.4-9.7-4.9-9.9-4.9-.9.4-3.8,4.2-5.7,6.7-3.7,4.8-5.4,6.9-6.7,7.3-.6.2-1.2,0-1.7-.3-1.2-.9-1.2-3-.9-8.1,0-1.1.1-2.5.1-3.6-1.3,1.6-3.2,4.5-4.6,6.7-3.9,5.9-6.3,9.6-8.3,10.2-.6.2-1.3,0-1.7-.4-1.1-1.1-.7-3.1,1.4-9.9.3-.8.5-1.8.8-2.6-3.5,3-9.7,9.8-13.9,14.8-.3.3-.6.5-1,.5h0Z" fill="#6cace4" stroke-width="0"/>
      </g>
    </g>
  </g>
  <g id="touch-target">
    <path d="M302.5,633.4c12.5,0,22.7-10.2,22.7-22.7s-10.2-22.7-22.7-22.7-22.7,10.2-22.7,22.7,10.2,22.7,22.7,22.7Z" fill="#fff" fill-opacity=".2" stroke-width="0"/>
    <path d="M302.5,626.3c8.6,0,15.6-7,15.6-15.7s-7-15.7-15.6-15.7-15.6,7-15.6,15.7,7,15.7,15.6,15.7Z" fill="#fff" fill-opacity=".3" stroke-width="0"/>
  </g>
  <g id="text-1">
    <g>
      <path d="M357.7,333.4v145.4c0,7-6.1,12.6-13.7,12.6h-115c-7.6,0-13.7-5.6-13.7-12.6v-162.7c0-7,6.1-12.6,13.7-12.6h96.2c1.4,0,2.7.5,3.7,1.4l27.3,25.1c1,.9,1.5,2.1,1.5,3.4h0Z" fill="#81b7e6" stroke-width="0"/>
      <path d="M344,493.9h-115c-8.9,0-16.2-6.8-16.2-15.1v-162.7c0-8.3,7.3-15.1,16.2-15.1h96.2c2,0,3.9.7,5.4,2.1l27.3,25.1c1.5,1.4,2.3,3.3,2.3,5.2h0v145.4c0,8.3-7.3,15.1-16.2,15.1ZM229,306c-6.2,0-11.2,4.5-11.2,10.1v162.7c0,5.6,5,10.1,11.2,10.1h115c6.2,0,11.2-4.5,11.2-10.1v-145.4c0-.6-.3-1.1-.7-1.5l-27.3-25.1c-.5-.5-1.2-.7-2-.7h-96.2Z" fill="#041e42" stroke-width="0"/>
    </g>
    <path d="M358,335.6h-31.8c-1.7,0-3-1.3-3-3v-29.2h5v27.2h29.8v5Z" fill="#041e42" stroke-width="0"/>
    <path d="M239.3,349.9h-.8v-5.8h-2.1v-.7h4.9v.7h-2.1v5.8ZM245.6,349.9v-3.1c0-.4,0-.7-.3-.9-.2-.2-.5-.3-.8-.3s-.9.1-1.1.4c-.2.3-.3.7-.3,1.4v2.5h-.7v-6.9h.7v2.1c0,.3,0,.5,0,.6h0c.1-.2.4-.4.6-.6.3-.1.6-.2.9-.2.6,0,1,.1,1.3.4.3.3.4.7.4,1.3v3.2h-.7ZM249.9,350c-.7,0-1.3-.2-1.7-.7-.4-.4-.6-1-.6-1.8s.2-1.4.6-1.9c.4-.5.9-.7,1.6-.7s1.1.2,1.4.6c.4.4.5.9.5,1.6v.5h-3.3c0,.6.2,1,.4,1.3.3.3.7.4,1.2.4s1-.1,1.6-.3v.7c-.3.1-.5.2-.7.2-.2,0-.5,0-.8,0ZM249.7,345.6c-.4,0-.7.1-.9.4-.2.3-.4.6-.4,1.1h2.5c0-.5-.1-.8-.3-1.1-.2-.2-.5-.4-.9-.4ZM258.3,349.9v-.7h-.2c-.2.3-.5.5-.7.6-.2.1-.5.2-.9.2s-.9-.1-1.1-.4c-.3-.2-.4-.6-.4-1.1,0-1,.8-1.5,2.4-1.5h.8v-.3c0-.4,0-.7-.2-.8-.2-.2-.4-.3-.8-.3s-.9.1-1.4.4l-.2-.6c.2-.1.5-.2.8-.3.3,0,.6-.1.9-.1.6,0,1,.1,1.3.4.3.3.4.7.4,1.2v3.3h-.5ZM256.6,349.4c.5,0,.8-.1,1.1-.4.3-.3.4-.6.4-1.1v-.4h-.7c-.6,0-1,.1-1.3.3-.3.2-.4.4-.4.8s0,.5.2.6c.2.1.4.2.7.2ZM261.4,349.9l-1.8-4.9h.8l1,2.9c.2.7.4,1.1.4,1.3h0c0-.2.1-.5.3-1,.2-.5.6-1.6,1.2-3.2h.8l-1.8,4.9h-.9ZM267,350c-.7,0-1.3-.2-1.7-.7-.4-.4-.6-1-.6-1.8s.2-1.4.6-1.9c.4-.5.9-.7,1.6-.7s1.1.2,1.4.6c.4.4.5.9.5,1.6v.5h-3.3c0,.6.2,1,.4,1.3.3.3.7.4,1.2.4s1-.1,1.6-.3v.7c-.3.1-.5.2-.7.2-.2,0-.5,0-.8,0ZM266.8,345.6c-.4,0-.7.1-.9.4-.2.3-.4.6-.4,1.1h2.5c0-.5-.1-.8-.3-1.1-.2-.2-.5-.4-.9-.4ZM272.2,345c.2,0,.4,0,.6,0v.7c-.3,0-.5,0-.6,0-.4,0-.7.2-1,.5-.3.3-.4.7-.4,1.2v2.6h-.7v-4.9h.6v.9h.1c.2-.3.4-.6.7-.7.3-.2.5-.3.8-.3ZM276.7,349.9v-.7h-.2c-.2.3-.5.5-.7.6-.2.1-.5.2-.9.2s-.9-.1-1.1-.4c-.3-.2-.4-.6-.4-1.1,0-1,.8-1.5,2.4-1.5h.8v-.3c0-.4,0-.7-.2-.8-.2-.2-.4-.3-.8-.3s-.9.1-1.4.4l-.2-.6c.2-.1.5-.2.8-.3.3,0,.6-.1.9-.1.6,0,1,.1,1.3.4.3.3.4.7.4,1.2v3.3h-.5ZM275,349.4c.5,0,.8-.1,1.1-.4.3-.3.4-.6.4-1.1v-.4h-.7c-.6,0-1,.1-1.3.3-.3.2-.4.4-.4.8s0,.5.2.6c.2.1.4.2.7.2ZM282.7,345v.5h-.9c0,.2.2.3.2.5,0,.2,0,.4,0,.6,0,.5-.2.9-.5,1.1-.3.3-.8.4-1.3.4s-.3,0-.4,0c-.3.2-.5.4-.5.6s0,.2.2.3c.1,0,.3,0,.6,0h.9c.5,0,.9.1,1.2.3.3.2.4.5.4,1s-.2.9-.6,1.2c-.4.3-1.1.4-1.9.4s-1.1-.1-1.5-.4c-.3-.2-.5-.6-.5-1s0-.6.3-.8c.2-.2.5-.4.8-.4-.1,0-.2-.1-.3-.3,0-.1-.1-.3-.1-.4s0-.3.1-.5c0-.1.2-.3.4-.4-.3-.1-.5-.3-.6-.5-.2-.2-.2-.5-.2-.9,0-.5.2-.9.5-1.2.3-.3.8-.4,1.4-.4s.5,0,.7,0h1.7ZM278.9,350.7c0,.3.1.5.3.6.2.1.5.2,1,.2.6,0,1.1,0,1.4-.3.3-.2.4-.4.4-.8s0-.4-.2-.6c-.2-.1-.5-.2-.9-.2h-.9c-.3,0-.6,0-.8.2-.2.2-.3.4-.3.7ZM279.3,346.6c0,.3,0,.6.3.8.2.2.5.3.8.3.7,0,1.1-.3,1.1-1s-.4-1.1-1.1-1.1-.6,0-.8.3c-.2.2-.3.5-.3.8ZM285.8,350c-.7,0-1.3-.2-1.7-.7-.4-.4-.6-1-.6-1.8s.2-1.4.6-1.9c.4-.5.9-.7,1.6-.7s1.1.2,1.4.6c.4.4.5.9.5,1.6v.5h-3.3c0,.6.2,1,.4,1.3.3.3.7.4,1.2.4s1-.1,1.6-.3v.7c-.3.1-.5.2-.7.2-.2,0-.5,0-.8,0ZM285.6,345.6c-.4,0-.7.1-.9.4-.2.3-.4.6-.4,1.1h2.5c0-.5-.1-.8-.3-1.1-.2-.2-.5-.4-.9-.4ZM294.5,349.9v-3.1c0-.4,0-.7-.3-.9-.2-.2-.5-.3-.8-.3s-.9.1-1.1.4c-.2.3-.4.7-.4,1.4v2.5h-.7v-6.9h.7v2.1c0,.3,0,.5,0,.6h0c.1-.2.4-.4.6-.6.3-.1.6-.2.9-.2.6,0,1,.1,1.3.4.3.3.4.7.4,1.3v3.2h-.7ZM301,347.5c0,.8-.2,1.4-.6,1.9-.4.4-.9.7-1.7.7s-.8-.1-1.2-.3c-.3-.2-.6-.5-.8-.9-.2-.4-.3-.8-.3-1.3,0-.8.2-1.4.6-1.9.4-.4.9-.7,1.6-.7s1.2.2,1.6.7c.4.5.6,1.1.6,1.8ZM297.3,347.5c0,.6.1,1.1.4,1.4.2.3.6.5,1.1.5s.8-.2,1.1-.5c.3-.3.4-.8.4-1.4s-.1-1.1-.4-1.4c-.2-.3-.6-.5-1.1-.5s-.8.2-1.1.5c-.2.3-.4.8-.4,1.4ZM305.4,348.6c0,.5-.2.8-.5,1-.3.2-.8.4-1.4.4s-1.1-.1-1.5-.3v-.7c.2.1.5.2.8.3.3,0,.5.1.8.1.4,0,.7,0,.9-.2.2-.1.3-.3.3-.6s0-.4-.2-.5c-.2-.1-.5-.3-1-.5-.5-.2-.8-.3-1-.4-.2-.1-.3-.3-.4-.4,0-.2-.1-.4-.1-.6,0-.4.2-.7.5-.9.3-.2.8-.3,1.3-.3s1,.1,1.5.3l-.3.6c-.5-.2-.9-.3-1.3-.3s-.6,0-.8.2c-.2.1-.3.3-.3.5s0,.2,0,.3c0,0,.2.2.3.3.1,0,.4.2.9.4.6.2,1,.4,1.2.6.2.2.3.5.3.8ZM308.9,350c-.3,0-.6,0-.9-.2-.3-.1-.5-.3-.7-.5h0c0,.3,0,.6,0,.8v2h-.7v-7.1h.6v.7h.1c.2-.3.4-.5.7-.6.3-.1.5-.2.9-.2.6,0,1.1.2,1.5.7.4.4.5,1.1.5,1.9s-.2,1.4-.5,1.9c-.4.4-.8.7-1.5.7ZM308.8,345.6c-.5,0-.9.1-1.1.4-.2.3-.3.7-.3,1.3v.2c0,.7.1,1.2.3,1.5.2.3.6.4,1.1.4s.7-.2,1-.5c.2-.3.4-.8.4-1.4s-.1-1.1-.4-1.4c-.2-.3-.6-.5-1-.5ZM312.9,349.9h-.7v-4.9h.7v4.9ZM312.1,343.7c0-.2,0-.3.1-.4,0,0,.2-.1.3-.1s.2,0,.3.1c0,0,.1.2.1.4s0,.3-.1.4c0,0-.2.1-.3.1s-.2,0-.3-.1c0,0-.1-.2-.1-.4ZM316,349.4c.1,0,.3,0,.4,0,.1,0,.2,0,.3,0v.6c0,0-.2,0-.4,0-.2,0-.3,0-.4,0-.9,0-1.4-.5-1.4-1.5v-2.9h-.7v-.4l.7-.3.3-1h.4v1.1h1.4v.6h-1.4v2.9c0,.3,0,.5.2.7.1.2.3.2.6.2ZM320.7,349.9v-.7h-.2c-.2.3-.5.5-.7.6-.2.1-.5.2-.9.2s-.9-.1-1.1-.4c-.3-.2-.4-.6-.4-1.1,0-1,.8-1.5,2.4-1.5h.8v-.3c0-.4,0-.7-.2-.8-.2-.2-.4-.3-.8-.3s-.9.1-1.4.4l-.2-.6c.2-.1.5-.2.8-.3.3,0,.6-.1.9-.1.6,0,1,.1,1.3.4.3.3.4.7.4,1.2v3.3h-.5ZM319,349.4c.5,0,.8-.1,1.1-.4.3-.3.4-.6.4-1.1v-.4h-.7c-.6,0-1,.1-1.3.3-.3.2-.4.4-.4.8s0,.5.2.6c.2.1.4.2.7.2ZM323.5,349.9h-.7v-6.9h.7v6.9ZM240.6,362.5v-3.1c0-.4,0-.7-.3-.9-.2-.2-.5-.3-.8-.3s-.9.1-1.1.4c-.2.3-.4.7-.4,1.4v2.5h-.7v-6.9h.7v2.1c0,.3,0,.5,0,.6h0c.1-.2.4-.4.6-.5.3-.1.6-.2.9-.2.6,0,1,.1,1.3.4.3.3.4.7.4,1.3v3.2h-.7ZM245.8,362.5v-.7h-.2c-.2.3-.5.5-.7.6-.2.1-.5.2-.9.2s-.9-.1-1.1-.4c-.3-.2-.4-.6-.4-1.1,0-1,.8-1.5,2.4-1.5h.8v-.3c0-.4,0-.7-.2-.8-.2-.2-.4-.3-.8-.3s-.9.1-1.4.4l-.2-.6c.2-.1.5-.2.8-.3.3,0,.6-.1.9-.1.6,0,1,.1,1.3.4.3.3.4.7.4,1.2v3.3h-.5ZM244.1,362c.5,0,.8-.1,1.1-.4.3-.3.4-.6.4-1.1v-.4h-.7c-.6,0-1,.1-1.3.3-.3.2-.4.4-.4.8s0,.5.2.6c.2.1.4.2.7.2ZM251,361.2c0,.5-.2.8-.5,1-.3.2-.8.4-1.4.4s-1.1-.1-1.5-.3v-.7c.2.1.5.2.8.3.3,0,.5.1.8.1.4,0,.7,0,.9-.2.2-.1.3-.3.3-.6s0-.4-.2-.5c-.2-.1-.5-.3-1-.5-.5-.2-.8-.3-1-.4-.2-.1-.3-.3-.4-.4,0-.2-.1-.4-.1-.6,0-.4.2-.7.5-.9.3-.2.8-.3,1.3-.3s1,.1,1.5.3l-.3.6c-.5-.2-.9-.3-1.3-.3s-.6,0-.8.2c-.2.1-.3.3-.3.5s0,.2,0,.3c0,0,.2.2.3.3.1,0,.4.2.9.4.6.2,1,.4,1.2.6.2.2.3.5.3.8ZM257,362.5h-.7v-4.6c0-.4,0-.7,0-1.1,0,0-.1.1-.2.2,0,0-.4.4-1.1.9l-.4-.5,1.7-1.3h.6v6.5ZM259.6,362.1c0-.2,0-.3.1-.4,0-.1.2-.2.4-.2s.3,0,.4.2c0,.1.1.2.1.4s0,.3-.1.4c0,.1-.2.2-.4.2s-.3,0-.4-.1c0,0-.1-.2-.1-.5ZM266.1,362.5h-4.3v-.6l1.7-1.7c.5-.5.9-.9,1-1.1.2-.2.3-.4.4-.7,0-.2.1-.4.1-.7s-.1-.6-.3-.8c-.2-.2-.5-.3-.9-.3s-.5,0-.8.1c-.2,0-.5.2-.8.5l-.4-.5c.6-.5,1.2-.7,2-.7s1.1.2,1.4.5c.3.3.5.7.5,1.3s-.1.8-.3,1.2c-.2.4-.7.9-1.3,1.5l-1.4,1.4h0s3.3,0,3.3,0v.7ZM272.2,362.5h-.9l-2.4-3.1-.7.6v2.5h-.8v-6.5h.8v3.2l2.9-3.2h.9l-2.6,2.8,2.7,3.7ZM275.1,359h1.8v.6h-1.8v1.9h-.6v-1.9h-1.8v-.6h1.8v-1.9h.6v1.9ZM283.5,359.1h2.2v3.2c-.3.1-.7.2-1,.2-.4,0-.8,0-1.2,0-1,0-1.7-.3-2.3-.9-.5-.6-.8-1.4-.8-2.5s.1-1.3.4-1.8c.3-.5.7-.9,1.2-1.2.5-.3,1.1-.4,1.8-.4s1.3.1,1.9.4l-.3.7c-.6-.2-1.1-.4-1.7-.4-.8,0-1.4.2-1.9.7-.4.5-.7,1.1-.7,2s.2,1.5.6,2c.4.5,1.1.7,1.9.7s.9,0,1.3-.2v-2h-1.5v-.7ZM291.4,357.9c0,.7-.2,1.2-.7,1.5-.4.4-1.1.5-1.9.5h-.8v2.6h-.8v-6.5h1.7c1.6,0,2.4.6,2.4,1.9ZM288,359.3h.7c.7,0,1.2-.1,1.5-.3.3-.2.4-.6.4-1s-.1-.7-.4-1c-.3-.2-.7-.3-1.3-.3h-.8v2.6ZM298.3,359.3c0,1-.3,1.9-.8,2.5-.5.6-1.3.9-2.2.9s-1.7-.3-2.2-.9c-.5-.6-.8-1.4-.8-2.5s.3-1.9.8-2.5c.5-.6,1.3-.9,2.2-.9s1.7.3,2.2.9c.5.6.8,1.4.8,2.5ZM293.2,359.3c0,.9.2,1.5.6,2,.4.5.9.7,1.6.7s1.3-.2,1.6-.7c.4-.5.6-1.1.6-2s-.2-1.5-.6-2c-.4-.5-.9-.7-1.6-.7s-1.3.2-1.6.7c-.4.5-.6,1.1-.6,2ZM305,362.5v-.7h-.2c-.2.3-.5.5-.7.6-.2.1-.5.2-.9.2s-.9-.1-1.1-.4c-.3-.2-.4-.6-.4-1.1,0-1,.8-1.5,2.4-1.5h.8v-.3c0-.4,0-.7-.2-.8-.2-.2-.4-.3-.8-.3s-.9.1-1.4.4l-.2-.6c.2-.1.5-.2.8-.3.3,0,.6-.1.9-.1.6,0,1,.1,1.3.4.3.3.4.7.4,1.2v3.3h-.5ZM303.4,362c.5,0,.8-.1,1.1-.4.3-.3.4-.6.4-1.1v-.4h-.7c-.6,0-1,.1-1.3.3-.3.2-.4.4-.4.8s0,.5.2.6c.2.1.4.2.7.2ZM310.4,362.5v-3.1c0-.4,0-.7-.3-.9-.2-.2-.5-.3-.8-.3s-.9.1-1.1.4c-.2.3-.4.7-.4,1.4v2.6h-.7v-4.9h.6v.7h.2c.2-.2.4-.4.6-.6.3-.1.6-.2.9-.2.6,0,1,.1,1.3.4.3.3.4.7.4,1.4v3.2h-.7ZM316,361.9h0c-.3.5-.8.7-1.5.7s-1.1-.2-1.5-.7c-.4-.4-.5-1.1-.5-1.9s.2-1.4.5-1.9c.4-.4.8-.7,1.5-.7s1.2.2,1.5.7h0v-.4s0-.3,0-.3v-2h.7v6.9h-.6v-.7ZM314.5,362c.5,0,.9-.1,1.1-.4.2-.3.3-.7.3-1.3v-.2c0-.7-.1-1.2-.3-1.5-.2-.3-.6-.4-1.1-.4s-.8.2-1,.5c-.2.3-.3.8-.3,1.4s.1,1.1.3,1.4c.2.3.6.5,1,.5ZM321.3,362.5h-.7v-6.9h.7v6.9ZM327.1,360.1c0,.8-.2,1.4-.6,1.9-.4.4-1,.7-1.7.7s-.8-.1-1.2-.3c-.3-.2-.6-.5-.8-.9-.2-.4-.3-.8-.3-1.3,0-.8.2-1.4.6-1.9.4-.4.9-.7,1.6-.7s1.2.2,1.6.7c.4.5.6,1.1.6,1.8ZM323.4,360.1c0,.6.1,1.1.4,1.4.2.3.6.5,1.1.5s.8-.2,1.1-.5c.3-.3.4-.8.4-1.4s-.1-1.1-.4-1.4c-.2-.3-.6-.5-1.1-.5s-.8.2-1.1.5c-.2.3-.4.8-.4,1.4ZM330.3,362.6c-.7,0-1.2-.2-1.6-.6-.4-.4-.6-1-.6-1.8s.2-1.4.6-1.9c.4-.4,1-.7,1.7-.7s.5,0,.7,0c.2,0,.4.1.5.2l-.2.6c-.2,0-.3-.1-.5-.2-.2,0-.4,0-.5,0-1,0-1.5.6-1.5,1.9s.1,1.1.4,1.4c.2.3.6.5,1.1.5s.8,0,1.2-.3v.7c-.3.2-.7.3-1.2.3ZM335.7,362.5v-.7h-.2c-.2.3-.5.5-.7.6-.2.1-.5.2-.9.2s-.9-.1-1.1-.4c-.3-.2-.4-.6-.4-1.1,0-1,.8-1.5,2.4-1.5h.8v-.3c0-.4,0-.7-.2-.8-.2-.2-.4-.3-.8-.3s-.9.1-1.4.4l-.2-.6c.2-.1.5-.2.8-.3.3,0,.6-.1.9-.1.6,0,1,.1,1.3.4.3.3.4.7.4,1.2v3.3h-.5ZM334,362c.5,0,.8-.1,1.1-.4.3-.3.4-.6.4-1.1v-.4h-.7c-.6,0-1,.1-1.3.3-.3.2-.4.4-.4.8s0,.5.2.6c.2.1.4.2.7.2ZM338.5,362.5h-.7v-6.9h.7v6.9ZM239.2,375.3c-.7,0-1.2-.2-1.6-.6-.4-.4-.6-1.1-.6-1.8s.2-1.4.6-1.9c.4-.4,1-.7,1.7-.7s.5,0,.7,0c.2,0,.4.1.5.2l-.2.6c-.2,0-.3-.1-.5-.2-.2,0-.4,0-.5,0-1,0-1.5.6-1.5,1.9s.1,1.1.4,1.4c.2.3.6.5,1.1.5s.8,0,1.2-.3v.7c-.3.2-.7.3-1.2.3ZM245.8,372.7c0,.8-.2,1.4-.6,1.9-.4.4-1,.7-1.7.7s-.8-.1-1.2-.3c-.3-.2-.6-.5-.8-.9-.2-.4-.3-.8-.3-1.3,0-.8.2-1.4.6-1.9.4-.4.9-.7,1.7-.7s1.2.2,1.6.7c.4.5.6,1.1.6,1.8ZM242.1,372.7c0,.6.1,1.1.4,1.4.2.3.6.5,1.1.5s.8-.2,1.1-.5c.3-.3.4-.8.4-1.4s-.1-1.1-.4-1.4c-.2-.3-.6-.5-1.1-.5s-.8.2-1.1.5c-.2.3-.4.8-.4,1.4ZM250.4,375.2v-3.1c0-.4,0-.7-.3-.9-.2-.2-.5-.3-.8-.3s-.9.1-1.1.4c-.2.3-.4.7-.4,1.4v2.6h-.7v-4.9h.6v.7h.2c.2-.2.4-.4.6-.6.3-.1.6-.2.9-.2.6,0,1,.1,1.3.4.3.3.4.7.4,1.4v3.2h-.7ZM254.2,374.7c.1,0,.3,0,.4,0,.1,0,.2,0,.3,0v.6c0,0-.2,0-.4,0-.2,0-.3,0-.4,0-.9,0-1.4-.5-1.4-1.5v-2.9h-.7v-.4l.7-.3.3-1h.4v1.1h1.4v.6h-1.4v2.9c0,.3,0,.5.2.7.1.2.3.2.6.2ZM258.1,370.2c.2,0,.4,0,.6,0v.7c-.3,0-.5,0-.6,0-.4,0-.7.2-1,.5-.3.3-.4.7-.4,1.2v2.6h-.7v-4.9h.6v.9h.1c.2-.3.4-.6.7-.7.3-.2.5-.3.8-.3ZM262.5,375.2v-.7h-.2c-.2.3-.5.5-.7.6-.2.1-.5.2-.9.2s-.9-.1-1.1-.4c-.3-.2-.4-.6-.4-1.1,0-1,.8-1.5,2.4-1.5h.8v-.3c0-.4,0-.7-.2-.8-.2-.2-.4-.3-.8-.3s-.9.1-1.4.4l-.2-.6c.2-.1.5-.2.8-.3.3,0,.6-.1.9-.1.6,0,1,.1,1.3.4.3.3.4.7.4,1.2v3.3h-.5ZM260.9,374.7c.5,0,.8-.1,1.1-.4.3-.3.4-.6.4-1.1v-.4h-.7c-.6,0-1,.1-1.3.3-.3.2-.4.4-.4.8s0,.5.2.6c.2.1.4.2.7.2ZM266.5,375.3c-.7,0-1.2-.2-1.6-.6-.4-.4-.6-1.1-.6-1.8s.2-1.4.6-1.9c.4-.4,1-.7,1.7-.7s.5,0,.7,0c.2,0,.4.1.6.2l-.2.6c-.2,0-.3-.1-.5-.2-.2,0-.4,0-.5,0-1,0-1.5.6-1.5,1.9s.1,1.1.4,1.4c.2.3.6.5,1.1.5s.8,0,1.2-.3v.7c-.3.2-.7.3-1.2.3ZM270.5,374.7c.1,0,.3,0,.4,0,.1,0,.2,0,.3,0v.6c0,0-.2,0-.4,0-.2,0-.3,0-.4,0-.9,0-1.4-.5-1.4-1.5v-2.9h-.7v-.4l.7-.3.3-1h.4v1.1h1.4v.6h-1.4v2.9c0,.3,0,.5.2.7.1.2.3.2.6.2ZM275.3,373.8c0,.5-.2.8-.5,1s-.8.4-1.4.4-1.1-.1-1.5-.3v-.7c.2.1.5.2.7.3.3,0,.5.1.8.1.4,0,.7,0,.9-.2.2-.1.3-.3.3-.6s0-.4-.2-.5c-.2-.1-.5-.3-1-.5-.5-.2-.8-.3-1-.4-.2-.1-.3-.3-.4-.4,0-.2-.1-.4-.1-.6,0-.4.2-.7.5-.9.3-.2.8-.3,1.3-.3s1,.1,1.5.3l-.3.6c-.5-.2-.9-.3-1.3-.3s-.6,0-.8.2c-.2.1-.3.3-.3.5s0,.2,0,.3c0,0,.2.2.3.3.1,0,.4.2.9.4.6.2,1,.4,1.2.6.2.2.3.5.3.8ZM281.8,375.2v-.7h-.2c-.2.3-.5.5-.7.6-.2.1-.5.2-.9.2s-.9-.1-1.1-.4c-.3-.2-.4-.6-.4-1.1,0-1,.8-1.5,2.4-1.5h.8v-.3c0-.4,0-.7-.2-.8-.2-.2-.4-.3-.8-.3s-.9.1-1.4.4l-.2-.6c.2-.1.5-.2.8-.3.3,0,.6-.1.9-.1.6,0,1,.1,1.3.4.3.3.4.7.4,1.2v3.3h-.5ZM280.2,374.7c.5,0,.8-.1,1.1-.4.3-.3.4-.6.4-1.1v-.4h-.7c-.6,0-1,.1-1.3.3-.3.2-.4.4-.4.8s0,.5.2.6c.2.1.4.2.7.2ZM287.2,375.2v-3.1c0-.4,0-.7-.3-.9-.2-.2-.5-.3-.8-.3s-.9.1-1.1.4c-.2.3-.4.7-.4,1.4v2.6h-.7v-4.9h.6v.7h.2c.2-.2.4-.4.6-.6.3-.1.6-.2.9-.2.6,0,1,.1,1.3.4.3.3.4.7.4,1.4v3.2h-.7ZM292.8,374.5h0c-.3.5-.8.7-1.5.7s-1.1-.2-1.5-.7c-.4-.4-.5-1.1-.5-1.9s.2-1.4.5-1.9c.4-.4.8-.7,1.5-.7s1.2.2,1.5.7h0v-.4s0-.3,0-.3v-2h.7v6.9h-.6v-.7ZM291.3,374.6c.5,0,.9-.1,1.1-.4.2-.3.3-.7.3-1.3v-.2c0-.7-.1-1.2-.3-1.5-.2-.3-.6-.4-1.1-.4s-.8.2-1,.5c-.2.3-.3.8-.3,1.4s.1,1.1.3,1.4c.2.3.6.5,1,.5ZM300.4,375.2v-.7h-.2c-.2.3-.5.5-.7.6-.2.1-.5.2-.9.2s-.9-.1-1.1-.4c-.3-.2-.4-.6-.4-1.1,0-1,.8-1.5,2.4-1.5h.8v-.3c0-.4,0-.7-.2-.8-.2-.2-.4-.3-.8-.3s-.9.1-1.4.4l-.2-.6c.2-.1.5-.2.8-.3.3,0,.6-.1.9-.1.6,0,1,.1,1.3.4.3.3.4.7.4,1.2v3.3h-.5ZM298.7,374.7c.5,0,.8-.1,1.1-.4.3-.3.4-.6.4-1.1v-.4h-.7c-.6,0-1,.1-1.3.3-.3.2-.4.4-.4.8s0,.5.2.6c.2.1.4.2.7.2ZM304.4,375.3c-.7,0-1.2-.2-1.6-.6-.4-.4-.6-1.1-.6-1.8s.2-1.4.6-1.9c.4-.4,1-.7,1.7-.7s.5,0,.7,0c.2,0,.4.1.6.2l-.2.6c-.2,0-.3-.1-.5-.2-.2,0-.4,0-.5,0-1,0-1.5.6-1.5,1.9s.1,1.1.4,1.4c.2.3.6.5,1.1.5s.8,0,1.2-.3v.7c-.3.2-.7.3-1.2.3ZM308.4,374.7c.1,0,.3,0,.4,0,.1,0,.2,0,.3,0v.6c0,0-.2,0-.4,0-.2,0-.3,0-.4,0-.9,0-1.4-.5-1.4-1.5v-2.9h-.7v-.4l.7-.3.3-1h.4v1.1h1.4v.6h-1.4v2.9c0,.3,0,.5.2.7.1.2.3.2.6.2ZM310.7,375.2h-.7v-4.9h.7v4.9ZM309.9,369c0-.2,0-.3.1-.4,0,0,.2-.1.3-.1s.2,0,.3.1c0,0,.1.2.1.4s0,.3-.1.4c0,0-.2.1-.3.1s-.2,0-.3-.1c0,0-.1-.2-.1-.4ZM313.4,375.2l-1.8-4.9h.8l1,2.9c.2.7.4,1.1.4,1.3h0c0-.2.1-.5.3-1,.2-.5.6-1.6,1.2-3.2h.8l-1.8,4.9h-.9ZM319.8,375.2v-.7h-.2c-.2.3-.5.5-.7.6-.2.1-.5.2-.9.2s-.9-.1-1.1-.4c-.3-.2-.4-.6-.4-1.1,0-1,.8-1.5,2.4-1.5h.8v-.3c0-.4,0-.7-.2-.8-.2-.2-.4-.3-.8-.3s-.9.1-1.4.4l-.2-.6c.2-.1.5-.2.8-.3.3,0,.6-.1.9-.1.6,0,1,.1,1.3.4.3.3.4.7.4,1.2v3.3h-.5ZM318.2,374.7c.5,0,.8-.1,1.1-.4.3-.3.4-.6.4-1.1v-.4h-.7c-.6,0-1,.1-1.3.3-.3.2-.4.4-.4.8s0,.5.2.6c.2.1.4.2.7.2ZM323.5,374.7c.1,0,.3,0,.4,0,.1,0,.2,0,.3,0v.6c0,0-.2,0-.4,0-.2,0-.3,0-.4,0-.9,0-1.4-.5-1.4-1.5v-2.9h-.7v-.4l.7-.3.3-1h.4v1.1h1.4v.6h-1.4v2.9c0,.3,0,.5.2.7.1.2.3.2.6.2ZM327.2,375.3c-.7,0-1.3-.2-1.7-.7-.4-.4-.6-1-.6-1.8s.2-1.4.6-1.9c.4-.5.9-.7,1.6-.7s1.1.2,1.4.6c.4.4.5.9.5,1.6v.5h-3.3c0,.6.2,1,.4,1.3.3.3.7.4,1.2.4s1-.1,1.6-.3v.7c-.3.1-.5.2-.7.2-.2,0-.5,0-.8,0ZM327,370.8c-.4,0-.7.1-.9.4-.2.3-.4.6-.4,1.1h2.5c0-.5-.1-.8-.3-1.1-.2-.2-.5-.4-.9-.4ZM333.3,373.8c0,.5-.2.8-.5,1s-.8.4-1.4.4-1.1-.1-1.5-.3v-.7c.2.1.5.2.8.3.3,0,.5.1.8.1.4,0,.7,0,.9-.2.2-.1.3-.3.3-.6s0-.4-.2-.5c-.2-.1-.5-.3-1-.5-.5-.2-.8-.3-1-.4-.2-.1-.3-.3-.4-.4,0-.2-.1-.4-.1-.6,0-.4.2-.7.5-.9.3-.2.8-.3,1.3-.3s1,.1,1.5.3l-.3.6c-.5-.2-.9-.3-1.3-.3s-.6,0-.8.2c-.2.1-.3.3-.3.5s0,.2,0,.3c0,0,.2.2.3.3.1,0,.4.2.9.4.6.2,1,.4,1.2.6.2.2.3.5.3.8ZM239.2,387.9c-.7,0-1.2-.2-1.6-.6-.4-.4-.6-1-.6-1.8s.2-1.4.6-1.9c.4-.4,1-.7,1.7-.7s.5,0,.7,0c.2,0,.4.1.5.2l-.2.6c-.2,0-.3-.1-.5-.2-.2,0-.4,0-.5,0-1,0-1.5.6-1.5,1.9s.1,1.1.4,1.4c.2.3.6.5,1.1.5s.8,0,1.2-.3v.7c-.3.2-.7.3-1.2.3ZM245.8,385.4c0,.8-.2,1.4-.6,1.9-.4.4-1,.7-1.7.7s-.8-.1-1.2-.3c-.3-.2-.6-.5-.8-.9s-.3-.8-.3-1.3c0-.8.2-1.4.6-1.9.4-.4.9-.7,1.7-.7s1.2.2,1.6.7c.4.5.6,1.1.6,1.8ZM242.1,385.4c0,.6.1,1.1.4,1.4.2.3.6.5,1.1.5s.8-.2,1.1-.5c.3-.3.4-.8.4-1.4s-.1-1.1-.4-1.4c-.2-.3-.6-.5-1.1-.5s-.8.2-1.1.5c-.2.3-.4.8-.4,1.4ZM250.4,387.8v-3.1c0-.4,0-.7-.3-.9-.2-.2-.5-.3-.8-.3s-.9.1-1.1.4c-.2.3-.4.7-.4,1.4v2.6h-.7v-4.9h.6v.7h.2c.2-.2.4-.4.6-.6.3-.1.6-.2.9-.2.6,0,1,.1,1.3.4.3.3.4.7.4,1.4v3.2h-.7ZM254.2,387.3c.1,0,.3,0,.4,0,.1,0,.2,0,.3,0v.6c0,0-.2,0-.4,0-.2,0-.3,0-.4,0-.9,0-1.4-.5-1.4-1.5v-2.9h-.7v-.4l.7-.3.3-1h.4v1.1h1.4v.6h-1.4v2.9c0,.3,0,.5.2.7.1.2.3.2.6.2ZM258.1,382.9c.2,0,.4,0,.6,0v.7c-.3,0-.5,0-.6,0-.4,0-.7.2-1,.5-.3.3-.4.7-.4,1.2v2.6h-.7v-4.9h.6v.9h.1c.2-.3.4-.6.7-.7.3-.2.5-.3.8-.3ZM262.5,387.8v-.7h-.2c-.2.3-.5.5-.7.6-.2.1-.5.2-.9.2s-.9-.1-1.1-.4c-.3-.2-.4-.6-.4-1.1,0-1,.8-1.5,2.4-1.5h.8v-.3c0-.4,0-.7-.2-.8-.2-.2-.4-.3-.8-.3s-.9.1-1.4.4l-.2-.6c.2-.1.5-.2.8-.3.3,0,.6-.1.9-.1.6,0,1,.1,1.3.4.3.3.4.7.4,1.2v3.3h-.5ZM260.9,387.3c.5,0,.8-.1,1.1-.4.3-.3.4-.6.4-1.1v-.4h-.7c-.6,0-1,.1-1.3.3-.3.2-.4.4-.4.8s0,.5.2.6c.2.1.4.2.7.2ZM266.5,387.9c-.7,0-1.2-.2-1.6-.6-.4-.4-.6-1-.6-1.8s.2-1.4.6-1.9c.4-.4,1-.7,1.7-.7s.5,0,.7,0c.2,0,.4.1.6.2l-.2.6c-.2,0-.3-.1-.5-.2-.2,0-.4,0-.5,0-1,0-1.5.6-1.5,1.9s.1,1.1.4,1.4c.2.3.6.5,1.1.5s.8,0,1.2-.3v.7c-.3.2-.7.3-1.2.3ZM270.5,387.3c.1,0,.3,0,.4,0,.1,0,.2,0,.3,0v.6c0,0-.2,0-.4,0-.2,0-.3,0-.4,0-.9,0-1.4-.5-1.4-1.5v-2.9h-.7v-.4l.7-.3.3-1h.4v1.1h1.4v.6h-1.4v2.9c0,.3,0,.5.2.7.1.2.3.2.6.2ZM276.8,387.9c-.3,0-.6,0-.9-.2-.3-.1-.5-.3-.7-.5h0c0,.3,0,.6,0,.8v2h-.7v-7.1h.6v.7h.1c.2-.3.4-.5.7-.6.3-.1.5-.2.9-.2.6,0,1.1.2,1.5.7.4.4.5,1.1.5,1.9s-.2,1.4-.5,1.9c-.4.4-.8.7-1.5.7ZM276.7,383.5c-.5,0-.9.1-1.1.4-.2.3-.3.7-.3,1.3v.2c0,.7.1,1.2.3,1.5.2.3.6.4,1.1.4s.7-.2,1-.5c.2-.3.4-.8.4-1.4s-.1-1.1-.4-1.4c-.2-.3-.6-.5-1-.5ZM282.3,382.9c.2,0,.4,0,.6,0v.7c-.3,0-.5,0-.6,0-.4,0-.7.2-1,.5-.3.3-.4.7-.4,1.2v2.6h-.7v-4.9h.6v.9h.1c.2-.3.4-.6.7-.7.3-.2.5-.3.8-.3ZM284.5,387.8h-.7v-4.9h.7v4.9ZM283.7,381.6c0-.2,0-.3.1-.4,0,0,.2-.1.3-.1s.2,0,.3.1c0,0,.1.2.1.4s0,.3-.1.4c0,0-.2.1-.3.1s-.2,0-.3-.1c0,0-.1-.2-.1-.4ZM288,387.9c-.7,0-1.2-.2-1.6-.6-.4-.4-.6-1-.6-1.8s.2-1.4.6-1.9c.4-.4,1-.7,1.7-.7s.5,0,.7,0c.2,0,.4.1.5.2l-.2.6c-.2,0-.3-.1-.5-.2-.2,0-.4,0-.5,0-1,0-1.5.6-1.5,1.9s.1,1.1.4,1.4c.2.3.6.5,1.1.5s.8,0,1.2-.3v.7c-.3.2-.7.3-1.2.3ZM291.1,387.8h-.7v-4.9h.7v4.9ZM290.3,381.6c0-.2,0-.3.1-.4,0,0,.2-.1.3-.1s.2,0,.3.1c0,0,.1.2.1.4s0,.3-.1.4c0,0-.2.1-.3.1s-.2,0-.3-.1c0,0-.1-.2-.1-.4ZM296,387.8v-3.1c0-.4,0-.7-.3-.9-.2-.2-.5-.3-.8-.3s-.9.1-1.1.4c-.2.3-.4.7-.4,1.4v2.6h-.7v-4.9h.6v.7h.2c.1-.2.4-.4.6-.6.3-.1.6-.2.9-.2.6,0,1,.1,1.3.4.3.3.4.7.4,1.4v3.2h-.7ZM302.3,382.9v.5h-.9c0,.2.2.3.2.5,0,.2,0,.4,0,.6,0,.5-.2.9-.5,1.1-.3.3-.8.4-1.3.4s-.3,0-.4,0c-.3.2-.5.4-.5.6s0,.2.2.3c.1,0,.3,0,.6,0h.9c.5,0,.9.1,1.2.3.3.2.4.5.4,1s-.2.9-.6,1.2c-.4.3-1.1.4-1.9.4s-1.1-.1-1.5-.4c-.3-.2-.5-.6-.5-1s0-.6.3-.8.5-.4.8-.4c-.1,0-.2-.1-.3-.3,0-.1-.1-.3-.1-.4s0-.3.1-.5c0-.1.2-.3.4-.4-.3-.1-.5-.3-.6-.5-.2-.2-.2-.5-.2-.9,0-.5.2-.9.5-1.2.3-.3.8-.4,1.4-.4s.5,0,.7,0h1.7ZM298.4,388.6c0,.3.1.5.3.6.2.1.5.2,1,.2.6,0,1.1,0,1.4-.3.3-.2.4-.4.4-.8s0-.4-.2-.6c-.2-.1-.5-.2-.9-.2h-.9c-.3,0-.6,0-.8.2-.2.2-.3.4-.3.7ZM298.8,384.5c0,.3,0,.6.3.8.2.2.5.3.8.3.7,0,1.1-.3,1.1-1s-.4-1.1-1.1-1.1-.6,0-.8.3c-.2.2-.3.5-.3.8ZM307.8,383.5h-1.2v4.3h-.7v-4.3h-.9v-.3l.9-.3v-.3c0-1.2.5-1.8,1.6-1.8s.6,0,.9.2l-.2.6c-.3,0-.5-.1-.7-.1s-.5,0-.6.3c-.1.2-.2.5-.2.9v.3h1.2v.6ZM312.9,385.4c0,.8-.2,1.4-.6,1.9-.4.4-1,.7-1.7.7s-.8-.1-1.2-.3c-.3-.2-.6-.5-.8-.9-.2-.4-.3-.8-.3-1.3,0-.8.2-1.4.6-1.9.4-.4.9-.7,1.6-.7s1.2.2,1.6.7c.4.5.6,1.1.6,1.8ZM309.2,385.4c0,.6.1,1.1.4,1.4.2.3.6.5,1.1.5s.8-.2,1.1-.5c.3-.3.4-.8.4-1.4s-.1-1.1-.4-1.4c-.2-.3-.6-.5-1.1-.5s-.8.2-1.1.5c-.2.3-.4.8-.4,1.4ZM316.4,382.9c.2,0,.4,0,.6,0v.7c-.3,0-.5,0-.6,0-.4,0-.7.2-1,.5-.3.3-.4.7-.4,1.2v2.6h-.7v-4.9h.6v.9h.1c.2-.3.4-.6.7-.7.3-.2.5-.3.8-.3ZM241.5,398.9h-1v1.5h-.7v-1.5h-3.2v-.6l3.1-4.4h.8v4.4h1v.7ZM239.8,398.3v-2.2c0-.4,0-.9,0-1.4h0c-.1.3-.3.5-.4.7l-2,2.9h2.4ZM246.4,397.2c0,1.1-.2,2-.5,2.5-.4.6-.9.8-1.6.8s-1.2-.3-1.6-.8c-.4-.6-.5-1.4-.5-2.5s.2-2,.5-2.5c.4-.5.9-.8,1.6-.8s1.2.3,1.6.9c.4.6.5,1.4.5,2.5ZM242.8,397.2c0,.9.1,1.6.3,2.1.2.4.6.6,1.1.6s.8-.2,1.1-.7c.2-.4.3-1.1.3-2.1s-.1-1.6-.3-2c-.2-.4-.6-.7-1.1-.7s-.8.2-1.1.6c-.2.4-.3,1.1-.3,2.1ZM252.4,400.4h-.9l-2.4-3.1-.7.6v2.5h-.8v-6.5h.8v3.2l2.9-3.2h.9l-2.6,2.8,2.7,3.7ZM255.3,396.9h1.8v.6h-1.8v1.9h-.6v-1.9h-1.8v-.6h1.8v-1.9h.6v1.9ZM264.1,400.4v-3.1c0-.4,0-.7-.3-.9-.2-.2-.5-.3-.8-.3s-.9.1-1.1.4c-.2.3-.4.7-.4,1.4v2.6h-.7v-4.9h.6v.7h.2c.2-.2.4-.4.6-.6.3-.1.6-.2.9-.2.6,0,1,.1,1.3.4.3.3.4.7.4,1.4v3.2h-.7ZM268.4,400.5c-.7,0-1.3-.2-1.7-.7-.4-.4-.6-1-.6-1.8s.2-1.4.6-1.9c.4-.5.9-.7,1.6-.7s1.1.2,1.4.6c.4.4.5.9.5,1.6v.5h-3.3c0,.6.2,1,.4,1.3.3.3.7.4,1.2.4s1-.1,1.6-.3v.7c-.3.1-.5.2-.7.2-.2,0-.5,0-.8,0ZM268.2,396.1c-.4,0-.7.1-.9.4-.2.3-.4.6-.4,1.1h2.5c0-.5-.1-.8-.3-1.1-.2-.2-.5-.4-.9-.4ZM275.4,400.4l-.9-2.9c0-.2-.2-.6-.3-1.2h0c-.1.5-.2.9-.3,1.2l-.9,2.8h-.9l-1.3-4.9h.8c.3,1.2.6,2.2.7,2.8.2.6.3,1.1.3,1.3h0c0-.2,0-.4.2-.7,0-.3.1-.5.2-.6l.9-2.8h.8l.9,2.8c.2.5.3.9.3,1.3h0c0-.1,0-.3,0-.5,0-.2.4-1.4.9-3.6h.8l-1.3,4.9h-.9ZM281.6,400.4h-.7v-6.9h.7v6.9ZM283.9,400.4h-.7v-4.9h.7v4.9ZM283.1,394.3c0-.2,0-.3.1-.4,0,0,.2-.1.3-.1s.2,0,.3.1c0,0,.1.2.1.4s0,.3-.1.4c0,0-.2.1-.3.1s-.2,0-.3-.1c0,0-.1-.2-.1-.4ZM288.8,400.4v-3.1c0-.4,0-.7-.3-.9-.2-.2-.5-.3-.8-.3s-.9.1-1.1.4c-.2.3-.4.7-.4,1.4v2.6h-.7v-4.9h.6v.7h.2c.2-.2.4-.4.6-.6.3-.1.6-.2.9-.2.6,0,1,.1,1.3.4.3.3.4.7.4,1.4v3.2h-.7ZM293.1,400.5c-.7,0-1.3-.2-1.7-.7-.4-.4-.6-1-.6-1.8s.2-1.4.6-1.9c.4-.5.9-.7,1.6-.7s1.1.2,1.4.6c.4.4.5.9.5,1.6v.5h-3.3c0,.6.2,1,.4,1.3.3.3.7.4,1.2.4s1-.1,1.6-.3v.7c-.3.1-.5.2-.7.2-.2,0-.5,0-.8,0ZM292.9,396.1c-.4,0-.7.1-.9.4-.2.3-.4.6-.4,1.1h2.5c0-.5-.1-.8-.3-1.1-.2-.2-.5-.4-.9-.4ZM299.2,400.4h-.7v-4.9h.7v4.9ZM298.4,394.3c0-.2,0-.3.1-.4,0,0,.2-.1.3-.1s.2,0,.3.1c0,0,.1.2.1.4s0,.3-.1.4c0,0-.2.1-.3.1s-.2,0-.3-.1c0,0-.1-.2-.1-.4ZM302.4,399.9c.1,0,.3,0,.4,0,.1,0,.2,0,.3,0v.6c0,0-.2,0-.4,0-.2,0-.3,0-.4,0-.9,0-1.4-.5-1.4-1.5v-2.9h-.7v-.4l.7-.3.3-1h.4v1.1h1.4v.6h-1.4v2.9c0,.3,0,.5.2.7.1.2.3.2.6.2ZM306.1,400.5c-.7,0-1.3-.2-1.7-.7-.4-.4-.6-1-.6-1.8s.2-1.4.6-1.9c.4-.5.9-.7,1.6-.7s1.1.2,1.4.6c.4.4.5.9.5,1.6v.5h-3.3c0,.6.2,1,.4,1.3.3.3.7.4,1.2.4s1-.1,1.6-.3v.7c-.3.1-.5.2-.7.2-.2,0-.5,0-.8,0ZM305.9,396.1c-.4,0-.7.1-.9.4-.2.3-.4.6-.4,1.1h2.5c0-.5-.1-.8-.3-1.1-.2-.2-.5-.4-.9-.4ZM315.3,400.4v-3.2c0-.4,0-.7-.2-.9-.2-.2-.4-.3-.8-.3s-.8.1-1,.4c-.2.3-.3.7-.3,1.2v2.7h-.7v-3.2c0-.4,0-.7-.2-.9-.2-.2-.4-.3-.8-.3s-.8.1-1,.4c-.2.3-.3.7-.3,1.4v2.6h-.7v-4.9h.6v.7h.2c.1-.2.3-.4.6-.6.3-.1.5-.2.9-.2.8,0,1.3.3,1.5.8h0c.1-.3.4-.5.6-.6.3-.1.6-.2.9-.2.5,0,1,.1,1.2.4.3.3.4.7.4,1.4v3.2h-.7ZM320.7,399.1c0,.5-.2.8-.5,1-.3.2-.8.4-1.4.4s-1.1-.1-1.5-.3v-.7c.2.1.5.2.7.3.3,0,.5.1.8.1.4,0,.7,0,.9-.2.2-.1.3-.3.3-.6s0-.4-.2-.5c-.2-.1-.5-.3-1-.5-.5-.2-.8-.3-1-.4-.2-.1-.3-.3-.4-.4,0-.2-.1-.4-.1-.6,0-.4.2-.7.5-.9.3-.2.8-.3,1.3-.3s1,.1,1.5.3l-.3.6c-.5-.2-.9-.3-1.3-.3s-.6,0-.8.2c-.2.1-.3.3-.3.5s0,.2,0,.3c0,0,.2.2.3.3.1,0,.4.2.9.4.6.2,1,.4,1.2.6.2.2.3.5.3.8ZM239.3,413.2c-.7,0-1.3-.2-1.7-.7-.4-.4-.6-1-.6-1.8s.2-1.4.6-1.9c.4-.5.9-.7,1.6-.7s1.1.2,1.4.6c.4.4.5.9.5,1.6v.5h-3.3c0,.6.2,1,.4,1.3.3.3.7.4,1.2.4s1-.1,1.6-.3v.7c-.3.1-.5.2-.7.2-.2,0-.5,0-.8,0ZM239.1,408.7c-.4,0-.7.1-.9.4-.2.3-.4.6-.4,1.1h2.5c0-.5-.1-.8-.3-1.1-.2-.2-.5-.4-.9-.4ZM243.4,413.1l-1.8-4.9h.8l1,2.9c.2.7.4,1.1.4,1.3h0c0-.2.1-.5.3-1,.2-.5.6-1.6,1.2-3.2h.8l-1.8,4.9h-.9ZM248.9,413.2c-.7,0-1.3-.2-1.7-.7-.4-.4-.6-1-.6-1.8s.2-1.4.6-1.9c.4-.5.9-.7,1.6-.7s1.1.2,1.4.6c.4.4.5.9.5,1.6v.5h-3.3c0,.6.2,1,.4,1.3.3.3.7.4,1.2.4s1-.1,1.6-.3v.7c-.3.1-.5.2-.7.2-.2,0-.5,0-.8,0ZM248.7,408.7c-.4,0-.7.1-.9.4-.2.3-.4.6-.4,1.1h2.5c0-.5-.1-.8-.3-1.1-.2-.2-.5-.4-.9-.4ZM254.2,408.1c.2,0,.4,0,.6,0v.7c-.3,0-.5,0-.6,0-.4,0-.7.2-1,.5-.3.3-.4.7-.4,1.2v2.6h-.7v-4.9h.6v.9h.1c.2-.3.4-.6.7-.7s.5-.3.8-.3ZM254.9,408.2h.8l1.1,2.8c.2.6.4,1.1.4,1.4h0c0-.2.1-.4.2-.8.1-.4.5-1.5,1.2-3.4h.8l-2.1,5.5c-.2.5-.4.9-.7,1.2-.3.2-.6.3-1,.3s-.4,0-.7,0v-.6c.2,0,.3,0,.5,0,.5,0,.9-.3,1.1-.9l.3-.7-2-4.9ZM262.4,410.3c0-1.3.2-2.2.7-2.9.5-.6,1.2-1,2.2-1s.6,0,.8,0v.6c-.2,0-.5-.1-.8-.1-.7,0-1.2.2-1.6.7-.4.4-.6,1.1-.6,2h0c.3-.5.8-.8,1.5-.8s1,.2,1.4.5c.3.4.5.8.5,1.4s-.2,1.2-.6,1.6c-.4.4-.9.6-1.5.6s-1.2-.3-1.6-.8c-.4-.5-.6-1.2-.6-2.1ZM264.5,412.5c.4,0,.7-.1,1-.4.2-.3.4-.6.4-1.1s-.1-.8-.3-1c-.2-.2-.5-.4-1-.4s-.5,0-.7.2c-.2.1-.4.3-.5.5-.1.2-.2.4-.2.6,0,.3,0,.6.2.9.1.3.3.5.5.6.2.2.5.2.7.2ZM276.4,413.1v-3.2c0-.4,0-.7-.2-.9-.2-.2-.4-.3-.8-.3s-.8.1-1,.4c-.2.3-.3.7-.3,1.2v2.7h-.7v-3.2c0-.4,0-.7-.2-.9-.2-.2-.4-.3-.8-.3s-.8.1-1,.4c-.2.3-.3.7-.3,1.4v2.6h-.7v-4.9h.6v.7h.2c.1-.2.3-.4.6-.6.3-.1.5-.2.9-.2.8,0,1.3.3,1.5.8h0c.1-.3.4-.5.6-.6.3-.1.6-.2.9-.2.6,0,1,.1,1.2.4.3.3.4.7.4,1.4v3.2h-.7ZM282.8,410.6c0,.8-.2,1.4-.6,1.9-.4.4-.9.7-1.7.7s-.8-.1-1.2-.3c-.3-.2-.6-.5-.8-.9-.2-.4-.3-.8-.3-1.3,0-.8.2-1.4.6-1.9.4-.4.9-.7,1.6-.7s1.2.2,1.6.7c.4.5.6,1.1.6,1.8ZM279.1,410.6c0,.6.1,1.1.4,1.4.2.3.6.5,1.1.5s.8-.2,1.1-.5c.3-.3.4-.8.4-1.4s-.1-1.1-.4-1.4c-.2-.3-.6-.5-1.1-.5s-.8.2-1.1.5c-.2.3-.4.8-.4,1.4ZM287.4,413.1v-3.1c0-.4,0-.7-.3-.9-.2-.2-.5-.3-.8-.3s-.9.1-1.1.4c-.2.3-.4.7-.4,1.4v2.6h-.7v-4.9h.6v.7h.2c.1-.2.4-.4.6-.6.3-.1.6-.2.9-.2.6,0,1,.1,1.3.4.3.3.4.7.4,1.4v3.2h-.7ZM291.3,412.6c.1,0,.3,0,.4,0,.1,0,.2,0,.3,0v.6c0,0-.2,0-.4,0-.2,0-.3,0-.4,0-.9,0-1.4-.5-1.4-1.5v-2.9h-.7v-.4l.7-.3.3-1h.4v1.1h1.4v.6h-1.4v2.9c0,.3,0,.5.2.7.1.2.3.2.6.2ZM296.2,413.1v-3.1c0-.4,0-.7-.3-.9s-.5-.3-.8-.3-.9.1-1.1.4c-.2.3-.4.7-.4,1.4v2.5h-.7v-6.9h.7v2.1c0,.3,0,.5,0,.6h0c.1-.2.4-.4.6-.6.3-.1.6-.2.9-.2.6,0,1,.1,1.3.4.3.3.4.7.4,1.3v3.2h-.7ZM301.6,411.7c0,.5-.2.8-.5,1-.3.2-.8.4-1.4.4s-1.1-.1-1.5-.3v-.7c.2.1.5.2.7.3.3,0,.5.1.8.1.4,0,.7,0,.9-.2.2-.1.3-.3.3-.6s0-.4-.2-.5c-.2-.1-.5-.3-1-.5-.5-.2-.8-.3-1-.4-.2-.1-.3-.3-.4-.4,0-.2-.1-.4-.1-.6,0-.4.2-.7.5-.9.3-.2.8-.3,1.3-.3s1,.1,1.5.3l-.3.6c-.5-.2-.9-.3-1.3-.3s-.6,0-.8.2c-.2.1-.3.3-.3.5s0,.2,0,.3c0,0,.2.2.3.3.1,0,.4.2.9.4.6.2,1,.4,1.2.6.2.2.3.5.3.8ZM302.7,412.6c0-.2,0-.3.1-.4,0-.1.2-.2.4-.2s.3,0,.4.2c0,.1.1.2.1.4s0,.3-.1.4c0,.1-.2.2-.4.2s-.3,0-.4-.1c0,0-.1-.2-.1-.5Z" fill="#041e42" stroke-width="0"/>
    <path d="M85.1,403.5h-.5v-.5h.5v.5ZM85.1,439.8l-2.9-5.1h5.8l-2.9,5.1ZM84.6,439.6c0-.3.2-.5.5-.5s.5.2.5.5h-1ZM85.6,435.6c0,.3-.2.5-.5.5s-.5-.2-.5-.5h1ZM84.6,435c0-.3.2-.5.5-.5s.5.2.5.5h-1ZM85.6,431c0,.3-.2.5-.5.5s-.5-.2-.5-.5h1ZM84.6,430.5c0-.3.2-.5.5-.5s.5.2.5.5h-1ZM85.6,426.5c0,.3-.2.5-.5.5s-.5-.2-.5-.5h1ZM84.6,426c0-.3.2-.5.5-.5s.5.2.5.5h-1ZM85.6,421.9c0,.3-.2.5-.5.5s-.5-.2-.5-.5h1ZM84.6,421.4c0-.3.2-.5.5-.5s.5.2.5.5h-1ZM85.6,417.4c0,.3-.2.5-.5.5s-.5-.2-.5-.5h1ZM84.6,416.9c0-.3.2-.5.5-.5s.5.2.5.5h-1ZM85.6,412.8c0,.3-.2.5-.5.5s-.5-.2-.5-.5h1ZM84.6,412.3c0-.3.2-.5.5-.5s.5.2.5.5h-1ZM85.6,408.3c0,.3-.2.5-.5.5s-.5-.2-.5-.5h1ZM84.6,407.8c0-.3.2-.5.5-.5s.5.2.5.5h-1ZM85.6,403.7c0,.3-.2.5-.5.5s-.5-.2-.5-.5h1ZM85.3,403c.3,0,.5.2.5.5s-.2.5-.5.5v-1ZM89.3,404c-.3,0-.5-.2-.5-.5s.2-.5.5-.5v1ZM89.8,403c.3,0,.5.2.5.5s-.2.5-.5.5v-1ZM93.8,404c-.3,0-.5-.2-.5-.5s.2-.5.5-.5v1ZM94.3,403c.3,0,.5.2.5.5s-.2.5-.5.5v-1ZM98.3,404c-.3,0-.5-.2-.5-.5s.2-.5.5-.5v1ZM98.8,403c.3,0,.5.2.5.5s-.2.5-.5.5v-1ZM102.8,404c-.3,0-.5-.2-.5-.5s.2-.5.5-.5v1ZM103.3,403c.3,0,.5.2.5.5s-.2.5-.5.5v-1ZM107.3,404c-.3,0-.5-.2-.5-.5s.2-.5.5-.5v1ZM107.8,403c.3,0,.5.2.5.5s-.2.5-.5.5v-1ZM111.8,404c-.3,0-.5-.2-.5-.5s.2-.5.5-.5v1ZM112.3,403c.3,0,.5.2.5.5s-.2.5-.5.5v-1ZM116.3,404c-.3,0-.5-.2-.5-.5s.2-.5.5-.5v1ZM116.8,403c.3,0,.5.2.5.5s-.2.5-.5.5v-1ZM120.7,404c-.3,0-.5-.2-.5-.5s.2-.5.5-.5v1ZM121.2,403c.3,0,.5.2.5.5s-.2.5-.5.5v-1ZM125.2,404c-.3,0-.5-.2-.5-.5s.2-.5.5-.5v1ZM125.7,403c.3,0,.5.2.5.5s-.2.5-.5.5v-1ZM129.7,404c-.3,0-.5-.2-.5-.5s.2-.5.5-.5v1ZM130.2,403c.3,0,.5.2.5.5s-.2.5-.5.5v-1ZM134.2,404c-.3,0-.5-.2-.5-.5s.2-.5.5-.5v1ZM134.7,403c.3,0,.5.2.5.5s-.2.5-.5.5v-1ZM138.7,404c-.3,0-.5-.2-.5-.5s.2-.5.5-.5v1ZM139.2,403c.3,0,.5.2.5.5s-.2.5-.5.5v-1ZM143.2,404c-.3,0-.5-.2-.5-.5s.2-.5.5-.5v1ZM143.7,403c.3,0,.5.2.5.5s-.2.5-.5.5v-1ZM147.7,404c-.3,0-.5-.2-.5-.5s.2-.5.5-.5v1ZM148.2,403c.3,0,.5.2.5.5s-.2.5-.5.5v-1ZM152.2,404c-.3,0-.5-.2-.5-.5s.2-.5.5-.5v1ZM152.7,403c.3,0,.5.2.5.5s-.2.5-.5.5v-1ZM156.7,404c-.3,0-.5-.2-.5-.5s.2-.5.5-.5v1ZM157.2,403c.3,0,.5.2.5.5s-.2.5-.5.5v-1ZM161.1,404c-.3,0-.5-.2-.5-.5s.2-.5.5-.5v1ZM161.6,403c.3,0,.5.2.5.5s-.2.5-.5.5v-1ZM165.6,404c-.3,0-.5-.2-.5-.5s.2-.5.5-.5v1ZM166.1,403c.3,0,.5.2.5.5s-.2.5-.5.5v-1ZM170.1,404c-.3,0-.5-.2-.5-.5s.2-.5.5-.5v1ZM170.6,403c.3,0,.5.2.5.5s-.2.5-.5.5v-1ZM174.6,404c-.3,0-.5-.2-.5-.5s.2-.5.5-.5v1ZM175.1,403c.3,0,.5.2.5.5s-.2.5-.5.5v-1ZM179.1,404c-.3,0-.5-.2-.5-.5s.2-.5.5-.5v1ZM179.6,403c.3,0,.5.2.5.5s-.2.5-.5.5v-1ZM183.6,404c-.3,0-.5-.2-.5-.5s.2-.5.5-.5v1ZM184.1,403c.3,0,.5.2.5.5s-.2.5-.5.5v-1ZM188.1,404c-.3,0-.5-.2-.5-.5s.2-.5.5-.5v1ZM188.6,403c.3,0,.5.2.5.5s-.2.5-.5.5v-1ZM192.6,404c-.3,0-.5-.2-.5-.5s.2-.5.5-.5v1ZM193.1,403c.3,0,.5.2.5.5s-.2.5-.5.5v-1ZM197.1,404c-.3,0-.5-.2-.5-.5s.2-.5.5-.5v1ZM197.6,403c.3,0,.5.2.5.5s-.2.5-.5.5v-1ZM201.5,404c-.3,0-.5-.2-.5-.5s.2-.5.5-.5v1ZM202,403c.3,0,.5.2.5.5s-.2.5-.5.5v-1ZM206,404c-.3,0-.5-.2-.5-.5s.2-.5.5-.5v1ZM206.5,403c.3,0,.5.2.5.5s-.2.5-.5.5v-1ZM210.5,404c-.3,0-.5-.2-.5-.5s.2-.5.5-.5v1ZM211,403c.3,0,.5.2.5.5s-.2.5-.5.5v-1ZM215,404c-.3,0-.5-.2-.5-.5s.2-.5.5-.5v1ZM84.6,435.6v-.5h1v.5h-1ZM84.6,431v-.5h1v.5h-1ZM84.6,426.5v-.5h1v.5h-1ZM84.6,421.9v-.5h1v.5h-1ZM84.6,417.4v-.5h1v.5h-1ZM84.6,412.8v-.5h1v.5h-1ZM84.6,408.3v-.5h1v.5h-1ZM84.6,403.7v-.3h1v.3h-1ZM85.1,403h.2v1h-.2v-1ZM89.3,403h.5v1h-.5v-1ZM93.8,403h.5v1h-.5v-1ZM98.3,403h.5v1h-.5v-1ZM102.8,403h.5v1h-.5v-1ZM107.3,403h.5v1h-.5v-1ZM111.8,403h.5v1h-.5v-1ZM116.3,403h.5v1h-.5v-1ZM120.7,403h.5v1h-.5v-1ZM125.2,403h.5v1h-.5v-1ZM129.7,403h.5v1h-.5v-1ZM134.2,403h.5v1h-.5v-1ZM138.7,403h.5v1h-.5v-1ZM143.2,403h.5v1h-.5v-1ZM147.7,403h.5v1h-.5v-1ZM152.2,403h.5v1h-.5v-1ZM156.7,403h.5v1h-.5v-1ZM161.1,403h.5v1h-.5v-1ZM165.6,403h.5v1h-.5v-1ZM170.1,403h.5v1h-.5v-1ZM174.6,403h.5v1h-.5v-1ZM179.1,403h.5v1h-.5v-1ZM183.6,403h.5v1h-.5v-1ZM188.1,403h.5v1h-.5v-1ZM192.6,403h.5v1h-.5v-1ZM197.1,403h.5v1h-.5v-1ZM201.5,403h.5v1h-.5v-1ZM206,403h.5v1h-.5v-1ZM210.5,403h.5v1h-.5v-1ZM215,403h.2v1h-.2v-1Z" fill="#041e42" stroke-width="0"/>
  </g>
  <g id="text-2">
    <g>
      <path d="M284.4,445.9H71c-1.7,0-3,1.4-3,3v140c0,1.7,1.4,3,3,3h213.4c1.7,0,3-1.4,3-3v-140c0-1.7-1.4-3-3-3Z" fill="#6cace4" stroke-width="0"/>
      <path d="M284.4,594.4H71c-3,0-5.5-2.5-5.5-5.5v-140c0-3.1,2.5-5.5,5.5-5.5h213.4c3,0,5.5,2.5,5.5,5.5v140c0,3-2.5,5.5-5.5,5.5ZM71,448.4c-.3,0-.5.2-.5.5v140c0,.3.2.5.5.5h213.4c.3,0,.5-.2.5-.5v-140c0-.3-.2-.5-.5-.5H71Z" fill="#0032a0" stroke-width="0"/>
    </g>
    <path d="M87.4,489.9v-6.5h1.4v6.5h-1.4ZM94.9,489.9h-1.4v-2.9c0-.4,0-.6-.2-.8-.1-.2-.3-.3-.6-.3s-.7.1-.8.4c-.2.3-.3.7-.3,1.3v2.3h-1.4v-5h1l.2.6h0c.2-.2.4-.4.6-.5.3-.1.6-.2.9-.2.6,0,1,.2,1.3.5.3.3.4.8.4,1.3v3.2ZM97.8,490c-.6,0-1-.2-1.4-.7-.3-.5-.5-1.1-.5-1.9s.2-1.4.5-1.9c.3-.5.8-.7,1.4-.7s1.1.2,1.4.7h0c0-.4-.1-.7-.1-1v-1.6h1.4v6.9h-1l-.3-.6h0c-.3.5-.8.7-1.4.7ZM98.3,488.9c.3,0,.6-.1.8-.3.2-.2.3-.5.3-1h0c0-.7,0-1.1-.2-1.3-.2-.2-.4-.3-.8-.3s-.5.1-.7.4c-.2.3-.2.6-.2,1.1s0,.9.3,1.1c.2.2.4.4.7.4ZM105.5,489.9l-.2-.6h0c-.1.2-.4.4-.6.5-.3.1-.6.2-.9.2-.6,0-1-.2-1.3-.5-.3-.3-.4-.8-.4-1.4v-3.2h1.4v2.9c0,.4,0,.6.2.8.1.2.3.3.6.3s.7-.1.8-.4c.2-.3.3-.7.3-1.3v-2.3h1.4v5h-1ZM111.5,488.4c0,.5-.2.9-.5,1.2-.4.3-.9.4-1.6.4s-.7,0-.9,0c-.3,0-.5-.1-.7-.2v-1.1c.3.1.5.2.8.3.3,0,.6.1.8.1.5,0,.7-.1.7-.4s0-.2,0-.3c0,0-.2-.1-.3-.2-.2,0-.4-.2-.6-.3-.4-.2-.7-.3-.8-.4-.2-.1-.3-.3-.4-.5,0-.2-.1-.4-.1-.7,0-.4.2-.8.5-1,.3-.2.8-.4,1.5-.4s1.2.1,1.7.4l-.4,1c-.2-.1-.5-.2-.7-.3-.2,0-.4-.1-.7-.1-.4,0-.6.1-.6.3s0,.2.2.3c.1,0,.4.2.8.4.4.2.7.3.9.4s.3.3.4.5c0,.2.1.4.1.6ZM114.6,488.9c.2,0,.5,0,.9-.2v1c-.3.1-.8.2-1.2.2s-.9-.1-1.2-.4c-.2-.3-.4-.7-.4-1.2v-2.4h-.6v-.6l.7-.5.4-1h.9v1.1h1.4v1h-1.4v2.4c0,.2,0,.3.2.4.1,0,.3.1.4.1ZM119.2,484.8c.2,0,.3,0,.5,0v1.3c-.2,0-.3,0-.5,0-.4,0-.8.1-1,.3-.2.2-.4.5-.4.9v2.5h-1.4v-5h1l.2.8h0c.2-.3.4-.5.6-.7.3-.2.5-.3.9-.3ZM119.9,484.9h1.5l.9,2.8c0,.2.1.5.2.9h0c0-.3,0-.6.2-.9l.9-2.8h1.5l-2.1,5.6c-.2.5-.5.9-.8,1.2-.4.3-.8.4-1.2.4s-.5,0-.7,0v-1.1c.2,0,.3,0,.5,0s.4,0,.6-.2c.2-.1.3-.4.4-.7v-.2c0,0-1.9-4.9-1.9-4.9ZM129.6,486.4h.5c.4,0,.7,0,.9-.2.2-.2.3-.4.3-.7s0-.6-.3-.7c-.2-.2-.5-.2-.8-.2h-.6v1.9ZM132.7,485.4c0,.7-.2,1.2-.7,1.6-.4.4-1.1.6-1.9.6h-.6v2.3h-1.4v-6.5h2.1c.8,0,1.4.2,1.8.5.4.3.6.8.6,1.5ZM137,489.9l-.3-.7h0c-.2.3-.5.5-.7.6-.2.1-.6.2-.9.2s-.9-.1-1.1-.4c-.3-.3-.4-.7-.4-1.2s.2-.9.6-1.2c.4-.3.9-.4,1.7-.4h.9v-.2c0-.5-.3-.8-.8-.8s-.9.1-1.4.4l-.4-.9c.6-.3,1.2-.4,1.9-.4s1.2.1,1.5.4c.4.3.5.7.5,1.3v3.3h-.9ZM136.6,487.6h-.5c-.4,0-.7.1-.9.2-.2.1-.3.3-.3.6,0,.4.2.6.7.6s.6,0,.8-.3c.2-.2.3-.4.3-.7v-.4ZM139.2,483.6c0-.4.2-.7.7-.7s.7.2.7.7,0,.4-.2.5c-.1.1-.3.2-.5.2-.5,0-.7-.2-.7-.7ZM140.7,489.9h-1.4v-5h1.4v5ZM146.7,489.9h-1.4v-2.9c0-.4,0-.6-.2-.8-.1-.2-.3-.3-.6-.3s-.7.1-.8.4c-.2.3-.3.7-.3,1.3v2.3h-1.4v-5h1l.2.6h0c.2-.2.4-.4.6-.5.3-.1.6-.2.9-.2.6,0,1,.2,1.3.5.3.3.4.8.4,1.3v3.2ZM151.9,486.4h.5c.4,0,.7,0,.9-.2.2-.2.3-.4.3-.7s0-.6-.3-.7c-.2-.2-.4-.2-.8-.2h-.6v1.9ZM155,485.4c0,.7-.2,1.2-.7,1.6-.4.4-1.1.6-1.9.6h-.6v2.3h-1.4v-6.5h2.1c.8,0,1.4.2,1.8.5.4.3.6.8.6,1.5ZM157.2,487.4c0,.5,0,.9.2,1.1.2.3.4.4.8.4s.6-.1.8-.4c.2-.3.2-.6.2-1.1s0-.9-.2-1.1c-.2-.2-.4-.4-.8-.4s-.6.1-.8.4c-.2.2-.2.6-.2,1.1ZM160.6,487.4c0,.8-.2,1.4-.6,1.9-.4.5-1,.7-1.8.7s-.9-.1-1.3-.3c-.4-.2-.6-.5-.8-.9-.2-.4-.3-.8-.3-1.4,0-.8.2-1.4.6-1.9.4-.4,1-.7,1.8-.7s.9.1,1.3.3c.4.2.6.5.8.9.2.4.3.8.3,1.4ZM161.7,483.6c0-.4.2-.7.7-.7s.7.2.7.7,0,.4-.2.5c-.1.1-.3.2-.6.2-.5,0-.7-.2-.7-.7ZM163.1,489.9h-1.4v-5h1.4v5ZM169.1,489.9h-1.4v-2.9c0-.4,0-.6-.2-.8-.1-.2-.3-.3-.6-.3s-.7.1-.8.4c-.2.3-.3.7-.3,1.3v2.3h-1.4v-5h1l.2.6h0c.2-.2.4-.4.6-.5.3-.1.6-.2.9-.2.6,0,1,.2,1.3.5.3.3.4.8.4,1.3v3.2ZM172.6,488.9c.2,0,.5,0,.9-.2v1c-.3.1-.8.2-1.2.2s-.9-.1-1.2-.4c-.2-.3-.4-.7-.4-1.2v-2.4h-.6v-.6l.7-.5.4-1h.9v1.1h1.4v1h-1.4v2.4c0,.2,0,.3.2.4.1,0,.3.1.4.1ZM90.3,509.2c-.7,0-1.3.2-1.7.7-.4.5-.6,1.1-.6,1.9s.2,1.5.6,2c.4.5,1,.7,1.7.7s1,0,1.5-.2v.7c-.4.2-1,.3-1.7.3-1,0-1.7-.3-2.2-.9-.5-.6-.8-1.4-.8-2.5s.1-1.3.4-1.8c.3-.5.6-.9,1.1-1.2.5-.3,1-.4,1.7-.4s1.3.1,1.8.4l-.3.6c-.5-.2-1-.3-1.5-.3ZM97.3,512.7c0,.8-.2,1.4-.6,1.9-.4.4-1,.7-1.7.7s-.8-.1-1.2-.3c-.3-.2-.6-.5-.8-.9-.2-.4-.3-.8-.3-1.3,0-.8.2-1.4.6-1.9.4-.4.9-.7,1.6-.7s1.2.2,1.6.7c.4.5.6,1.1.6,1.8ZM93.6,512.7c0,.6.1,1.1.4,1.4.2.3.6.5,1.1.5s.8-.2,1.1-.5c.3-.3.4-.8.4-1.4s-.1-1.1-.4-1.4c-.2-.3-.6-.5-1.1-.5s-.8.2-1.1.5c-.2.3-.4.8-.4,1.4ZM104.8,515.1v-3.2c0-.4,0-.7-.2-.9-.2-.2-.4-.3-.8-.3s-.8.1-1,.4c-.2.3-.3.7-.3,1.2v2.7h-.7v-3.2c0-.4,0-.7-.2-.9-.2-.2-.4-.3-.8-.3s-.8.1-1,.4c-.2.3-.3.7-.3,1.4v2.6h-.7v-4.9h.6v.7h.2c.1-.2.3-.4.6-.6.3-.1.5-.2.9-.2.8,0,1.3.3,1.5.8h0c.1-.3.4-.5.6-.6.3-.1.6-.2.9-.2.6,0,1,.1,1.2.4.3.3.4.7.4,1.4v3.2h-.7ZM109.3,515.2c-.3,0-.6,0-.9-.2-.3-.1-.5-.3-.7-.5h0c0,.3,0,.6,0,.8v2h-.7v-7.1h.6v.7h.1c.2-.3.4-.5.7-.6.3-.1.5-.2.9-.2.6,0,1.1.2,1.5.7.4.4.5,1.1.5,1.9s-.2,1.4-.5,1.9c-.4.4-.8.7-1.5.7ZM109.2,510.8c-.5,0-.9.1-1.1.4s-.3.7-.3,1.3v.2c0,.7.1,1.2.3,1.5.2.3.6.4,1.1.4s.7-.2,1-.5c.2-.3.4-.8.4-1.4s-.1-1.1-.4-1.4c-.2-.3-.6-.5-1-.5ZM113.4,515.1h-.7v-6.9h.7v6.9ZM117,515.2c-.7,0-1.3-.2-1.7-.7-.4-.4-.6-1-.6-1.8s.2-1.4.6-1.9c.4-.5.9-.7,1.6-.7s1.1.2,1.4.6c.4.4.5.9.5,1.6v.5h-3.3c0,.6.2,1,.4,1.3.3.3.7.4,1.2.4s1-.1,1.6-.3v.7c-.3.1-.5.2-.7.2-.2,0-.5,0-.8,0ZM116.8,510.8c-.4,0-.7.1-.9.4-.2.3-.4.6-.4,1.1h2.5c0-.5-.1-.8-.3-1.1-.2-.2-.5-.4-.9-.4ZM121.2,512.6l-1.7-2.4h.8l1.3,1.9,1.3-1.9h.8l-1.7,2.4,1.8,2.5h-.8l-1.4-2-1.4,2h-.8l1.8-2.5ZM129.1,515.2c-.7,0-1.2-.2-1.6-.6-.4-.4-.6-1.1-.6-1.8s.2-1.4.6-1.9c.4-.4,1-.7,1.7-.7s.5,0,.7,0c.2,0,.4.1.5.2l-.2.6c-.2,0-.3-.1-.5-.2-.2,0-.4,0-.5,0-1,0-1.5.6-1.5,1.9s.1,1.1.4,1.4c.2.3.6.5,1.1.5s.8,0,1.2-.3v.7c-.3.2-.7.3-1.2.3ZM135.7,512.7c0,.8-.2,1.4-.6,1.9-.4.4-1,.7-1.7.7s-.8-.1-1.2-.3c-.3-.2-.6-.5-.8-.9-.2-.4-.3-.8-.3-1.3,0-.8.2-1.4.6-1.9.4-.4.9-.7,1.7-.7s1.2.2,1.6.7c.4.5.6,1.1.6,1.8ZM132,512.7c0,.6.1,1.1.4,1.4.2.3.6.5,1.1.5s.8-.2,1.1-.5c.3-.3.4-.8.4-1.4s-.1-1.1-.4-1.4c-.2-.3-.6-.5-1.1-.5s-.8.2-1.1.5c-.2.3-.4.8-.4,1.4ZM140.3,515.1v-3.1c0-.4,0-.7-.3-.9-.2-.2-.5-.3-.8-.3s-.9.1-1.1.4c-.2.3-.4.7-.4,1.4v2.6h-.7v-4.9h.6v.7h.2c.2-.2.4-.4.6-.6.3-.1.6-.2.9-.2.6,0,1,.1,1.3.4.3.3.4.7.4,1.4v3.2h-.7ZM144.1,514.6c.1,0,.3,0,.4,0,.1,0,.2,0,.3,0v.6c0,0-.2,0-.4,0-.2,0-.3,0-.4,0-.9,0-1.4-.5-1.4-1.5v-2.9h-.7v-.4l.7-.3.3-1h.4v1.1h1.4v.6h-1.4v2.9c0,.3,0,.5.2.7.1.2.3.2.6.2ZM148,510.2c.2,0,.4,0,.6,0v.7c-.3,0-.5,0-.6,0-.4,0-.7.2-1,.5-.3.3-.4.7-.4,1.2v2.6h-.7v-4.9h.6v.9h.1c.2-.3.4-.6.7-.7.3-.2.5-.3.8-.3ZM152.4,515.1v-.7h-.2c-.2.3-.5.5-.7.6-.2.1-.5.2-.9.2s-.9-.1-1.1-.4c-.3-.2-.4-.6-.4-1.1,0-1,.8-1.5,2.4-1.5h.8v-.3c0-.4,0-.7-.2-.8-.2-.2-.4-.3-.8-.3s-.9.1-1.4.4l-.2-.6c.2-.1.5-.2.8-.3.3,0,.6-.1.9-.1.6,0,1,.1,1.3.4.3.3.4.7.4,1.2v3.3h-.5ZM150.8,514.6c.5,0,.8-.1,1.1-.4.3-.3.4-.6.4-1.1v-.4h-.7c-.6,0-1,.1-1.3.3-.3.2-.4.4-.4.8s0,.5.2.6c.2.1.4.2.7.2ZM156.4,515.2c-.7,0-1.2-.2-1.6-.6-.4-.4-.6-1.1-.6-1.8s.2-1.4.6-1.9c.4-.4,1-.7,1.7-.7s.5,0,.7,0c.2,0,.4.1.5.2l-.2.6c-.2,0-.3-.1-.5-.2-.2,0-.4,0-.5,0-1,0-1.5.6-1.5,1.9s.1,1.1.4,1.4c.2.3.6.5,1.1.5s.8,0,1.2-.3v.7c-.3.2-.7.3-1.2.3ZM160.4,514.6c.1,0,.3,0,.4,0,.1,0,.2,0,.3,0v.6c0,0-.2,0-.4,0-.2,0-.3,0-.4,0-.9,0-1.4-.5-1.4-1.5v-2.9h-.7v-.4l.7-.3.3-1h.4v1.1h1.4v.6h-1.4v2.9c0,.3,0,.5.2.7.1.2.3.2.6.2ZM165.2,513.8c0,.5-.2.8-.5,1-.3.2-.8.4-1.4.4s-1.1-.1-1.5-.3v-.7c.2.1.5.2.8.3.3,0,.5.1.8.1.4,0,.7,0,.9-.2.2-.1.3-.3.3-.6s0-.4-.2-.5c-.2-.1-.5-.3-1-.5-.5-.2-.8-.3-1-.4-.2-.1-.3-.3-.4-.4,0-.2-.1-.4-.1-.6,0-.4.2-.7.5-.9.3-.2.8-.3,1.3-.3s1,.1,1.5.3l-.3.6c-.5-.2-.9-.3-1.3-.3s-.6,0-.8.2c-.2.1-.3.3-.3.5s0,.2,0,.3c0,0,.2.2.3.3.1,0,.4.2.9.4.6.2,1,.4,1.2.6.2.2.3.5.3.8ZM167.2,514.1h0c0,.4-.2.7-.3,1.1-.1.4-.3.8-.5,1.1h-.6c0-.3.2-.7.3-1.1,0-.5.2-.8.2-1.1h.8ZM174.1,513.8c0,.5-.2.8-.5,1-.3.2-.8.4-1.4.4s-1.1-.1-1.5-.3v-.7c.2.1.5.2.8.3.3,0,.5.1.8.1.4,0,.7,0,.9-.2.2-.1.3-.3.3-.6s0-.4-.2-.5c-.2-.1-.5-.3-1-.5-.5-.2-.8-.3-1-.4-.2-.1-.3-.3-.4-.4,0-.2-.1-.4-.1-.6,0-.4.2-.7.5-.9.3-.2.8-.3,1.3-.3s1,.1,1.5.3l-.3.6c-.5-.2-.9-.3-1.3-.3s-.6,0-.8.2c-.2.1-.3.3-.3.5s0,.2,0,.3c0,0,.2.2.3.3.1,0,.4.2.9.4.6.2,1,.4,1.2.6.2.2.3.5.3.8ZM176.9,514.6c.1,0,.3,0,.4,0,.1,0,.2,0,.3,0v.6c0,0-.2,0-.4,0-.2,0-.3,0-.4,0-.9,0-1.4-.5-1.4-1.5v-2.9h-.7v-.4l.7-.3.3-1h.4v1.1h1.4v.6h-1.4v2.9c0,.3,0,.5.2.7.1.2.3.2.6.2ZM181.5,515.1v-.7h-.2c-.2.3-.5.5-.7.6-.2.1-.5.2-.9.2s-.9-.1-1.1-.4c-.3-.2-.4-.6-.4-1.1,0-1,.8-1.5,2.4-1.5h.8v-.3c0-.4,0-.7-.2-.8-.2-.2-.4-.3-.8-.3s-.9.1-1.4.4l-.2-.6c.2-.1.5-.2.8-.3.3,0,.6-.1.9-.1.6,0,1,.1,1.3.4.3.3.4.7.4,1.2v3.3h-.5ZM179.8,514.6c.5,0,.8-.1,1.1-.4.3-.3.4-.6.4-1.1v-.4h-.7c-.6,0-1,.1-1.3.3-.3.2-.4.4-.4.8s0,.5.2.6c.2.1.4.2.7.2ZM186.9,515.1v-3.1c0-.4,0-.7-.3-.9s-.5-.3-.8-.3-.9.1-1.1.4c-.2.3-.4.7-.4,1.4v2.6h-.7v-4.9h.6v.7h.2c.2-.2.4-.4.6-.6.3-.1.6-.2.9-.2.6,0,1,.1,1.3.4.3.3.4.7.4,1.4v3.2h-.7ZM192.5,514.5h0c-.3.5-.8.7-1.5.7s-1.1-.2-1.5-.7c-.4-.4-.5-1.1-.5-1.9s.2-1.4.5-1.9c.4-.4.8-.7,1.5-.7s1.2.2,1.5.7h0v-.3s0-.3,0-.3v-2h.7v6.9h-.6v-.7ZM191,514.6c.5,0,.9-.1,1.1-.4.2-.3.3-.7.3-1.3v-.2c0-.7-.1-1.2-.3-1.5-.2-.3-.6-.4-1.1-.4s-.8.2-1,.5c-.2.3-.3.8-.3,1.4s.1,1.1.3,1.4c.2.3.6.5,1,.5ZM197.7,515.1v-.7h-.2c-.2.3-.5.5-.7.6-.2.1-.5.2-.9.2s-.9-.1-1.1-.4c-.3-.2-.4-.6-.4-1.1,0-1,.8-1.5,2.4-1.5h.8v-.3c0-.4,0-.7-.2-.8-.2-.2-.4-.3-.8-.3s-.9.1-1.4.4l-.2-.6c.2-.1.5-.2.8-.3.3,0,.6-.1.9-.1.6,0,1,.1,1.3.4.3.3.4.7.4,1.2v3.3h-.5ZM196,514.6c.5,0,.8-.1,1.1-.4.3-.3.4-.6.4-1.1v-.4h-.7c-.6,0-1,.1-1.3.3-.3.2-.4.4-.4.8s0,.5.2.6c.2.1.4.2.7.2ZM202,510.2c.2,0,.4,0,.6,0v.7c-.3,0-.5,0-.6,0-.4,0-.7.2-1,.5-.3.3-.4.7-.4,1.2v2.6h-.7v-4.9h.6v.9h.1c.2-.3.4-.6.7-.7.3-.2.5-.3.8-.3ZM206.8,514.5h0c-.3.5-.8.7-1.5.7s-1.1-.2-1.5-.7c-.4-.4-.5-1.1-.5-1.9s.2-1.4.5-1.9c.4-.4.8-.7,1.5-.7s1.2.2,1.5.7h0v-.3s0-.3,0-.3v-2h.7v6.9h-.6v-.7ZM205.3,514.6c.5,0,.9-.1,1.1-.4.2-.3.3-.7.3-1.3v-.2c0-.7-.1-1.2-.3-1.5-.2-.3-.6-.4-1.1-.4s-.8.2-1,.5c-.2.3-.3.8-.3,1.4s.1,1.1.3,1.4.6.5,1,.5ZM209.8,515.1h-.7v-4.9h.7v4.9ZM209,508.9c0-.2,0-.3.1-.4,0,0,.2-.1.3-.1s.2,0,.3.1c0,0,.1.2.1.4s0,.3-.1.4c0,0-.2.1-.3.1s-.2,0-.3-.1c0,0-.1-.2-.1-.4ZM214.5,515.1h-3.5v-.5l2.7-3.8h-2.5v-.6h3.3v.6l-2.6,3.7h2.7v.6ZM218.6,515.1v-.7h-.2c-.2.3-.5.5-.7.6-.2.1-.5.2-.9.2s-.9-.1-1.1-.4c-.3-.2-.4-.6-.4-1.1,0-1,.8-1.5,2.4-1.5h.8v-.3c0-.4,0-.7-.2-.8-.2-.2-.4-.3-.8-.3s-.9.1-1.4.4l-.2-.6c.2-.1.5-.2.8-.3.3,0,.6-.1.9-.1.6,0,1,.1,1.3.4.3.3.4.7.4,1.2v3.3h-.5ZM216.9,514.6c.5,0,.8-.1,1.1-.4.3-.3.4-.6.4-1.1v-.4h-.7c-.6,0-1,.1-1.3.3-.3.2-.4.4-.4.8s0,.5.2.6c.2.1.4.2.7.2ZM222.2,514.6c.1,0,.3,0,.4,0,.1,0,.2,0,.3,0v.6c0,0-.2,0-.4,0-.2,0-.3,0-.4,0-.9,0-1.4-.5-1.4-1.5v-2.9h-.7v-.4l.7-.3.3-1h.4v1.1h1.4v.6h-1.4v2.9c0,.3,0,.5.2.7.1.2.3.2.6.2ZM224.6,515.1h-.7v-4.9h.7v4.9ZM223.8,508.9c0-.2,0-.3.1-.4,0,0,.2-.1.3-.1s.2,0,.3.1c0,0,.1.2.1.4s0,.3-.1.4c0,0-.2.1-.3.1s-.2,0-.3-.1c0,0-.1-.2-.1-.4ZM230.4,512.7c0,.8-.2,1.4-.6,1.9-.4.4-.9.7-1.7.7s-.8-.1-1.2-.3c-.3-.2-.6-.5-.8-.9-.2-.4-.3-.8-.3-1.3,0-.8.2-1.4.6-1.9.4-.4.9-.7,1.7-.7s1.2.2,1.6.7c.4.5.6,1.1.6,1.8ZM226.7,512.7c0,.6.1,1.1.4,1.4.2.3.6.5,1.1.5s.8-.2,1.1-.5c.3-.3.4-.8.4-1.4s-.1-1.1-.4-1.4c-.2-.3-.6-.5-1.1-.5s-.8.2-1.1.5c-.2.3-.4.8-.4,1.4ZM235,515.1v-3.1c0-.4,0-.7-.3-.9-.2-.2-.5-.3-.8-.3s-.9.1-1.1.4c-.2.3-.4.7-.4,1.4v2.6h-.7v-4.9h.6v.7h.2c.2-.2.4-.4.6-.6.3-.1.6-.2.9-.2.6,0,1,.1,1.3.4.3.3.4.7.4,1.4v3.2h-.7ZM243.6,510.3v.5h-.9c0,.2.2.3.2.5,0,.2,0,.4,0,.6,0,.5-.2.9-.5,1.1-.3.3-.8.4-1.3.4s-.3,0-.4,0c-.3.2-.5.4-.5.6s0,.2.2.3c.1,0,.3,0,.6,0h.9c.5,0,.9.1,1.2.3.3.2.4.5.4,1s-.2.9-.6,1.2c-.4.3-1.1.4-1.9.4s-1.1-.1-1.5-.4c-.3-.2-.5-.6-.5-1s0-.6.3-.8c.2-.2.5-.4.8-.4-.1,0-.2-.1-.3-.3,0-.1-.1-.3-.1-.4s0-.3.1-.5c0-.1.2-.3.4-.4-.3-.1-.5-.3-.6-.5-.2-.2-.2-.5-.2-.9,0-.5.2-.9.5-1.2.3-.3.8-.4,1.4-.4s.5,0,.7,0h1.7ZM239.7,515.9c0,.3.1.5.3.6.2.1.5.2,1,.2.6,0,1.1,0,1.4-.3.3-.2.4-.4.4-.8s0-.4-.2-.5c-.2-.1-.5-.2-.9-.2h-.9c-.3,0-.6,0-.8.2-.2.2-.3.4-.3.7ZM240.1,511.8c0,.3,0,.6.3.8.2.2.5.3.8.3.7,0,1.1-.3,1.1-1s-.4-1.1-1.1-1.1-.6,0-.8.3c-.2.2-.3.5-.3.8ZM247.6,515.1v-.7h-.2c-.2.3-.5.5-.7.6-.2.1-.5.2-.9.2s-.9-.1-1.1-.4c-.3-.2-.4-.6-.4-1.1,0-1,.8-1.5,2.4-1.5h.8v-.3c0-.4,0-.7-.2-.8-.2-.2-.4-.3-.8-.3s-.9.1-1.4.4l-.2-.6c.2-.1.5-.2.8-.3.3,0,.6-.1.9-.1.6,0,1,.1,1.3.4.3.3.4.7.4,1.2v3.3h-.5ZM245.9,514.6c.5,0,.8-.1,1.1-.4.3-.3.4-.6.4-1.1v-.4h-.7c-.6,0-1,.1-1.3.3-.3.2-.4.4-.4.8s0,.5.2.6c.2.1.4.2.7.2ZM251.9,515.2c-.3,0-.6,0-.9-.2-.3-.1-.5-.3-.7-.5h0c0,.3,0,.6,0,.8v2h-.7v-7.1h.6v.7h.1c.2-.3.4-.5.7-.6.3-.1.5-.2.9-.2.6,0,1.1.2,1.5.7.4.4.5,1.1.5,1.9s-.2,1.4-.5,1.9c-.4.4-.8.7-1.5.7ZM251.8,510.8c-.5,0-.9.1-1.1.4s-.3.7-.3,1.3v.2c0,.7.1,1.2.3,1.5.2.3.6.4,1.1.4s.7-.2,1-.5c.2-.3.4-.8.4-1.4s-.1-1.1-.4-1.4c-.2-.3-.6-.5-1-.5ZM258.3,513.8c0,.5-.2.8-.5,1-.3.2-.8.4-1.4.4s-1.1-.1-1.5-.3v-.7c.2.1.5.2.7.3.3,0,.5.1.8.1.4,0,.7,0,.9-.2.2-.1.3-.3.3-.6s0-.4-.2-.5c-.2-.1-.5-.3-1-.5-.5-.2-.8-.3-1-.4-.2-.1-.3-.3-.4-.4,0-.2-.1-.4-.1-.6,0-.4.2-.7.5-.9.3-.2.8-.3,1.3-.3s1,.1,1.5.3l-.3.6c-.5-.2-.9-.3-1.3-.3s-.6,0-.8.2c-.2.1-.3.3-.3.5s0,.2,0,.3c0,0,.2.2.3.3.1,0,.4.2.9.4.6.2,1,.4,1.2.6.2.2.3.5.3.8ZM90.4,527.8v-.7h-.2c-.2.3-.5.5-.7.6-.2.1-.5.2-.9.2s-.9-.1-1.1-.4c-.3-.2-.4-.6-.4-1.1,0-1,.8-1.5,2.4-1.5h.8v-.3c0-.4,0-.7-.2-.8-.2-.2-.4-.3-.8-.3s-.9.1-1.4.4l-.2-.6c.2-.1.5-.2.8-.3.3,0,.6-.1.9-.1.6,0,1,.1,1.3.4.3.3.4.7.4,1.2v3.3h-.5ZM88.7,527.2c.5,0,.8-.1,1.1-.4.3-.3.4-.6.4-1.1v-.4h-.7c-.6,0-1,.1-1.3.3-.3.2-.4.4-.4.8s0,.5.2.6c.2.1.4.2.7.2ZM95.8,527.8v-3.1c0-.4,0-.7-.3-.9-.2-.2-.5-.3-.8-.3s-.9.1-1.1.4c-.2.3-.4.7-.4,1.4v2.6h-.7v-4.9h.6v.7h.2c.2-.2.4-.4.6-.6.3-.1.6-.2.9-.2.6,0,1,.1,1.3.4.3.3.4.7.4,1.4v3.2h-.7ZM101.3,527.1h0c-.3.5-.8.7-1.5.7s-1.1-.2-1.5-.7c-.4-.4-.5-1.1-.5-1.9s.2-1.4.5-1.9c.4-.4.8-.7,1.5-.7s1.2.2,1.5.7h0v-.3s0-.3,0-.3v-2h.7v6.9h-.6v-.7ZM99.8,527.2c.5,0,.9-.1,1.1-.4.2-.3.3-.7.3-1.3v-.2c0-.7-.1-1.2-.3-1.5-.2-.3-.6-.4-1.1-.4s-.8.2-1,.5c-.2.3-.3.8-.3,1.4s.1,1.1.3,1.4c.2.3.6.5,1,.5ZM108.2,527.9c-.3,0-.6,0-.9-.2-.3-.1-.5-.3-.7-.5h0c0,.3,0,.6,0,.8v2h-.7v-7.1h.6v.7h.1c.2-.3.4-.5.7-.6.3-.1.5-.2.9-.2.6,0,1.1.2,1.5.7.4.4.5,1.1.5,1.9s-.2,1.4-.5,1.9c-.4.4-.8.7-1.5.7ZM108.1,523.4c-.5,0-.9.1-1.1.4-.2.3-.3.7-.3,1.3v.2c0,.7.1,1.2.3,1.5.2.3.6.4,1.1.4s.7-.2,1-.5c.2-.3.4-.8.4-1.4s-.1-1.1-.4-1.4c-.2-.3-.6-.5-1-.5ZM113.7,522.8c.2,0,.4,0,.6,0v.7c-.3,0-.5,0-.6,0-.4,0-.7.2-1,.5-.3.3-.4.7-.4,1.2v2.6h-.7v-4.9h.6v.9h.1c.2-.3.4-.6.7-.7.3-.2.5-.3.8-.3ZM116,527.8h-.7v-4.9h.7v4.9ZM115.2,521.6c0-.2,0-.3.1-.4,0,0,.2-.1.3-.1s.2,0,.3.1c0,0,.1.2.1.4s0,.3-.1.4c0,0-.2.1-.3.1s-.2,0-.3-.1c0,0-.1-.2-.1-.4ZM119.5,527.9c-.7,0-1.2-.2-1.6-.6-.4-.4-.6-1-.6-1.8s.2-1.4.6-1.9c.4-.4,1-.7,1.7-.7s.5,0,.7,0c.2,0,.4.1.5.2l-.2.6c-.2,0-.3-.1-.5-.2-.2,0-.4,0-.5,0-1,0-1.5.6-1.5,1.9s.1,1.1.4,1.4c.2.3.6.5,1.1.5s.8,0,1.2-.3v.7c-.3.2-.7.3-1.2.3ZM122.6,527.8h-.7v-4.9h.7v4.9ZM121.8,521.6c0-.2,0-.3.1-.4,0,0,.2-.1.3-.1s.2,0,.3.1c0,0,.1.2.1.4s0,.3-.1.4c0,0-.2.1-.3.1s-.2,0-.3-.1c0,0-.1-.2-.1-.4ZM127.5,527.8v-3.1c0-.4,0-.7-.3-.9-.2-.2-.5-.3-.8-.3s-.9.1-1.1.4c-.2.3-.4.7-.4,1.4v2.6h-.7v-4.9h.6v.7h.2c.2-.2.4-.4.6-.6.3-.1.6-.2.9-.2.6,0,1,.1,1.3.4.3.3.4.7.4,1.4v3.2h-.7ZM133.7,522.9v.5h-.9c0,.2.2.3.2.5,0,.2,0,.4,0,.6,0,.5-.2.9-.5,1.1-.3.3-.8.4-1.3.4s-.3,0-.4,0c-.3.2-.5.4-.5.6s0,.2.2.3c.1,0,.3,0,.6,0h.9c.5,0,.9.1,1.2.3.3.2.4.5.4,1s-.2.9-.6,1.2c-.4.3-1.1.4-1.9.4s-1.1-.1-1.5-.4c-.3-.2-.5-.6-.5-1s0-.6.3-.8c.2-.2.5-.4.8-.4-.1,0-.2-.1-.3-.3,0-.1-.1-.3-.1-.4s0-.3.1-.5.2-.3.4-.4c-.3-.1-.5-.3-.6-.5-.2-.2-.2-.5-.2-.9,0-.5.2-.9.5-1.2.3-.3.8-.4,1.4-.4s.5,0,.7,0h1.7ZM129.8,528.6c0,.3.1.5.3.6.2.1.5.2,1,.2.6,0,1.1,0,1.4-.3.3-.2.4-.4.4-.8s0-.4-.2-.6c-.2-.1-.5-.2-.9-.2h-.9c-.3,0-.6,0-.8.2-.2.2-.3.4-.3.7ZM130.2,524.5c0,.3,0,.6.3.8.2.2.5.3.8.3.7,0,1.1-.3,1.1-1s-.4-1.1-1.1-1.1-.6,0-.8.3c-.2.2-.3.5-.3.8ZM139.2,523.5h-1.2v4.3h-.7v-4.3h-.9v-.3l.9-.3v-.3c0-1.2.5-1.8,1.6-1.8s.6,0,.9.2l-.2.6c-.3,0-.5-.1-.7-.1s-.5,0-.6.3c-.1.2-.2.5-.2.9v.3h1.2v.6ZM140.9,527.8h-.7v-6.9h.7v6.9ZM143.1,522.9v3.2c0,.4,0,.7.3.9.2.2.5.3.8.3s.9-.1,1.1-.4c.2-.3.4-.7.4-1.4v-2.6h.7v4.9h-.6v-.7h-.1c-.2.2-.4.4-.6.6-.3.1-.6.2-.9.2-.6,0-1-.1-1.3-.4-.3-.3-.4-.7-.4-1.3v-3.2h.7ZM149.9,527.9c-.7,0-1.2-.2-1.6-.6-.4-.4-.6-1-.6-1.8s.2-1.4.6-1.9c.4-.4,1-.7,1.7-.7s.5,0,.7,0c.2,0,.4.1.6.2l-.2.6c-.2,0-.3-.1-.5-.2-.2,0-.4,0-.5,0-1,0-1.5.6-1.5,1.9s.1,1.1.4,1.4c.2.3.6.5,1.1.5s.8,0,1.2-.3v.7c-.3.2-.7.3-1.2.3ZM153.9,527.2c.1,0,.3,0,.4,0,.1,0,.2,0,.3,0v.6c0,0-.2,0-.4,0-.2,0-.3,0-.4,0-.9,0-1.4-.5-1.4-1.5v-2.9h-.7v-.4l.7-.3.3-1h.4v1.1h1.4v.6h-1.4v2.9c0,.3,0,.5.2.7.1.2.3.2.6.2ZM156.2,522.9v3.2c0,.4,0,.7.3.9.2.2.5.3.8.3s.9-.1,1.1-.4c.2-.3.4-.7.4-1.4v-2.6h.7v4.9h-.6v-.7h-.1c-.2.2-.4.4-.6.6-.3.1-.6.2-.9.2-.6,0-1-.1-1.3-.4-.3-.3-.4-.7-.4-1.3v-3.2h.7ZM164.1,527.8v-.7h-.2c-.2.3-.5.5-.7.6-.2.1-.5.2-.9.2s-.9-.1-1.1-.4c-.3-.2-.4-.6-.4-1.1,0-1,.8-1.5,2.4-1.5h.8v-.3c0-.4,0-.7-.2-.8-.2-.2-.4-.3-.8-.3s-.9.1-1.4.4l-.2-.6c.2-.1.5-.2.8-.3.3,0,.6-.1.9-.1.6,0,1,.1,1.3.4.3.3.4.7.4,1.2v3.3h-.5ZM162.4,527.2c.5,0,.8-.1,1.1-.4.3-.3.4-.6.4-1.1v-.4h-.7c-.6,0-1,.1-1.3.3-.3.2-.4.4-.4.8s0,.5.2.6c.2.1.4.2.7.2ZM167.7,527.2c.1,0,.3,0,.4,0,.1,0,.2,0,.3,0v.6c0,0-.2,0-.4,0-.2,0-.3,0-.4,0-.9,0-1.4-.5-1.4-1.5v-2.9h-.7v-.4l.7-.3.3-1h.4v1.1h1.4v.6h-1.4v2.9c0,.3,0,.5.2.7.1.2.3.2.6.2ZM170.1,527.8h-.7v-4.9h.7v4.9ZM169.3,521.6c0-.2,0-.3.1-.4,0,0,.2-.1.3-.1s.2,0,.3.1c0,0,.1.2.1.4s0,.3-.1.4c0,0-.2.1-.3.1s-.2,0-.3-.1c0,0-.1-.2-.1-.4ZM175.9,525.3c0,.8-.2,1.4-.6,1.9-.4.4-1,.7-1.7.7s-.8-.1-1.2-.3c-.3-.2-.6-.5-.8-.9-.2-.4-.3-.8-.3-1.3,0-.8.2-1.4.6-1.9.4-.4.9-.7,1.6-.7s1.2.2,1.6.7c.4.5.6,1.1.6,1.8ZM172.2,525.3c0,.6.1,1.1.4,1.4.2.3.6.5,1.1.5s.8-.2,1.1-.5c.3-.3.4-.8.4-1.4s-.1-1.1-.4-1.4c-.2-.3-.6-.5-1.1-.5s-.8.2-1.1.5c-.2.3-.4.8-.4,1.4ZM180.5,527.8v-3.1c0-.4,0-.7-.3-.9-.2-.2-.5-.3-.8-.3s-.9.1-1.1.4c-.2.3-.4.7-.4,1.4v2.6h-.7v-4.9h.6v.7h.2c.1-.2.4-.4.6-.6.3-.1.6-.2.9-.2.6,0,1,.1,1.3.4.3.3.4.7.4,1.4v3.2h-.7ZM185.9,526.4c0,.5-.2.8-.5,1-.3.2-.8.4-1.4.4s-1.1-.1-1.5-.3v-.7c.2.1.5.2.7.3.3,0,.5.1.8.1.4,0,.7,0,.9-.2.2-.1.3-.3.3-.6s0-.4-.2-.5c-.2-.1-.5-.3-1-.5-.5-.2-.8-.3-1-.4-.2-.1-.3-.3-.4-.4,0-.2-.1-.4-.1-.6,0-.4.2-.7.5-.9.3-.2.8-.3,1.3-.3s1,.1,1.5.3l-.3.6c-.5-.2-.9-.3-1.3-.3s-.6,0-.8.2c-.2.1-.3.3-.3.5s0,.2,0,.3c0,0,.2.2.3.3.1,0,.4.2.9.4.6.2,1,.4,1.2.6.2.2.3.5.3.8ZM190.5,527.9c-.2,0-.5,0-.7-.2-.2-.1-.4-.3-.5-.6-.1-.3-.2-.6-.2-1.1s0-.6.1-1c0-.3.2-.6.3-.9.1-.3.3-.5.5-.8.2-.2.4-.4.6-.5.2-.1.5-.2.8-.2s.4,0,.5,0c.1,0,.3.2.4.3.1.1.2.2.3.4h0s0,0,0-.2c0-.1,0-.2,0-.4,0-.1,0-.3,0-.4l.3-1.6h1.3l-1.5,6.9h-1v-.6c0,0,0,0,0,0-.1.1-.2.3-.4.4-.1.1-.3.2-.5.3-.2,0-.4,0-.6,0ZM191,526.8c.1,0,.3,0,.4-.1.1,0,.2-.2.3-.3,0-.1.2-.3.2-.4,0-.2.1-.3.2-.5,0-.2,0-.3,0-.5,0-.2,0-.3,0-.4,0-.2,0-.4-.2-.6-.1-.1-.3-.2-.5-.2s-.3,0-.4.1c-.1,0-.2.2-.3.3,0,.1-.2.3-.3.5,0,.2-.1.4-.2.6,0,.2,0,.4,0,.6s0,.5.2.6c.1.1.3.2.5.2ZM196.4,527.9c-.4,0-.7,0-1-.2-.3-.1-.5-.4-.7-.6-.2-.3-.2-.6-.2-1.1s0-.8.2-1.2c.1-.4.3-.7.5-1,.2-.3.5-.5.9-.7.3-.2.7-.3,1.2-.3s1,.1,1.2.4c.3.3.4.6.4,1s0,.5-.2.7c-.1.2-.3.4-.5.6-.2.2-.5.3-.9.4-.4,0-.8.1-1.3.1h-.2s0,0,0,0h0c0,.4,0,.6.2.7.2.2.4.2.7.2s.5,0,.7,0c.2,0,.5-.2.8-.3v1c-.3.1-.5.2-.8.3-.3,0-.6,0-.9,0ZM196,524.9h.2c.3,0,.6,0,.8-.1.2,0,.4-.2.5-.3.1-.1.2-.3.2-.4s0-.2-.1-.3c0,0-.2-.1-.3-.1s-.3,0-.5.2c-.2.1-.3.2-.4.4-.1.2-.2.4-.3.6ZM201.4,527.9c-.3,0-.7,0-.9-.2-.3-.1-.5-.3-.7-.6-.2-.3-.2-.6-.2-1.1s0-.7.1-1c0-.3.2-.6.3-.9.1-.3.3-.5.5-.7.2-.2.5-.4.7-.5.3-.1.6-.2.9-.2s.6,0,.8,0c.2,0,.5.1.7.2l-.4,1c-.2,0-.3-.1-.5-.2-.2,0-.3,0-.5,0s-.4,0-.6.2c-.2.1-.3.3-.4.5-.1.2-.2.4-.3.7,0,.3,0,.5,0,.8s0,.3,0,.5c0,.1.1.2.3.3.1,0,.3,0,.4,0s.4,0,.6-.1c.2,0,.4-.2.6-.3v1.1c-.2.1-.4.2-.7.3-.2,0-.5,0-.8,0ZM203.7,527.8l1.1-5h1v.9c0,0,0,0,0,0,.1-.2.3-.4.4-.5s.3-.3.5-.3c.2,0,.4-.1.6-.1s.1,0,.2,0c0,0,.1,0,.2,0l-.3,1.3s-.1,0-.2,0c0,0-.2,0-.3,0-.2,0-.3,0-.5.1-.2,0-.3.2-.4.3-.1.1-.2.3-.3.5,0,.2-.2.4-.2.7l-.5,2.2h-1.3ZM209.7,527.9c-.4,0-.7,0-1-.2-.3-.1-.5-.4-.7-.6-.2-.3-.2-.6-.2-1.1s0-.8.2-1.2c.1-.4.3-.7.5-1,.2-.3.5-.5.9-.7.3-.2.7-.3,1.2-.3s1,.1,1.2.4c.3.3.4.6.4,1s0,.5-.2.7c-.1.2-.3.4-.5.6-.2.2-.5.3-.9.4-.4,0-.8.1-1.3.1h-.2s0,0,0,0h0c0,.4,0,.6.2.7.2.2.4.2.7.2s.5,0,.7,0,.5-.2.8-.3v1c-.3.1-.5.2-.8.3-.3,0-.6,0-.9,0ZM209.2,524.9h.2c.3,0,.6,0,.8-.1.2,0,.4-.2.5-.3.1-.1.2-.3.2-.4s0-.2-.1-.3c0,0-.2-.1-.3-.1s-.3,0-.5.2c-.2.1-.3.2-.4.4-.1.2-.2.4-.3.6ZM214.2,527.9c-.2,0-.5,0-.7-.2-.2-.1-.4-.3-.5-.6-.1-.3-.2-.6-.2-1s0-.6.1-1c0-.3.2-.6.3-.9.1-.3.3-.5.5-.8.2-.2.4-.4.6-.5.2-.1.5-.2.8-.2s.4,0,.6,0c.2,0,.3.1.4.3.1.1.2.2.3.4h0l.3-.6h1l-1.1,5h-1v-.6c0,0,0,0,0,0-.1.1-.2.3-.4.4-.1.1-.3.2-.5.3-.2,0-.4,0-.6,0ZM214.7,526.8c.2,0,.4,0,.5-.2.2-.1.3-.3.4-.6.1-.2.2-.5.2-.7,0-.1,0-.2,0-.4,0-.1,0-.3,0-.4,0-.2,0-.4-.2-.5-.1-.1-.3-.2-.5-.2s-.3,0-.4.1c-.1,0-.2.2-.3.3,0,.1-.2.3-.3.5,0,.2-.1.4-.2.6,0,.2,0,.4,0,.6s0,.5.2.6c.1.1.2.2.4.2ZM219.4,527.9c-.3,0-.6,0-.8,0-.2,0-.5-.1-.7-.2v-1.1c.2.1.4.2.7.3.2,0,.5.1.7.1s.3,0,.4,0c.1,0,.2,0,.3-.2,0,0,.1-.2.1-.3s0-.2,0-.2-.1-.1-.2-.2c-.1,0-.3-.2-.5-.3-.2-.1-.4-.2-.5-.4-.1-.1-.3-.3-.3-.4,0-.2-.1-.3-.1-.5,0-.3,0-.6.2-.9.2-.2.4-.4.6-.5.3-.1.6-.2,1-.2s.6,0,.8,0c.3,0,.5.2.8.3l-.4,1c-.2-.1-.4-.2-.6-.3-.2,0-.4-.1-.6-.1s-.3,0-.4.1c-.1,0-.2.2-.2.3s0,.1,0,.2c0,0,.1.1.2.2.1,0,.2.1.4.2.2.1.4.2.5.3.2.1.3.3.4.4,0,.2.1.4.1.6,0,.4,0,.7-.3,1-.2.3-.4.4-.7.6-.3.1-.7.2-1.1.2ZM224.5,527.9c-.4,0-.7,0-1-.2-.3-.1-.5-.4-.7-.6-.2-.3-.2-.6-.2-1.1s0-.8.2-1.2c.1-.4.3-.7.5-1,.2-.3.5-.5.9-.7.3-.2.7-.3,1.2-.3s1,.1,1.2.4c.3.3.4.6.4,1s0,.5-.2.7c-.1.2-.3.4-.5.6-.2.2-.5.3-.9.4-.4,0-.8.1-1.3.1h-.2s0,0,0,0h0c0,.4,0,.6.2.7.2.2.4.2.7.2s.5,0,.7,0,.5-.2.8-.3v1c-.3.1-.5.2-.8.3-.3,0-.6,0-.9,0ZM224,524.9h.2c.3,0,.6,0,.8-.1.2,0,.4-.2.5-.3.1-.1.2-.3.2-.4s0-.2-.1-.3c0,0-.2-.1-.3-.1s-.3,0-.5.2c-.2.1-.3.2-.4.4-.1.2-.2.4-.3.6ZM89,540.5c-.4,0-.7,0-1-.2-.3-.1-.5-.4-.7-.6-.2-.3-.2-.6-.2-1.1s0-.8.2-1.2c.1-.4.3-.7.5-1,.2-.3.5-.5.9-.7.3-.2.7-.3,1.2-.3s1,.1,1.2.4c.3.3.4.6.4,1s0,.5-.2.7c-.1.2-.3.4-.5.6-.2.2-.5.3-.9.4-.4,0-.8.1-1.3.1h-.2s0,0,0,0h0c0,.4,0,.6.2.7s.4.2.7.2.5,0,.7,0c.2,0,.5-.2.8-.3v1c-.3.1-.5.2-.8.3-.3,0-.6,0-.9,0ZM88.5,537.5h.2c.3,0,.6,0,.8-.1.2,0,.4-.2.5-.3.1-.1.2-.3.2-.4s0-.2-.1-.3c0,0-.2-.1-.3-.1s-.3,0-.5.2c-.2.1-.3.2-.4.4-.1.2-.2.4-.3.6ZM91.5,542.6c-.1,0-.3,0-.4,0-.1,0-.3,0-.4,0v-1.1c0,0,.2,0,.3,0,0,0,.2,0,.2,0,.2,0,.3,0,.5-.2.1-.1.2-.3.3-.6l.9-4.3h-.7v-.6c.1,0,.9-.4.9-.4v-.4c.1-.3.2-.6.3-.8.1-.2.2-.4.4-.5.2-.1.3-.2.5-.3.2,0,.4,0,.7,0s.4,0,.6,0c.2,0,.3,0,.5.2l-.4,1c0,0-.2,0-.3,0,0,0-.2,0-.3,0-.2,0-.3,0-.4.2-.1.1-.2.3-.2.5v.3c0,0,1.7,0,1.7,0v-.4c.1-.3.2-.6.3-.8.1-.2.2-.4.4-.5.2-.1.3-.2.5-.3.2,0,.4,0,.7,0s.4,0,.6,0c.2,0,.3,0,.5.2l-.4,1c0,0-.2,0-.3,0,0,0-.2,0-.3,0s-.3,0-.4.2c-.1.1-.2.3-.2.5v.3c0,0,.9,0,.9,0l-.2,1h-1l-1,4.5c0,.3-.2.6-.3.8-.1.3-.3.5-.6.6-.2.1-.5.2-.9.2s-.3,0-.4,0c-.1,0-.3,0-.4,0v-1.1c0,0,.2,0,.3,0,0,0,.2,0,.2,0,.2,0,.3,0,.5-.2.1-.1.2-.3.3-.6l.9-4.3h-1.8l-1,4.5c0,.3-.2.6-.3.8-.1.3-.3.5-.6.6-.2.1-.5.2-.9.2ZM98.2,540.4l1.1-5h1.3l-1.1,5h-1.3ZM100.1,534.8c-.2,0-.3,0-.5-.1-.1,0-.2-.2-.2-.4s0-.3,0-.4c0-.1.2-.2.3-.3.1,0,.3,0,.4,0s.3,0,.5.1c.1,0,.2.2.2.4s0,.4-.2.6c-.1.1-.3.2-.6.2ZM103,540.5c-.3,0-.7,0-.9-.2-.3-.1-.5-.3-.7-.6-.2-.3-.2-.6-.2-1.1s0-.7.1-1c0-.3.2-.6.3-.9.1-.3.3-.5.5-.7.2-.2.5-.4.7-.5.3-.1.6-.2.9-.2s.6,0,.8,0c.2,0,.5.1.7.2l-.4,1c-.2,0-.3-.1-.5-.2-.2,0-.3,0-.5,0s-.4,0-.6.2c-.2.1-.3.3-.4.5-.1.2-.2.4-.3.7,0,.3,0,.5,0,.8s0,.3,0,.5c0,.1.1.2.3.3.1,0,.3,0,.4,0s.4,0,.6-.1c.2,0,.4-.2.6-.3v1.1c-.2.1-.4.2-.7.3s-.5,0-.8,0ZM105.3,540.4l1.1-5h1.3l-1.1,5h-1.3ZM107.2,534.8c-.2,0-.3,0-.5-.1-.1,0-.2-.2-.2-.4s0-.3,0-.4c0-.1.2-.2.3-.3.1,0,.3,0,.4,0s.3,0,.5.1c.1,0,.2.2.2.4s0,.4-.2.6c-.1.1-.3.2-.6.2ZM110.2,540.5c-.4,0-.7,0-1-.2-.3-.1-.5-.4-.7-.6-.2-.3-.2-.6-.2-1.1s0-.8.2-1.2c.1-.4.3-.7.5-1,.2-.3.5-.5.9-.7.3-.2.7-.3,1.2-.3s1,.1,1.2.4c.3.3.4.6.4,1s0,.5-.2.7c-.1.2-.3.4-.5.6-.2.2-.5.3-.9.4-.4,0-.8.1-1.3.1h-.2s0,0,0,0h0c0,.4,0,.6.2.7.2.2.4.2.7.2s.5,0,.7,0c.2,0,.5-.2.8-.3v1c-.3.1-.5.2-.8.3-.3,0-.6,0-.9,0ZM109.7,537.5h.2c.3,0,.6,0,.8-.1.2,0,.4-.2.5-.3.1-.1.2-.3.2-.4s0-.2-.1-.3c0,0-.2-.1-.3-.1s-.3,0-.5.2c-.2.1-.3.2-.4.4-.1.2-.2.4-.3.6ZM113.1,540.4l1.1-5h1v.9c0,0,0,0,0,0,.1-.2.3-.4.4-.5.2-.2.3-.3.5-.4.2,0,.4-.1.6-.1s.5,0,.7.2c.2.1.3.3.4.5,0,.2.1.5.1.8s0,.2,0,.4,0,.3,0,.4l-.6,2.8h-1.3l.6-2.9c0-.1,0-.2,0-.3,0,0,0-.2,0-.2,0-.2,0-.3-.1-.4,0,0-.2-.1-.4-.1s-.4,0-.5.3c-.2.2-.3.4-.4.7-.1.3-.2.6-.3,1l-.4,2.1h-1.3ZM120.6,540.5c-.3,0-.7,0-.9-.2-.3-.1-.5-.3-.7-.6-.2-.3-.2-.6-.2-1.1s0-.7.1-1c0-.3.2-.6.3-.9.1-.3.3-.5.5-.7.2-.2.5-.4.7-.5.3-.1.6-.2.9-.2s.6,0,.8,0c.2,0,.5.1.7.2l-.4,1c-.2,0-.3-.1-.5-.2-.2,0-.3,0-.5,0s-.4,0-.6.2c-.2.1-.3.3-.4.5-.1.2-.2.4-.3.7,0,.3,0,.5,0,.8s0,.3,0,.5c0,.1.1.2.3.3.1,0,.3,0,.4,0s.4,0,.6-.1c.2,0,.4-.2.6-.3v1.1c-.2.1-.4.2-.7.3s-.5,0-.8,0ZM122.8,542.6c-.2,0-.3,0-.4,0-.1,0-.2,0-.3,0v-1.1c0,0,.2,0,.2,0,0,0,.2,0,.3,0,.3,0,.5,0,.7-.2.2-.2.3-.4.5-.6v-.2c.1,0-.6-5-.6-5h1.3l.2,2.3c0,.1,0,.3,0,.4,0,.2,0,.3,0,.5,0,.2,0,.3,0,.4h0c0,0,0-.2.1-.3,0-.1,0-.3.2-.4,0-.1.1-.3.2-.5l1.2-2.4h1.5l-3,5.7c-.2.3-.4.6-.6.8-.2.2-.5.4-.7.5-.3.1-.5.2-.8.2ZM131.6,540.5c-.2,0-.5,0-.7-.2-.2-.1-.4-.3-.5-.6-.1-.3-.2-.6-.2-1s0-.6.1-1c0-.3.2-.6.3-.9.1-.3.3-.5.5-.8.2-.2.4-.4.6-.5.2-.1.5-.2.8-.2s.4,0,.6,0c.2,0,.3.1.4.3.1.1.2.2.3.4h0l.3-.6h1l-1.1,5h-1v-.6c0,0,0,0,0,0-.1.1-.2.3-.4.4-.1.1-.3.2-.5.3-.2,0-.4,0-.6,0ZM132.2,539.4c.2,0,.4,0,.5-.2.2-.1.3-.3.4-.6.1-.2.2-.5.2-.7,0-.1,0-.2,0-.4,0-.1,0-.3,0-.4,0-.2,0-.4-.2-.5-.1-.1-.3-.2-.5-.2s-.3,0-.4.1c-.1,0-.2.2-.3.3,0,.1-.2.3-.3.5,0,.2-.1.4-.2.6,0,.2,0,.4,0,.6s0,.5.2.6c0,.1.2.2.4.2ZM135.4,540.4l1.1-5h1v.9c0,0,0,0,0,0,.1-.2.3-.4.4-.5.2-.2.3-.3.5-.4.2,0,.4-.1.6-.1s.5,0,.7.2c.2.1.3.3.4.5,0,.2.1.5.1.8s0,.2,0,.4c0,.1,0,.3,0,.4l-.6,2.8h-1.3l.6-2.9c0-.1,0-.2,0-.3,0,0,0-.2,0-.2,0-.2,0-.3-.1-.4,0,0-.2-.1-.4-.1s-.4,0-.5.3c-.2.2-.3.4-.4.7-.1.3-.2.6-.3,1l-.4,2.1h-1.3ZM142.5,540.5c-.2,0-.5,0-.7-.2-.2-.1-.4-.3-.5-.6-.1-.3-.2-.6-.2-1.1s0-.6.1-1c0-.3.2-.6.3-.9.1-.3.3-.5.5-.8.2-.2.4-.4.6-.5.2-.1.5-.2.8-.2s.4,0,.5,0c.1,0,.3.2.4.3.1.1.2.2.3.4h0s0,0,0-.2c0-.1,0-.2,0-.4,0-.1,0-.3,0-.4l.3-1.6h1.3l-1.5,6.9h-1v-.6c0,0,0,0,0,0-.1.1-.2.3-.4.4-.1.1-.3.2-.5.3-.2,0-.4,0-.6,0ZM143.1,539.4c.1,0,.3,0,.4-.1.1,0,.2-.2.3-.3,0-.1.2-.3.2-.4,0-.2.1-.3.2-.5,0-.2,0-.3,0-.5,0-.2,0-.3,0-.4,0-.2,0-.4-.2-.6-.1-.1-.3-.2-.5-.2s-.3,0-.4.1c-.1,0-.2.2-.3.3,0,.1-.2.3-.3.5,0,.2-.1.4-.2.6,0,.2,0,.4,0,.6s0,.5.2.6c.1.1.3.2.5.2ZM150.3,540.5c-.2,0-.5,0-.7-.2-.2-.1-.4-.3-.5-.6-.1-.3-.2-.6-.2-1.1s0-.6.1-1c0-.3.2-.6.3-.9.1-.3.3-.5.5-.8.2-.2.4-.4.6-.5.2-.1.5-.2.8-.2s.4,0,.5,0c.1,0,.3.2.4.3.1.1.2.2.3.4h0s0,0,0-.2c0-.1,0-.2,0-.4,0-.1,0-.3,0-.4l.3-1.6h1.3l-1.5,6.9h-1v-.6c0,0,0,0,0,0-.1.1-.2.3-.4.4-.1.1-.3.2-.5.3-.2,0-.4,0-.6,0ZM150.9,539.4c.1,0,.3,0,.4-.1.1,0,.2-.2.3-.3,0-.1.2-.3.2-.4,0-.2.1-.3.2-.5,0-.2,0-.3,0-.5,0-.2,0-.3,0-.4,0-.2,0-.4-.2-.6-.1-.1-.3-.2-.5-.2s-.3,0-.4.1c-.1,0-.2.2-.3.3,0,.1-.2.3-.3.5,0,.2-.1.4-.2.6,0,.2,0,.4,0,.6s0,.5.2.6c.1.1.3.2.5.2ZM154.1,540.4l1.1-5h1.3l-1.1,5h-1.3ZM156,534.8c-.2,0-.3,0-.5-.1-.1,0-.2-.2-.2-.4s0-.3,0-.4c0-.1.2-.2.3-.3.1,0,.3,0,.4,0s.3,0,.5.1c.1,0,.2.2.2.4s0,.4-.2.6c-.1.1-.3.2-.6.2ZM158.2,540.5c-.3,0-.6,0-.8,0-.2,0-.5-.1-.7-.2v-1.1c.2.1.4.2.7.3.2,0,.5.1.7.1s.3,0,.4,0c.1,0,.2,0,.3-.2,0,0,.1-.2.1-.3s0-.2,0-.2c0,0-.1-.1-.2-.2-.1,0-.3-.2-.5-.3-.2-.1-.4-.2-.5-.4-.1-.1-.3-.3-.3-.4,0-.2-.1-.3-.1-.5,0-.3,0-.6.2-.9.2-.2.4-.4.6-.5.3-.1.6-.2,1-.2s.6,0,.8,0c.3,0,.5.2.8.3l-.4,1c-.2-.1-.4-.2-.6-.3-.2,0-.4-.1-.6-.1s-.3,0-.4.1c-.1,0-.2.2-.2.3s0,.1,0,.2c0,0,.1.1.2.2.1,0,.2.1.4.2.2.1.4.2.5.3.2.1.3.3.4.4,0,.2.1.4.1.6,0,.4,0,.7-.3,1-.2.3-.4.4-.7.6-.3.1-.7.2-1.1.2ZM161.1,540.4l1.1-5h1v.9c0,0,0,0,0,0,.1-.2.3-.4.4-.5.2-.2.3-.3.5-.3.2,0,.4-.1.6-.1s.1,0,.2,0c0,0,.1,0,.2,0l-.3,1.3s-.1,0-.2,0c0,0-.2,0-.3,0-.2,0-.3,0-.5.1-.2,0-.3.2-.4.3-.1.1-.2.3-.3.5,0,.2-.2.4-.2.7l-.5,2.2h-1.3ZM166.5,540.5c-.3,0-.5,0-.7-.2s-.3-.3-.4-.5c0-.2-.1-.5-.1-.8s0-.2,0-.4c0-.2,0-.3,0-.5l.6-2.7h1.3l-.6,2.9c0,.1,0,.2,0,.3,0,0,0,.2,0,.2,0,.2,0,.3.1.4,0,0,.2.1.4.1s.4,0,.5-.3c.2-.2.3-.4.4-.7.1-.3.2-.6.3-1l.4-2.1h1.3l-1.1,5h-1v-.9c0,0,0,0,0,0-.1.2-.3.4-.4.5-.2.2-.3.3-.5.4-.2,0-.4.1-.6.1ZM169.9,542.6l1.5-7.1h1v.8c0,0,0,0,0,0,.1-.1.2-.3.4-.4s.3-.2.5-.3c.2,0,.4-.1.6-.1s.5,0,.7.2c.2.1.4.3.5.6.1.3.2.6.2,1.1s0,.6-.1,1c0,.3-.2.6-.3.9-.1.3-.3.5-.5.8-.2.2-.4.4-.6.5-.2.1-.5.2-.8.2s-.4,0-.5,0c-.1,0-.3-.2-.4-.3,0-.1-.2-.2-.3-.4h0c0,.2,0,.5,0,.7,0,.2,0,.4-.1.6l-.3,1.5h-1.3ZM172.7,539.4c.1,0,.3,0,.4-.1.1,0,.2-.2.3-.3,0-.1.2-.3.3-.5,0-.2.1-.4.2-.6,0-.2,0-.4,0-.6s0-.5-.1-.6c0-.1-.2-.2-.4-.2s-.3,0-.4.1c-.1,0-.2.2-.3.3,0,.1-.2.3-.2.4,0,.2-.1.3-.2.5,0,.2,0,.3,0,.5,0,.2,0,.3,0,.4,0,.2,0,.4.2.6.1.1.3.2.5.2ZM177.4,540.5c-.4,0-.7,0-.9-.2-.2-.2-.4-.5-.4-.9s0-.1,0-.2c0,0,0-.2,0-.3l.5-2.4h-.7v-.7c.1,0,1-.4,1-.4l.6-1h.9l-.2,1.1h1.3l-.2,1h-1.2l-.5,2.4s0,0,0,.1c0,0,0,0,0,.1,0,.1,0,.2.1.3,0,0,.2,0,.3,0s.2,0,.3,0c.1,0,.2,0,.4-.1v1c-.1,0-.3.1-.5.2-.2,0-.4,0-.7,0ZM183.5,540.5c-.2,0-.5,0-.7-.2-.2-.1-.4-.3-.5-.6-.1-.3-.2-.6-.2-1.1s0-.6.1-1c0-.3.2-.6.3-.9.1-.3.3-.5.5-.8.2-.2.4-.4.6-.5.2-.1.5-.2.8-.2s.4,0,.5,0c.1,0,.3.2.4.3,0,.1.2.2.3.4h0s0,0,0-.2c0-.1,0-.2,0-.4,0-.1,0-.3,0-.4l.3-1.6h1.3l-1.5,6.9h-1v-.6c0,0,0,0,0,0-.1.1-.2.3-.4.4-.1.1-.3.2-.5.3-.2,0-.4,0-.6,0ZM184.1,539.4c.1,0,.3,0,.4-.1.1,0,.2-.2.3-.3,0-.1.2-.3.2-.4,0-.2.1-.3.2-.5,0-.2,0-.3,0-.5,0-.2,0-.3,0-.4,0-.2,0-.4-.2-.6-.1-.1-.3-.2-.5-.2s-.3,0-.4.1c-.1,0-.2.2-.3.3,0,.1-.2.3-.3.5,0,.2-.1.4-.2.6,0,.2,0,.4,0,.6s0,.5.2.6c.1.1.3.2.5.2ZM189.4,540.5c-.4,0-.7,0-1-.2-.3-.2-.5-.4-.7-.7-.2-.3-.2-.6-.2-1s0-.7.1-1c0-.3.2-.6.3-.9.1-.3.3-.5.5-.7.2-.2.5-.4.7-.5.3-.1.6-.2.9-.2s.7,0,1,.2c.3.2.5.4.7.7.2.3.2.6.2,1.1s0,.7-.1,1c0,.3-.2.6-.3.9-.1.3-.3.5-.5.7-.2.2-.5.4-.7.5-.3.1-.6.2-1,.2ZM189.5,539.4c.1,0,.3,0,.4-.1.1,0,.2-.2.3-.3,0-.1.2-.3.2-.5,0-.2.1-.4.1-.6,0-.2,0-.4,0-.6s0-.3,0-.4c0-.1-.1-.2-.2-.3,0,0-.2-.1-.4-.1s-.3,0-.4.1c-.1,0-.2.2-.3.4,0,.2-.2.3-.2.5,0,.2-.1.4-.1.6,0,.2,0,.4,0,.6,0,.3,0,.5.2.6.1.1.3.2.5.2ZM193.2,540.4l-.2-5h1.2v2.2c0,.2,0,.5,0,.7,0,.2,0,.5,0,.8h0c0-.2,0-.3.2-.5,0-.2.1-.4.2-.5,0-.2.1-.3.1-.3l1-2.4h1.5v2.4c0,.2,0,.4,0,.6,0,.2,0,.4,0,.7h0c0-.1,0-.3.2-.5,0-.2.1-.4.2-.6,0-.2.1-.3.2-.5l1-2.2h1.4l-2.3,5h-1.5v-2.3c0-.1,0-.3,0-.5,0-.2,0-.4,0-.6,0-.2,0-.4,0-.5h0c0,.1-.1.3-.2.5,0,.2-.1.3-.2.5,0,.2-.1.3-.2.4l-1,2.4h-1.4ZM199.7,540.4l1.1-5h1v.9c0,0,0,0,0,0,.1-.2.3-.4.4-.5.2-.2.3-.3.5-.4.2,0,.4-.1.6-.1s.5,0,.7.2c.2.1.3.3.4.5,0,.2.1.5.1.8s0,.2,0,.4c0,.1,0,.3,0,.4l-.6,2.8h-1.3l.6-2.9c0-.1,0-.2,0-.3,0,0,0-.2,0-.2,0-.2,0-.3-.1-.4,0,0-.2-.1-.4-.1s-.4,0-.5.3c-.2.2-.3.4-.4.7-.1.3-.2.6-.3,1l-.4,2.1h-1.3ZM206.7,540.5c-.3,0-.6,0-.8,0-.2,0-.5-.1-.7-.2v-1.1c.2.1.4.2.7.3.2,0,.5.1.7.1s.3,0,.4,0c.1,0,.2,0,.3-.2,0,0,.1-.2.1-.3s0-.2,0-.2c0,0-.1-.1-.2-.2-.1,0-.3-.2-.5-.3-.2-.1-.4-.2-.5-.4-.1-.1-.3-.3-.3-.4,0-.2-.1-.3-.1-.5,0-.3,0-.6.2-.9.1-.2.4-.4.6-.5.3-.1.6-.2,1-.2s.6,0,.8,0c.3,0,.5.2.8.3l-.4,1c-.2-.1-.4-.2-.6-.3-.2,0-.4-.1-.6-.1s-.3,0-.4.1c-.1,0-.2.2-.2.3s0,.1,0,.2c0,0,.1.1.2.2.1,0,.2.1.4.2.2.1.4.2.5.3.2.1.3.3.4.4,0,.2.1.4.1.6,0,.4,0,.7-.3,1-.2.3-.4.4-.7.6-.3.1-.7.2-1.1.2ZM211.2,540.5c-.4,0-.7,0-.9-.2-.2-.2-.4-.5-.4-.9s0-.1,0-.2c0,0,0-.2,0-.3l.5-2.4h-.7v-.7c.1,0,1-.4,1-.4l.6-1h.9l-.2,1.1h1.3l-.2,1h-1.3l-.5,2.4s0,0,0,.1c0,0,0,0,0,.1,0,.1,0,.2.1.3,0,0,.2,0,.3,0s.2,0,.3,0c.1,0,.2,0,.4-.1v1c-.1,0-.3.1-.5.2-.2,0-.4,0-.7,0ZM213.3,540.4l1.1-5h1v.9c0,0,0,0,0,0,.1-.2.3-.4.4-.5.2-.2.3-.3.5-.3.2,0,.4-.1.6-.1s.1,0,.2,0c0,0,.2,0,.2,0l-.3,1.3s-.1,0-.2,0c0,0-.2,0-.3,0-.2,0-.3,0-.5.1-.2,0-.3.2-.4.3-.1.1-.2.3-.3.5,0,.2-.2.4-.2.7l-.5,2.2h-1.3ZM219.3,540.5c-.4,0-.7,0-1-.2-.3-.1-.5-.4-.7-.6-.2-.3-.2-.6-.2-1.1s0-.8.2-1.2c.1-.4.3-.7.5-1,.2-.3.5-.5.9-.7.3-.2.7-.3,1.2-.3s1,.1,1.2.4c.3.3.4.6.4,1s0,.5-.2.7c-.1.2-.3.4-.5.6-.2.2-.5.3-.9.4-.4,0-.8.1-1.3.1h-.2s0,0,0,0h0c0,.4,0,.6.2.7.2.2.4.2.7.2s.5,0,.7,0c.2,0,.5-.2.8-.3v1c-.3.1-.5.2-.8.3-.3,0-.6,0-.9,0ZM218.8,537.5h.2c.3,0,.6,0,.8-.1.2,0,.4-.2.5-.3.1-.1.2-.3.2-.4s0-.2-.1-.3c0,0-.2-.1-.3-.1s-.3,0-.5.2c-.2.1-.3.2-.4.4-.1.2-.2.4-.3.6ZM223.8,540.5c-.2,0-.5,0-.7-.2-.2-.1-.4-.3-.5-.6-.1-.3-.2-.6-.2-1s0-.6.1-1c0-.3.2-.6.3-.9.1-.3.3-.5.5-.8.2-.2.4-.4.6-.5.2-.1.5-.2.8-.2s.4,0,.6,0c.2,0,.3.1.4.3.1.1.2.2.3.4h0l.3-.6h1l-1.1,5h-1v-.6c0,0,0,0,0,0-.1.1-.2.3-.4.4-.1.1-.3.2-.5.3-.2,0-.4,0-.6,0ZM224.3,539.4c.2,0,.4,0,.5-.2.2-.1.3-.3.4-.6.1-.2.2-.5.2-.7,0-.1,0-.2,0-.4,0-.1,0-.3,0-.4,0-.2,0-.4-.2-.5-.1-.1-.3-.2-.5-.2s-.3,0-.4.1c-.1,0-.2.2-.3.3,0,.1-.2.3-.3.5,0,.2-.1.4-.2.6,0,.2,0,.4,0,.6s0,.5.2.6c.1.1.2.2.4.2ZM227.5,540.4l1.1-5h1v.9c0,0,0,0,0,0,.1-.2.3-.4.4-.5.2-.2.3-.3.5-.4.2,0,.4-.1.6-.1.3,0,.6,0,.8.3.2.2.3.4.4.7h0c.1-.2.3-.4.4-.5.2-.2.3-.3.5-.4.2,0,.4-.1.6-.1.4,0,.7.1.9.4.2.3.3.6.3,1s0,.2,0,.4c0,.1,0,.3,0,.4l-.6,2.8h-1.3l.6-2.9c0-.1,0-.2,0-.3,0,0,0-.2,0-.2,0-.2,0-.3-.1-.4,0,0-.2-.1-.3-.1s-.3,0-.4.1c-.1,0-.2.2-.4.4-.1.2-.2.4-.3.6,0,.2-.1.5-.2.7l-.4,2.1h-1.3l.6-2.9c0-.1,0-.2,0-.3,0,0,0-.2,0-.2,0-.2,0-.3-.1-.4,0,0-.2-.1-.3-.1s-.3,0-.4.2c-.1.1-.2.2-.4.4-.1.2-.2.4-.3.6,0,.2-.1.5-.2.7l-.4,2.1h-1.3ZM87.4,553l-.2-5h1.2v2.2c0,.2,0,.5,0,.7,0,.2,0,.5,0,.8h0c0-.2,0-.3.2-.5,0-.2.1-.4.2-.5,0-.2.1-.3.1-.3l1-2.4h1.5v2.4c0,.2,0,.4,0,.6,0,.2,0,.4,0,.7h0c0-.1,0-.3.2-.5,0-.2.1-.4.2-.6,0-.2.1-.3.2-.5l1-2.2h1.4l-2.4,5h-1.5v-2.3c0-.1,0-.3,0-.5,0-.2,0-.4,0-.5,0-.2,0-.4,0-.5h0c0,.1-.1.3-.2.5,0,.2-.1.3-.2.5,0,.2-.1.3-.2.4l-1,2.4h-1.4ZM96,553.1c-.4,0-.7,0-1-.2-.3-.2-.5-.4-.7-.7-.2-.3-.2-.6-.2-1s0-.7.1-1c0-.3.2-.6.3-.9.1-.3.3-.5.5-.7.2-.2.5-.4.7-.5.3-.1.6-.2.9-.2s.7,0,1,.2c.3.2.5.4.7.7.2.3.2.6.2,1.1s0,.7-.1,1c0,.3-.2.6-.3.9-.1.3-.3.5-.5.7-.2.2-.5.4-.7.5-.3.1-.6.2-1,.2ZM96.2,552c.1,0,.3,0,.4-.1.1,0,.2-.2.3-.3,0-.1.2-.3.2-.5,0-.2.1-.4.1-.6,0-.2,0-.4,0-.6s0-.3,0-.4c0-.1-.1-.2-.2-.3,0,0-.2-.1-.4-.1s-.3,0-.4.1c-.1,0-.2.2-.3.4,0,.2-.2.3-.2.5,0,.2-.1.4-.1.6,0,.2,0,.4,0,.6,0,.3,0,.5.2.6.1.1.3.2.5.2ZM99.2,553l1.1-5h1v.9c0,0,0,0,0,0,.1-.2.3-.4.4-.5.2-.2.3-.3.5-.3.2,0,.4-.1.6-.1s.1,0,.2,0c0,0,.1,0,.2,0l-.3,1.3s-.1,0-.2,0c0,0-.2,0-.3,0-.2,0-.3,0-.5.1-.2,0-.3.2-.4.3-.1.1-.2.3-.3.5,0,.2-.2.4-.2.7l-.5,2.2h-1.3ZM103.1,553l1.5-6.9h1.3l-.7,3.1c0,0,0,.2,0,.3,0,.1,0,.2-.1.4,0,.1,0,.2,0,.3h0l2-2.1h1.5l-2.2,2.2,1.3,2.7h-1.5l-.8-1.9-.5.3-.3,1.5h-1.3ZM107.8,555.2c-.1,0-.3,0-.4,0-.1,0-.3,0-.3,0v-1.1c0,0,.2,0,.3,0,0,0,.2,0,.2,0,.2,0,.3,0,.5-.2.1-.1.2-.3.3-.6l.9-4.3h-.7v-.6c.1,0,.9-.4.9-.4v-.4c.1-.3.2-.6.3-.8.1-.2.2-.4.4-.5.2-.1.3-.2.5-.3.2,0,.4,0,.7,0s.4,0,.6,0c.2,0,.3,0,.5.2l-.4,1c0,0-.2,0-.3,0,0,0-.2,0-.3,0s-.3,0-.4.2c-.1.1-.2.3-.2.5v.3c0,0,.9,0,.9,0l-.2,1h-1l-1,4.5c0,.3-.2.6-.3.8-.1.3-.3.5-.6.6-.2.1-.5.2-.9.2ZM111.6,553l1.5-6.9h1.3l-1.5,6.9h-1.3ZM116.4,553.1c-.4,0-.7,0-1-.2-.3-.2-.5-.4-.7-.7-.2-.3-.2-.6-.2-1s0-.7.1-1c0-.3.2-.6.3-.9.1-.3.3-.5.5-.7.2-.2.5-.4.7-.5.3-.1.6-.2.9-.2s.7,0,1,.2c.3.2.5.4.7.7.2.3.2.6.2,1.1s0,.7-.1,1c0,.3-.2.6-.3.9-.1.3-.3.5-.5.7-.2.2-.5.4-.7.5-.3.1-.6.2-1,.2ZM116.5,552c.1,0,.3,0,.4-.1.1,0,.2-.2.3-.3,0-.1.2-.3.2-.5,0-.2.1-.4.1-.6,0-.2,0-.4,0-.6s0-.3,0-.4c0-.1-.1-.2-.2-.3,0,0-.2-.1-.4-.1s-.3,0-.4.1c-.1,0-.2.2-.3.4,0,.2-.2.3-.2.5,0,.2-.1.4-.1.6,0,.2,0,.4,0,.6,0,.3,0,.5.2.6s.3.2.5.2ZM120.2,553l-.2-5h1.2v2.2c0,.2,0,.5,0,.7,0,.2,0,.5,0,.8h0c0-.2,0-.3.2-.5,0-.2.1-.4.2-.5,0-.2.1-.3.1-.3l1-2.4h1.5v2.4c0,.2,0,.4,0,.6,0,.2,0,.4,0,.7h0c0-.1,0-.3.2-.5,0-.2.1-.4.2-.6,0-.2.1-.3.2-.5l1-2.2h1.4l-2.4,5h-1.5v-2.3c0-.1,0-.3,0-.5,0-.2,0-.4,0-.5,0-.2,0-.4,0-.5h0c0,.1-.1.3-.2.5,0,.2-.1.3-.2.5,0,.2-.1.3-.2.4l-1,2.4h-1.4ZM128.2,553.1c-.3,0-.6,0-.8,0-.2,0-.5-.1-.7-.2v-1.1c.2.1.4.2.7.3.2,0,.5.1.7.1s.3,0,.4,0c.1,0,.2,0,.3-.2,0,0,.1-.2.1-.3s0-.2,0-.2c0,0-.1-.1-.2-.2-.1,0-.3-.2-.5-.3-.2-.1-.4-.2-.5-.4-.1-.1-.3-.3-.3-.4,0-.2-.1-.3-.1-.5,0-.3,0-.6.2-.9.2-.2.4-.4.6-.5.3-.1.6-.2,1-.2s.6,0,.8,0c.3,0,.5.2.8.3l-.4,1c-.2-.1-.4-.2-.6-.3-.2,0-.4-.1-.6-.1s-.3,0-.4.1c-.1,0-.2.2-.2.3s0,.1,0,.2c0,0,.1.1.2.2.1,0,.2.1.4.2.2.1.4.2.5.3.2.1.3.3.4.4,0,.2.1.4.1.6,0,.4,0,.7-.3,1-.2.3-.4.4-.7.6-.3.1-.7.2-1.1.2ZM136.2,548.7h-1.2v4.3h-.7v-4.3h-.9v-.3l.9-.3v-.3c0-1.2.5-1.8,1.6-1.8s.6,0,.9.2l-.2.6c-.3,0-.5-.1-.7-.1s-.5,0-.6.3c-.1.2-.2.5-.2.9v.3h1.2v.6ZM141.3,550.6c0,.8-.2,1.4-.6,1.9-.4.4-1,.7-1.7.7s-.8-.1-1.2-.3c-.3-.2-.6-.5-.8-.9-.2-.4-.3-.8-.3-1.3,0-.8.2-1.4.6-1.9.4-.4.9-.7,1.6-.7s1.2.2,1.6.7c.4.5.6,1.1.6,1.8ZM137.6,550.6c0,.6.1,1.1.4,1.4.2.3.6.5,1.1.5s.8-.2,1.1-.5c.3-.3.4-.8.4-1.4s-.1-1.1-.4-1.4c-.2-.3-.6-.5-1.1-.5s-.8.2-1.1.5c-.2.3-.4.8-.4,1.4ZM144.8,548.1c.2,0,.4,0,.6,0v.7c-.3,0-.5,0-.6,0-.4,0-.7.2-1,.5-.3.3-.4.7-.4,1.2v2.6h-.7v-4.9h.6v.9h.1c.2-.3.4-.6.7-.7.3-.2.5-.3.8-.3ZM150.9,553.1c-.3,0-.6,0-.9-.2-.3-.1-.5-.3-.7-.5h0c0,.3,0,.6,0,.8v2h-.7v-7.1h.6v.7h.1c.2-.3.4-.5.7-.6.3-.1.5-.2.9-.2.6,0,1.1.2,1.5.7.4.4.5,1.1.5,1.9s-.2,1.4-.5,1.9c-.4.4-.8.7-1.5.7ZM150.8,548.7c-.5,0-.9.1-1.1.4-.2.3-.3.7-.3,1.3v.2c0,.7.1,1.2.3,1.5.2.3.6.4,1.1.4s.7-.2,1-.5c.2-.3.4-.8.4-1.4s-.1-1.1-.4-1.4c-.2-.3-.6-.5-1-.5ZM156.5,548.1c.2,0,.4,0,.6,0v.7c-.3,0-.5,0-.6,0-.4,0-.7.2-1,.5-.3.3-.4.7-.4,1.2v2.6h-.7v-4.9h.6v.9h.1c.2-.3.4-.6.7-.7.3-.2.5-.3.8-.3ZM162.1,550.6c0,.8-.2,1.4-.6,1.9-.4.4-1,.7-1.7.7s-.8-.1-1.2-.3c-.3-.2-.6-.5-.8-.9-.2-.4-.3-.8-.3-1.3,0-.8.2-1.4.6-1.9.4-.4.9-.7,1.6-.7s1.2.2,1.6.7c.4.5.6,1.1.6,1.8ZM158.4,550.6c0,.6.1,1.1.4,1.4.2.3.6.5,1.1.5s.8-.2,1.1-.5c.3-.3.4-.8.4-1.4s-.1-1.1-.4-1.4c-.2-.3-.6-.5-1.1-.5s-.8.2-1.1.5c-.2.3-.4.8-.4,1.4ZM164.5,553l-1.8-4.9h.8l1,2.9c.2.7.4,1.1.4,1.3h0c0-.2.1-.5.3-1,.2-.5.6-1.6,1.2-3.2h.8l-1.8,4.9h-.9ZM168.7,553h-.7v-4.9h.7v4.9ZM167.9,546.8c0-.2,0-.3.1-.4,0,0,.2-.1.3-.1s.2,0,.3.1.1.2.1.4,0,.3-.1.4c0,0-.2.1-.3.1s-.2,0-.3-.1c0,0-.1-.2-.1-.4ZM173.6,552.4h0c-.3.5-.8.7-1.5.7s-1.1-.2-1.5-.7c-.4-.4-.5-1.1-.5-1.9s.2-1.4.5-1.9c.4-.4.8-.7,1.5-.7s1.2.2,1.5.7h0v-.3s0-.3,0-.3v-2h.7v6.9h-.6v-.7ZM172.1,552.5c.5,0,.9-.1,1.1-.4.2-.3.3-.7.3-1.3v-.2c0-.7-.1-1.2-.3-1.5-.2-.3-.6-.4-1.1-.4s-.8.2-1,.5c-.2.3-.3.8-.3,1.4s.1,1.1.3,1.4c.2.3.6.5,1,.5ZM177.9,553.1c-.7,0-1.3-.2-1.7-.7-.4-.4-.6-1-.6-1.8s.2-1.4.6-1.9c.4-.5.9-.7,1.6-.7s1.1.2,1.4.6c.4.4.5.9.5,1.6v.5h-3.3c0,.6.2,1,.4,1.3.3.3.7.4,1.2.4s1-.1,1.6-.3v.7c-.3.1-.5.2-.7.2-.2,0-.5,0-.8,0ZM177.7,548.7c-.4,0-.7.1-.9.4-.2.3-.4.6-.4,1.1h2.5c0-.5-.1-.8-.3-1.1-.2-.2-.5-.4-.9-.4ZM183.2,548.1c.2,0,.4,0,.6,0v.7c-.3,0-.5,0-.6,0-.4,0-.7.2-1,.5-.3.3-.4.7-.4,1.2v2.6h-.7v-4.9h.6v.9h.1c.2-.3.4-.6.7-.7.3-.2.5-.3.8-.3ZM187.8,551.7c0,.5-.2.8-.5,1-.3.2-.8.4-1.4.4s-1.1-.1-1.5-.3v-.7c.2.1.5.2.8.3.3,0,.5.1.8.1.4,0,.7,0,.9-.2.2-.1.3-.3.3-.6s0-.4-.2-.5c-.2-.1-.5-.3-1-.5-.5-.2-.8-.3-1-.4-.2-.1-.3-.3-.4-.4,0-.2-.1-.4-.1-.6,0-.4.2-.7.5-.9.3-.2.8-.3,1.3-.3s1,.1,1.5.3l-.3.6c-.5-.2-.9-.3-1.3-.3s-.6,0-.8.2c-.2.1-.3.3-.3.5s0,.2,0,.3c0,0,.2.2.3.3.1,0,.4.2.9.4.6.2,1,.4,1.2.6.2.2.3.5.3.8ZM194.4,553v-.7h-.2c-.2.3-.5.5-.7.6-.2.1-.5.2-.9.2s-.9-.1-1.1-.4c-.3-.2-.4-.6-.4-1.1,0-1,.8-1.5,2.4-1.5h.8v-.3c0-.4,0-.7-.2-.8-.2-.2-.4-.3-.8-.3s-.9.1-1.4.4l-.2-.6c.2-.1.5-.2.8-.3.3,0,.6-.1.9-.1.6,0,1,.1,1.3.4.3.3.4.7.4,1.2v3.3h-.5ZM192.7,552.5c.5,0,.8-.1,1.1-.4.3-.3.4-.6.4-1.1v-.4h-.7c-.6,0-1,.1-1.3.3-.3.2-.4.4-.4.8s0,.5.2.6c.2.1.4.2.7.2ZM199.7,553v-3.1c0-.4,0-.7-.3-.9-.2-.2-.5-.3-.8-.3s-.9.1-1.1.4c-.2.3-.4.7-.4,1.4v2.6h-.7v-4.9h.6v.7h.2c.2-.2.4-.4.6-.6.3-.1.6-.2.9-.2.6,0,1,.1,1.3.4.3.3.4.7.4,1.4v3.2h-.7ZM205.3,552.4h0c-.3.5-.8.7-1.5.7s-1.1-.2-1.5-.7c-.4-.4-.5-1.1-.5-1.9s.2-1.4.5-1.9c.4-.4.8-.7,1.5-.7s1.2.2,1.5.7h0v-.3s0-.3,0-.3v-2h.7v6.9h-.6v-.7ZM203.8,552.5c.5,0,.9-.1,1.1-.4.2-.3.3-.7.3-1.3v-.2c0-.7-.1-1.2-.3-1.5-.2-.3-.6-.4-1.1-.4s-.8.2-1,.5c-.2.3-.3.8-.3,1.4s.1,1.1.3,1.4c.2.3.6.5,1,.5ZM213.1,551.7c0,.5-.2.8-.5,1-.3.2-.8.4-1.4.4s-1.1-.1-1.5-.3v-.7c.2.1.5.2.8.3.3,0,.5.1.8.1.4,0,.7,0,.9-.2.2-.1.3-.3.3-.6s0-.4-.2-.5c-.2-.1-.5-.3-1-.5-.5-.2-.8-.3-1-.4-.2-.1-.3-.3-.4-.4,0-.2-.1-.4-.1-.6,0-.4.2-.7.5-.9.3-.2.8-.3,1.3-.3s1,.1,1.5.3l-.3.6c-.5-.2-.9-.3-1.3-.3s-.6,0-.8.2c-.2.1-.3.3-.3.5s0,.2,0,.3c0,0,.2.2.3.3.1,0,.4.2.9.4.6.2,1,.4,1.2.6.2.2.3.5.3.8ZM215,548.2v3.2c0,.4,0,.7.3.9.2.2.5.3.8.3s.9-.1,1.1-.4c.2-.3.4-.7.4-1.4v-2.6h.7v4.9h-.6v-.7h-.1c-.2.2-.4.4-.6.6-.3.1-.6.2-.9.2-.6,0-1-.1-1.3-.4-.3-.3-.4-.7-.4-1.3v-3.2h.7ZM222.1,553.1c-.3,0-.6,0-.9-.2-.3-.1-.5-.3-.7-.5h0c0,.3,0,.6,0,.8v2h-.7v-7.1h.6v.7h.1c.2-.3.4-.5.7-.6.3-.1.5-.2.9-.2.6,0,1.1.2,1.5.7.4.4.5,1.1.5,1.9s-.2,1.4-.5,1.9c-.4.4-.8.7-1.5.7ZM222,548.7c-.5,0-.9.1-1.1.4-.2.3-.3.7-.3,1.3v.2c0,.7.1,1.2.3,1.5.2.3.6.4,1.1.4s.7-.2,1-.5c.2-.3.4-.8.4-1.4s-.1-1.1-.4-1.4c-.2-.3-.6-.5-1-.5ZM227.7,553.1c-.3,0-.6,0-.9-.2-.3-.1-.5-.3-.7-.5h0c0,.3,0,.6,0,.8v2h-.7v-7.1h.6v.7h.1c.2-.3.4-.5.7-.6.3-.1.5-.2.9-.2.6,0,1.1.2,1.5.7.4.4.5,1.1.5,1.9s-.2,1.4-.5,1.9c-.4.4-.8.7-1.5.7ZM227.6,548.7c-.5,0-.9.1-1.1.4-.2.3-.3.7-.3,1.3v.2c0,.7.1,1.2.3,1.5.2.3.6.4,1.1.4s.7-.2,1-.5c.2-.3.4-.8.4-1.4s-.1-1.1-.4-1.4c-.2-.3-.6-.5-1-.5ZM231.7,553h-.7v-6.9h.7v6.9ZM234,553h-.7v-4.9h.7v4.9ZM233.2,546.8c0-.2,0-.3.1-.4,0,0,.2-.1.3-.1s.2,0,.3.1c0,0,.1.2.1.4s0,.3-.1.4c0,0-.2.1-.3.1s-.2,0-.3-.1c0,0-.1-.2-.1-.4ZM237.6,553.1c-.7,0-1.3-.2-1.7-.7-.4-.4-.6-1-.6-1.8s.2-1.4.6-1.9c.4-.5.9-.7,1.6-.7s1.1.2,1.4.6c.4.4.5.9.5,1.6v.5h-3.3c0,.6.2,1,.4,1.3.3.3.7.4,1.2.4s1-.1,1.6-.3v.7c-.3.1-.5.2-.7.2-.2,0-.5,0-.8,0ZM237.4,548.7c-.4,0-.7.1-.9.4-.2.3-.4.6-.4,1.1h2.5c0-.5-.1-.8-.3-1.1-.2-.2-.5-.4-.9-.4ZM242.9,548.1c.2,0,.4,0,.6,0v.7c-.3,0-.5,0-.6,0-.4,0-.7.2-1,.5-.3.3-.4.7-.4,1.2v2.6h-.7v-4.9h.6v.9h.1c.2-.3.4-.6.7-.7.3-.2.5-.3.8-.3ZM247.5,551.7c0,.5-.2.8-.5,1-.3.2-.8.4-1.4.4s-1.1-.1-1.5-.3v-.7c.2.1.5.2.8.3.3,0,.5.1.8.1.4,0,.7,0,.9-.2.2-.1.3-.3.3-.6s0-.4-.2-.5c-.2-.1-.5-.3-1-.5-.5-.2-.8-.3-1-.4-.2-.1-.3-.3-.4-.4,0-.2-.1-.4-.1-.6,0-.4.2-.7.5-.9.3-.2.8-.3,1.3-.3s1,.1,1.5.3l-.3.6c-.5-.2-.9-.3-1.3-.3s-.6,0-.8.2c-.2.1-.3.3-.3.5s0,.2,0,.3c0,0,.2.2.3.3.1,0,.4.2.9.4.6.2,1,.4,1.2.6.2.2.3.5.3.8ZM248.6,552.6c0-.2,0-.3.1-.4,0-.1.2-.2.4-.2s.3,0,.4.2c0,0,.1.2.1.4s0,.3-.1.4c0,.1-.2.2-.4.2s-.3,0-.4-.1c0,0-.1-.2-.1-.5Z" fill="#041e42" stroke-width="0"/>
    <path d="M274.5,462.6H75.7c-.4,0-.8.3-.8.8s.3.8.8.8h198.8c.4,0,.8-.3.8-.8s-.3-.8-.8-.8Z" fill="#041e42" stroke-width="0"/>
    <path d="M78.1,458.7c1.7,0,3.1-1.4,3.1-3.1s-1.4-3.1-3.1-3.1-3.1,1.4-3.1,3.1,1.4,3.1,3.1,3.1Z" fill="#041e42" stroke-width="0"/>
    <path d="M89.5,455.6c0,1.7-1.4,3.1-3.1,3.1s-3.1-1.4-3.1-3.1,1.4-3.1,3.1-3.1,3.1,1.4,3.1,3.1Z" fill="#041e42" stroke-width="0"/>
    <path d="M97.8,455.6c0,1.7-1.4,3.1-3.1,3.1s-3.1-1.4-3.1-3.1,1.4-3.1,3.1-3.1,3.1,1.4,3.1,3.1Z" fill="#041e42" stroke-width="0"/>
    <path d="M302.5,524.7h.5v-.5h-.5v.5ZM305.2,610.6c0-1.5-1.2-2.7-2.7-2.7s-2.7,1.2-2.7,2.7,1.2,2.7,2.7,2.7,2.7-1.2,2.7-2.7ZM303.1,610.4c0-.3-.2-.5-.5-.5s-.5.2-.5.5h1ZM302,606.4c0,.3.2.5.5.5s.5-.2.5-.5h-1ZM303.1,605.9c0-.3-.2-.5-.5-.5s-.5.2-.5.5h1ZM302,601.8c0,.3.2.5.5.5s.5-.2.5-.5h-1ZM303.1,601.3c0-.3-.2-.5-.5-.5s-.5.2-.5.5h1ZM302,597.3c0,.3.2.5.5.5s.5-.2.5-.5h-1ZM303.1,596.8c0-.3-.2-.5-.5-.5s-.5.2-.5.5h1ZM302,592.8c0,.3.2.5.5.5s.5-.2.5-.5h-1ZM303.1,592.3c0-.3-.2-.5-.5-.5s-.5.2-.5.5h1ZM302,588.3c0,.3.2.5.5.5s.5-.2.5-.5h-1ZM303.1,587.8c0-.3-.2-.5-.5-.5s-.5.2-.5.5h1ZM302,583.8c0,.3.2.5.5.5s.5-.2.5-.5h-1ZM303.1,583.2c0-.3-.2-.5-.5-.5s-.5.2-.5.5h1ZM302,579.2c0,.3.2.5.5.5s.5-.2.5-.5h-1ZM303.1,578.7c0-.3-.2-.5-.5-.5s-.5.2-.5.5h1ZM302,574.7c0,.3.2.5.5.5s.5-.2.5-.5h-1ZM303.1,574.2c0-.3-.2-.5-.5-.5s-.5.2-.5.5h1ZM302,570.2c0,.3.2.5.5.5s.5-.2.5-.5h-1ZM303.1,569.7c0-.3-.2-.5-.5-.5s-.5.2-.5.5h1ZM302,565.7c0,.3.2.5.5.5s.5-.2.5-.5h-1ZM303.1,565.2c0-.3-.2-.5-.5-.5s-.5.2-.5.5h1ZM302,561.1c0,.3.2.5.5.5s.5-.2.5-.5h-1ZM303.1,560.6c0-.3-.2-.5-.5-.5s-.5.2-.5.5h1ZM302,556.6c0,.3.2.5.5.5s.5-.2.5-.5h-1ZM303.1,556.1c0-.3-.2-.5-.5-.5s-.5.2-.5.5h1ZM302,552.1c0,.3.2.5.5.5s.5-.2.5-.5h-1ZM303.1,551.6c0-.3-.2-.5-.5-.5s-.5.2-.5.5h1ZM302,547.6c0,.3.2.5.5.5s.5-.2.5-.5h-1ZM303.1,547.1c0-.3-.2-.5-.5-.5s-.5.2-.5.5h1ZM302,543.1c0,.3.2.5.5.5s.5-.2.5-.5h-1ZM303.1,542.6c0-.3-.2-.5-.5-.5s-.5.2-.5.5h1ZM302,538.5c0,.3.2.5.5.5s.5-.2.5-.5h-1ZM303.1,538c0-.3-.2-.5-.5-.5s-.5.2-.5.5h1ZM302,534c0,.3.2.5.5.5s.5-.2.5-.5h-1ZM303.1,533.5c0-.3-.2-.5-.5-.5s-.5.2-.5.5h1ZM302,529.5c0,.3.2.5.5.5s.5-.2.5-.5h-1ZM303.1,529c0-.3-.2-.5-.5-.5s-.5.2-.5.5h1ZM302,525c0,.3.2.5.5.5s.5-.2.5-.5h-1ZM302.3,524.2c-.3,0-.5.2-.5.5s.2.5.5.5v-1ZM297.8,525.2c.3,0,.5-.2.5-.5s-.2-.5-.5-.5v1ZM297.2,524.2c-.3,0-.5.2-.5.5s.2.5.5.5v-1ZM292.7,525.2c.3,0,.5-.2.5-.5s-.2-.5-.5-.5v1ZM292.2,524.2c-.3,0-.5.2-.5.5s.2.5.5.5v-1ZM287.7,525.2c.3,0,.5-.2.5-.5s-.2-.5-.5-.5v1ZM303.1,610.6v-.3h-1v.3h1ZM303.1,606.4v-.5h-1v.5h1ZM303.1,601.8v-.5h-1v.5h1ZM303.1,597.3v-.5h-1v.5h1ZM303.1,592.8v-.5h-1v.5h1ZM303.1,588.3v-.5h-1v.5h1ZM303.1,583.8v-.5h-1v.5h1ZM303.1,579.2v-.5h-1v.5h1ZM303.1,574.7v-.5h-1v.5h1ZM303.1,570.2v-.5h-1v.5h1ZM303.1,565.7v-.5h-1v.5h1ZM303.1,561.1v-.5h-1v.5h1ZM303.1,556.6v-.5h-1v.5h1ZM303.1,552.1v-.5h-1v.5h1ZM303.1,547.6v-.5h-1v.5h1ZM303.1,543.1v-.5h-1v.5h1ZM303.1,538.5v-.5h-1v.5h1ZM303.1,534v-.5h-1v.5h1ZM303.1,529.5v-.5h-1v.5h1ZM303.1,525v-.3h-1v.3h1ZM302.5,524.2h-.3v1h.3v-1ZM297.8,524.2h-.6v1h.6v-1ZM292.7,524.2h-.6v1h.6v-1ZM287.7,524.2h-.3v1h.3v-1Z" fill="#041e42" stroke-width="0"/>
  </g>
</svg>