<?xml version="1.0" encoding="utf-8"?>
<!-- Generator: Adobe Illustrator 15.0.0, SVG Export Plug-In . SVG Version: 6.00 Build 0)  -->
<!DOCTYPE svg PUBLIC "-//W3C//DTD SVG 1.1//EN" "http://www.w3.org/Graphics/SVG/1.1/DTD/svg11.dtd">
<svg version="1.1" id="Layer_1" xmlns="http://www.w3.org/2000/svg" xmlns:xlink="http://www.w3.org/1999/xlink" x="0px" y="0px"
	 width="595.28px" height="841.89px" viewBox="0 0 595.28 841.89" enable-background="new 0 0 595.28 841.89" xml:space="preserve">
<g>
	<g>
		<path fill="#77787B" d="M217.443,406.997l-15.313-3.671v114.583h15.313c5.582,0,12.589-3.214,12.589-16.907V426.31
			C230.032,412.629,223.025,408.069,217.443,406.997z M219.105,500.542c0,3.138-0.827,4.354-2.017,4.333l-3.917-0.091v-85.689
			l3.917,1.01c1.397,0.478,2.017,1.57,2.017,4.715V500.542z M237.495,412.541c7.171,2.019,14.994,4.174,23.036,6.33v10.822
			l-11.991-2.915v31.503l8.074,0.885v12.27l-8.074-0.709v34.737l11.991,0.275v12.17L237.495,518V412.541z M288.317,425.988
			c3.094,0.752,6.146,1.481,9.144,2.168v89.753h-9.264l-11.396-53.692v53.692L267.534,518v-97.269
			c3.896,1.02,7.813,2.033,11.71,3.015l9.073,51.404V425.988z M323.283,433.429c3.472,0.598,6.902,1.144,10.26,1.641l-9.612,82.84
			h-10.799l-9.448-88.347c3.835,0.846,7.532,1.622,11.039,2.302l4.078,46.901L323.283,433.429z M350.529,447.292v23.757l8.077,0.855
			v9.601l-8.077-0.686v27.313l11.994,0.255v9.521H339.49V435.91c8.268,1.113,16.037,1.938,23.033,2.564v9.943L350.529,447.292z
			 M396.722,505.692v-15.498c0-3.469-2.376-5.854-5.341-8.045c2.965-1.661,5.098-3.653,5.098-7.116v-17.719
			c0-9.305-6.999-14.996-12.58-16.03l-14.37-2.222v78.847h11.162v-32.646l2.613,0.208c1.658,0.138,2.493,1.515,2.493,3.205v17.607
			c0,3.938,0.595,8.35,1.427,11.625h11.039C397.548,514.367,396.722,510.342,396.722,505.692z M385.562,474.125
			c0,2.159-0.718,2.924-2.021,2.798l-2.851-0.284v-26.401l2.851,0.598c1.304,0.211,2.021,1.178,2.021,3.331V474.125z"/>
		<path fill="#77787B" d="M202.143,387.755v-52.277c0-7.441,6.148-12.586,14.15-12.586c7.989,0,14.138,5.517,14.138,13.506v16.157
			l-11.186-0.796V335.36c0-1.728-1.11-2.81-2.952-2.85c-1.852-0.044-2.956,0.969-2.956,2.668v55.037
			c0,1.696,1.104,2.927,2.956,3.237c1.842,0.311,2.952-0.554,2.952-2.285v-17.256l11.186,1.362v17.024
			c0,7.975-6.148,12.313-14.138,10.772C208.291,401.524,202.143,395.194,202.143,387.755z M249.207,407.25
			c-3.989-0.495-7.863-0.953-11.566-1.387v-81.967l14.889,0.032c5.78,0.016,13.036,2.602,13.036,13.521v21.835
			c0,4.063-2.211,6.422-5.284,8.353c3.073,2.537,5.527,5.37,5.527,9.437v18.202c0,4.98,0.832,9.542,1.535,14.353
			c-3.877-0.536-7.744-1.055-11.532-1.543c-0.771-4.574-1.315-9.451-1.315-13.557v-19.635c0-1.88-0.862-3.437-2.584-3.624
			l-2.705-0.302V407.25z M249.207,361.581l2.951,0.262c1.355,0.117,2.092-0.754,2.092-3.156v-21.396
			c0-2.398-0.736-3.356-2.092-3.387l-2.951-0.078V361.581z M297.35,403.979l-12.425-2.562V372.43l8.361,0.876v-10.913l-8.361-0.691
			v-27.257l12.425,0.31v-11.001l-23.865-0.059v86.795c8.089,1.169,16.178,2.432,23.865,3.779V403.979z M358.489,337.675l7.626,0.205
			v-13.681l-27.308-0.068v13.011l8.244,0.223v88.187c3.964,1.043,7.79,2.066,11.438,3.051V337.675z M396.479,426.782l-14.473-3.8
			v-40.029l8.364,0.879v-13.119l-8.364-0.688v-32.858l14.707,0.312v-13.21l-26.145-0.059v107.746
			c14.385,4.069,24.167,7.112,25.91,7.663V426.782z M319.469,368.68l3.935,50.956c3.732,0.888,7.412,1.784,11.01,2.681
			l-9.492-98.226h-10.813l-9.615,91.479c3.557,0.671,6.993,1.366,10.257,2.074L319.469,368.68z"/>
	</g>
	<g>
		<g>
			<g>
				<path fill="#77787B" d="M406.932,353.835c-2.804-5.326-3.577-4.541-5.104-3.661c-1.881,1.081,1.995,10.537,4.424,16.048
					c0,0,13.31,30.19,13.31,53.394s-13.31,53.396-13.31,53.396c-2.429,5.52-7.312,13.655-5.505,16.09
					c0.932,1.26,4.219,2.525,6.185-2.036c0,0,20.013-38.042,20.013-66.618C426.944,391.875,406.932,353.835,406.932,353.835z"/>
			</g>
			<g>
				<path fill="#77787B" d="M224.136,317.725c1.521,0,7.207-2.139,12.632-4.753c0,0,33.608-16.175,59.179-16.175
					c25.573,0,59.171,16.175,59.171,16.175c5.435,2.614,12.501,5.916,15.19,4.753c1.219-0.531,2.065-2.007-4.345-5.157
					c0,0-38.525-20.569-67.474-20.569c-28.939,0-67.458,20.569-67.458,20.569C225.715,315.403,222.614,317.725,224.136,317.725z"/>
			</g>
			<g>
				<path fill="#77787B" d="M368.579,523.487c-1.228-1.743-11.115,2.03-16.603,4.529c0,0-31.758,14.417-56.03,14.417
					c-24.275,0-56.035-14.417-56.035-14.417c-5.486-2.499-13.614-6.7-14.05-4.529c-0.306,1.529,0.278,2.312,5.602,5.121
					c0,0,38.277,20.285,67.026,20.285c28.761,0,67.043-20.285,67.043-20.285C368.143,527.062,370.533,526.265,368.579,523.487z"/>
			</g>
			<g>
				<path fill="#77787B" d="M195.248,493.871c0.806-0.513-2.252-7.386-4.998-12.744c0,0-17.92-34.945-17.92-61.512
					c0-26.561,17.92-61.5,17.92-61.5c2.746-5.361,4.998-10.726,4.998-11.917c0-1.19-2.3,2.19-5.109,7.52
					c0,0-20.088,38.106-20.088,66.729c0,28.629,20.088,66.729,20.088,66.729C192.948,492.503,194.085,494.601,195.248,493.871z"/>
			</g>
		</g>
	</g>
</g>
</svg>
