<?xml version="1.0" encoding="utf-8"?>
<!-- Generator: Adobe Illustrator 23.0.0, SVG Export Plug-In . SVG Version: 6.00 Build 0)  -->
<svg version="1.1" id="Layer_1" xmlns="http://www.w3.org/2000/svg" xmlns:xlink="http://www.w3.org/1999/xlink" x="0px" y="0px"
	 width="100px" height="81.17px" viewBox="0 0 100 81.17" enable-background="new 0 0 100 81.17" xml:space="preserve">
<g>
	<path d="M87.04,0H50H12.96L0,23.56l50,57.61l50-57.61L87.04,0z M83.63,6.35l7.59,13.8H77.58L83.63,6.35z M77.17,6.04l-5.54,12.64
		L57.79,6.04H77.17z M64.27,20.15H50H35.73L50,7.11L64.27,20.15z M42.21,6.04L28.37,18.68L22.83,6.04H42.21z M16.37,6.35l6.05,13.8
		H8.77L16.37,6.35z M10.29,26.19h14.78l15.08,34.4L10.29,26.19z M31.66,26.19H50h18.34L50,68.02L31.66,26.19z M59.86,60.59
		l15.08-34.4h14.78L59.86,60.59z"/>
</g>
</svg>
