<svg version="1.1" id="Layer_1" xmlns="http://www.w3.org/2000/svg" xmlns:xlink="http://www.w3.org/1999/xlink" x="0px" y="0px" width="100px" height="100px" viewBox="0 0 100 77.98" enable-background="new 0 0 100 77.98" xml:space="preserve">
<path fill="#010101" d="M99.991,26.908c0.017-0.176,0.009-0.353-0.02-0.527c-0.009-0.06-0.02-0.119-0.033-0.178
  c-0.05-0.213-0.122-0.422-0.235-0.616L89.269,7.73c-0.011-0.019-0.029-0.032-0.039-0.052c-0.011-0.014-0.014-0.032-0.021-0.047
  c-0.014-0.021-0.034-0.034-0.051-0.055c-0.033-0.048-0.074-0.092-0.111-0.138c-0.076-0.091-0.153-0.174-0.241-0.252
  c-0.048-0.042-0.095-0.083-0.145-0.12c-0.034-0.027-0.067-0.055-0.103-0.079c-0.097-0.064-0.2-0.111-0.31-0.159
  c-0.056-0.027-0.108-0.057-0.167-0.079c-0.041-0.015-0.082-0.031-0.124-0.044c-0.014-0.004-0.022-0.012-0.033-0.017L64.389,0.084
  C64.189,0.028,63.982,0,63.776,0H34.784c-0.216,0-0.431,0.032-0.638,0.093L11.637,6.698C11.626,6.7,11.617,6.71,11.606,6.713
  C11.571,6.724,11.535,6.736,11.5,6.75c-0.06,0.021-0.114,0.056-0.172,0.083c-0.111,0.052-0.22,0.104-0.32,0.171
  c-0.031,0.022-0.059,0.045-0.088,0.068c-0.052,0.038-0.098,0.083-0.146,0.126c-0.089,0.08-0.17,0.166-0.247,0.259
  c-0.035,0.045-0.074,0.084-0.106,0.132c-0.012,0.02-0.031,0.03-0.045,0.049c-0.012,0.019-0.015,0.04-0.025,0.059
  c-0.015,0.024-0.037,0.043-0.052,0.069L0.275,25.621c-0.106,0.187-0.171,0.387-0.22,0.593c-0.013,0.056-0.02,0.111-0.029,0.167
  C0,26.554-0.007,26.728,0.006,26.902c0.004,0.048,0.001,0.095,0.008,0.143c0.027,0.191,0.072,0.38,0.148,0.563
  c0.008,0.02,0.022,0.035,0.03,0.056c0.019,0.042,0.046,0.079,0.068,0.12c0.086,0.164,0.19,0.312,0.312,0.449
  c0.022,0.026,0.034,0.058,0.057,0.083l47.748,48.979c0.113,0.114,0.235,0.215,0.365,0.303c0.012,0.008,0.025,0.013,0.038,0.021
  c0.155,0.1,0.32,0.173,0.49,0.23c0.027,0.01,0.05,0.027,0.078,0.035c0.027,0.007,0.053,0.007,0.08,0.013
  c0.187,0.05,0.377,0.082,0.57,0.085c0,0,0.001,0,0.002,0l0,0l0,0l0,0l0,0c0,0,0.001,0,0.003,0c0.193-0.003,0.384-0.034,0.57-0.085
  c0.027-0.006,0.053-0.005,0.081-0.013c0.026-0.008,0.05-0.026,0.076-0.035c0.17-0.058,0.337-0.131,0.49-0.23
  c0.011-0.006,0.024-0.009,0.032-0.019c0.001,0,0.001,0,0.001,0c0.002,0,0.003-0.002,0.004-0.002c0.13-0.087,0.252-0.188,0.366-0.303
  l47.747-48.979c0.026-0.026,0.035-0.058,0.058-0.084c0.12-0.135,0.222-0.281,0.308-0.441c0.025-0.045,0.053-0.087,0.074-0.134
  c0.011-0.022,0.026-0.041,0.035-0.064c0.073-0.179,0.119-0.366,0.143-0.553C99.994,26.995,99.989,26.953,99.991,26.908z
   M81.532,12.666l-2.729,3.546L66.955,31.606l-12.8-12.06l13.981-3.514L81.532,12.666z M48.795,67.046
  c-3.293-7.789-8.291-19.604-11.321-26.771c-0.442-1.047-0.837-1.98-1.185-2.801c-0.032-0.079-0.066-0.156-0.097-0.23h27.611
  L53.173,62.381l-3.175,7.509C49.634,69.029,49.226,68.063,48.795,67.046z M43.744,20.945L32.985,31.577L18.17,12.713l26.968,6.854
  L43.744,20.945z M73.118,31.036l7.756-10.079l6.179-8.029l7.241,12.387L73.118,31.036z M35.109,4.539h28.354L78.49,8.756
  l-7.704,1.937l-21.198,5.328l-28.727-7.3L35.109,4.539z M9.674,31.099l21.464,5.834c0.108,0.255,0.24,0.568,0.404,0.958
  c1.244,2.941,4.275,10.111,11.682,27.625L9.674,31.099z"></path>
</svg>