<?xml version="1.0" encoding="utf-8"?>
<!-- Generator: Adobe Illustrator 15.1.0, SVG Export Plug-In . SVG Version: 6.00 Build 0)  -->
<!DOCTYPE svg PUBLIC "-//W3C//DTD SVG 1.1//EN" "http://www.w3.org/Graphics/SVG/1.1/DTD/svg11.dtd">
<svg version="1.1" id="Layer_1" xmlns="http://www.w3.org/2000/svg" xmlns:xlink="http://www.w3.org/1999/xlink" x="0px" y="0px"
	 width="100px" height="81.166px" viewBox="0 0 100 81.166" enable-background="new 0 0 100 81.166" xml:space="preserve">
<path d="M87.043,0H50H12.957L0,23.557l50,57.609l50-57.609L87.043,0z M83.635,6.345l7.59,13.801h-13.64L83.635,6.345z M77.168,6.043
	l-5.537,12.636L57.792,6.043H77.168z M64.273,20.146H50H35.727L50,7.113L64.273,20.146z M42.208,6.043L28.37,18.679L22.832,6.043
	H42.208z M16.365,6.345l6.05,13.801H8.775L16.365,6.345z M10.288,26.189h14.776l15.078,34.399L10.288,26.189z M31.663,26.189H50
	h18.338L50,68.022L31.663,26.189z M59.857,60.589l15.078-34.399h14.777L59.857,60.589z"/>
</svg>
