<?xml version="1.0" encoding="utf-8"?>
<!-- Generator: Adobe Illustrator 26.3.1, SVG Export Plug-In . SVG Version: 6.00 Build 0)  -->
<svg version="1.1" id="Layer_1" xmlns="http://www.w3.org/2000/svg" xmlns:xlink="http://www.w3.org/1999/xlink" x="0px" y="0px"
	 viewBox="0 0 15.259 33.802" enable-background="new 0 0 15.259 33.802" xml:space="preserve">
<path fill="#D41367" d="M5.806,27.753h3.648l0.007-8.356H5.797L5.806,27.753z M8.287,20.57L8.28,26.578H6.978L6.971,20.57H8.287z"/>
<path fill="#D41367" d="M14.265,16.899c0.52-0.659,0.901-1.622,0.901-3.025c0.093-7.382,0.093-7.484,0.093-7.484
	C15.218,4.178,13.577,0,7.629,0C1.682,0,0.039,4.178,0,6.39c0,0,0,0.102,0.09,7.484c0,1.403,0.383,2.366,0.903,3.025
	c-0.52,0.661-0.903,1.623-0.903,3.022L0,27.411c0.039,2.21,1.682,6.391,7.629,6.391c5.948,0,7.589-4.181,7.63-6.391
	c0,0,0-0.106-0.093-7.49C15.166,18.522,14.785,17.56,14.265,16.899z M13.993,19.921c0,0.581,0.092,7.472,0.092,7.472
	s-0.092,5.234-6.455,5.234c-6.367,0-6.454-5.234-6.454-5.234s0.087-6.891,0.087-7.472c0-1.712,0.647-2.582,1.568-3.022
	c-0.921-0.44-1.568-1.309-1.568-3.024c0-0.578-0.087-7.466-0.087-7.466S1.263,1.172,7.63,1.172c6.363,0,6.455,5.237,6.455,5.237
	s-0.092,6.888-0.092,7.466c0,1.715-0.646,2.584-1.566,3.024C13.347,17.339,13.993,18.209,13.993,19.921z"/>
<path fill="#D41367" d="M5.806,6.048l-0.009,8.833h3.664L9.454,6.048H5.806z M6.971,13.707l0.007-6.486H8.28l0.007,6.486H6.971z"/>
<path d="M13.993,13.875c0-0.578,0.092-7.466,0.092-7.466S13.993,1.172,7.63,1.172c-6.367,0-6.454,5.237-6.454,5.237
	s0.087,6.888,0.087,7.466c0,1.715,0.647,2.584,1.568,3.024c-0.921,0.44-1.568,1.31-1.568,3.022c0,0.581-0.087,7.472-0.087,7.472
	s0.087,5.234,6.454,5.234c6.363,0,6.455-5.234,6.455-5.234s-0.092-6.891-0.092-7.472c0-1.712-0.646-2.582-1.566-3.022
	C13.347,16.459,13.993,15.59,13.993,13.875z M9.454,27.753H5.806l-0.009-8.356h3.664L9.454,27.753z M5.797,14.881l0.009-8.833h3.648
	l0.007,8.833H5.797z"/>
</svg>
