<?xml version="1.0" encoding="utf-8"?>
<!-- Generator: Adobe Illustrator 26.3.1, SVG Export Plug-In . SVG Version: 6.00 Build 0)  -->
<svg version="1.1" id="Layer_1" xmlns="http://www.w3.org/2000/svg" xmlns:xlink="http://www.w3.org/1999/xlink" x="0px" y="0px"
	 viewBox="0 0 15.259 33.802" enable-background="new 0 0 15.259 33.802" xml:space="preserve">
<path d="M14.265,16.899c0.52-0.659,0.901-1.622,0.901-3.025c0.093-7.382,0.093-7.484,0.093-7.484C15.218,4.178,13.577,0,7.629,0
	C1.682,0,0.039,4.178,0,6.39c0,0,0,0.102,0.09,7.484c0,1.403,0.383,2.366,0.903,3.025c-0.52,0.661-0.903,1.623-0.903,3.022L0,27.411
	c0.039,2.21,1.682,6.391,7.629,6.391c5.948,0,7.589-4.181,7.63-6.391c0,0,0-0.106-0.093-7.49
	C15.166,18.522,14.785,17.56,14.265,16.899z M8.287,20.57L8.28,26.578H6.978L6.971,20.57H8.287z M6.971,13.707l0.007-6.486H8.28
	l0.007,6.486H6.971z"/>
</svg>
