<?xml version="1.0" encoding="utf-8"?>
<!-- Generator: Adobe Illustrator 23.0.0, SVG Export Plug-In . SVG Version: 6.00 Build 0)  -->
<svg version="1.1" id="Layer_1" xmlns="http://www.w3.org/2000/svg" xmlns:xlink="http://www.w3.org/1999/xlink" x="0px" y="0px"
	 width="412px" height="228.67px" viewBox="0 0 412 228.67" enable-background="new 0 0 412 228.67" xml:space="preserve">
<path id="eye-icon" d="M241.75,114.33c0,18.64-15.11,33.75-33.75,33.75s-33.75-15.11-33.75-33.75c0-18.64,15.11-33.75,33.75-33.75
	S241.75,95.69,241.75,114.33z M412,107c0,0-73,121.67-205.75,121.67C83,228.67,0,107,0,107S76.33,0,206.25,0
	C338.33,0,412,107,412,107z M288,114.33c0-44.18-35.82-80-80-80s-80,35.82-80,80c0,44.18,35.82,80,80,80S288,158.52,288,114.33z"/>
</svg>
