<svg version="1.1" xmlns="http://www.w3.org/2000/svg" xmlns:xlink="http://www.w3.org/1999/xlink" x="0px" y="0px" viewBox="0 0 512 512" enable-background="new 0 0 512 512" xml:space="preserve"> <path id="eye-icon" d="M291.75,256c0,18.641-15.11,33.75-33.75,33.75s-33.75-15.109-33.75-33.75c0-18.64,15.11-33.75,33.75-33.75
S291.75,237.36,291.75,256z M462,248.666c0,0-73,121.668-205.75,121.668C133,370.334,50,248.666,50,248.666s76.333-107,206.25-107
C388.334,141.666,462,248.666,462,248.666z M338,256c0-44.183-35.817-80-80-80s-80,35.817-80,80c0,44.184,35.817,80,80,80
S338,300.184,338,256z"></path> </svg>