<?xml version="1.0" encoding="utf-8"?>
<!-- Generator: Adobe Illustrator 17.0.0, SVG Export Plug-In . SVG Version: 6.00 Build 0)  -->
<!DOCTYPE svg PUBLIC "-//W3C//DTD SVG 1.1//EN" "http://www.w3.org/Graphics/SVG/1.1/DTD/svg11.dtd">
<svg version="1.1" id="Layer_1" xmlns="http://www.w3.org/2000/svg" xmlns:xlink="http://www.w3.org/1999/xlink" x="0px" y="0px"
	 width="689.951px" height="796.687px" viewBox="0 0 689.951 796.687" enable-background="new 0 0 689.951 796.687"
	 xml:space="preserve">
<g>
	<path d="M689.951,199.174l-2-1.155l-62.174-35.897l-56.174,32.433v-64.861l-40.112-23.162v0l-2-1.155l-3.268-1.887l-18.787-10.848
		l-0.001,0.001L465.317,69.48l-56.168,32.433V37.052L344.976,0l-2,1.155l-62.174,35.897v64.861L224.634,69.48l-40.117,23.162
		l-0.001,0l-2,1.155l-12.364,7.139l-9.692,5.596v0l-40.112,23.162v64.861l-56.174-32.433L0,199.174v2.309v71.79l56.174,32.428
		L0,338.135v46.318v2.31v25.472v46.318l56.174,32.434L0,523.414v74.098l2,1.155l62.174,35.898l56.174-32.434v64.861l40.112,23.162v0
		l2,1.155l0.463,0.267l21.593,12.469l0.001-0.001l40.117,23.162l56.168-32.432v64.86l64.174,37.053l2-1.155l62.174-35.898v-64.86
		l56.168,32.432l40.117-23.162l0.002,0.001l2-1.155l21.85-12.617l0.205-0.119l0,0l40.112-23.162v-64.861l56.174,32.434
		l64.174-37.053v-2.309v-71.789l-56.174-32.428l56.174-32.434v-46.318v-2.31v-25.472v-46.318l-56.174-32.433l56.174-32.428V199.174z
		 M677.951,201.483l-52.174,30.119l-52.174-30.119l52.174-30.123L677.951,201.483z M449.262,648.455l12.056,6.961v13.918
		l-12.056-6.961V648.455z M344.976,717.969l-52.174-30.123l32.117-18.541l20.056,11.579l20.056-11.579l32.117,18.541
		L344.976,717.969z M220.634,715.659l-28.117-16.234l28.117-16.234V715.659z M168.46,162.09l12.056,6.96v13.922l-12.056-6.96V162.09
		z M188.503,166.61c-0.005-0.144-0.023-0.285-0.043-0.427c-0.017-0.123-0.033-0.246-0.061-0.365
		c-0.03-0.125-0.072-0.245-0.114-0.367c-0.042-0.124-0.083-0.248-0.137-0.366c-0.053-0.116-0.118-0.225-0.182-0.336
		c-0.064-0.111-0.125-0.222-0.2-0.326c-0.075-0.106-0.162-0.202-0.248-0.3c-0.085-0.097-0.168-0.195-0.262-0.283
		c-0.089-0.084-0.187-0.158-0.284-0.235c-0.113-0.089-0.227-0.175-0.349-0.251c-0.038-0.023-0.068-0.054-0.107-0.077l-18.056-10.424
		v-37.083l52.174,30.12v60.243l-32.118-18.541v-20.849C188.516,166.696,188.504,166.654,188.503,166.61z M184.517,101.88
		l52.17,30.122l-12.053,6.959l-52.173-30.119l2.663-1.538L184.517,101.88z M280.802,115.77v37.083l-20.056,11.579v2.31v20.851
		l-12.056,6.961V134.31L280.802,115.77z M288.802,46.289l52.174,30.119v41.705l-16.056,9.269l-36.118-20.851V46.289z
		 M621.777,298.773l-32.112-18.538V261.69l32.112-18.541V298.773z M681.951,402.996l-8.058-4.653l8.058-4.653V402.996z
		 M665.893,393.725l-32.115-18.543l12.056-6.96l32.117,18.541L665.893,393.725z M493.38,572.044l8.056-4.651v9.301L493.38,572.044z
		 M509.436,567.394l8.055,4.651l-8.055,4.65V567.394z M501.436,558.156l-16.057,9.269l-52.174-30.121l68.23-39.39V558.156z
		 M505.434,625.326l-52.172-30.123l12.057-6.961l52.172,30.122L505.434,625.326z M465.317,579.004l-18.682,10.787l-5.374,3.102
		v0.001l-12.057,6.962v-55.623l48.173,27.811l-12.059,6.961L465.317,579.004z M413.149,618.365l8.057-4.652v9.304L413.149,618.365z
		 M405.148,613.747l-52.173-30.124l68.229-39.391l0,60.243L405.148,613.747z M340.976,669.336l-8.056-4.651l8.056-4.651V669.336z
		 M348.976,660.035l8.056,4.651l-8.056,4.651V660.035z M268.746,623.017v-9.305l8.057,4.652L268.746,623.017z M284.803,613.746
		l-16.057-9.272v-60.242l68.23,39.391L284.803,613.746z M180.516,632.255v60.242l-12.056-6.961v-60.242L180.516,632.255z
		 M172.46,618.365l52.172-30.122l12.057,6.961l-52.172,30.123L172.46,618.365z M243.336,589.803l-18.703-10.799l-0.002,0.001
		l-12.059-6.961l48.173-27.811v55.623l-12.056-6.961v-0.001L243.336,589.803z M68.174,243.15l32.112,18.541v18.545l-32.112,18.538
		V243.15z M120.348,264.036l-8.06-4.654l8.06-4.654V264.036z M108.286,266.311l8.06,4.653l-8.06,4.653V266.311z M124.347,275.583
		l52.169,30.118l-52.17,30.122l-16.06-9.272v-41.697L124.347,275.583z M248.689,203.793v-0.003l12.056-6.961v55.625l-48.17-27.813
		L248.689,203.793z M348.976,127.351l8.055,4.651l-8.055,4.65V127.351z M340.976,136.651l-8.055-4.65l8.055-4.651V136.651z
		 M344.976,148.198l20.056-11.578l36.118,20.852v18.538l-56.174,32.43l-56.174-32.43v-18.539l36.118-20.852L344.976,148.198z
		 M569.603,264.036v-9.308l8.06,4.654L569.603,264.036z M561.603,268.656l-56.168,32.427l-72.23-41.7l52.171-30.123l20.059,11.58
		l20.058-11.581l36.11,20.849V268.656z M569.603,347.372l8.061,4.654l-8.061,4.654V347.372z M561.603,361.298l-52.168,30.118V312.63
		l52.168,30.121V361.298z M569.603,440.008l8.061,4.654l-8.061,4.653V440.008z M585.665,440.043l-16.062-9.273v-13.918
		l28.117,16.231L585.665,440.043z M573.604,409.924l12.058-6.962l32.116,18.543l-12.056,6.96L573.604,409.924z M569.603,402.996
		v-9.306l8.058,4.653L569.603,402.996z M561.603,412.234v13.918l-48.168-27.808l48.168-27.808v13.918V412.234z M344.976,579.004
		l-72.23-41.7l45.488-26.261l26.741,15.44l2-1.155l24.741-14.285l45.488,26.261L344.976,579.004z M120.348,449.315l-8.061-4.654
		l8.061-4.654V449.315z M104.286,440.043l-12.055-6.959l28.117-16.231v13.918L104.286,440.043z M120.348,402.996l-8.058-4.653
		l8.058-4.653V402.996z M116.347,409.924L84.23,428.465l-12.056-6.96l32.116-18.543L116.347,409.924z M128.348,412.234v-27.781
		v-13.918l48.168,27.808l-48.168,27.808V412.234z M120.348,347.372v9.307l-8.061-4.654L120.348,347.372z M128.348,342.751
		l52.168-30.121v78.786l-52.168-30.118V342.751z M501.436,391.415l-45.487-26.261v-26.261l45.487-26.264V391.415z M429.205,345.093
		v-17.024l14.743,8.512L429.205,345.093z M447.948,343.512v17.024l-14.743-8.511L447.948,343.512z M451.951,331.963l-22.746-13.132
		v-52.52l68.231,39.391L451.951,331.963z M421.205,314.213l-41.486-23.951l41.486-23.951V314.213z M371.719,285.643l-22.743-13.13
		v-52.525l68.229,39.395L371.719,285.643z M340.976,298.773l-14.743-8.511l14.743-8.511V298.773z M348.976,281.75l14.743,8.511
		l-14.743,8.511V281.75z M340.976,272.513l-22.743,13.13l-45.487-26.26l68.23-39.395V272.513z M310.232,290.262l-41.486,23.951
		v-47.902L310.232,290.262z M318.232,294.881l26.743,15.439l26.743-15.439l49.486,28.57v26.261l-76.229,44.013l-76.23-44.013V323.45
		L318.232,294.881z M429.205,451.59l14.742,8.512l-14.742,8.512V451.59z M421.205,473.232l-49.488,28.573l-22.741-13.129v-83.405
		l72.229,41.7V473.232z M421.205,482.47v47.906l-41.488-23.952L421.205,482.47z M268.746,473.232v-26.261l72.23-41.7v83.405
		l-22.741,13.129L268.746,473.232z M310.234,506.424l-41.489,23.952V482.47L310.234,506.424z M260.746,451.59v17.023l-14.742-8.511
		L260.746,451.59z M340.976,497.914v17.022l-14.741-8.511L340.976,497.914z M348.976,497.914l14.741,8.51l-14.741,8.511V497.914z
		 M256.746,352.025l-14.743,8.512v-17.024L256.746,352.025z M260.746,345.093l-14.743-8.512l14.743-8.512V345.093z M234.003,365.155
		l-45.486,26.26V312.63l45.486,26.263V365.155z M234.003,374.392v47.902l-41.486-23.951L234.003,374.392z M242.002,369.774
		l22.747-13.132l72.227,41.701l-72.23,41.7l-22.743-13.13V369.774z M256.745,444.662l-14.743,8.511V436.15L256.745,444.662z
		 M238.004,464.721l22.741,13.13v52.525l-68.23-39.391L238.004,464.721z M429.205,530.376v-52.525l22.742-13.13l45.489,26.265
		L429.205,530.376z M447.948,453.173l-14.743-8.511l14.743-8.511V453.173z M425.205,440.043l-72.229-41.7l72.226-41.701
		l22.747,13.132v57.139L425.205,440.043z M455.948,374.392l41.487,23.951l-41.487,23.951V374.392z M501.436,229.294l-8.059-4.653
		l8.059-4.653V229.294z M509.436,229.293v-9.305l8.058,4.653L509.436,229.293z M501.436,210.75l-16.06,9.273l-12.06-6.962
		l28.12-16.233V210.75z M477.376,224.641l-48.171,27.813v-55.626l12.057,6.961v0.003L477.376,224.641z M421.205,252.455
		l-68.23-39.395l52.172-30.12l16.058,9.271V252.455z M413.148,178.321l8.058-4.652v9.304L413.148,178.321z M409.149,171.392v-9.301
		l8.056,4.651L409.149,171.392z M280.802,171.392l-8.056-4.651l8.056-4.651V171.392z M268.746,173.669l8.058,4.652l-8.058,4.652
		V173.669z M284.804,182.94l52.172,30.12l-68.23,39.395v-60.244L284.804,182.94z M260.746,318.831l-22.746,13.132l-45.483-26.262
		l68.23-39.39V318.831z M116.346,340.443l-8.06,4.654v-9.307L116.346,340.443z M104.286,356.644l16.061,9.273v13.918l-28.117-16.231
		L104.286,356.644z M116.347,386.763l-12.058,6.962l-32.115-18.543l12.056-6.96L116.347,386.763z M64.174,379.801l32.116,18.543
		l-32.116,18.543l-32.116-18.543L64.174,379.801z M76.229,433.084l-8.056,4.65v-9.301L76.229,433.084z M84.23,437.702l16.056,9.269
		v18.545l-32.112,18.541v-37.086L84.23,437.702z M108.286,451.59l8.06,4.654l-8.06,4.654V451.59z M128.348,435.389l56.168-32.427
		l0,0l0,0l49.486,28.57v26.262l-49.486,28.573l-56.168-32.431V435.389z M180.516,576.695l-8.055-4.651l8.055-4.651V576.695z
		 M188.516,567.393l8.056,4.651l-8.056,4.651V567.393z M188.516,558.156v-60.242l68.229,39.39l-52.173,30.121L188.516,558.156z
		 M505.436,486.367l-49.487-28.573v-26.262l49.487-28.57l56.168,32.427v18.547L505.436,486.367z M581.665,451.59v9.307l-8.06-4.654
		L581.665,451.59z M589.665,446.971l16.056-9.269l16.056,9.269v37.086l-32.112-18.541V446.971z M613.722,433.084l8.056-4.65v9.301
		L613.722,433.084z M625.777,416.887l-32.116-18.543l32.116-18.543l32.116,18.543L625.777,416.887z M625.777,370.563l-12.056-6.96
		l12.056-6.96l12.056,6.96L625.777,370.563z M617.777,375.182l-32.115,18.543l-12.058-6.962l32.117-18.541L617.777,375.182z
		 M569.603,379.835v-13.918l16.061-9.273l12.055,6.959L569.603,379.835z M581.665,345.097l-8.06-4.654l8.06-4.654V345.097z
		 M565.605,335.824l-52.17-30.122l52.169-30.118l16.061,9.271v41.697L565.605,335.824z M573.605,270.964l8.06-4.653v9.306
		L573.605,270.964z M585.663,254.763l-16.06-9.273v-37.079l48.174,27.81L585.663,254.763z M561.603,240.871l-28.11-16.23
		l28.11-16.229V240.871z M509.436,210.75v-18.541l20.055-11.578v-23.16l32.112-18.54v60.242l-36.11,20.848L509.436,210.75z
		 M521.491,176.012l-12.056,6.959V169.05l12.056-6.96V176.012z M503.436,163.277c-0.039,0.022-0.069,0.053-0.107,0.077
		c-0.122,0.076-0.235,0.162-0.348,0.251c-0.098,0.077-0.196,0.151-0.285,0.235c-0.094,0.088-0.176,0.185-0.261,0.282
		c-0.086,0.099-0.173,0.195-0.248,0.301c-0.074,0.104-0.135,0.215-0.199,0.325c-0.064,0.111-0.13,0.22-0.183,0.336
		c-0.054,0.117-0.094,0.241-0.136,0.364c-0.042,0.123-0.085,0.244-0.115,0.37c-0.028,0.119-0.044,0.24-0.061,0.363
		c-0.02,0.143-0.038,0.284-0.043,0.429c-0.001,0.044-0.013,0.086-0.013,0.13v20.849l-32.118,18.541v-60.243l52.174-30.12v37.083
		L503.436,163.277z M517.491,108.841l-52.174,30.119l-12.053-6.959l52.17-30.122L517.491,108.841z M461.317,145.889v60.242
		l-12.056-6.96v-60.243L461.317,145.889z M441.262,194.552l-12.057-6.961v-23.16l-20.056-11.579V115.77l32.112,18.54V194.552z
		 M401.149,148.234l-28.118-16.233l28.118-16.232V148.234z M365.031,127.382l-16.056-9.269V76.408l52.174-30.119v60.242
		L365.031,127.382z M344.976,69.48l-52.174-30.119l52.174-30.123l52.174,30.124L344.976,69.48z M316.919,132.001l-28.117,16.233
		v-32.465L316.919,132.001z M240.689,199.171l-12.056,6.96v-60.242l12.056-6.96V199.171z M160.46,148.234l-28.113-16.23
		l28.113-16.233V148.234z M216.635,213.06l-12.06,6.962l-16.059-9.273v-13.922L216.635,213.06z M188.516,219.988l8.059,4.653
		l-8.059,4.652V219.988z M180.516,229.293l-8.059-4.653l8.059-4.653V229.293z M184.516,240.84l20.059-11.58l52.17,30.123
		l-72.23,41.7l-56.168-32.427v-18.547l36.11-20.849L184.516,240.84z M128.348,240.871v-32.46l28.11,16.229L128.348,240.871z
		 M120.348,245.49l-16.06,9.273l-32.114-18.542l48.174-27.81V245.49z M100.286,289.473v32.46l-28.112-16.231L100.286,289.473z
		 M100.286,331.17v18.546l-16.056,9.269l-20.057-11.578l-20.057,11.578L12,340.444l52.174-30.124L100.286,331.17z M64.174,356.644
		l12.056,6.96l-12.056,6.96l-12.056-6.96L64.174,356.644z M56.174,375.182l-32.115,18.543L12,386.763l32.117-18.541L56.174,375.182z
		 M8,393.691l8.058,4.653L8,402.996V393.691z M24.058,402.962l36.116,20.852v13.919L12,409.924L24.058,402.962z M100.286,474.754
		v32.46l-28.112-16.229L100.286,474.754z M108.286,470.135l16.06-9.272l52.171,30.123l-52.169,30.118l-16.061-9.272V470.135z
		 M116.346,525.723l-8.06,4.653v-9.306L116.346,525.723z M120.348,532.652v9.307l-8.06-4.653L120.348,532.652z M128.348,528.032
		l52.168-30.118v60.242l-16.056,9.269l-36.113-20.849V528.032z M156.46,572.044l-28.113,16.23v-32.46L156.46,572.044z
		 M164.461,576.663l20.055,11.578l2-1.155l18.056-10.424l12.059,6.962l-52.171,30.122l-32.113-18.543L164.461,576.663z
		 M188.516,692.498v-55.625l32.118,18.544v18.537L188.516,692.498z M228.634,655.416l12.056-6.961v13.919l-12.056,6.961V655.416z
		 M224.634,648.488l-32.117-18.543l48.172-27.814v37.086L224.634,648.488z M248.689,602.132l12.056,6.961v18.543l-12.056,6.961
		V602.132z M280.802,625.294v9.302l-8.056-4.651L280.802,625.294z M288.802,620.675l52.174-30.124v60.246l-16.056,9.269
		l-36.118-20.852V620.675z M316.919,664.685l-28.117,16.232v-32.465L316.919,664.685z M373.032,664.685l28.117-16.233v32.465
		L373.032,664.685z M365.032,660.067l-16.056-9.269v-60.246l52.174,30.124v18.54L365.032,660.067z M409.149,625.294l8.056,4.651
		l-8.056,4.651V625.294z M429.205,609.094l12.057-6.962v32.466l-12.057-6.962V609.094z M449.262,602.131l48.173,27.814
		l-32.117,18.543l-16.056-9.271V602.131z M469.317,655.417l32.118-18.544v55.625l-32.118-18.544V655.417z M521.491,685.536
		l-12.056,6.96v-60.241l12.055-6.961L521.491,685.536z M525.491,613.746l-52.172-30.122l12.059-6.962l20.057,11.579l20.055-11.578
		l32.113,18.54L525.491,613.746z M533.491,572.044l28.112-16.23v32.46L533.491,572.044z M525.491,567.426l-16.055-9.269v-60.242
		l52.168,30.118v18.545L525.491,567.426z M569.603,532.652l8.06,4.654l-8.06,4.653V532.652z M581.665,530.376l-8.06-4.653
		l8.06-4.653V530.376z M565.604,521.104l-52.169-30.118l52.17-30.123l16.059,9.272v41.697L565.604,521.104z M589.665,474.754
		l28.112,16.231l-28.112,16.229V474.754z M629.777,423.815l36.116-20.852l12.058,6.962l-48.174,27.81V423.815z M653.835,363.603
		l28.117-16.231l0,32.463L653.835,363.603z M645.834,358.985l-20.057-11.578l-20.057,11.578l-16.056-9.269V331.17l36.112-20.85
		l52.174,30.124L645.834,358.985z M589.665,289.473l28.112,16.229l-28.112,16.231V289.473z M557.604,132.003l-28.113,16.231V115.77
		L557.604,132.003z M465.317,78.718l32.117,18.544l-52.17,30.122l-32.116-18.542L465.317,78.718z M224.634,78.718l52.169,30.123
		l-32.116,18.542l-52.17-30.122L224.634,78.718z M128.348,138.932l32.112,18.54v23.16l20.056,11.578v18.54l-16.059,9.272
		l-36.11-20.848V138.932z M116.347,201.483l-52.174,30.119L12,201.483l52.174-30.124L116.347,201.483z M8,208.411l52.174,30.119
		v60.243L8,268.654V208.411z M8,347.372l28.117,16.231L8,379.834V347.372z M8,416.852l52.174,30.119v37.086L8,453.933L8,416.852z
		 M64.174,495.605L64.174,495.605l36.112,20.847v18.545l-36.112,20.85L12,525.724L64.174,495.605L64.174,495.605z M8,532.652
		l52.174,30.123v60.243L8,592.893V532.652z M68.174,623.018v-60.243l36.114-20.851l16.06,9.272v41.698v0L68.174,623.018z
		 M128.348,662.374v-60.242l32.112,18.543v60.243L128.348,662.374z M228.634,715.659v-37.086l20.056-11.58v-23.157l16.056-9.271
		l16.056,9.27v41.702L228.634,715.659z M288.802,694.774l52.174,30.123v60.243l-52.174-30.124V694.774z M348.976,785.14v-60.243
		l52.174-30.123v60.242L348.976,785.14z M409.149,685.536v-41.702l16.056-9.27l16.056,9.271v23.157l20.056,11.58v37.087
		L409.149,685.536L409.149,685.536L409.149,685.536z M469.317,715.659v-32.468l28.117,16.234L469.317,715.659z M529.491,680.917
		v-60.242l32.112-18.543v60.242L529.491,680.917z M569.603,592.893v-41.697l16.06-9.272l36.114,20.851v60.243L569.603,592.893
		L569.603,592.893L569.603,592.893z M681.951,532.652l0,60.242l-52.174,30.124v-60.243L681.951,532.652z M677.951,525.724
		l-52.174,30.123l-36.112-20.85v-18.545l36.112-20.847l0,0l0,0L677.951,525.724z M681.951,453.933l-52.174,30.124v-37.086
		l52.174-30.119V453.933z M629.777,298.773v-60.243l52.174-30.12v60.243L629.777,298.773z"/>
</g>
</svg>
