<svg xmlns:x="http://ns.adobe.com/Extensibility/1.0/" xmlns:i="http://ns.adobe.com/AdobeIllustrator/10.0/" xmlns:graph="http://ns.adobe.com/Graphs/1.0/" xmlns="http://www.w3.org/2000/svg" xmlns:xlink="http://www.w3.org/1999/xlink" xmlns:a="http://ns.adobe.com/AdobeSVGViewerExtensions/3.0/" version="1.0" id="Layer_1" x="0px" y="0px" width="100px" height="100px" viewBox="0 0 100 100" enable-background="new 0 0 100 100" xml:space="preserve">
<path d="M88.517,9.811V9.307h-0.271v0.504h-0.548V9.307h-0.271v0.504H86.88V9.307h-0.271v0.504H85.4V9.055h-1.041V8.004  l-0.748-0.003h-0.572l0.01-1.284V5.24l-0.42-0.01V2.001c0-0.472-0.769-0.93-1.439-0.718l-3.257,1.215  c-0.635,0.317-0.877,0.876-0.877,1.349v0.777h-7.524V3.812c0-0.904-0.733-1.637-1.638-1.637H67.75c-0.904,0-1.638,0.733-1.638,1.637  v0.811h-10.07L54.58,4.59H21.055l-0.053,0.033h-9.574l-0.585-0.576H6.597l0.027-1.225L5.399,1.737L4.491,4.572  C3.92,5.021,3.554,5.719,3.554,6.502v12.492H5.22v2.24c0,0.452,0.367,0.818,0.819,0.818h8.075l-0.003,0.27  c0,1.178,0.683,2.02,1.565,2.02c0.882,0,1.629-0.842,1.629-2.02l-0.003-0.27H29.78v0.101c0.155,0.22,0.325,0.276,0.325,0.276  l0.588,0.441c0,0,3.348,1.918,4.522,4.424s-0.343,7.714-1.967,11.845c-1.626,4.131-1.126,7.959-1.126,7.959S31.438,47,31.291,48.136  c-0.102,0.782,0.93,0.93,0.93,0.93l4.131,0.098v0.5l3.206-0.055v13.433v14.133v19.433h0.549v0.792h0.082v1.646l9.241-0.025  c0.358-0.086,0.625-0.41,0.625-0.795v-0.826h0.38v-0.792V77.966v-0.792V63.041V49.206c0.463-0.26,0.61-0.629,0.61-0.629V30.721  c0.406,0.737,1.303,1.167,2.303,1.259c2.465,0.226,7.363,0.547,7.363,0.547c4.201-0.103,5.691-2.37,6.101-6.494  c0.019-1.44,0.02-2.904,0.015-4.026l11.397,0.114l1.148,1.535l0.808-0.601c0,0,0.256-0.256,0.227-0.912l1.051,0.011  c0.766,0,1.354-0.77,1.533-1.48l0.141,0l1.044,2.621l1.141-0.455l-0.956-2.402v-5.107H85.4v-0.899h1.209v0.698h0.271v-0.698h0.548  v0.698h0.271v-0.698h0.548v0.698h0.271v-0.698h8.435v-4.62H88.517z M15.711,23.734c-0.54,0-0.977-0.546-0.977-1.219  c0-0.165,0.028-0.32,0.075-0.463h1.803c0.047,0.143,0.075,0.299,0.075,0.463C16.688,23.188,16.25,23.734,15.711,23.734z   M65.749,25.974c-0.35,3.486-1.254,5.318-5.021,5.489c-0.396-0.026-4.937-0.327-7.284-0.542c-0.754-0.069-1.577-0.341-1.558-1.202  c0.002-0.102,0.032-0.243,0.032-0.243v-7.437h0.967c0.052,1.046,0.215,2.373,0.623,3.815c0.958,3.381,1.521,4.545,1.859,4.395  c0.338-0.15,0.294-0.703-0.226-2.573c-0.717-2.581-0.334-4.437,0.214-5.637h2.17c0.576,0.725,1.154,1.416,1.392,1.58  c0.545,0.375,0.771,0.451,0.771,0.451h1.427c0,0,0.883-0.037,1.597-0.939c0.24-0.303,0.6-0.726,0.973-1.154l2.078,0.021  C65.768,23.103,65.767,24.546,65.749,25.974z M81.132,3.608c-0.43,0-0.777-0.348-0.777-0.777c0-0.429,0.348-0.777,0.777-0.777  c0.429,0,0.776,0.348,0.776,0.777C81.908,3.26,81.561,3.608,81.132,3.608z"></path>
</svg>