<svg xmlns="http://www.w3.org/2000/svg" xmlns:xlink="http://www.w3.org/1999/xlink" version="1.1" id="Layer_1" x="0px" y="0px" width="100px" height="100px" viewBox="0 0 100 100" enable-background="new 0 0 100 100" xml:space="preserve">
<path d="M38.762,43.48v3.099c0,2.236,2.014,4.049,4.25,4.049l10.225,0.296c2.236-0.001,4.357-2.035,4.357-4.272  c0,0,0.264-1.671-0.447-3.273c-0.303,0.213-0.475,0.612-0.475,0.781v0.119c0.191,0.07,0.324,0.235,0.324,0.428  c0,0.217-0.168,0.399-0.396,0.45c-0.355,2.381-1.912,4.702-3.689,5.45c-0.283,0.117-0.494-0.239-0.332-0.503l0.07-0.122  c-0.156,0.016-0.338,0.021-0.527,0c-0.574-0.064-0.322-0.964-0.322-0.964l1.559-4.66c-0.225-1.62-0.826-3.012-1.689-3.937  l-8.859-0.989C40.575,39.432,38.762,41.244,38.762,43.48L38.762,43.48z M3.746,20.85l1.578-1.803l0.65-0.002l0.98,1.804  c15.069,0.042,61.719-0.046,78.566,0l0.85-2.093h1.486l0.928,2.093h2.793c1.23,0,1.426,1.005,1.426,1.005L92.96,29.81l-0.248,0.457  l-0.082,2.254l0.123,0.249c0,0,0.811,0.239,0.803,1.632c-0.006,1.08-0.926,1.177-0.926,1.177s-0.715-0.018-3.557,0.803  c-3.293,0.953-3.834,4.406-2.975,9.448c0.527,3.082,1.398,5.41,3.326,8.964c-0.277,0.056-0.471,0.181-0.471,0.326  c0,0.199,0.357,0.359,0.799,0.359l0.293,0.437c-0.266,0.06-0.447,0.181-0.447,0.322c0,0.197,0.357,0.358,0.797,0.358l0.289,0.438  c-0.262,0.059-0.441,0.181-0.441,0.32c0,0.198,0.355,0.358,0.797,0.358l0.328,0.5c-0.234,0.057-0.395,0.164-0.395,0.29  c0,0.181,0.338,0.327,0.754,0.327l0.318,0.53c-0.213,0.06-0.355,0.162-0.355,0.279c0,0.176,0.316,0.319,0.717,0.331l0.389,0.651  c-0.221,0.058-0.369,0.162-0.369,0.282c0,0.178,0.328,0.323,0.736,0.331l0.266,0.44c-0.113,0.123-0.215,0.201-0.215,0.291  c0,0.136,0.236,0.249,0.549,0.272l0.416,0.711c-0.141,0.05-0.23,0.124-0.23,0.208c0,0.128,0.213,0.237,0.504,0.267l0.383,0.684  c-0.107,0.048-0.172,0.114-0.172,0.187c0,0.115,0.172,0.214,0.416,0.254l0.383,0.713c-0.109,0.049-0.176,0.114-0.176,0.186  c0,0.115,0.17,0.214,0.41,0.255l0.354,0.688c-0.1,0.049-0.16,0.112-0.16,0.181c0,0.108,0.152,0.202,0.375,0.248l0.361,0.741  c-0.082,0.047-0.131,0.103-0.131,0.165c0,0.099,0.129,0.187,0.32,0.234l0.324,0.707c-0.059,0.041-0.092,0.089-0.092,0.139  c0,0.087,0.096,0.164,0.248,0.214c0.137,0.316,0.264,0.616,0.381,0.901c-0.041,0.035-0.064,0.075-0.064,0.117  c0,0.073,0.072,0.142,0.189,0.192c0.109,0.272,0.207,0.532,0.297,0.774c-0.051,0.04-0.08,0.084-0.08,0.132  c0,0.077,0.076,0.146,0.199,0.197c0.102,0.285,0.189,0.549,0.266,0.791c-0.084,0.046-0.133,0.104-0.133,0.167  c0,0.087,0.098,0.164,0.25,0.215c0.082,0.278,0.148,0.523,0.199,0.733c-0.088,0.047-0.139,0.105-0.139,0.17  c0,0.08,0.088,0.154,0.227,0.205c0.09,0.435,0.105,0.644,0.105,0.644l-0.166,0.248l0.166,0.457l0.166,0.761  c0,0,0.414,2.048-0.416,3.68c-0.828,1.633-3.637,2.685-3.637,2.685l-3.016,0.041l-0.043,0.208c0,0,1.328,1.217,1.385,2.545  c0.057,1.326-2.145,1.301-2.145,1.301s-11.926,0.041-15.273-0.125s-3.016-2.131-3.016-2.131l-0.291-2.186  c0,0-1.426-0.705-1.963-1.161c-0.541-0.456-0.719-1.384-0.803-2.186c-0.084-0.805-0.084-2.006-0.084-2.546  c0-0.538-0.91-2.85-1.592-4.482c-0.678-1.632-1.672-2.046-2.254-2.379c-0.58-0.332-0.471-0.72-0.471-0.72s1.301-1.467,0.041-4.136  c-0.695-1.476-1.277-2.447-2.338-2.934c-1.174-0.539-0.828-0.969-0.828-0.969s1.326-1.549-0.471-5.395  c-1.08-2.307-2.297-2.974-3.639-3.058c-1.344-0.082-2.934,0.886-3.764,1.26c-0.828,0.373-3.734,0.332-4.565,0.332  c-0.829,0-14.774-0.622-14.774-0.622l-0.497-0.721l0.332-0.829c0,0,0.876-1.562,0.871-5.063c-0.002-1.202,0.083-3.694-0.54-4.98  c-0.622-1.285-3.14-2.228-3.14-2.228S7.62,38.056,4.977,37.89c-2.642-0.166-2.668-1.715-2.668-1.715s-0.472-2.685-0.555-3.529  s0.166-0.788,0.166-0.788l-0.083-0.291l-0.166-0.248L1.15,31.194l-0.06-2.103l-0.166-0.125l-0.208-0.54c0,0-0.291-1.176-0.374-2.725  c-0.083-1.549,0.622-2.767,0.622-2.767s0.083-0.29,0.083-0.623c0-0.332,0.251,0.135,0.25-0.581  c-0.003-0.829,0.886-0.886,0.886-0.886L3.746,20.85L3.746,20.85z"></path>
</svg>