<svg version="1.1" xmlns="http://www.w3.org/2000/svg" xmlns:xlink="http://www.w3.org/1999/xlink" x="0px" y="0px" viewBox="0 0 512 512" enable-background="new 0 0 512 512" xml:space="preserve"> <path id="microphone-5-icon" d="M279.902,76.463c35.283-35.283,92.489-35.283,127.772,0s35.283,92.49,0,127.772
c-25.112,25.112-53.473,25.63-59.551,26.573l-94.812-94.812C254.484,128.66,255.189,101.176,279.902,76.463z M240.068,165.107
c-0.151,0.182-138.164,171.24-138.164,171.24l45.179,45.181c0,0,171.626-137.43,171.816-137.588L240.068,165.107z M323.774,445.652
c-23.937-36.742-47.539-61.211-84.927-61.211c-39.346,0-57.312,24.507-82.681,40.435c-17.959,11.273-34.942,5.541-43.122-4.558
c-2.955-3.648-11.471-16.713,3.025-31.669l-21.507-20.844c-23.555,24.304-19.381,53.354-4.792,71.364
c16.745,20.672,50.397,31.114,82.32,11.072c27.211-17.084,39.256-35.851,66.756-35.851c17.79,0,34.004,7.964,59.832,47.608
L323.774,445.652z"></path> </svg>