<?xml version="1.0" encoding="utf-8"?>
<!-- Generator: Adobe Illustrator 15.0.0, SVG Export Plug-In . SVG Version: 6.00 Build 0)  -->
<!DOCTYPE svg PUBLIC "-//W3C//DTD SVG 1.1//EN" "http://www.w3.org/Graphics/SVG/1.1/DTD/svg11.dtd">
<svg version="1.1" id="Layer_1" xmlns="http://www.w3.org/2000/svg" xmlns:xlink="http://www.w3.org/1999/xlink" x="0px" y="0px"
	 width="288px" height="144px" viewBox="0 0 288 144" enable-background="new 0 0 288 144" xml:space="preserve">
<g>
	<g>
		<path fill="#5F6062" d="M94.891,71.99c0-3.762,1.852-8.565,7.176-8.565c0.832,0,1.572,0.128,2.242,0.336l1.035-1.695
			c-1.043-0.278-2.139-0.435-3.277-0.435c-6.365,0-11.574,4.688-11.574,10.359c0,3.471,1.922,6.555,4.847,8.449l1.434-2.352
			C95.438,76.378,94.891,74.051,94.891,71.99z"/>
		<path fill="#5F6062" d="M107.6,62.907l-0.006,3.249c1.209,1.692,1.705,3.898,1.705,5.834c0,3.818-1.852,8.563-7.232,8.563
			c-1.176,0-2.174-0.241-3.028-0.643l-0.003,2.118c0.969,0.237,1.982,0.376,3.031,0.376c6.363,0,11.572-4.687,11.572-10.415
			C113.639,68.102,111.19,64.677,107.6,62.907z"/>
	</g>
	<g>
		<path fill="#5F6062" d="M78.421,81.657v-1.102c3.247,0,3.771-0.755,3.771-4.872v-8.468l-7.076,15.195h-0.986l-7.018-15.079v8.352
			c0,4.117,0.521,4.872,3.77,4.872v1.102h-9.338v-1.102c3.248,0,3.77-0.755,3.77-4.872V68.26c0-4.118-0.521-4.814-3.77-4.814v-1.102
			h7.134l6.901,14.79l6.902-14.79h7.018v1.102c-3.248,0-3.77,0.696-3.77,4.814v7.424c0,4.117,0.521,4.872,3.77,4.872v1.102H78.421z"
			/>
		<path fill="#5F6062" d="M114.222,80.556c3.248,0,3.77-0.755,3.77-4.872V68.26c0-4.118-0.521-4.814-3.77-4.814v-1.102h10.382
			c8.294,0,11.89,4.35,11.89,9.628c0,5.277-3.596,9.686-11.89,9.686h-10.382V80.556z M124.779,64.084c-0.232,0-2.785,0-2.785,0
			v12.585c0,2.668,0.291,3.19,2.379,3.19h0.406c6.031,0,7.133-4.408,7.133-7.946C131.912,68.491,130.81,64.084,124.779,64.084z"/>
		<path fill="#5F6062" d="M201.111,67.796h-0.928l-0.291-1.103c-0.521-1.914-1.16-2.609-5.277-2.609h-3.189v6.495
			c4.523,0,4.871-0.405,4.871-3.422h1.102V75.8h-1.102c0-3.017-0.348-3.423-4.871-3.423v2.668c0,4.118,0.521,4.814,3.537,4.814
			h0.812c4.117,0,4.756-0.696,5.277-2.61l0.291-1.044h0.869l-0.348,5.452h-18.211v-1.102c3.248,0,3.77-0.755,3.77-4.872V68.26
			c0-4.118-0.521-4.814-3.77-4.814v-1.102h17.051L201.111,67.796z"/>
		<path fill="#5F6062" d="M210.797,64.084c-4.176,0-4.814,0.695-5.277,2.609l-0.291,1.103h-0.986l0.465-5.452h21.344l0.406,5.452
			h-0.93l-0.289-1.103c-0.521-1.914-1.102-2.609-5.277-2.609h-2.611v11.6c0,4.117,0.523,4.872,3.771,4.872v1.102h-11.484v-1.102
			c3.189,0,3.77-0.755,3.77-4.872v-11.6H210.797z"/>
	</g>
	<g>
		<path fill="#5F6062" d="M179.188,68.434h1.217V61.59h-1.102c-0.174,0.696-0.463,1.334-0.754,1.565
			c-0.566-0.466-1.346-0.888-2.266-1.168v1.892C177.979,64.659,178.887,66.417,179.188,68.434z"/>
		<path fill="#5F6062" d="M178.26,70.985l-3.191-1.565c-2.783-1.276-4-2.088-4-3.597c0-1.336,1.283-2.22,2.756-2.352l1.049-1.773
			c-0.275-0.03-0.557-0.051-0.848-0.051c-3.596,0-6.205,2.378-6.205,5.162c0,2.552,1.738,4.466,4.059,5.567l3.307,1.566
			c2.377,1.102,3.711,2.262,3.711,3.77c0,1.74-1.508,2.784-3.363,2.784c-3.422,0-6.09-2.262-6.555-6.09h-1.158v8.004h1.102
			c0.115-0.812,0.637-1.682,0.928-1.972c0.869,0.754,2.9,1.972,5.219,1.972c3.887,0,7.076-2.552,7.076-6.206
			C182.145,74.466,181.043,72.319,178.26,70.985z"/>
	</g>
	<g>
		<path fill="#5F6062" d="M148.042,79.859c-3.016,0-3.539-0.696-3.539-4.814v-2.668c4.525,0,4.873,0.406,4.873,3.423h1.102v-8.643
			h-1.102c0,3.017-0.348,3.422-4.873,3.422v-6.495h3.191c4.117,0,4.756,0.695,5.277,2.609l0.289,1.103h0.93l-0.406-5.452h-17.052
			v1.102c3.247,0,3.769,0.696,3.769,4.814v7.424c0,4.117-0.522,4.872-3.769,4.872v1.102h11.001l1.064-1.798H148.042z"/>
		<path fill="#5F6062" d="M155.292,76.205h-0.871l-0.289,1.044c-0.442,1.625-0.979,2.37-3.646,2.559v1.85h4.459L155.292,76.205z"/>
	</g>
</g>
</svg>
