<svg version="1.1" xmlns="http://www.w3.org/2000/svg" xmlns:xlink="http://www.w3.org/1999/xlink" x="0px" y="0px" viewBox="0 0 512 512" enable-background="new 0 0 512 512" xml:space="preserve"> <path id="currency-dollar-icon" d="M245.928,201.576c-26.987-13.494-24.12-42.729,15.911-44.978
c32.402-1.821,66.144,10.462,86.789,17.485c0,0,12.925-56.687,15.918-69.75c-29.897-9.35-55.788-14.038-81.168-15.781V50h-59.225
v42.012c-65.233,14.239-91.493,62.386-91.493,97.42c0,84.558,101.107,98.352,130.492,111.545
c34.783,14.993,27.338,41.527-2.221,47.978c-33.792,7.374-79.485-7.985-110.803-20.204l-19.595,68.252
c27.656,15.242,65.194,25.543,93.62,27.977V462h59.225v-41.391c53.217-7.485,98.167-40.343,98.088-98.042
C381.466,247.904,301.289,226.614,245.928,201.576z"></path> </svg>