<svg version="1.1" xmlns="http://www.w3.org/2000/svg" xmlns:xlink="http://www.w3.org/1999/xlink" x="0px" y="0px" viewBox="0 0 512 512" enable-background="new 0 0 512 512" xml:space="preserve"> <path id="banknote-multi-2-icon" d="M285.998,229.419c-29.82,0-53.996,24.176-53.996,53.998c0,29.82,24.176,53.996,53.996,53.996
c29.822,0,53.996-24.176,53.996-53.996C339.994,253.595,315.82,229.419,285.998,229.419z M291.365,311.216v6.926h-9.906v-6.195
c-4.756-0.406-11.037-2.129-15.664-4.678l3.277-11.418c5.24,2.041,12.885,4.611,18.539,3.379c4.943-1.08,6.189-5.52,0.369-8.027
c-4.914-2.207-21.83-4.514-21.83-18.66c0-5.861,4.393-13.916,15.309-16.299v-7.027h9.906v6.449c4.246,0.293,8.578,1.076,13.58,2.641
c-0.5,2.184-2.664,11.668-2.664,11.668c-3.453-1.174-9.098-3.229-14.518-2.926c-6.699,0.377-7.178,5.268-2.664,7.525
c9.262,4.188,22.676,7.75,22.676,20.242C307.789,304.468,300.268,309.964,291.365,311.216z M109.998,186.149v194.535H462V186.149
H109.998z M394.377,350.054H177.621c-7.07-14.781-22.229-30.16-36.992-37.639v-57.998c14.764-7.477,29.922-22.857,36.992-37.637
h216.756c7.07,14.779,22.229,30.16,36.992,37.637v57.998C416.605,319.894,401.447,335.272,394.377,350.054z M430.195,131.315v30H80
v185.508H50V131.315H430.195z"></path> </svg>