<svg xmlns="http://www.w3.org/2000/svg" xmlns:xlink="http://www.w3.org/1999/xlink" version="1.1" x="0px" y="0px" width="100px" height="100px" viewBox="0 0 100 100" enable-background="new 0 0 100 100" xml:space="preserve">
<g id="Captions">
</g>
<g id="Your_Icon">
  <path d="M37.039,20.894h26.345l2.408-3.436c1.967-2.965,4.134-5.805,6.009-8.83c0.89-1.437,2.558-3.789,1.901-5.609   c-0.469-1.3-1.669-1.743-2.955-1.969c-0.93-0.163-5.684-1.364-7.603-0.972c-1.703,0.349-3.276,1.157-4.91,1.725   c-2.301,0.8-4.848,1.471-7.372,1.333c-2.181-0.119-4.659-0.398-6.715-1.141c-1.704-0.617-3.35-1.525-5.153-1.834   c-1.557-0.267-7.228,0.519-8.369,0.715c-8.031,1.382-2.192,7.493,4.006,16.582L37.039,20.894z M95.081,69.075   c-6.754-15.562-18.983-32.532-31.794-40.719H36.707c-12.808,8.189-25.035,25.16-31.787,40.719   c-6.77,15.598,1.351,30.924,16.825,30.924h56.511C93.73,99.999,101.851,84.673,95.081,69.075z M52.47,83.203v6.316h-5.029v-5.948   c-3.863-0.122-7.726-1.226-9.935-2.698l1.657-5.765c2.392,1.411,5.826,2.698,9.567,2.698c3.863,0,6.5-1.901,6.5-4.844   c0-2.76-2.147-4.539-6.685-6.194c-6.44-2.331-10.61-5.274-10.61-10.978c0-5.274,3.679-9.321,9.873-10.425v-6.01h5.029v5.703   c3.863,0.123,6.5,1.042,8.463,2.024l-1.655,5.641c-1.473-0.675-4.171-2.085-8.341-2.085c-4.292,0-5.825,2.208-5.825,4.294   c0,2.514,2.208,3.923,7.419,6.009c6.869,2.576,9.936,5.888,9.936,11.345C62.834,77.501,59.216,82.1,52.47,83.203z"></path>
</g>
</svg>