<?xml version="1.0" encoding="utf-8"?>
<!-- Generator: Adobe Illustrator 26.3.1, SVG Export Plug-In . SVG Version: 6.00 Build 0)  -->
<svg version="1.1" id="Layer_1" xmlns="http://www.w3.org/2000/svg" xmlns:xlink="http://www.w3.org/1999/xlink" x="0px" y="0px"
	 viewBox="0 0 25.795 33.802" enable-background="new 0 0 25.795 33.802" xml:space="preserve">
<path fill="#3CB4E5" d="M21.977,2.537h-8.629L7.366,7.334l-2.321,9.407l3.549,4.277h7.211l-1.899,7.706H8.455l0.823-3.336L8.42,24.3
	l-1.541,1.088H2.913l-0.86,3.695l3.691,4.719h8.536l6.18-4.808l5.335-21.636L21.977,2.537z M17.058,15.937h-5.45l2.054-8.322h5.448
	L17.058,15.937z"/>
<path fill="#000000" d="M21.116,1.45h-8.625L6.509,6.246l-2.33,9.449l3.513,4.236h7.256l-1.898,7.706H7.599l0.291-1.181l0.527-2.147l0.003-0.008
	H8.412L7.255,22.85l-1.641,1.451H2.055l-0.91,3.622l3.748,4.791h8.531l6.18-4.807l5.335-21.634L21.116,1.45z M16.2,14.85h-5.448
	l2.052-8.323h5.448L16.2,14.85z"/>
<path fill="#DF3FAF" d="M19.969,0h-8.644L5.342,4.797l-2.339,9.482l3.486,4.202h7.293l-1.9,7.706h-5.45l0.822-3.336H0.89L0,26.458
	l3.76,4.807h8.496l6.18-4.809l5.339-21.649L19.969,0z M15.035,13.4h-5.45l2.053-8.322h5.449L15.035,13.4z"/>
</svg>
