<svg xmlns="http://www.w3.org/2000/svg" version="1" viewBox="0 0 100 93.962">
  <path fill-rule="evenodd" clip-rule="evenodd" d="M50.467 75.79c6.27 4.254 18.05 9.863 33.954 9.347 0 0-8.672-8.548-22.038-11.99C83.86 73.285 100 61.133 100 61.133c-16.856-2.823-30.554.313-39.61 3.813C83.055 49.605 90.287 24.47 90.287 24.47c-16.624 8.36-27.274 19.61-33.862 29.063C58.17 39.618 57.71 20.93 49.72 0c0 0-11.814 23.842-7.982 52.74-6.626-9.282-17.144-20.142-33.304-28.27 0 0 6.93 24.096 28.497 39.5-8.985-3.06-21.66-5.395-36.93-2.838 0 0 15.67 11.8 36.682 12.012-13.372 3.44-22.05 11.992-22.05 11.992 16.065.523 27.636-5.24 33.698-9.273 0 0-1.233 11.032 2.362 18.1l1.673-.312s-3.468-10.28-1.898-17.86z"/>
</svg>
