<?xml version="1.0" encoding="utf-8"?>
<!-- Generator: Adobe Illustrator 23.0.0, SVG Export Plug-In . SVG Version: 6.00 Build 0)  -->
<svg version="1.1" id="Layer_1" xmlns="http://www.w3.org/2000/svg" xmlns:xlink="http://www.w3.org/1999/xlink" x="0px" y="0px"
	 width="100px" height="93.96px" viewBox="0 0 100 93.96" enable-background="new 0 0 100 93.96" xml:space="preserve">
<path fill-rule="evenodd" clip-rule="evenodd" d="M50.47,75.79c6.27,4.25,18.05,9.86,33.95,9.35c0,0-8.67-8.55-22.04-11.99
	C83.86,73.29,100,61.13,100,61.13c-16.86-2.82-30.55,0.31-39.61,3.81c22.67-15.34,29.9-40.48,29.9-40.48
	c-16.62,8.36-27.27,19.61-33.86,29.06c1.74-13.91,1.28-32.6-6.71-53.53c0,0-11.81,23.84-7.98,52.74
	c-6.63-9.28-17.14-20.14-33.3-28.27c0,0,6.93,24.1,28.5,39.5c-8.99-3.06-21.66-5.4-36.93-2.84c0,0,15.67,11.8,36.68,12.01
	c-13.37,3.44-22.05,11.99-22.05,11.99c16.07,0.52,27.64-5.24,33.7-9.27c0,0-1.23,11.03,2.36,18.1l1.67-0.31
	C52.37,93.65,48.9,83.37,50.47,75.79L50.47,75.79z"/>
</svg>
