<?xml version="1.0" encoding="utf-8"?>
<!-- Generator: Adobe Illustrator 23.0.0, SVG Export Plug-In . SVG Version: 6.00 Build 0)  -->
<svg version="1.1" id="Layer_1" xmlns="http://www.w3.org/2000/svg" xmlns:xlink="http://www.w3.org/1999/xlink" x="0px" y="0px"
	 width="412px" height="412px" viewBox="0 0 412 412" enable-background="new 0 0 412 412" xml:space="preserve">
<path id="smiley-icon" d="M206,0C92.23,0,0,92.23,0,206s92.23,206,206,206s206-92.23,206-206S319.77,0,206,0z M272.17,122.74
	c18.83,0,34.1,15.27,34.1,34.1c0,18.83-15.27,34.1-34.1,34.1s-34.1-15.27-34.1-34.1C238.07,138,253.33,122.74,272.17,122.74z
	 M143.83,122.74c18.83,0,34.1,15.27,34.1,34.1c0,18.83-15.27,34.1-34.1,34.1c-18.83,0-34.1-15.27-34.1-34.1
	C109.73,138,125,122.74,143.83,122.74z M208,315.57c-55,0-95.7-36.27-117.84-70.05l9.67-9.67c29.7,23.47,62.33,37.92,108.17,37.92
	c45.83,0,78.47-14.45,108.17-37.92l9.67,9.67C303.7,279.3,263,315.57,208,315.57z"/>
</svg>
