<svg version="1.1" xmlns="http://www.w3.org/2000/svg" xmlns:xlink="http://www.w3.org/1999/xlink" x="0px" y="0px" viewBox="0 0 512 512" enable-background="new 0 0 512 512" xml:space="preserve"> <path id="smiley-icon" d="M256,50C142.229,50,50,142.229,50,256c0,113.771,92.229,206,206,206c113.771,0,206-92.229,206-206
C462,142.229,369.771,50,256,50z M322.167,172.735c18.833,0,34.1,15.268,34.1,34.1c0,18.833-15.267,34.101-34.1,34.101
s-34.101-15.268-34.101-34.101C288.066,188.003,303.334,172.735,322.167,172.735z M193.834,172.735c18.832,0,34.1,15.268,34.1,34.1
c0,18.833-15.268,34.101-34.1,34.101c-18.833,0-34.101-15.268-34.101-34.101C159.733,188.003,175.001,172.735,193.834,172.735z
M258,365.57c-55,0-95.699-36.268-117.837-70.048l9.67-9.67c29.701,23.467,62.334,37.918,108.167,37.918
c45.834,0,78.467-14.451,108.168-37.918l9.67,9.67C353.7,329.303,313,365.57,258,365.57z"></path> </svg>