<svg version="1.1" xmlns="http://www.w3.org/2000/svg" xmlns:xlink="http://www.w3.org/1999/xlink" x="0px" y="0px" viewBox="0 0 512 512" enable-background="new 0 0 512 512" xml:space="preserve"> <path id="audio-6-icon" d="M101.912,160.741h53.249c-22.202,48.31-22.202,143.433,0,191.744h-53.249
c-27.252,0-39.657-16.622-45.934-42.636c-7.719-31.993-8.042-71.663-0.512-104.017C61.589,179.529,73.195,160.741,101.912,160.741z
M462,256.094c0.077,133.567-52.285,213.965-101.802,197.329c-12.891-4.332-159.136-92.793-159.136-92.793
c-33.137-36.926-33.137-171.11,0-208.036c0,0,152.367-91.086,158.81-93.688C404.64,40.823,461.93,122.428,462,256.094z
M399.822,134.243c-17.503-37.66-44.003-37.025-61.177,0.031c-9.793,21.139-16.534,46.543-20.127,73.689h8.762
c26.4,0,47.8,21.41,47.8,47.822c0,26.413-21.399,47.825-47.8,47.825h-8.549c3.612,26.66,10.252,52.324,20.048,74.809
c16.453,37.76,45.026,37.119,61.177-0.037C432.315,303.907,429.41,197.903,399.822,134.243z"></path> </svg>