<svg xmlns="http://www.w3.org/2000/svg" xmlns:xlink="http://www.w3.org/1999/xlink" version="1.1" id="Your_Icon" x="0px" y="0px" width="100px" height="100px" viewBox="0 0 100 100" enable-background="new 0 0 100 100" xml:space="preserve">
<path d="M95.275,47.606c0,0-12.018-1.439-24.521,3.132c-2.938,1.075-5.63,2.387-8.046,3.764c3.061-2.905,6.264-6.449,9.098-10.605  c9.031-13.244,10.898-27.7,10.898-27.7S69.932,23.217,60.9,36.463c-1.902,2.79-3.484,5.632-4.801,8.383  c0.709-3.903,1.188-8.208,1.188-12.732C57.287,14.415,50,0.066,50,0.066s-7.288,14.349-7.288,32.048  c0,4.526,0.478,8.829,1.187,12.733c-1.316-2.752-2.897-5.594-4.8-8.384c-9.032-13.246-21.806-20.266-21.806-20.266  s1.869,14.456,10.899,27.7c2.834,4.157,6.037,7.698,9.098,10.605c-2.416-1.377-5.108-2.689-8.044-3.764  c-12.503-4.572-24.521-3.132-24.521-3.132s8.253,8.854,20.754,13.426c3.283,1.2,6.529,1.983,9.536,2.49  c-1.434,0.171-2.909,0.413-4.409,0.763c-10.17,2.381-17.435,8.496-17.435,8.496s9.224,2.259,19.394-0.122  c3.456-0.808,6.563-2.049,9.177-3.334c-0.049,0.049-0.1,0.094-0.148,0.143c-3.781,3.788-5.288,8.417-5.288,8.417  s4.626-1.517,8.408-5.305c3.166-3.172,4.731-6.819,5.158-7.959L48.482,100h1.517h1.517l-1.389-35.379  c0.427,1.14,1.993,4.839,5.159,8.011c3.781,3.789,8.406,5.277,8.406,5.277s-1.505-4.642-5.288-8.43  c-0.049-0.049-0.1-0.1-0.149-0.148c2.615,1.284,5.723,2.523,9.18,3.332c10.169,2.38,19.393,0.119,19.393,0.119  s-7.264-6.114-17.434-8.495c-1.502-0.352-2.976-0.594-4.409-0.765c3.007-0.507,6.253-1.29,9.535-2.49  C87.022,56.46,95.275,47.606,95.275,47.606z"></path>
</svg>