<?xml version="1.0" encoding="utf-8"?>
<!-- Generator: Adobe Illustrator 22.0.0, SVG Export Plug-In . SVG Version: 6.00 Build 0)  -->
<svg version="1.1" id="Layer_1" xmlns="http://www.w3.org/2000/svg" xmlns:xlink="http://www.w3.org/1999/xlink" x="0px" y="0px"
	 viewBox="0 0 593.6 593.6" style="enable-background:new 0 0 593.6 593.6;" xml:space="preserve">
<path d="M592.1,295.3h-3.2v-3.2c0-0.8-0.7-1.5-1.5-1.5s-1.5,0.7-1.5,1.5v3.2h-3.2h-3.2v-3.2v-3.2h3.2c0.8,0,1.5-0.7,1.5-1.5
	s-0.7-1.5-1.5-1.5h-3.2v-3.2c0-0.8-0.7-1.5-1.5-1.5s-1.5,0.7-1.5,1.5v3.2h-3.2c-0.8,0-1.5,0.7-1.5,1.5s0.7,1.5,1.5,1.5h3.2v3.2v3.2
	h-7.9h-7.9v-7.9v-7.9h3.2h3.2v3.2c0,0.8,0.7,1.5,1.5,1.5s1.5-0.7,1.5-1.5v-3.2h3.2c0.8,0,1.5-0.7,1.5-1.5s-0.7-1.5-1.5-1.5h-3.2
	v-3.2c0-0.8-0.7-1.5-1.5-1.5s-1.5,0.7-1.5,1.5v3.2H564h-3.2v-3.2v-3.2h3.2c0.8,0,1.5-0.7,1.5-1.5s-0.7-1.5-1.5-1.5h-3.2V264
	c0-0.8-0.7-1.5-1.5-1.5s-1.5,0.7-1.5,1.5v3.2h-3.2c-0.8,0-1.5,0.7-1.5,1.5s0.7,1.5,1.5,1.5h3.2v3.2v3.2h-7.9c-0.8,0-1.5,0.7-1.5,1.5
	s0.7,1.5,1.5,1.5h7.9v7.9v7.9h-17.2h-17.2v-17.2v-17.2h7.9h7.9v7.9c0,0.8,0.7,1.5,1.5,1.5s1.5-0.7,1.5-1.5v-7.9h3.2h3.2v3.2
	c0,0.8,0.7,1.5,1.5,1.5s1.5-0.7,1.5-1.5v-3.2h3.2c0.8,0,1.5-0.7,1.5-1.5s-0.7-1.5-1.5-1.5h-3.2v-3.2c0-0.8-0.7-1.5-1.5-1.5
	s-1.5,0.7-1.5,1.5v3.2h-3.2h-3.2v-3.2v-3.2h3.2c0.8,0,1.5-0.7,1.5-1.5s-0.7-1.5-1.5-1.5h-3.2v-3.2c0-0.8-0.7-1.5-1.5-1.5
	s-1.5,0.7-1.5,1.5v3.2h-3.2c-0.8,0-1.5,0.7-1.5,1.5s0.7,1.5,1.5,1.5h3.2v3.2v3.2h-7.9h-7.9v-7.9v-7.9h3.2h3.2v3.2
	c0,0.8,0.7,1.5,1.5,1.5s1.5-0.7,1.5-1.5v-3.2h3.2c0.8,0,1.5-0.7,1.5-1.5s-0.7-1.5-1.5-1.5h-3.2v-3.2c0-0.8-0.7-1.5-1.5-1.5
	s-1.5,0.7-1.5,1.5v3.2h-3.2h-3.2v-3.2v-3.2h3.2c0.8,0,1.5-0.7,1.5-1.5s-0.7-1.5-1.5-1.5h-3.2v-3.2c0-0.8-0.7-1.5-1.5-1.5
	s-1.5,0.7-1.5,1.5v3.2h-3.2c-0.8,0-1.5,0.7-1.5,1.5s0.7,1.5,1.5,1.5h3.2v3.2v3.2h-7.9c-0.8,0-1.5,0.7-1.5,1.5s0.7,1.5,1.5,1.5h7.9
	v7.9v7.9h-17.2c-0.8,0-1.5,0.7-1.5,1.5s0.7,1.5,1.5,1.5h17.2v17.2v17.2h-36h-36v-36v-36h17.2h17.2v17.2c0,0.8,0.7,1.5,1.5,1.5
	s1.5-0.7,1.5-1.5v-17.2h7.9h7.9v7.9c0,0.8,0.7,1.5,1.5,1.5s1.5-0.7,1.5-1.5v-7.9h3.2h3.2v3.2c0,0.8,0.7,1.5,1.5,1.5s1.5-0.7,1.5-1.5
	v-3.2h3.2c0.8,0,1.5-0.7,1.5-1.5s-0.7-1.5-1.5-1.5h-3.2v-3.2c0-0.8-0.7-1.5-1.5-1.5s-1.5,0.7-1.5,1.5v3.2h-3.2h-3.2v-3.2v-3.2h3.2
	c0.8,0,1.5-0.7,1.5-1.5s-0.7-1.5-1.5-1.5h-3.2v-3.2c0-0.8-0.7-1.5-1.5-1.5s-1.5,0.7-1.5,1.5v3.2h-3.2c-0.8,0-1.5,0.7-1.5,1.5
	s0.7,1.5,1.5,1.5h3.2v3.2v3.2h-7.9h-7.9v-7.9v-7.9h3.2h3.2v3.2c0,0.8,0.7,1.5,1.5,1.5s1.5-0.7,1.5-1.5v-3.2h3.2
	c0.8,0,1.5-0.7,1.5-1.5s-0.7-1.5-1.5-1.5h-3.2v-3.2c0-0.8-0.7-1.5-1.5-1.5s-1.5,0.7-1.5,1.5v3.2H489h-3.2v-3.2v-3.2h3.2
	c0.8,0,1.5-0.7,1.5-1.5s-0.7-1.5-1.5-1.5h-3.2V189c0-0.8-0.7-1.5-1.5-1.5s-1.5,0.7-1.5,1.5v3.2h-3.2c-0.8,0-1.5,0.7-1.5,1.5
	s0.7,1.5,1.5,1.5h3.2v3.2v3.2h-7.9c-0.8,0-1.5,0.7-1.5,1.5s0.7,1.5,1.5,1.5h7.9v7.9v7.9h-17.2h-17.2v-17.2v-17.2h7.9h7.9v7.9
	c0,0.8,0.7,1.5,1.5,1.5s1.5-0.7,1.5-1.5v-7.9h3.2h3.2v3.2c0,0.8,0.7,1.5,1.5,1.5s1.5-0.7,1.5-1.5v-3.2h3.2c0.8,0,1.5-0.7,1.5-1.5
	s-0.7-1.5-1.5-1.5h-3.2v-3.2c0-0.8-0.7-1.5-1.5-1.5s-1.5,0.7-1.5,1.5v3.2h-3.2h-3.2v-3.2v-3.2h3.2c0.8,0,1.5-0.7,1.5-1.5
	s-0.7-1.5-1.5-1.5h-3.2v-3.2c0-0.8-0.7-1.5-1.5-1.5s-1.5,0.7-1.5,1.5v3.2h-3.2c-0.8,0-1.5,0.7-1.5,1.5s0.7,1.5,1.5,1.5h3.2v3.2v3.2
	h-7.9h-7.9v-7.9v-7.9h3.2h3.2v3.2c0,0.8,0.7,1.5,1.5,1.5s1.5-0.7,1.5-1.5v-3.2h3.2c0.8,0,1.5-0.7,1.5-1.5s-0.7-1.5-1.5-1.5h-3.2
	v-3.2c0-0.8-0.7-1.5-1.5-1.5s-1.5,0.7-1.5,1.5v3.2h-3.2h-3.2v-3.2v-3.2h3.2c0.8,0,1.5-0.7,1.5-1.5s-0.7-1.5-1.5-1.5h-3.2v-3.2
	c0-0.8-0.7-1.5-1.5-1.5s-1.5,0.7-1.5,1.5v3.2h-3.2c-0.8,0-1.5,0.7-1.5,1.5s0.7,1.5,1.5,1.5h3.2v3.2v3.2h-7.9c-0.8,0-1.5,0.7-1.5,1.5
	s0.7,1.5,1.5,1.5h7.9v7.9v7.9h-17.2c-0.8,0-1.5,0.7-1.5,1.5s0.7,1.5,1.5,1.5h17.2v17.2v17.2h-36c-0.8,0-1.5,0.7-1.5,1.5
	s0.7,1.5,1.5,1.5h36v36v36h-73.5h-73.5v-73.5v-73.5h36h36v36c0,0.8,0.7,1.5,1.5,1.5s1.5-0.7,1.5-1.5v-36h17.2h17.2v17.2
	c0,0.8,0.7,1.5,1.5,1.5s1.5-0.7,1.5-1.5v-17.2h7.9h7.9v7.9c0,0.8,0.7,1.5,1.5,1.5s1.5-0.7,1.5-1.5v-7.9h3.2h3.2v3.2
	c0,0.8,0.7,1.5,1.5,1.5s1.5-0.7,1.5-1.5v-3.2h3.2c0.8,0,1.5-0.7,1.5-1.5s-0.7-1.5-1.5-1.5h-3.2v-3.2c0-0.8-0.7-1.5-1.5-1.5
	s-1.5,0.7-1.5,1.5v3.2h-3.2h-3.2v-3.2v-3.2h3.2c0.8,0,1.5-0.7,1.5-1.5s-0.7-1.5-1.5-1.5h-3.2v-3.2c0-0.8-0.7-1.5-1.5-1.5
	s-1.5,0.7-1.5,1.5v3.2h-3.2c-0.8,0-1.5,0.7-1.5,1.5s0.7,1.5,1.5,1.5h3.2v3.2v3.2h-7.9h-7.9v-7.9v-7.9h3.2h3.2v3.2
	c0,0.8,0.7,1.5,1.5,1.5s1.5-0.7,1.5-1.5v-3.2h3.2c0.8,0,1.5-0.7,1.5-1.5s-0.7-1.5-1.5-1.5h-3.2v-3.2c0-0.8-0.7-1.5-1.5-1.5
	s-1.5,0.7-1.5,1.5v3.2H414h-3.2v-3.2v-3.2h3.2c0.8,0,1.5-0.7,1.5-1.5s-0.7-1.5-1.5-1.5h-3.2V114c0-0.8-0.7-1.5-1.5-1.5
	s-1.5,0.7-1.5,1.5v3.2h-3.2c-0.8,0-1.5,0.7-1.5,1.5s0.7,1.5,1.5,1.5h3.2v3.2v3.2h-7.9c-0.8,0-1.5,0.7-1.5,1.5s0.7,1.5,1.5,1.5h7.9
	v7.9v7.9h-17.2h-17.2v-17.2v-17.2h7.9h7.9v7.9c0,0.8,0.7,1.5,1.5,1.5s1.5-0.7,1.5-1.5v-7.9h3.2h3.2v3.2c0,0.8,0.7,1.5,1.5,1.5
	s1.5-0.7,1.5-1.5v-3.2h3.2c0.8,0,1.5-0.7,1.5-1.5s-0.7-1.5-1.5-1.5h-3.2v-3.2c0-0.8-0.7-1.5-1.5-1.5s-1.5,0.7-1.5,1.5v3.2h-3.2h-3.2
	v-3.2v-3.2h3.2c0.8,0,1.5-0.7,1.5-1.5s-0.7-1.5-1.5-1.5h-3.2v-3.2c0-0.8-0.7-1.5-1.5-1.5s-1.5,0.7-1.5,1.5v3.2h-3.2
	c-0.8,0-1.5,0.7-1.5,1.5s0.7,1.5,1.5,1.5h3.2v3.2v3.2h-7.9h-7.9v-7.9v-7.9h3.2h3.2v3.2c0,0.8,0.7,1.5,1.5,1.5s1.5-0.7,1.5-1.5v-3.2
	h3.2c0.8,0,1.5-0.7,1.5-1.5s-0.7-1.5-1.5-1.5h-3.2v-3.2c0-0.8-0.7-1.5-1.5-1.5s-1.5,0.7-1.5,1.5v3.2h-3.2h-3.2v-3.2v-3.2h3.2
	c0.8,0,1.5-0.7,1.5-1.5s-0.7-1.5-1.5-1.5h-3.2v-3.2c0-0.8-0.7-1.5-1.5-1.5s-1.5,0.7-1.5,1.5v3.2h-3.2c-0.8,0-1.5,0.7-1.5,1.5
	s0.7,1.5,1.5,1.5h3.2v3.2v3.2h-7.9c-0.8,0-1.5,0.7-1.5,1.5s0.7,1.5,1.5,1.5h7.9v7.9v7.9h-17.2c-0.8,0-1.5,0.7-1.5,1.5
	s0.7,1.5,1.5,1.5h17.2v17.2v17.2h-36h-36v-36v-36h17.2h17.2v17.2c0,0.8,0.7,1.5,1.5,1.5s1.5-0.7,1.5-1.5V73.3h7.9h7.9v7.9
	c0,0.8,0.7,1.5,1.5,1.5s1.5-0.7,1.5-1.5v-7.9h3.2h3.2v3.2c0,0.8,0.7,1.5,1.5,1.5s1.5-0.7,1.5-1.5v-3.2h3.2c0.8,0,1.5-0.7,1.5-1.5
	s-0.7-1.5-1.5-1.5h-3.2v-3.2c0-0.8-0.7-1.5-1.5-1.5s-1.5,0.7-1.5,1.5v3.2h-3.2h-3.2v-3.2v-3.2h3.2c0.8,0,1.5-0.7,1.5-1.5
	s-0.7-1.5-1.5-1.5h-3.2v-3.2c0-0.8-0.7-1.5-1.5-1.5s-1.5,0.7-1.5,1.5v3.2h-3.2c-0.8,0-1.5,0.7-1.5,1.5s0.7,1.5,1.5,1.5h3.2v3.2v3.2
	h-7.9h-7.9v-7.9v-7.9h3.2h3.2v3.2c0,0.8,0.7,1.5,1.5,1.5s1.5-0.7,1.5-1.5v-3.2h3.2c0.8,0,1.5-0.7,1.5-1.5s-0.7-1.5-1.5-1.5h-3.2
	v-3.2c0-0.8-0.7-1.5-1.5-1.5s-1.5,0.7-1.5,1.5v3.2H339h-3.2v-3.2v-3.2h3.2c0.8,0,1.5-0.7,1.5-1.5s-0.7-1.5-1.5-1.5h-3.2V39
	c0-0.8-0.7-1.5-1.5-1.5s-1.5,0.7-1.5,1.5v3.2h-3.2c-0.8,0-1.5,0.7-1.5,1.5s0.7,1.5,1.5,1.5h3.2v3.2v3.2h-7.9c-0.8,0-1.5,0.7-1.5,1.5
	s0.7,1.5,1.5,1.5h7.9v7.9v7.9h-17.2h-17.2V53.1V35.8h7.9h7.9v7.9c0,0.8,0.7,1.5,1.5,1.5s1.5-0.7,1.5-1.5v-7.9h3.2h3.2V39
	c0,0.8,0.7,1.5,1.5,1.5s1.5-0.7,1.5-1.5v-3.2h3.2c0.8,0,1.5-0.7,1.5-1.5s-0.7-1.5-1.5-1.5h-3.2v-3.2c0-0.8-0.7-1.5-1.5-1.5
	s-1.5,0.7-1.5,1.5v3.2h-3.2h-3.2v-3.2v-3.2h3.2c0.8,0,1.5-0.7,1.5-1.5s-0.7-1.5-1.5-1.5h-3.2v-3.2c0-0.8-0.7-1.5-1.5-1.5
	s-1.5,0.7-1.5,1.5v3.2h-3.2c-0.8,0-1.5,0.7-1.5,1.5s0.7,1.5,1.5,1.5h3.2v3.2v3.2h-7.9h-7.9v-7.9v-7.9h3.2h3.2v3.2
	c0,0.8,0.7,1.5,1.5,1.5s1.5-0.7,1.5-1.5v-3.2h3.2c0.8,0,1.5-0.7,1.5-1.5s-0.7-1.5-1.5-1.5h-3.2v-3.2c0-0.8-0.7-1.5-1.5-1.5
	s-1.5,0.7-1.5,1.5v3.2h-3.2h-3.2v-3.2V7.7h3.2c0.8,0,1.5-0.7,1.5-1.5s-0.7-1.5-1.5-1.5h-3.2V1.5c0-0.8-0.7-1.5-1.5-1.5
	c-0.8,0-1.5,0.7-1.5,1.5v3.2h-3.2c-0.8,0-1.5,0.7-1.5,1.5s0.7,1.5,1.5,1.5h3.2v3.2v3.2h-3.2h-3.2v-3.2c0-0.8-0.7-1.5-1.5-1.5
	s-1.5,0.7-1.5,1.5v3.2h-3.2c-0.8,0-1.5,0.7-1.5,1.5s0.7,1.5,1.5,1.5h3.2v3.2c0,0.8,0.7,1.5,1.5,1.5s1.5-0.7,1.5-1.5v-3.2h3.2h3.2
	v7.9v7.9h-7.9h-7.9v-3.2v-3.2h3.2c0.8,0,1.5-0.7,1.5-1.5s-0.7-1.5-1.5-1.5h-3.2v-3.2c0-0.8-0.7-1.5-1.5-1.5s-1.5,0.7-1.5,1.5v3.2
	h-3.2c-0.8,0-1.5,0.7-1.5,1.5s0.7,1.5,1.5,1.5h3.2v3.2v3.2h-3.2h-3.2v-3.2c0-0.8-0.7-1.5-1.5-1.5s-1.5,0.7-1.5,1.5v3.2H264
	c-0.8,0-1.5,0.7-1.5,1.5s0.7,1.5,1.5,1.5h3.2V39c0,0.8,0.7,1.5,1.5,1.5s1.5-0.7,1.5-1.5v-3.2h3.2h3.2v7.9c0,0.8,0.7,1.5,1.5,1.5
	s1.5-0.7,1.5-1.5v-7.9h7.9h7.9v17.2v17.2h-17.2h-17.2v-7.9v-7.9h7.9c0.8,0,1.5-0.7,1.5-1.5s-0.7-1.5-1.5-1.5h-7.9v-3.2v-3.2h3.2
	c0.8,0,1.5-0.7,1.5-1.5s-0.7-1.5-1.5-1.5h-3.2V39c0-0.8-0.7-1.5-1.5-1.5s-1.5,0.7-1.5,1.5v3.2h-3.2c-0.8,0-1.5,0.7-1.5,1.5
	s0.7,1.5,1.5,1.5h3.2v3.2v3.2h-3.2h-3.2v-3.2c0-0.8-0.7-1.5-1.5-1.5s-1.5,0.7-1.5,1.5v3.2h-3.2c-0.8,0-1.5,0.7-1.5,1.5
	s0.7,1.5,1.5,1.5h3.2v3.2c0,0.8,0.7,1.5,1.5,1.5s1.5-0.7,1.5-1.5v-3.2h3.2h3.2v7.9v7.9h-7.9h-7.9v-3.2v-3.2h3.2
	c0.8,0,1.5-0.7,1.5-1.5s-0.7-1.5-1.5-1.5h-3.2v-3.2c0-0.8-0.7-1.5-1.5-1.5s-1.5,0.7-1.5,1.5v3.2h-3.2c-0.8,0-1.5,0.7-1.5,1.5
	s0.7,1.5,1.5,1.5h3.2v3.2v3.2h-3.2h-3.2v-3.2c0-0.8-0.7-1.5-1.5-1.5s-1.5,0.7-1.5,1.5v3.2h-3.2c-0.8,0-1.5,0.7-1.5,1.5
	s0.7,1.5,1.5,1.5h3.2v3.2c0,0.8,0.7,1.5,1.5,1.5s1.5-0.7,1.5-1.5v-3.2h3.2h3.2v7.9c0,0.8,0.7,1.5,1.5,1.5s1.5-0.7,1.5-1.5v-7.9h7.9
	h7.9v17.2c0,0.8,0.7,1.5,1.5,1.5s1.5-0.7,1.5-1.5V73.3h17.2h17.2v36v36h-36h-36v-17.2v-17.2h17.2c0.8,0,1.5-0.7,1.5-1.5
	s-0.7-1.5-1.5-1.5h-17.2v-7.9v-7.9h7.9c0.8,0,1.5-0.7,1.5-1.5s-0.7-1.5-1.5-1.5h-7.9v-3.2v-3.2h3.2c0.8,0,1.5-0.7,1.5-1.5
	s-0.7-1.5-1.5-1.5h-3.2v-3.2c0-0.8-0.7-1.5-1.5-1.5s-1.5,0.7-1.5,1.5v3.2h-3.2c-0.8,0-1.5,0.7-1.5,1.5s0.7,1.5,1.5,1.5h3.2v3.2v3.2
	h-3.2h-3.2v-3.2c0-0.8-0.7-1.5-1.5-1.5s-1.5,0.7-1.5,1.5v3.2h-3.2c-0.8,0-1.5,0.7-1.5,1.5s0.7,1.5,1.5,1.5h3.2v3.2
	c0,0.8,0.7,1.5,1.5,1.5s1.5-0.7,1.5-1.5v-3.2h3.2h3.2v7.9v7.9h-7.9h-7.9v-3.2v-3.2h3.2c0.8,0,1.5-0.7,1.5-1.5s-0.7-1.5-1.5-1.5h-3.2
	v-3.2c0-0.8-0.7-1.5-1.5-1.5s-1.5,0.7-1.5,1.5v3.2h-3.2c-0.8,0-1.5,0.7-1.5,1.5s0.7,1.5,1.5,1.5h3.2v3.2v3.2h-3.2h-3.2v-3.2
	c0-0.8-0.7-1.5-1.5-1.5s-1.5,0.7-1.5,1.5v3.2H189c-0.8,0-1.5,0.7-1.5,1.5s0.7,1.5,1.5,1.5h3.2v3.2c0,0.8,0.7,1.5,1.5,1.5
	s1.5-0.7,1.5-1.5v-3.2h3.2h3.2v7.9c0,0.8,0.7,1.5,1.5,1.5s1.5-0.7,1.5-1.5v-7.9h7.9h7.9v17.2v17.2h-17.2h-17.2v-7.9v-7.9h7.9
	c0.8,0,1.5-0.7,1.5-1.5s-0.7-1.5-1.5-1.5h-7.9v-3.2v-3.2h3.2c0.8,0,1.5-0.7,1.5-1.5s-0.7-1.5-1.5-1.5h-3.2V114
	c0-0.8-0.7-1.5-1.5-1.5s-1.5,0.7-1.5,1.5v3.2h-3.2c-0.8,0-1.5,0.7-1.5,1.5s0.7,1.5,1.5,1.5h3.2v3.2v3.2h-3.2h-3.2v-3.2
	c0-0.8-0.7-1.5-1.5-1.5s-1.5,0.7-1.5,1.5v3.2h-3.2c-0.8,0-1.5,0.7-1.5,1.5s0.7,1.5,1.5,1.5h3.2v3.2c0,0.8,0.7,1.5,1.5,1.5
	s1.5-0.7,1.5-1.5v-3.2h3.2h3.2v7.9v7.9h-7.9h-7.9v-3.2v-3.2h3.2c0.8,0,1.5-0.7,1.5-1.5s-0.7-1.5-1.5-1.5h-3.2v-3.2
	c0-0.8-0.7-1.5-1.5-1.5s-1.5,0.7-1.5,1.5v3.2h-3.2c-0.8,0-1.5,0.7-1.5,1.5s0.7,1.5,1.5,1.5h3.2v3.2v3.2h-3.2h-3.2v-3.2
	c0-0.8-0.7-1.5-1.5-1.5s-1.5,0.7-1.5,1.5v3.2h-3.2c-0.8,0-1.5,0.7-1.5,1.5s0.7,1.5,1.5,1.5h3.2v3.2c0,0.8,0.7,1.5,1.5,1.5
	s1.5-0.7,1.5-1.5v-3.2h3.2h3.2v7.9c0,0.8,0.7,1.5,1.5,1.5s1.5-0.7,1.5-1.5v-7.9h7.9h7.9v17.2c0,0.8,0.7,1.5,1.5,1.5s1.5-0.7,1.5-1.5
	v-17.2h17.2h17.2v36c0,0.8,0.7,1.5,1.5,1.5s1.5-0.7,1.5-1.5v-36h36h36v73.5v73.5h-73.5h-73.5v-36v-36h36c0.8,0,1.5-0.7,1.5-1.5
	s-0.7-1.5-1.5-1.5h-36v-17.2v-17.2h17.2c0.8,0,1.5-0.7,1.5-1.5s-0.7-1.5-1.5-1.5h-17.2v-7.9v-7.9h7.9c0.8,0,1.5-0.7,1.5-1.5
	s-0.7-1.5-1.5-1.5h-7.9v-3.2v-3.2h3.2c0.8,0,1.5-0.7,1.5-1.5s-0.7-1.5-1.5-1.5h-3.2v-3.2c0-0.8-0.7-1.5-1.5-1.5s-1.5,0.7-1.5,1.5
	v3.2h-3.2c-0.8,0-1.5,0.7-1.5,1.5s0.7,1.5,1.5,1.5h3.2v3.2v3.2h-3.2h-3.2v-3.2c0-0.8-0.7-1.5-1.5-1.5s-1.5,0.7-1.5,1.5v3.2h-3.2
	c-0.8,0-1.5,0.7-1.5,1.5s0.7,1.5,1.5,1.5h3.2v3.2c0,0.8,0.7,1.5,1.5,1.5s1.5-0.7,1.5-1.5v-3.2h3.2h3.2v7.9v7.9h-7.9h-7.9v-3.2v-3.2
	h3.2c0.8,0,1.5-0.7,1.5-1.5s-0.7-1.5-1.5-1.5h-3.2v-3.2c0-0.8-0.7-1.5-1.5-1.5s-1.5,0.7-1.5,1.5v3.2h-3.2c-0.8,0-1.5,0.7-1.5,1.5
	s0.7,1.5,1.5,1.5h3.2v3.2v3.2h-3.2h-3.2v-3.2c0-0.8-0.7-1.5-1.5-1.5s-1.5,0.7-1.5,1.5v3.2H114c-0.8,0-1.5,0.7-1.5,1.5
	s0.7,1.5,1.5,1.5h3.2v3.2c0,0.8,0.7,1.5,1.5,1.5s1.5-0.7,1.5-1.5v-3.2h3.2h3.2v7.9c0,0.8,0.7,1.5,1.5,1.5s1.5-0.7,1.5-1.5v-7.9h7.9
	h7.9v17.2v17.2h-17.2h-17.2v-7.9v-7.9h7.9c0.8,0,1.5-0.7,1.5-1.5s-0.7-1.5-1.5-1.5h-7.9v-3.2v-3.2h3.2c0.8,0,1.5-0.7,1.5-1.5
	s-0.7-1.5-1.5-1.5h-3.2V189c0-0.8-0.7-1.5-1.5-1.5s-1.5,0.7-1.5,1.5v3.2h-3.2c-0.8,0-1.5,0.7-1.5,1.5s0.7,1.5,1.5,1.5h3.2v3.2v3.2
	h-3.2h-3.2v-3.2c0-0.8-0.7-1.5-1.5-1.5s-1.5,0.7-1.5,1.5v3.2h-3.2c-0.8,0-1.5,0.7-1.5,1.5s0.7,1.5,1.5,1.5h3.2v3.2
	c0,0.8,0.7,1.5,1.5,1.5s1.5-0.7,1.5-1.5v-3.2h3.2h3.2v7.9v7.9h-7.9h-7.9v-3.2v-3.2h3.2c0.8,0,1.5-0.7,1.5-1.5s-0.7-1.5-1.5-1.5h-3.2
	v-3.2c0-0.8-0.7-1.5-1.5-1.5s-1.5,0.7-1.5,1.5v3.2h-3.2c-0.8,0-1.5,0.7-1.5,1.5s0.7,1.5,1.5,1.5h3.2v3.2v3.2h-3.2h-3.2v-3.2
	c0-0.8-0.7-1.5-1.5-1.5s-1.5,0.7-1.5,1.5v3.2h-3.2c-0.8,0-1.5,0.7-1.5,1.5s0.7,1.5,1.5,1.5h3.2v3.2c0,0.8,0.7,1.5,1.5,1.5
	s1.5-0.7,1.5-1.5v-3.2h3.2h3.2v7.9c0,0.8,0.7,1.5,1.5,1.5s1.5-0.7,1.5-1.5v-7.9h7.9h7.9v17.2c0,0.8,0.7,1.5,1.5,1.5s1.5-0.7,1.5-1.5
	v-17.2h17.2h17.2v36v36h-36h-36v-17.2v-17.2h17.2c0.8,0,1.5-0.7,1.5-1.5s-0.7-1.5-1.5-1.5H73.3v-7.9v-7.9h7.9c0.8,0,1.5-0.7,1.5-1.5
	s-0.7-1.5-1.5-1.5h-7.9v-3.2v-3.2h3.2c0.8,0,1.5-0.7,1.5-1.5s-0.7-1.5-1.5-1.5h-3.2v-3.2c0-0.8-0.7-1.5-1.5-1.5s-1.5,0.7-1.5,1.5
	v3.2h-3.2c-0.8,0-1.5,0.7-1.5,1.5s0.7,1.5,1.5,1.5h3.2v3.2v3.2h-3.2h-3.2v-3.2c0-0.8-0.7-1.5-1.5-1.5s-1.5,0.7-1.5,1.5v3.2h-3.2
	c-0.8,0-1.5,0.7-1.5,1.5s0.7,1.5,1.5,1.5h3.2v3.2c0,0.8,0.7,1.5,1.5,1.5s1.5-0.7,1.5-1.5v-3.2h3.2h3.2v7.9v7.9h-7.9h-7.9v-3.2v-3.2
	h3.2c0.8,0,1.5-0.7,1.5-1.5s-0.7-1.5-1.5-1.5h-3.2v-3.2c0-0.8-0.7-1.5-1.5-1.5s-1.5,0.7-1.5,1.5v3.2h-3.2c-0.8,0-1.5,0.7-1.5,1.5
	s0.7,1.5,1.5,1.5h3.2v3.2v3.2h-3.2h-3.2v-3.2c0-0.8-0.7-1.5-1.5-1.5s-1.5,0.7-1.5,1.5v3.2H39c-0.8,0-1.5,0.7-1.5,1.5
	s0.7,1.5,1.5,1.5h3.2v3.2c0,0.8,0.7,1.5,1.5,1.5s1.5-0.7,1.5-1.5v-3.2h3.2h3.2v7.9c0,0.8,0.7,1.5,1.5,1.5s1.5-0.7,1.5-1.5v-7.9h7.9
	h7.9v17.2v17.2H53.1H35.8v-7.9v-7.9h7.9c0.8,0,1.5-0.7,1.5-1.5s-0.7-1.5-1.5-1.5h-7.9v-3.2v-3.2H39c0.8,0,1.5-0.7,1.5-1.5
	s-0.7-1.5-1.5-1.5h-3.2V264c0-0.8-0.7-1.5-1.5-1.5s-1.5,0.7-1.5,1.5v3.2h-3.2c-0.8,0-1.5,0.7-1.5,1.5s0.7,1.5,1.5,1.5h3.2v3.2v3.2
	h-3.2h-3.2v-3.2c0-0.8-0.7-1.5-1.5-1.5s-1.5,0.7-1.5,1.5v3.2h-3.2c-0.8,0-1.5,0.7-1.5,1.5s0.7,1.5,1.5,1.5h3.2v3.2
	c0,0.8,0.7,1.5,1.5,1.5s1.5-0.7,1.5-1.5v-3.2h3.2h3.2v7.9v7.9h-7.9h-7.9v-3.2v-3.2h3.2c0.8,0,1.5-0.7,1.5-1.5s-0.7-1.5-1.5-1.5h-3.2
	v-3.2c0-0.8-0.7-1.5-1.5-1.5s-1.5,0.7-1.5,1.5v3.2h-3.2c-0.8,0-1.5,0.7-1.5,1.5s0.7,1.5,1.5,1.5h3.2v3.2v3.2h-3.2H7.7l0-3.2
	c0-0.8-0.7-1.5-1.5-1.5c0,0,0,0,0,0c-0.8,0-1.5,0.7-1.5,1.5l0,3.2H1.5c-0.8,0-1.5,0.7-1.5,1.5c0,0.8,0.7,1.5,1.5,1.5h3.2v3.2
	c0,0.8,0.7,1.5,1.5,1.5s1.5-0.7,1.5-1.5v-3.2h3.2h3.2v3.2v3.2h-3.2c-0.8,0-1.5,0.7-1.5,1.5s0.7,1.5,1.5,1.5h3.2v3.2
	c0,0.8,0.7,1.5,1.5,1.5s1.5-0.7,1.5-1.5v-3.2h3.2c0.8,0,1.5-0.7,1.5-1.5s-0.7-1.5-1.5-1.5h-3.2v-3.2v-3.2h7.9h7.9v7.9v7.9h-3.2h-3.2
	v-3.2c0-0.8-0.7-1.5-1.5-1.5s-1.5,0.7-1.5,1.5v3.2h-3.2c-0.8,0-1.5,0.7-1.5,1.5s0.7,1.5,1.5,1.5h3.2v3.2c0,0.8,0.7,1.5,1.5,1.5
	s1.5-0.7,1.5-1.5v-3.2h3.2h3.2v3.2v3.2h-3.2c-0.8,0-1.5,0.7-1.5,1.5s0.7,1.5,1.5,1.5h3.2v3.2c0,0.8,0.7,1.5,1.5,1.5s1.5-0.7,1.5-1.5
	v-3.2H39c0.8,0,1.5-0.7,1.5-1.5s-0.7-1.5-1.5-1.5h-3.2v-3.2v-3.2h7.9c0.8,0,1.5-0.7,1.5-1.5s-0.7-1.5-1.5-1.5h-7.9v-7.9v-7.9h17.2
	h17.2v17.2v17.2h-7.9h-7.9v-7.9c0-0.8-0.7-1.5-1.5-1.5s-1.5,0.7-1.5,1.5v7.9h-3.2h-3.2v-3.2c0-0.8-0.7-1.5-1.5-1.5s-1.5,0.7-1.5,1.5
	v3.2H39c-0.8,0-1.5,0.7-1.5,1.5s0.7,1.5,1.5,1.5h3.2v3.2c0,0.8,0.7,1.5,1.5,1.5s1.5-0.7,1.5-1.5v-3.2h3.2h3.2v3.2v3.2h-3.2
	c-0.8,0-1.5,0.7-1.5,1.5s0.7,1.5,1.5,1.5h3.2v3.2c0,0.8,0.7,1.5,1.5,1.5s1.5-0.7,1.5-1.5v-3.2h3.2c0.8,0,1.5-0.7,1.5-1.5
	s-0.7-1.5-1.5-1.5h-3.2V339v-3.2h7.9h7.9v7.9v7.9h-3.2h-3.2v-3.2c0-0.8-0.7-1.5-1.5-1.5s-1.5,0.7-1.5,1.5v3.2h-3.2
	c-0.8,0-1.5,0.7-1.5,1.5s0.7,1.5,1.5,1.5h3.2v3.2c0,0.8,0.7,1.5,1.5,1.5s1.5-0.7,1.5-1.5v-3.2h3.2h3.2v3.2v3.2h-3.2
	c-0.8,0-1.5,0.7-1.5,1.5s0.7,1.5,1.5,1.5h3.2v3.2c0,0.8,0.7,1.5,1.5,1.5s1.5-0.7,1.5-1.5v-3.2h3.2c0.8,0,1.5-0.7,1.5-1.5
	s-0.7-1.5-1.5-1.5h-3.2v-3.2v-3.2h7.9c0.8,0,1.5-0.7,1.5-1.5s-0.7-1.5-1.5-1.5h-7.9v-7.9v-7.9h17.2c0.8,0,1.5-0.7,1.5-1.5
	s-0.7-1.5-1.5-1.5H73.3v-17.2v-17.2h36h36v36v36h-17.2h-17.2v-17.2c0-0.8-0.7-1.5-1.5-1.5s-1.5,0.7-1.5,1.5v17.2h-7.9h-7.9v-7.9
	c0-0.8-0.7-1.5-1.5-1.5s-1.5,0.7-1.5,1.5v7.9h-3.2h-3.2v-3.2c0-0.8-0.7-1.5-1.5-1.5s-1.5,0.7-1.5,1.5v3.2h-3.2
	c-0.8,0-1.5,0.7-1.5,1.5s0.7,1.5,1.5,1.5h3.2v3.2c0,0.8,0.7,1.5,1.5,1.5s1.5-0.7,1.5-1.5v-3.2h3.2h3.2v3.2v3.2h-3.2
	c-0.8,0-1.5,0.7-1.5,1.5s0.7,1.5,1.5,1.5h3.2v3.2c0,0.8,0.7,1.5,1.5,1.5s1.5-0.7,1.5-1.5v-3.2h3.2c0.8,0,1.5-0.7,1.5-1.5
	s-0.7-1.5-1.5-1.5h-3.2v-3.2v-3.2h7.9h7.9v7.9v7.9h-3.2h-3.2v-3.2c0-0.8-0.7-1.5-1.5-1.5s-1.5,0.7-1.5,1.5v3.2h-3.2
	c-0.8,0-1.5,0.7-1.5,1.5s0.7,1.5,1.5,1.5h3.2v3.2c0,0.8,0.7,1.5,1.5,1.5s1.5-0.7,1.5-1.5v-3.2h3.2h3.2v3.2v3.2h-3.2
	c-0.8,0-1.5,0.7-1.5,1.5s0.7,1.5,1.5,1.5h3.2v3.2c0,0.8,0.7,1.5,1.5,1.5s1.5-0.7,1.5-1.5v-3.2h3.2c0.8,0,1.5-0.7,1.5-1.5
	s-0.7-1.5-1.5-1.5h-3.2v-3.2v-3.2h7.9c0.8,0,1.5-0.7,1.5-1.5s-0.7-1.5-1.5-1.5h-7.9v-7.9v-7.9h17.2h17.2v17.2v17.2h-7.9h-7.9v-7.9
	c0-0.8-0.7-1.5-1.5-1.5s-1.5,0.7-1.5,1.5v7.9h-3.2h-3.2v-3.2c0-0.8-0.7-1.5-1.5-1.5s-1.5,0.7-1.5,1.5v3.2H114
	c-0.8,0-1.5,0.7-1.5,1.5s0.7,1.5,1.5,1.5h3.2v3.2c0,0.8,0.7,1.5,1.5,1.5s1.5-0.7,1.5-1.5v-3.2h3.2h3.2v3.2v3.2h-3.2
	c-0.8,0-1.5,0.7-1.5,1.5s0.7,1.5,1.5,1.5h3.2v3.2c0,0.8,0.7,1.5,1.5,1.5s1.5-0.7,1.5-1.5v-3.2h3.2c0.8,0,1.5-0.7,1.5-1.5
	s-0.7-1.5-1.5-1.5h-3.2V414v-3.2h7.9h7.9v7.9v7.9h-3.2h-3.2v-3.2c0-0.8-0.7-1.5-1.5-1.5s-1.5,0.7-1.5,1.5v3.2h-3.2
	c-0.8,0-1.5,0.7-1.5,1.5s0.7,1.5,1.5,1.5h3.2v3.2c0,0.8,0.7,1.5,1.5,1.5s1.5-0.7,1.5-1.5v-3.2h3.2h3.2v3.2v3.2h-3.2
	c-0.8,0-1.5,0.7-1.5,1.5s0.7,1.5,1.5,1.5h3.2v3.2c0,0.8,0.7,1.5,1.5,1.5s1.5-0.7,1.5-1.5v-3.2h3.2c0.8,0,1.5-0.7,1.5-1.5
	s-0.7-1.5-1.5-1.5h-3.2v-3.2v-3.2h7.9c0.8,0,1.5-0.7,1.5-1.5s-0.7-1.5-1.5-1.5h-7.9v-7.9v-7.9h17.2c0.8,0,1.5-0.7,1.5-1.5
	s-0.7-1.5-1.5-1.5h-17.2v-17.2v-17.2h36c0.8,0,1.5-0.7,1.5-1.5s-0.7-1.5-1.5-1.5h-36v-36v-36h73.5h73.5v73.5v73.5h-36h-36v-36
	c0-0.8-0.7-1.5-1.5-1.5s-1.5,0.7-1.5,1.5v36h-17.2h-17.2v-17.2c0-0.8-0.7-1.5-1.5-1.5s-1.5,0.7-1.5,1.5v17.2h-7.9h-7.9v-7.9
	c0-0.8-0.7-1.5-1.5-1.5s-1.5,0.7-1.5,1.5v7.9h-3.2h-3.2v-3.2c0-0.8-0.7-1.5-1.5-1.5s-1.5,0.7-1.5,1.5v3.2h-3.2
	c-0.8,0-1.5,0.7-1.5,1.5s0.7,1.5,1.5,1.5h3.2v3.2c0,0.8,0.7,1.5,1.5,1.5s1.5-0.7,1.5-1.5v-3.2h3.2h3.2v3.2v3.2h-3.2
	c-0.8,0-1.5,0.7-1.5,1.5s0.7,1.5,1.5,1.5h3.2v3.2c0,0.8,0.7,1.5,1.5,1.5s1.5-0.7,1.5-1.5v-3.2h3.2c0.8,0,1.5-0.7,1.5-1.5
	s-0.7-1.5-1.5-1.5h-3.2v-3.2v-3.2h7.9h7.9v7.9v7.9h-3.2h-3.2v-3.2c0-0.8-0.7-1.5-1.5-1.5s-1.5,0.7-1.5,1.5v3.2h-3.2
	c-0.8,0-1.5,0.7-1.5,1.5s0.7,1.5,1.5,1.5h3.2v3.2c0,0.8,0.7,1.5,1.5,1.5s1.5-0.7,1.5-1.5v-3.2h3.2h3.2v3.2v3.2h-3.2
	c-0.8,0-1.5,0.7-1.5,1.5s0.7,1.5,1.5,1.5h3.2v3.2c0,0.8,0.7,1.5,1.5,1.5s1.5-0.7,1.5-1.5v-3.2h3.2c0.8,0,1.5-0.7,1.5-1.5
	s-0.7-1.5-1.5-1.5h-3.2v-3.2v-3.2h7.9c0.8,0,1.5-0.7,1.5-1.5s-0.7-1.5-1.5-1.5h-7.9v-7.9v-7.9h17.2h17.2v17.2v17.2h-7.9h-7.9v-7.9
	c0-0.8-0.7-1.5-1.5-1.5s-1.5,0.7-1.5,1.5v7.9h-3.2h-3.2v-3.2c0-0.8-0.7-1.5-1.5-1.5s-1.5,0.7-1.5,1.5v3.2H189
	c-0.8,0-1.5,0.7-1.5,1.5s0.7,1.5,1.5,1.5h3.2v3.2c0,0.8,0.7,1.5,1.5,1.5s1.5-0.7,1.5-1.5v-3.2h3.2h3.2v3.2v3.2h-3.2
	c-0.8,0-1.5,0.7-1.5,1.5s0.7,1.5,1.5,1.5h3.2v3.2c0,0.8,0.7,1.5,1.5,1.5s1.5-0.7,1.5-1.5v-3.2h3.2c0.8,0,1.5-0.7,1.5-1.5
	s-0.7-1.5-1.5-1.5h-3.2V489v-3.2h7.9h7.9v7.9v7.9h-3.2h-3.2v-3.2c0-0.8-0.7-1.5-1.5-1.5s-1.5,0.7-1.5,1.5v3.2h-3.2
	c-0.8,0-1.5,0.7-1.5,1.5s0.7,1.5,1.5,1.5h3.2v3.2c0,0.8,0.7,1.5,1.5,1.5s1.5-0.7,1.5-1.5v-3.2h3.2h3.2v3.2v3.2h-3.2
	c-0.8,0-1.5,0.7-1.5,1.5s0.7,1.5,1.5,1.5h3.2v3.2c0,0.8,0.7,1.5,1.5,1.5s1.5-0.7,1.5-1.5v-3.2h3.2c0.8,0,1.5-0.7,1.5-1.5
	s-0.7-1.5-1.5-1.5h-3.2v-3.2v-3.2h7.9c0.8,0,1.5-0.7,1.5-1.5s-0.7-1.5-1.5-1.5h-7.9v-7.9v-7.9h17.2c0.8,0,1.5-0.7,1.5-1.5
	s-0.7-1.5-1.5-1.5h-17.2v-17.2v-17.2h36h36v36v36h-17.2h-17.2v-17.2c0-0.8-0.7-1.5-1.5-1.5s-1.5,0.7-1.5,1.5v17.2h-7.9h-7.9v-7.9
	c0-0.8-0.7-1.5-1.5-1.5s-1.5,0.7-1.5,1.5v7.9h-3.2h-3.2v-3.2c0-0.8-0.7-1.5-1.5-1.5s-1.5,0.7-1.5,1.5v3.2h-3.2
	c-0.8,0-1.5,0.7-1.5,1.5s0.7,1.5,1.5,1.5h3.2v3.2c0,0.8,0.7,1.5,1.5,1.5s1.5-0.7,1.5-1.5v-3.2h3.2h3.2v3.2v3.2h-3.2
	c-0.8,0-1.5,0.7-1.5,1.5s0.7,1.5,1.5,1.5h3.2v3.2c0,0.8,0.7,1.5,1.5,1.5s1.5-0.7,1.5-1.5v-3.2h3.2c0.8,0,1.5-0.7,1.5-1.5
	s-0.7-1.5-1.5-1.5h-3.2v-3.2v-3.2h7.9h7.9v7.9v7.9h-3.2h-3.2v-3.2c0-0.8-0.7-1.5-1.5-1.5s-1.5,0.7-1.5,1.5v3.2h-3.2
	c-0.8,0-1.5,0.7-1.5,1.5s0.7,1.5,1.5,1.5h3.2v3.2c0,0.8,0.7,1.5,1.5,1.5s1.5-0.7,1.5-1.5v-3.2h3.2h3.2v3.2v3.2h-3.2
	c-0.8,0-1.5,0.7-1.5,1.5s0.7,1.5,1.5,1.5h3.2v3.2c0,0.8,0.7,1.5,1.5,1.5s1.5-0.7,1.5-1.5v-3.2h3.2c0.8,0,1.5-0.7,1.5-1.5
	s-0.7-1.5-1.5-1.5h-3.2v-3.2v-3.2h7.9c0.8,0,1.5-0.7,1.5-1.5s-0.7-1.5-1.5-1.5h-7.9v-7.9v-7.9h17.2h17.2v17.2v17.2h-7.9h-7.9v-7.9
	c0-0.8-0.7-1.5-1.5-1.5s-1.5,0.7-1.5,1.5v7.9h-3.2h-3.2v-3.2c0-0.8-0.7-1.5-1.5-1.5s-1.5,0.7-1.5,1.5v3.2H264
	c-0.8,0-1.5,0.7-1.5,1.5s0.7,1.5,1.5,1.5h3.2v3.2c0,0.8,0.7,1.5,1.5,1.5s1.5-0.7,1.5-1.5v-3.2h3.2h3.2v3.2v3.2h-3.2
	c-0.8,0-1.5,0.7-1.5,1.5s0.7,1.5,1.5,1.5h3.2v3.2c0,0.8,0.7,1.5,1.5,1.5s1.5-0.7,1.5-1.5v-3.2h3.2c0.8,0,1.5-0.7,1.5-1.5
	s-0.7-1.5-1.5-1.5h-3.2V564v-3.2h7.9h7.9v7.9v7.9h-3.2h-3.2v-3.2c0-0.8-0.7-1.5-1.5-1.5s-1.5,0.7-1.5,1.5v3.2h-3.2
	c-0.8,0-1.5,0.7-1.5,1.5s0.7,1.5,1.5,1.5h3.2v3.2c0,0.8,0.7,1.5,1.5,1.5s1.5-0.7,1.5-1.5v-3.2h3.2h3.2v3.2v3.2h-3.2
	c-0.8,0-1.5,0.7-1.5,1.5s0.7,1.5,1.5,1.5h3.2v3.2c0,0.8,0.7,1.5,1.5,1.5c0.8,0,1.5-0.7,1.5-1.5v-3.2h3.2c0.8,0,1.5-0.7,1.5-1.5
	s-0.7-1.5-1.5-1.5h-3.2v-3.2v-3.2h3.2h3.2v3.2c0,0.8,0.7,1.5,1.5,1.5s1.5-0.7,1.5-1.5v-3.2h3.2c0.8,0,1.5-0.7,1.5-1.5
	s-0.7-1.5-1.5-1.5h-3.2v-3.2c0-0.8-0.7-1.5-1.5-1.5s-1.5,0.7-1.5,1.5v3.2h-3.2h-3.2v-7.9v-7.9h7.9h7.9v3.2v3.2h-3.2
	c-0.8,0-1.5,0.7-1.5,1.5s0.7,1.5,1.5,1.5h3.2v3.2c0,0.8,0.7,1.5,1.5,1.5s1.5-0.7,1.5-1.5v-3.2h3.2c0.8,0,1.5-0.7,1.5-1.5
	s-0.7-1.5-1.5-1.5h-3.2V564v-3.2h3.2h3.2v3.2c0,0.8,0.7,1.5,1.5,1.5s1.5-0.7,1.5-1.5v-3.2h3.2c0.8,0,1.5-0.7,1.5-1.5
	s-0.7-1.5-1.5-1.5h-3.2v-3.2c0-0.8-0.7-1.5-1.5-1.5s-1.5,0.7-1.5,1.5v3.2h-3.2h-3.2v-7.9c0-0.8-0.7-1.5-1.5-1.5s-1.5,0.7-1.5,1.5
	v7.9h-7.9h-7.9v-17.2v-17.2h17.2h17.2v7.9v7.9h-7.9c-0.8,0-1.5,0.7-1.5,1.5s0.7,1.5,1.5,1.5h7.9v3.2v3.2h-3.2
	c-0.8,0-1.5,0.7-1.5,1.5s0.7,1.5,1.5,1.5h3.2v3.2c0,0.8,0.7,1.5,1.5,1.5s1.5-0.7,1.5-1.5v-3.2h3.2c0.8,0,1.5-0.7,1.5-1.5
	s-0.7-1.5-1.5-1.5h-3.2v-3.2v-3.2h3.2h3.2v3.2c0,0.8,0.7,1.5,1.5,1.5s1.5-0.7,1.5-1.5v-3.2h3.2c0.8,0,1.5-0.7,1.5-1.5
	s-0.7-1.5-1.5-1.5h-3.2v-3.2c0-0.8-0.7-1.5-1.5-1.5s-1.5,0.7-1.5,1.5v3.2H339h-3.2v-7.9v-7.9h7.9h7.9v3.2v3.2h-3.2
	c-0.8,0-1.5,0.7-1.5,1.5s0.7,1.5,1.5,1.5h3.2v3.2c0,0.8,0.7,1.5,1.5,1.5s1.5-0.7,1.5-1.5v-3.2h3.2c0.8,0,1.5-0.7,1.5-1.5
	s-0.7-1.5-1.5-1.5h-3.2v-3.2v-3.2h3.2h3.2v3.2c0,0.8,0.7,1.5,1.5,1.5s1.5-0.7,1.5-1.5v-3.2h3.2c0.8,0,1.5-0.7,1.5-1.5
	s-0.7-1.5-1.5-1.5h-3.2v-3.2c0-0.8-0.7-1.5-1.5-1.5s-1.5,0.7-1.5,1.5v3.2h-3.2h-3.2v-7.9c0-0.8-0.7-1.5-1.5-1.5s-1.5,0.7-1.5,1.5
	v7.9h-7.9h-7.9v-17.2c0-0.8-0.7-1.5-1.5-1.5s-1.5,0.7-1.5,1.5v17.2h-17.2h-17.2v-36v-36h36h36v17.2v17.2h-17.2
	c-0.8,0-1.5,0.7-1.5,1.5s0.7,1.5,1.5,1.5h17.2v7.9v7.9h-7.9c-0.8,0-1.5,0.7-1.5,1.5s0.7,1.5,1.5,1.5h7.9v3.2v3.2h-3.2
	c-0.8,0-1.5,0.7-1.5,1.5s0.7,1.5,1.5,1.5h3.2v3.2c0,0.8,0.7,1.5,1.5,1.5s1.5-0.7,1.5-1.5v-3.2h3.2c0.8,0,1.5-0.7,1.5-1.5
	s-0.7-1.5-1.5-1.5h-3.2v-3.2v-3.2h3.2h3.2v3.2c0,0.8,0.7,1.5,1.5,1.5s1.5-0.7,1.5-1.5v-3.2h3.2c0.8,0,1.5-0.7,1.5-1.5
	s-0.7-1.5-1.5-1.5h-3.2v-3.2c0-0.8-0.7-1.5-1.5-1.5s-1.5,0.7-1.5,1.5v3.2h-3.2h-3.2v-7.9v-7.9h7.9h7.9v3.2v3.2h-3.2
	c-0.8,0-1.5,0.7-1.5,1.5s0.7,1.5,1.5,1.5h3.2v3.2c0,0.8,0.7,1.5,1.5,1.5s1.5-0.7,1.5-1.5v-3.2h3.2c0.8,0,1.5-0.7,1.5-1.5
	s-0.7-1.5-1.5-1.5h-3.2V489v-3.2h3.2h3.2v3.2c0,0.8,0.7,1.5,1.5,1.5s1.5-0.7,1.5-1.5v-3.2h3.2c0.8,0,1.5-0.7,1.5-1.5
	s-0.7-1.5-1.5-1.5h-3.2v-3.2c0-0.8-0.7-1.5-1.5-1.5s-1.5,0.7-1.5,1.5v3.2h-3.2h-3.2v-7.9c0-0.8-0.7-1.5-1.5-1.5s-1.5,0.7-1.5,1.5
	v7.9h-7.9h-7.9v-17.2v-17.2h17.2h17.2v7.9v7.9h-7.9c-0.8,0-1.5,0.7-1.5,1.5s0.7,1.5,1.5,1.5h7.9v3.2v3.2h-3.2
	c-0.8,0-1.5,0.7-1.5,1.5s0.7,1.5,1.5,1.5h3.2v3.2c0,0.8,0.7,1.5,1.5,1.5s1.5-0.7,1.5-1.5v-3.2h3.2c0.8,0,1.5-0.7,1.5-1.5
	s-0.7-1.5-1.5-1.5h-3.2v-3.2v-3.2h3.2h3.2v3.2c0,0.8,0.7,1.5,1.5,1.5s1.5-0.7,1.5-1.5v-3.2h3.2c0.8,0,1.5-0.7,1.5-1.5
	s-0.7-1.5-1.5-1.5h-3.2v-3.2c0-0.8-0.7-1.5-1.5-1.5s-1.5,0.7-1.5,1.5v3.2H414h-3.2v-7.9v-7.9h7.9h7.9v3.2v3.2h-3.2
	c-0.8,0-1.5,0.7-1.5,1.5s0.7,1.5,1.5,1.5h3.2v3.2c0,0.8,0.7,1.5,1.5,1.5s1.5-0.7,1.5-1.5v-3.2h3.2c0.8,0,1.5-0.7,1.5-1.5
	s-0.7-1.5-1.5-1.5h-3.2v-3.2v-3.2h3.2h3.2v3.2c0,0.8,0.7,1.5,1.5,1.5s1.5-0.7,1.5-1.5v-3.2h3.2c0.8,0,1.5-0.7,1.5-1.5
	s-0.7-1.5-1.5-1.5h-3.2v-3.2c0-0.8-0.7-1.5-1.5-1.5s-1.5,0.7-1.5,1.5v3.2h-3.2h-3.2v-7.9c0-0.8-0.7-1.5-1.5-1.5s-1.5,0.7-1.5,1.5
	v7.9h-7.9h-7.9v-17.2c0-0.8-0.7-1.5-1.5-1.5s-1.5,0.7-1.5,1.5v17.2h-17.2h-17.2v-36c0-0.8-0.7-1.5-1.5-1.5s-1.5,0.7-1.5,1.5v36h-36
	h-36v-73.5v-73.5h73.5h73.5v36v36h-36c-0.8,0-1.5,0.7-1.5,1.5s0.7,1.5,1.5,1.5h36v17.2v17.2h-17.2c-0.8,0-1.5,0.7-1.5,1.5
	s0.7,1.5,1.5,1.5h17.2v7.9v7.9h-7.9c-0.8,0-1.5,0.7-1.5,1.5s0.7,1.5,1.5,1.5h7.9v3.2v3.2h-3.2c-0.8,0-1.5,0.7-1.5,1.5
	s0.7,1.5,1.5,1.5h3.2v3.2c0,0.8,0.7,1.5,1.5,1.5s1.5-0.7,1.5-1.5v-3.2h3.2c0.8,0,1.5-0.7,1.5-1.5s-0.7-1.5-1.5-1.5h-3.2v-3.2v-3.2
	h3.2h3.2v3.2c0,0.8,0.7,1.5,1.5,1.5s1.5-0.7,1.5-1.5v-3.2h3.2c0.8,0,1.5-0.7,1.5-1.5s-0.7-1.5-1.5-1.5h-3.2v-3.2
	c0-0.8-0.7-1.5-1.5-1.5s-1.5,0.7-1.5,1.5v3.2h-3.2h-3.2v-7.9v-7.9h7.9h7.9v3.2v3.2h-3.2c-0.8,0-1.5,0.7-1.5,1.5s0.7,1.5,1.5,1.5h3.2
	v3.2c0,0.8,0.7,1.5,1.5,1.5s1.5-0.7,1.5-1.5v-3.2h3.2c0.8,0,1.5-0.7,1.5-1.5s-0.7-1.5-1.5-1.5h-3.2V414v-3.2h3.2h3.2v3.2
	c0,0.8,0.7,1.5,1.5,1.5s1.5-0.7,1.5-1.5v-3.2h3.2c0.8,0,1.5-0.7,1.5-1.5s-0.7-1.5-1.5-1.5h-3.2v-3.2c0-0.8-0.7-1.5-1.5-1.5
	s-1.5,0.7-1.5,1.5v3.2h-3.2h-3.2v-7.9c0-0.8-0.7-1.5-1.5-1.5s-1.5,0.7-1.5,1.5v7.9h-7.9h-7.9v-17.2v-17.2h17.2h17.2v7.9v7.9h-7.9
	c-0.8,0-1.5,0.7-1.5,1.5s0.7,1.5,1.5,1.5h7.9v3.2v3.2h-3.2c-0.8,0-1.5,0.7-1.5,1.5s0.7,1.5,1.5,1.5h3.2v3.2c0,0.8,0.7,1.5,1.5,1.5
	s1.5-0.7,1.5-1.5v-3.2h3.2c0.8,0,1.5-0.7,1.5-1.5s-0.7-1.5-1.5-1.5h-3.2v-3.2v-3.2h3.2h3.2v3.2c0,0.8,0.7,1.5,1.5,1.5
	s1.5-0.7,1.5-1.5v-3.2h3.2c0.8,0,1.5-0.7,1.5-1.5s-0.7-1.5-1.5-1.5h-3.2v-3.2c0-0.8-0.7-1.5-1.5-1.5s-1.5,0.7-1.5,1.5v3.2H489h-3.2
	v-7.9v-7.9h7.9h7.9v3.2v3.2h-3.2c-0.8,0-1.5,0.7-1.5,1.5s0.7,1.5,1.5,1.5h3.2v3.2c0,0.8,0.7,1.5,1.5,1.5s1.5-0.7,1.5-1.5v-3.2h3.2
	c0.8,0,1.5-0.7,1.5-1.5s-0.7-1.5-1.5-1.5h-3.2v-3.2v-3.2h3.2h3.2v3.2c0,0.8,0.7,1.5,1.5,1.5s1.5-0.7,1.5-1.5v-3.2h3.2
	c0.8,0,1.5-0.7,1.5-1.5s-0.7-1.5-1.5-1.5h-3.2v-3.2c0-0.8-0.7-1.5-1.5-1.5s-1.5,0.7-1.5,1.5v3.2h-3.2h-3.2v-7.9
	c0-0.8-0.7-1.5-1.5-1.5s-1.5,0.7-1.5,1.5v7.9h-7.9h-7.9v-17.2c0-0.8-0.7-1.5-1.5-1.5s-1.5,0.7-1.5,1.5v17.2h-17.2h-17.2v-36v-36h36
	h36v17.2v17.2h-17.2c-0.8,0-1.5,0.7-1.5,1.5s0.7,1.5,1.5,1.5h17.2v7.9v7.9h-7.9c-0.8,0-1.5,0.7-1.5,1.5s0.7,1.5,1.5,1.5h7.9v3.2v3.2
	h-3.2c-0.8,0-1.5,0.7-1.5,1.5s0.7,1.5,1.5,1.5h3.2v3.2c0,0.8,0.7,1.5,1.5,1.5s1.5-0.7,1.5-1.5v-3.2h3.2c0.8,0,1.5-0.7,1.5-1.5
	s-0.7-1.5-1.5-1.5h-3.2v-3.2v-3.2h3.2h3.2v3.2c0,0.8,0.7,1.5,1.5,1.5s1.5-0.7,1.5-1.5v-3.2h3.2c0.8,0,1.5-0.7,1.5-1.5
	s-0.7-1.5-1.5-1.5h-3.2v-3.2c0-0.8-0.7-1.5-1.5-1.5s-1.5,0.7-1.5,1.5v3.2h-3.2h-3.2v-7.9v-7.9h7.9h7.9v3.2v3.2h-3.2
	c-0.8,0-1.5,0.7-1.5,1.5s0.7,1.5,1.5,1.5h3.2v3.2c0,0.8,0.7,1.5,1.5,1.5s1.5-0.7,1.5-1.5v-3.2h3.2c0.8,0,1.5-0.7,1.5-1.5
	s-0.7-1.5-1.5-1.5h-3.2V339v-3.2h3.2h3.2v3.2c0,0.8,0.7,1.5,1.5,1.5s1.5-0.7,1.5-1.5v-3.2h3.2c0.8,0,1.5-0.7,1.5-1.5
	s-0.7-1.5-1.5-1.5h-3.2v-3.2c0-0.8-0.7-1.5-1.5-1.5s-1.5,0.7-1.5,1.5v3.2h-3.2h-3.2v-7.9c0-0.8-0.7-1.5-1.5-1.5s-1.5,0.7-1.5,1.5
	v7.9h-7.9h-7.9v-17.2v-17.2h17.2h17.2v7.9v7.9h-7.9c-0.8,0-1.5,0.7-1.5,1.5s0.7,1.5,1.5,1.5h7.9v3.2v3.2h-3.2
	c-0.8,0-1.5,0.7-1.5,1.5s0.7,1.5,1.5,1.5h3.2v3.2c0,0.8,0.7,1.5,1.5,1.5s1.5-0.7,1.5-1.5v-3.2h3.2c0.8,0,1.5-0.7,1.5-1.5
	s-0.7-1.5-1.5-1.5h-3.2v-3.2v-3.2h3.2h3.2v3.2c0,0.8,0.7,1.5,1.5,1.5s1.5-0.7,1.5-1.5v-3.2h3.2c0.8,0,1.5-0.7,1.5-1.5
	s-0.7-1.5-1.5-1.5h-3.2v-3.2c0-0.8-0.7-1.5-1.5-1.5s-1.5,0.7-1.5,1.5v3.2H564h-3.2v-7.9v-7.9h7.9h7.9v3.2v3.2h-3.2
	c-0.8,0-1.5,0.7-1.5,1.5s0.7,1.5,1.5,1.5h3.2v3.2c0,0.8,0.7,1.5,1.5,1.5s1.5-0.7,1.5-1.5v-3.2h3.2c0.8,0,1.5-0.7,1.5-1.5
	s-0.7-1.5-1.5-1.5h-3.2v-3.2v-3.2h3.2h3.2v3.2c0,0.8,0.7,1.5,1.5,1.5s1.5-0.7,1.5-1.5v-3.2h3.2c0.8,0,1.5-0.7,1.5-1.5
	C593.6,296,592.9,295.3,592.1,295.3z"/>
</svg>
