<?xml version="1.0" encoding="utf-8"?>
<!DOCTYPE svg PUBLIC "-//W3C//DTD SVG 1.1//EN" "http://www.w3.org/Graphics/SVG/1.1/DTD/svg11.dtd">
<svg version="1.1" id="Layer_1" xmlns="http://www.w3.org/2000/svg" xmlns:xlink="http://www.w3.org/1999/xlink" x="0px" y="0px"
	 width="676.14px" height="780.74px" viewBox="0 0 676.14 780.74" enable-background="new 0 0 676.14 780.74" xml:space="preserve">
<g>
	<g>
		<path d="M466.37,528.52H192.45l145.62,252.22l145.62-252.22H466.37z M227.091,548.52H449.05L338.07,740.74L227.091,548.52z"/>
	</g>
	<g>
		<path d="M530.52,333.33l-8.66,15L384.9,585.56h291.24L530.52,333.33z M530.521,373.331L641.5,565.56H419.541L530.521,373.331z"/>
	</g>
	<g>
		<path d="M384.9,195.18l8.66,15l136.96,237.23l145.62-252.23H384.9z M419.541,215.18H641.5L530.52,407.409L419.541,215.18z"/>
	</g>
	<g>
		<path d="M338.07,0L192.45,252.22h17.32h273.921L338.07,0z M449.049,232.22H227.091L338.07,40L449.049,232.22z"/>
	</g>
	<g>
		<path d="M0,195.18l145.62,252.23l8.66-15l136.96-237.23H0z M256.6,215.18L145.62,407.41L34.64,215.18H256.6z"/>
	</g>
	<g>
		<path d="M282.581,570.56L145.62,333.329L0,585.56h291.24L282.581,570.56z M145.62,373.331L256.6,565.56H34.64L145.62,373.331z"/>
	</g>
	<g>
		<path d="M128.299,269.26L338.07,632.589l8.66-14.999l201.111-348.33H128.299z M513.2,289.26L338.07,592.591L162.941,289.26H513.2z
			"/>
	</g>
</g>
</svg>
